<?xml version="1.0" standalone="no"?>
<!DOCTYPE svg PUBLIC "-//W3C//DTD SVG 1.1//EN" "http://www.w3.org/Graphics/SVG/1.1/DTD/svg11.dtd" >
<svg xmlns="http://www.w3.org/2000/svg">
<metadata></metadata>
<defs>
<font id="woodford_bourneitalic" horiz-adv-x="1447" >
<font-face units-per-em="2048" ascent="1638" descent="-410" />
<missing-glyph horiz-adv-x="393" />
<glyph unicode="&#xfb01;" horiz-adv-x="991" d="M469 1071l-33 -205h460q12 0 20 -9t6 -21l-4 -29l-124 -778q-2 -12 -12 -20.5t-23 -8.5h-110q-12 0 -20.5 8.5t-6.5 20.5l111 698h-319l-161 -1012q-5 -31 -35 -31h-111q-13 0 -20.5 8.5t-5.5 22.5l161 1012h-101q-12 0 -19 9t-5 21l12 79q2 12 12 21t22 9h101l34 213v2 q15 91 45 158t67.5 107t89.5 64t104 32t118 8q148 0 236 -62q25 -17 7 -42l-58 -69q-19 -23 -40 -10q-26 19 -71.5 31.5t-84.5 12.5q-124 0 -172 -51.5t-70 -188.5z" />
<glyph unicode="&#xfb02;" horiz-adv-x="1081" d="M1080 1450q12 0 20 -10t6 -23l-220 -1386q-2 -13 -13 -22t-23 -9h-112q-12 0 -19 9t-5 22l172 1089q9 56 -3.5 87.5t-74.5 69.5v1q-55 33 -116 33q-102 0 -152 -54t-71 -184l-33 -207h185q12 0 20 -9t6 -21l-13 -79q-2 -12 -12.5 -21t-22.5 -9h-185l-160 -1012 q-5 -31 -36 -31h-110q-13 0 -20.5 8.5t-5.5 22.5l160 1012h-101q-12 0 -19 9t-5 21l12 79q2 12 12 21t22 9h101l33 206v2l1 5v2q16 98 50 168.5t72.5 108.5t92.5 59.5t96.5 27t98.5 5.5q78 0 136 -23q33 -12 55.5 -11t40.5 20l1 -1q10 15 26 15h113z" />
<glyph horiz-adv-x="0" />
<glyph horiz-adv-x="682" />
<glyph unicode=" "  horiz-adv-x="393" />
<glyph unicode="&#x09;" horiz-adv-x="393" />
<glyph unicode="&#xa0;" horiz-adv-x="393" />
<glyph unicode="!" horiz-adv-x="423" d="M169 315q-33 0 -28 31l132 1073q5 31 37 31h126q11 0 21 -8.5t7 -22.5l-209 -1073q-6 -31 -37 -31h-49zM81 -16q-33 0 -28 30l21 133q4 30 38 30h119q33 0 28 -30l-21 -133q-4 -30 -38 -30h-119z" />
<glyph unicode="&#x22;" horiz-adv-x="632" d="M187 959q-30 0 -28 31l26 436q2 31 37 31h123q16 0 24 -8t4 -23l-112 -436q-8 -31 -38 -31h-36zM439 959q-30 0 -28 31l25 436q2 31 38 31h123q16 0 24 -8t4 -23l-113 -436q-8 -31 -37 -31h-36z" />
<glyph unicode="#" horiz-adv-x="1165" d="M1104 1103q14 0 23.5 -8.5t9.5 -22.5v-79q0 -14 -9.5 -22t-23.5 -8h-117l-71 -397h91q14 0 23.5 -8.5t9.5 -22.5v-78q0 -14 -9.5 -22.5t-23.5 -8.5h-116l-71 -395q-3 -14 -15 -22.5t-28 -8.5h-78q-20 0 -27 13.5t-3 31.5l68 381h-321l-71 -395q-3 -14 -15 -22.5t-28 -8.5 h-77q-20 0 -27 14t-4 31l68 381h-97q-32 0 -32 31v78q0 31 32 31h122l71 397h-97q-33 0 -33 30v79q0 31 33 31h122l56 316q6 31 41 31h92q29 0 22 -37l-56 -310h319l57 316q6 31 41 31h91q30 0 23 -37l-56 -310h91zM762 566l70 397h-319l-71 -397h320z" />
<glyph unicode="$" horiz-adv-x="1282" d="M1150 1175q-121 99 -272 116l-78 -495q66 -17 114.5 -33t110 -48.5t97.5 -72.5t56 -104.5t7 -143.5q-8 -51 -30.5 -101.5t-64.5 -102.5t-99 -93.5t-139.5 -71t-179.5 -38.5l-18 -114q-2 -12 -12 -20.5t-23 -8.5h-112q-12 0 -20.5 8.5t-6.5 20.5l19 115q-250 25 -388 190 q-6 8 -4 19.5t10 21.5l73 75q22 24 45 7l17 -18q18 -18 39.5 -35t54.5 -38.5t79.5 -39t98.5 -25.5l82 523q-194 59 -283 150t-65 239q10 61 41 121t85.5 117t144 97.5t200.5 52.5l18 109q2 15 13 25t23 10h112q13 0 20 -10t5 -25l-17 -107q230 -19 364 -142q19 -16 -5 -45 l-72 -81q-17 -23 -40 -4zM439 1067q-12 -78 37.5 -131t157.5 -92l70 443q-108 -20 -180 -79t-85 -141zM1005 394q8 50 -6 87.5t-50.5 64t-76.5 43t-100 33.5l-75 -477q49 8 95 25t92.5 45.5t79 74.5t41.5 104z" />
<glyph unicode="%" horiz-adv-x="1847" d="M407 516q-312 0 -238 467q75 467 386 467q309 0 234 -467q-74 -467 -382 -467zM581 0q-21 0 -29.5 14.5t-0.5 30.5l694 1358q15 31 41 31h82q16 0 23.5 -10.5t-0.5 -26.5l-698 -1366q-15 -31 -43 -31h-69zM428 649q163 0 216 336q14 99 12.5 173t-32 116.5t-90.5 42.5 q-166 0 -219 -332q-53 -336 113 -336zM1393 31q-312 0 -238 467q75 467 386 467q310 0 235 -467q-74 -467 -383 -467zM1414 164q164 0 217 335q53 333 -111 333q-166 0 -219 -333q-53 -335 113 -335z" />
<glyph unicode="&#x26;" horiz-adv-x="1312" d="M1220 584q13 -23 -11 -41q-101 -69 -236 -204q85 -88 222 -219q8 -12 5.5 -23t-10.5 -18l-72 -67q-28 -24 -46 -4q-103 96 -212 211q-216 -235 -439 -235q-83 0 -153 26.5t-119.5 75.5t-71 125.5t-6.5 170.5q20 124 98 219t237 199q-108 196 -88 324q23 145 128.5 235.5 t230.5 90.5q126 0 199 -89.5t50 -231.5q-9 -58 -42.5 -115t-83 -103t-94 -79.5t-94.5 -62.5q98 -146 262 -325q116 115 255 216q24 16 42 -4zM488 1129q-18 -97 57 -246q191 113 212 246q12 74 -16 127t-87 53q-64 0 -109 -52.5t-57 -127.5zM446 131q74 0 151 49.5 t166 143.5q-178 197 -289 365q-203 -130 -231 -307q-17 -112 43.5 -181.5t159.5 -69.5z" />
<glyph unicode="'" horiz-adv-x="380" d="M256 959q-30 0 -28 31l25 436q2 31 38 31h123q16 0 24 -8t4 -23l-113 -436q-8 -31 -37 -31h-36z" />
<glyph unicode="(" horiz-adv-x="651" d="M343 -213q-25 -11 -40 6q-103 177 -143 418.5t1 499.5q41 259 155.5 499t263.5 394q25 24 51 10l65 -39q13 -6 15.5 -17.5t-6.5 -25.5q-153 -171 -244 -392.5t-119 -430.5q-23 -135 -25 -266.5t28.5 -287.5t98.5 -285q3 -9 -3 -21t-17 -16z" />
<glyph unicode=")" horiz-adv-x="653" d="M395 1615q25 11 40 -6q103 -177 143.5 -418.5t-0.5 -499.5t-156 -498t-264 -395q-25 -24 -51 -10l-64 39q-13 6 -16 17.5t6 25.5q153 171 244 392.5t119 430.5q23 135 25 266.5t-28.5 287.5t-98.5 285q-3 9 3 21t17 16z" />
<glyph unicode="*" horiz-adv-x="739" d="M737 1221q8 -30 -16 -35l-205 -34h-1l149 -145q8 -12 5 -22t-13 -17l-63 -45q-9 -6 -21 -4t-18 12l-92 183l-89 -184q-6 -10 -18 -12.5t-21 3.5l-65 45q-10 6 -12.5 16.5t4.5 22.5l147 148l-1 1l-205 32q-24 5 -16 35l23 72q3 10 13.5 16t21.5 3l183 -95l1 1q2 0 2 1 l-35 202q-1 13 7 21t21 8h77q12 0 21 -7t8 -20l-33 -205v-1l182 93q12 4 23 -1.5t14 -16.5z" />
<glyph unicode="+" horiz-adv-x="1073" d="M960 770q33 0 33 -30v-77q0 -31 -33 -31h-301v-310q0 -32 -31 -32h-98q-30 0 -30 32v310h-302q-33 0 -33 31v77q0 30 33 30h302v310q0 33 30 33h98q31 0 31 -33v-310h301z" />
<glyph unicode="," horiz-adv-x="397" d="M211 196q33 0 28 -31l-21 -134q-2 -8 -6 -14l-132 -228h-44q-10 0 -15.5 7.5t0.5 24.5l89 179h-64q-33 0 -28 31l21 134q5 31 38 31h134z" />
<glyph unicode="-" horiz-adv-x="782" d="M159 494q-33 0 -28 31l12 77q5 31 38 31h484q33 0 28 -31l-12 -77q-5 -31 -37 -31h-485z" />
<glyph unicode="." horiz-adv-x="397" d="M46 0q-33 0 -28 31l21 134q5 31 38 31h134q33 0 28 -31l-21 -134q-3 -15 -15 -23t-23 -8h-134z" />
<glyph unicode="/" horiz-adv-x="870" d="M156 0h-84q-21 0 -27.5 15t3.5 30l789 1358q17 31 46 31h98q15 0 20 -11t-3 -26l-794 -1366q-19 -31 -48 -31z" />
<glyph unicode="0" horiz-adv-x="1204" d="M532 -16q-486 0 -370 733t603 733q483 0 367 -733t-600 -733zM556 135q306 0 398 584q92 580 -213 580q-309 0 -401 -580q-92 -584 216 -584z" />
<glyph unicode="1" horiz-adv-x="1011" d="M853 148q12 0 20 -9.5t6 -21.5l-14 -88q-2 -12 -12.5 -20.5t-22.5 -8.5h-435h-316q-12 0 -20 8.5t-6 20.5l13 88q2 12 13 21.5t23 9.5h286l172 1086l-261 -168q-19 -13 -34 -5t-13 25l16 96q3 18 35 39l305 204q14 9 34 9h101q12 0 19 -9.5t5 -21.5l-199 -1255h285z" />
<glyph unicode="2" horiz-adv-x="1191" d="M1128 1042q-8 -48 -28.5 -96t-45 -82.5t-48 -62t-38.5 -41.5l-16 -13l-622 -595h669q12 0 20 -9.5t6 -21.5l-15 -92q-2 -12 -12.5 -20.5t-22.5 -8.5h-893q-12 0 -20 8.5t-6 20.5l11 69q1 10 11 20v1l646 628q95 86 153.5 158.5t68.5 136.5q20 125 -40.5 190.5 t-174.5 66.5q-65 0 -119.5 -16t-89.5 -39.5t-62.5 -55t-42 -58t-23.5 -54.5q-8 -24 -32 -24h-117q-13 0 -21 9t-5 22q17 54 43.5 103t71.5 98.5t102 85t139.5 58t179.5 22.5h1h1q91 0 161.5 -22t113.5 -59.5t70 -89t30.5 -111.5t-4.5 -126z" />
<glyph unicode="3" horiz-adv-x="1191" d="M1143 1069q-11 -72 -37.5 -131t-61 -97.5t-65 -61.5t-62.5 -39q20 -8 38.5 -19t41 -31t37.5 -44.5t28.5 -60.5t14 -80t-6.5 -101q-10 -63 -32.5 -120t-65.5 -113t-102.5 -96.5t-148 -65.5t-196.5 -25h-1h-1q-120 0 -209.5 31.5t-137 84t-66 114.5t-8.5 129q5 35 37 35 h116q10 0 18.5 -6t6.5 -18q-16 -105 54.5 -161.5t211.5 -57.5q143 1 234 70.5t112 198.5q12 78 -6 130.5t-65.5 78.5t-105 36t-140.5 10h-85q-12 0 -20.5 8t-6.5 20l15 94q2 12 13 20.5t23 8.5h85q76 0 133.5 11.5t107.5 39t81 78.5t43 125q37 233 -233 235 q-138 -1 -229 -60.5t-107 -158.5q-2 -12 -12.5 -18.5t-20.5 -6.5h-116q-30 0 -25 35q11 69 49 131.5t102 114.5t163 83t220 31h1h1q87 0 155 -16.5t110.5 -44t72.5 -64.5t40 -79.5t14 -87.5t-6 -89z" />
<glyph unicode="4" horiz-adv-x="1269" d="M1126 455q12 0 20 -8.5t6 -20.5l-15 -94q-2 -12 -12.5 -20.5t-22.5 -8.5h-126l-43 -272q-2 -12 -12 -21.5t-22 -9.5h-121q-12 0 -20 9.5t-6 21.5l44 272h-669q-12 0 -20 8.5t-6 20.5l13 87q2 10 7 15l793 982q11 18 36 18h176q12 0 19 -9.5t5 -21.5l-150 -948h126z M820 455l122 775l-623 -775h501z" />
<glyph unicode="5" horiz-adv-x="1191" d="M1117 1434q12 0 20 -8.5t6 -20.5l-15 -94q-2 -12 -12.5 -20.5t-22.5 -8.5h-577l-143 -452q79 47 168 70t173 21.5t158.5 -32t126.5 -84.5t74.5 -142.5t5.5 -198.5q-12 -73 -37 -139t-71 -129.5t-107.5 -109t-152.5 -74t-200 -28.5h-1h-1q-106 0 -191 34.5t-133 88 t-70 115.5t-13 121q5 35 37 35h100q10 0 17.5 -7t7.5 -17q0 -29 16.5 -65.5t47.5 -72t85 -60t119 -24.5q149 1 247 88.5t122 240.5q16 100 -9.5 172t-81.5 105.5t-129 39t-158 -23.5t-163 -86q-8 -4 -18 -5.5t-16 -0.5h-6l-126 26q-25 6 -18 30l218 687q9 29 35 29h688z" />
<glyph unicode="6" horiz-adv-x="1191" d="M769 1450q81 0 148 -23t110 -59.5t72 -83.5t40 -94.5t8 -93.5q-1 -10 -2.5 -16t-7.5 -11.5t-18 -5.5h-122q-25 0 -29 25q-5 28 -12.5 53.5t-24.5 55.5t-40.5 51.5t-63 36t-88.5 14.5q-132 0 -244 -146.5t-159 -398.5q65 83 158.5 135.5t211.5 52.5q187 0 296.5 -135 t78.5 -333q-33 -208 -188 -349t-355 -141q-290 0 -366 238q-61 178 -19 443q32 204 94.5 357.5t144.5 245.5t176.5 137t200.5 45zM677 796q-127 0 -226.5 -86.5t-122.5 -228.5q-6 -51 -7.5 -100.5t14.5 -94t43.5 -78t78.5 -53.5t121 -20q120 0 211 92.5t114 235.5 q12 77 -2 141t-47 105.5t-79 64t-98 22.5z" />
<glyph unicode="7" horiz-adv-x="1132" d="M1210 1432q13 -4 16.5 -16.5t-4.5 -26.5l-838 -1360q-24 -29 -54 -29h-107q-17 0 -23.5 15t3.5 28l763 1239h-686q-12 0 -19 8.5t-5 20.5l14 90q2 14 12 23.5t22 9.5h898q4 0 8 -2z" />
<glyph unicode="8" horiz-adv-x="1191" d="M1138 1081q-18 -111 -87.5 -202.5t-172.5 -139.5q100 -51 153 -148t35 -213q-26 -162 -176 -278t-366 -116q-211 0 -326.5 116t-89.5 280q19 117 105 213.5t204 146.5q-89 49 -134.5 140.5t-28.5 202.5q25 158 160.5 262.5t339.5 104.5q208 0 309 -104t75 -265zM961 1074 q16 101 -43 163t-182 62q-122 0 -205.5 -60.5t-99.5 -164.5q-16 -105 47 -169.5t177 -89.5q121 25 205 89t101 170zM887 380q18 117 -53.5 194t-193.5 109q-87 -20 -159.5 -57t-127.5 -101t-67 -143q-13 -79 21 -136t97 -84t147 -27q130 0 224 65t112 180z" />
<glyph unicode="9" horiz-adv-x="1191" d="M1126 1204q10 -28 16 -72.5t2.5 -160.5t-26.5 -264q-30 -188 -88.5 -329t-139 -226t-175.5 -126.5t-205 -41.5q-82 0 -150.5 24t-113 62.5t-73.5 86.5t-39 96.5t-3 92.5q3 19 9 27t19 8h121q29 0 29 -25q0 -30 13.5 -66.5t38.5 -72t69 -59t97 -23.5q163 0 258 119 t148 367q-116 -126 -340 -126q-143 0 -240.5 65.5t-135 170.5t-17.5 231q24 149 107.5 262t198.5 169.5t243 56.5q154 0 249 -65t128 -181zM619 644q126 0 225 79.5t124 238.5q25 158 -41.5 248.5t-204.5 90.5q-55 0 -106.5 -17t-101 -54t-85.5 -106t-51 -162 q-22 -141 51.5 -229.5t189.5 -88.5z" />
<glyph unicode=":" horiz-adv-x="438" d="M193 686q-33 0 -28 31l22 134q5 31 37 31h134q33 0 28 -31l-21 -134q-3 -15 -15 -23t-23 -8h-134zM84 0q-32 0 -27 31l21 134q5 31 38 31h133q33 0 28 -31l-21 -134q-3 -15 -15 -23t-23 -8h-134z" />
<glyph unicode=";" horiz-adv-x="403" d="M324 887q32 0 28 -30l-21 -135q-3 -15 -15 -23t-23 -8h-134q-33 0 -28 31l22 135q5 30 37 30h134zM215 196q33 0 28 -31l-22 -134q-2 -10 -5 -14l-132 -228h-45q-10 0 -15 7.5t1 24.5l89 179h-64q-33 0 -28 31l21 134q5 31 38 31h134z" />
<glyph unicode="&#x3c;" horiz-adv-x="1144" d="M1006 442q28 -13 18 -41l-29 -71q-12 -29 -43 -17l-811 337q-26 12 -24 30v73q-3 19 24 31l811 338q32 13 43 -17l27 -71q10 -28 -18 -41l-660 -275z" />
<glyph unicode="=" horiz-adv-x="1052" d="M194 816q-32 0 -32 31v77q0 31 32 31h751q33 0 33 -31v-77q0 -31 -33 -31h-751zM194 468q-32 0 -32 31v77q0 31 32 31h751q33 0 33 -31v-77q0 -31 -33 -31h-751z" />
<glyph unicode="&#x3e;" horiz-adv-x="1144" d="M1028 680q2 -18 -24 -30l-811 -337q-31 -12 -43 17l-30 71q-10 28 19 41l662 276l-660 275q-29 13 -19 41l28 71q11 30 43 17l811 -338q27 -12 24 -31v-73z" />
<glyph unicode="?" horiz-adv-x="999" d="M678 1450q71 0 128.5 -16.5t95.5 -45.5t65.5 -68t38 -83.5t14.5 -92.5t-6 -96q-13 -82 -39.5 -147.5t-65.5 -112.5t-78 -78.5t-90 -60.5q-67 -40 -112 -80t-68 -79.5t-33 -69t-16 -68.5q-4 -29 -31 -29h-115q-30 0 -25 29q9 58 21 98.5t36.5 88t68 89.5t108.5 83 q78 48 129.5 91.5t77.5 85t36.5 72.5t17.5 76q22 138 -30.5 200t-153.5 63q-126 -1 -206 -86.5t-103 -233.5q-2 -12 -12.5 -18t-20.5 -6h-115q-30 0 -25 35q34 211 163 335t343 125h1h1zM460 177q32 0 28 -30l-21 -133q-5 -30 -38 -30h-119q-32 0 -28 30l21 133q5 30 38 30 h119z" />
<glyph unicode="@" horiz-adv-x="1785" d="M1414 1173q162 0 238.5 -78.5t52.5 -228.5l-97 -614q-21 -136 -106 -203.5t-203 -67.5q-91 0 -135 29.5t-69 95.5q-119 -122 -298 -122q-79 0 -142 23.5t-103 65t-65.5 98.5t-29 124.5t6.5 141.5q31 196 157.5 321t319.5 125q151 0 234 -86l33 37q30 32 54 32h68 q12 0 19 -9.5t5 -22.5l-98 -616q-8 -48 11 -73t54 -25q97 0 119 143l95 603q12 77 -24 122.5t-119 45.5h-472q-109 0 -209.5 -38.5t-184.5 -112.5t-144.5 -190.5t-83.5 -262.5q-34 -212 42 -387q6 -13 -3 -28t-27 -15h-110q-20 0 -34.5 13t-19.5 30q-50 186 -18 387 q27 179 103 321.5t185 234t243 139.5t283 48h472zM826 121q75 0 126.5 19.5t84 62t50.5 96.5t31 136q17 103 9.5 172t-56 103t-146.5 34q-116 0 -193.5 -78t-101.5 -231q-24 -150 27 -232t169 -82z" />
<glyph unicode="A" d="M1296 41q4 -15 -8 -28t-27 -13h-117q-20 0 -23 20l-73 282h-693l-161 -284q-11 -18 -30 -18h-117q-14 0 -21 12t2 31l798 1389q12 18 30 18h37h16q19 0 22 -18zM442 453h567l-177 683z" />
<glyph unicode="B" horiz-adv-x="1267" d="M1201 1045q-29 -185 -195 -301q85 -44 124.5 -131t21.5 -205q-27 -167 -157 -286.5t-282 -121.5h-1h-514h-90q-12 0 -20 9.5t-6 21.5l217 1372q2 12 13 21.5t23 9.5h121h442h1q159 -1 245 -106t57 -283zM1020 1039q18 113 -36.5 178t-149.5 65h-374l-77 -490h378 q90 0 165 63.5t94 183.5zM972 413q9 58 -1.5 102t-31 67t-50.5 38t-52 19t-43 5h-119h-316l-78 -492h415q92 0 175 73.5t101 187.5z" />
<glyph unicode="C" horiz-adv-x="1466" d="M749 -16q-149 0 -276 59t-209 157.5t-118.5 234t-13.5 282.5q31 197 155.5 365.5t309.5 268t385 99.5q160 0 292.5 -65.5t206.5 -186.5q12 -21 -8 -39l-85 -74q-10 -9 -23.5 -8.5t-19.5 10.5q-48 87 -153 149.5t-234 62.5q-148 0 -288.5 -79t-236 -213t-120.5 -290 q-24 -151 29.5 -285.5t169 -215.5t261.5 -81q134 0 260.5 65t209.5 163q10 11 23.5 12t21.5 -8l60 -68q18 -20 -4 -42q-122 -131 -277 -202t-318 -71z" />
<glyph unicode="D" horiz-adv-x="1359" d="M809 1433q128 -3 232.5 -54t174 -141.5t96.5 -225.5t1 -297q-34 -212 -144.5 -375.5t-265.5 -250t-330 -89.5h-410h-55q-12 0 -20 9.5t-6 21.5l217 1372q2 12 13 21.5t23 9.5h121h353v-1zM1133 715q21 136 1 241.5t-72 178t-128 110t-168 37.5h-306l-179 -1130h306 q92 0 180 38t162.5 108t128.5 178t75 239z" />
<glyph unicode="E" horiz-adv-x="1116" d="M1137 1434q12 0 19 -9.5t5 -21.5l-14 -90q-2 -12 -12 -21.5t-22 -9.5h-653l-77 -490h450q12 0 20 -8.5t6 -20.5l-15 -94q-1 -12 -12 -20.5t-23 -8.5h-450l-78 -488h655q12 0 20 -9.5t6 -21.5l-14 -90q-2 -12 -13 -21.5t-23 -9.5h-729h-75q-12 0 -20 9.5t-6 21.5l217 1372 q2 12 13 21.5t23 9.5h121h681z" />
<glyph unicode="F" horiz-adv-x="1075" d="M1115 1434q12 0 20 -9.5t6 -21.5l-14 -90q-2 -12 -13 -21.5t-23 -9.5h-631l-84 -534h448q12 0 20 -8t6 -20l-15 -94q-2 -12 -12.5 -20.5t-22.5 -8.5h-448l-90 -566q-2 -12 -11.5 -21.5t-21.5 -9.5h-121q-12 0 -20 9.5t-6 21.5l217 1372q2 12 13 21.5t23 9.5h121h659z" />
<glyph unicode="G" horiz-adv-x="1521" d="M1490 1220q14 -21 -10 -41l-88 -75q-22 -18 -37 2q-16 22 -45.5 49.5t-80 62.5t-124 58t-153.5 23q-105 0 -211.5 -45t-194 -121.5t-150.5 -185.5t-83 -230q-18 -112 10.5 -219.5t89.5 -186.5t151.5 -127.5t190.5 -48.5q234 0 408 119l47 298h-277q-13 0 -20.5 8.5 t-5.5 20.5l13 82q2 12 12 20.5t23 8.5h431q12 0 19 -8.5t5 -20.5l-13 -82v-1l-62 -394q-2 -12 -12 -21v0q-88 -75 -260 -128t-332 -53q-127 0 -245.5 53t-206.5 146t-130 233.5t-17 300.5q20 129 80 246t145.5 204t188 152t213.5 98t217 33q162 0 303 -63t211 -167z" />
<glyph unicode="H" horiz-adv-x="1423" d="M1403 1434q12 0 19 -9.5t5 -21.5l-217 -1372q-2 -12 -12 -21.5t-22 -9.5h-120q-13 0 -20.5 9.5t-5.5 21.5l96 609h-764l-97 -609q-2 -12 -11.5 -21.5t-21.5 -9.5h-121q-12 0 -20 9.5t-6 21.5l217 1372q2 12 12.5 21.5t23.5 9.5h121q12 0 19 -9.5t5 -21.5l-97 -611h764 l97 611q2 12 12.5 21.5t23.5 9.5h120z" />
<glyph unicode="I" horiz-adv-x="501" d="M114 0q-12 0 -20 9.5t-6 21.5l218 1372q2 12 12.5 21.5t22.5 9.5h121q12 0 19 -9.5t5 -21.5l-217 -1372q-2 -12 -12 -21.5t-22 -9.5h-121z" />
<glyph unicode="J" horiz-adv-x="1013" d="M995 1434q12 0 19.5 -10t5.5 -23l-153 -970q0 -1 -0.5 -1t-0.5 -1q-19 -110 -69.5 -197.5t-118.5 -140t-144.5 -80t-154.5 -27.5q-131 0 -232 65.5t-131 158.5q-3 11 3 22t17 15l98 55q26 9 38 -16q27 -57 86.5 -101.5t139.5 -44.5q104 0 185.5 78.5t103.5 220.5l153 964 q2 14 12 23.5t22 9.5h121z" />
<glyph unicode="K" horiz-adv-x="1255" d="M1312 1434q20 0 25.5 -19.5t-8.5 -30.5l-792 -667l579 -668q10 -12 0.5 -30.5t-31.5 -18.5h-123q-12 0 -28 9t-26 22l-546 632l-100 -632q-2 -12 -11.5 -21.5t-21.5 -9.5h-121q-12 0 -20 9.5t-6 21.5l217 1372q2 12 13 21.5t23 9.5h121q12 0 19 -9.5t5 -21.5l-101 -633 l746 633q37 31 65 31h122z" />
<glyph unicode="L" horiz-adv-x="1079" d="M933 152q12 0 18.5 -9.5t4.5 -21.5l-14 -90q-2 -12 -11.5 -21.5t-21.5 -9.5h-705h-96q-12 0 -20 9.5t-6 21.5l217 1370q2 13 13 23t23 10h121q12 0 18.5 -9.5t4.5 -23.5l-198 -1249h652z" />
<glyph unicode="M" horiz-adv-x="1667" d="M1647 1434q12 0 19 -9.5t5 -21.5l-218 -1374q-2 -12 -11.5 -20.5t-21.5 -8.5h-121q-12 0 -20 8.5t-6 20.5l160 1008l-627 -1023q-6 -9 -8.5 -12t-7.5 -8.5t-9.5 -7.5t-10.5 -2h-12h-4q-16 0 -27 30l-302 1026l-160 -1011q-2 -12 -12.5 -20.5t-22.5 -8.5h-121 q-12 0 -19 8.5t-5 20.5l217 1374q2 12 12 21.5t22 9.5h81h42q12 0 24 -9.5t17 -21.5l316 -1079l660 1079q8 12 23 21.5t27 9.5h72h49z" />
<glyph unicode="N" horiz-adv-x="1386" d="M1365 1434q12 0 20 -9.5t6 -21.5l-218 -1374q-2 -12 -12.5 -20.5t-22.5 -8.5h-72h-19q-33 0 -47 29l-565 1071l-170 -1071q-2 -12 -11.5 -20.5t-21.5 -8.5h-121q-12 0 -20 8.5t-6 20.5l217 1374q2 12 13 21.5t23 9.5h72h22q28 0 44 -31l564 -1077l171 1077 q2 12 11.5 21.5t21.5 9.5h121z" />
<glyph unicode="O" horiz-adv-x="1638" d="M749 -16q-200 0 -353 98t-224 266.5t-40 366.5q31 200 156 369t309.5 267.5t384.5 98.5q198 0 350.5 -98.5t223.5 -267.5t40 -369q-31 -198 -156 -366.5t-309 -266.5t-382 -98zM773 135q146 0 285.5 77.5t236 211.5t121.5 291t-29 292t-168.5 213t-260.5 78 q-111 0 -221 -46.5t-196.5 -124.5t-148 -186t-80.5 -226q-25 -158 28.5 -291.5t168.5 -211t264 -77.5z" />
<glyph unicode="P" horiz-adv-x="1173" d="M869 1434q159 -1 247 -125t56 -326q-22 -137 -93.5 -240t-167 -154t-200.5 -52h-369l-80 -508q-2 -12 -11.5 -20.5t-21.5 -8.5h-121q-13 0 -20.5 8.5t-5.5 20.5l217 1374q2 12 12.5 21.5t23.5 9.5h121h413zM992 983q4 40 6.5 81t-11.5 80.5t-37.5 70t-71 49t-112.5 18.5 h-306l-94 -593h311q64 0 116 18.5t85.5 47t58 69t36.5 78.5t19 81z" />
<glyph unicode="Q" horiz-adv-x="1671" d="M981 1450q198 0 350.5 -98.5t223.5 -267.5t40 -369q-39 -244 -214 -437l162 -193q7 -7 5.5 -19.5t-11.5 -21.5l-94 -81q-9 -7 -21.5 -7t-19.5 7l-159 190q-228 -169 -495 -169q-200 0 -353 98t-224 266.5t-40 366.5q31 200 156 369t309.5 267.5t384.5 98.5zM1415 715 q25 157 -29 292t-168.5 213t-260.5 78q-111 0 -221 -46.5t-196.5 -124.5t-148 -186t-80.5 -226q-25 -158 28.5 -291.5t168.5 -211t264 -77.5q146 0 285.5 77.5t236 211.5t121.5 291z" />
<glyph unicode="R" horiz-adv-x="1335" d="M1261 1007q-24 -151 -115.5 -261t-215.5 -152l193 -551q5 -18 -7 -30.5t-26 -12.5h-108q-12 0 -22.5 9t-15.5 22l-189 541h-407l-86 -543q-2 -12 -11.5 -20.5t-21.5 -8.5h-121q-13 0 -20.5 8.5t-5.5 20.5l217 1374q2 12 12.5 21.5t23.5 9.5h121h495q70 0 132 -28 t108 -79.5t66 -134.5t4 -185zM1081 1007q43 275 -214 275h-407l-88 -558h409q74 0 131 26t90.5 70t52 89.5t26.5 97.5z" />
<glyph unicode="S" horiz-adv-x="1333" d="M589 -16q-316 0 -479 194q-6 8 -4 19.5t10 21.5l73 75q22 24 45 7l17.5 -17.5t34.5 -32.5t52.5 -37.5t72 -37t92 -27t113.5 -11.5q44 0 99 11.5t118.5 38t111 80t59.5 126.5q7 46 -6.5 82.5t-38.5 60t-70.5 44t-86 32.5t-99.5 28q-21 5 -31 8q-113 30 -191.5 64.5 t-136 82.5t-79 113t-8.5 148q8 53 31.5 105.5t69.5 105t108 92.5t153.5 65t199.5 25q288 0 447 -145q19 -16 -5 -45l-72 -81q-17 -23 -39 -4q-146 121 -351 121q-142 0 -243 -64.5t-117 -164.5q-16 -97 64.5 -156t251.5 -104q173 -42 255 -84q209 -108 174 -329 q-9 -55 -34.5 -109.5t-74 -109.5t-114.5 -97t-162.5 -68t-209.5 -26z" />
<glyph unicode="T" horiz-adv-x="1200" d="M1277 1434q12 0 19 -10.5t5 -22.5l-14 -88q-2 -12 -12 -21.5t-22 -9.5h-411l-198 -1251q-2 -12 -13 -21.5t-23 -9.5h-120q-12 0 -19 9.5t-5 21.5l198 1251h-409q-12 0 -20 9.5t-6 21.5l14 88q2 12 13 22.5t23 10.5h464h94h442z" />
<glyph unicode="U" horiz-adv-x="1351" d="M1335 1434q12 0 19 -10t5 -23l-128 -808v-1v-1q-23 -141 -67.5 -248.5t-118 -190t-184.5 -125.5t-256 -43q-118 0 -204.5 28.5t-137.5 81t-79 127.5t-28.5 168t15.5 202v1v1l128 808q2 13 13 23t23 10h121q12 0 18.5 -9.5t4.5 -23.5l-122 -771q-41 -260 22 -377.5 t250 -117.5q186 0 286.5 118t141.5 378l122 770q2 13 13 23t23 10h120z" />
<glyph unicode="V" horiz-adv-x="1370" d="M1472 1434q14 0 21 -12t-2 -31l-788 -1371q-13 -20 -32 -20h-51h-19q-11 0 -16.5 5t-8.5 18l-355 1368q-4 19 7.5 31t25.5 12h116q12 0 23.5 -9.5t14.5 -21.5l275 -1106l625 1106q7 12 21.5 21.5t26.5 9.5h116z" />
<glyph unicode="W" horiz-adv-x="1908" d="M2010 1434q13 0 20 -12.5t0 -28.5l-700 -1373q-10 -20 -30 -20h-50q-17 0 -24 18l-152 1046l-475 -1044q-10 -20 -32 -20h-48q-19 0 -25 20l-273 1373q-1 18 10.5 29.5t24.5 11.5h117q9 0 15.5 -6.5t8.5 -14.5l199 -1034l462 1034q9 20 32 20h74h6q22 0 26 -20l144 -1035 l521 1035q12 21 32 21h117z" />
<glyph unicode="X" horiz-adv-x="1275" d="M1306 1434q16 0 23.5 -15.5t-6.5 -32.5l-529 -647l349 -694q7 -13 -3.5 -29t-30.5 -16h-112q-27 0 -45 29l-281 560l-458 -560q-27 -29 -56 -29h-112q-15 0 -22.5 14t5.5 33l568 693l-324 646q-8 18 4 33t28 15h113q12 0 25 -9.5t19 -21.5l258 -513l420 513 q10 12 26 21.5t28 9.5h113z" />
<glyph unicode="Y" horiz-adv-x="1269" d="M1367 1434q16 0 23.5 -14.5t-4.5 -33.5l-612 -774l-93 -583q-2 -12 -12.5 -20.5t-22.5 -8.5h-119q-12 0 -20 8.5t-6 20.5l92 581l-366 779q-8 17 5 31t29 14h109q28 0 47 -31l291 -633l494 633q29 31 54 31h111z" />
<glyph unicode="Z" horiz-adv-x="1269" d="M1321 1434q16 0 23 -14.5t-4 -30.5l-1004 -1237h780q11 0 18.5 -9t5.5 -22l-14 -90q-2 -13 -12 -22t-22 -9h-1009h-10q-17 0 -23.5 15t3.5 28l1006 1239h-732q-12 0 -19 8.5t-5 20.5l15 90q2 14 11.5 23.5t21.5 9.5h933h37z" />
<glyph unicode="[" horiz-adv-x="598" d="M644 1669q33 0 28 -31l-14 -90q-5 -31 -38 -31h-153l-271 -1713h153q33 0 28 -31l-14 -90q-5 -31 -38 -31h-215h-86q-12 0 -20 9.5t-6 21.5l309 1955q2 12 13 21.5t23 9.5h120h181z" />
<glyph unicode="\" horiz-adv-x="870" d="M636 0q-30 0 -39 31l-394 1366q-4 15 4.5 26t23.5 11h98q29 0 37 -31l391 -1358q5 -16 -5.5 -30.5t-31.5 -14.5h-84z" />
<glyph unicode="]" horiz-adv-x="598" d="M646 1669q12 0 20 -9.5t6 -21.5l-310 -1955q-2 -12 -12.5 -21.5t-22.5 -9.5h-120h-182q-33 0 -28 31l15 90q5 31 37 31h153l272 1713h-153q-33 0 -28 31l14 90q5 31 38 31h214h87z" />
<glyph unicode="^" horiz-adv-x="790" d="M790 1190q6 -16 -5.5 -30.5t-32.5 -14.5h-32q-24 0 -38 31l-129 252l-209 -252q-11 -12 -16.5 -17.5t-13.5 -9.5t-18 -4h-32q-21 0 -27.5 15t4.5 30l273 418q18 30 46 30h46h7q15 0 22 -6t14 -24z" />
<glyph unicode="_" horiz-adv-x="1257" d="M42 -246q-33 0 -28 30l7 43q5 31 37 31h959q33 0 28 -31l-7 -43q-4 -30 -38 -30h-958z" />
<glyph unicode="`" horiz-adv-x="630" d="M586 1315l-279 198q-24 23 -6 45l48 73q21 27 47 5l250 -238q25 -23 10 -43l-25 -33q-22 -24 -45 -7z" />
<glyph unicode="a" horiz-adv-x="1038" d="M941 866q12 0 18.5 -9t4.5 -23l-127 -803q-2 -12 -12.5 -21.5t-21.5 -9.5h-53q-39 0 -51 39l-19 61q-109 -116 -272 -116q-126 0 -209.5 59.5t-113.5 160t-10 228.5q31 195 158 323t317 128q151 0 225 -99l46 50q30 32 54 32h66zM436 121q137 0 206 78.5t93 230.5 q13 69 9 126.5t-23.5 99t-66 65t-118.5 23.5q-117 0 -194 -83t-100 -229q-22 -138 32.5 -224.5t161.5 -86.5z" />
<glyph unicode="b" horiz-adv-x="1009" d="M606 883q79 0 142.5 -24t105 -66t67.5 -99.5t30.5 -125.5t-5.5 -143q-31 -195 -160 -318t-316 -123q-152 0 -239 115l-38 -60q-25 -39 -53 -39h-60q-12 0 -20 9.5t-6 21.5l220 1386q2 13 13 23t23 10h111q13 0 20 -9.5t5 -23.5l-102 -646q122 112 262 112zM780 430 q12 63 5.5 120t-27.5 100t-68 68.5t-115 25.5q-119 0 -191 -71.5t-98 -237.5q-27 -168 20.5 -241t173.5 -73q116 0 197.5 86.5t102.5 222.5z" />
<glyph unicode="c" horiz-adv-x="974" d="M466 -16q-91 0 -169.5 35t-131.5 94.5t-77 142.5t-10 174q30 187 187.5 320t343.5 133q105 0 189.5 -40t133.5 -113q10 -20 -9 -39l-74 -66q-10 -9 -22 -8.5t-18 10.5q-68 117 -218 117q-124 0 -224.5 -90t-121.5 -224q-20 -128 52.5 -218.5t194.5 -90.5q90 0 159 40.5 t104 81.5q8 10 20.5 12t23.5 -8l50 -56q15 -18 -2 -39q-72 -80 -170.5 -124t-210.5 -44z" />
<glyph unicode="d" horiz-adv-x="1026" d="M1040 1450q12 0 19 -10t5 -23l-220 -1386q-2 -12 -11.5 -21.5t-21.5 -9.5h-60q-32 0 -44 39l-19 64q-126 -119 -286 -119q-181 0 -268 125t-56 321q20 126 80 227t162.5 163.5t231.5 62.5q150 0 238 -110l102 644q2 13 13 23t23 10h112zM441 121q63 0 111 16t79 42.5 t53 68.5t34 85t21 102q6 40 9 68.5t2.5 63t-7 58.5t-21 48t-38 38.5t-60.5 23.5t-85 9q-121 0 -196 -84t-97 -225q-23 -145 32 -229.5t163 -84.5z" />
<glyph unicode="e" horiz-adv-x="1007" d="M586 883q202 0 286.5 -126.5t50.5 -342.5q-2 -13 -13.5 -22t-22.5 -9h-136h-511q0 -120 70 -192t166 -72q137 0 264 97q24 20 42 -6l37 -56q8 -15 6.5 -23.5t-13.5 -19.5q-53 -48 -157 -87.5t-214 -39.5q-88 0 -162.5 33.5t-124.5 92t-71.5 143t-6.5 181.5 q31 195 181 322t329 127zM259 508h506q5 107 -50 173.5t-160 66.5q-94 0 -177.5 -64.5t-118.5 -175.5z" />
<glyph unicode="f" horiz-adv-x="786" d="M902 1396q25 -17 7 -41l-58 -69q-20 -23 -40 -11q-55 36 -119 36q-102 0 -152.5 -54.5t-71.5 -185.5l-33 -205h247q12 0 19.5 -9t5.5 -21l-12 -79q-2 -12 -13 -21t-23 -9h-246l-160 -1012q-5 -31 -36 -31h-110q-13 0 -20.5 8.5t-5.5 22.5l160 1012h-101q-12 0 -19 9 t-5 21l12 79q2 12 12 21t22 9h101l34 213v2q16 98 50 168.5t72.5 108.5t92.5 59.5t96.5 27t98.5 5.5q116 0 195 -54z" />
<glyph unicode="g" horiz-adv-x="1015" d="M940 866q12 0 18.5 -9t4.5 -23l-129 -803l-28 -178q-28 -175 -151 -283.5t-312 -108.5q-132 0 -218 58t-128 150q-7 17 10 31l70 56q22 15 36 -6q45 -79 102.5 -113.5t149.5 -34.5q30 0 59.5 5t67 22.5t67.5 45t55.5 77.5t35.5 115l33 219q-113 -102 -276 -102 q-78 0 -140 24t-102 66.5t-65 100t-28.5 124.5t5.5 140q30 193 156.5 318.5t314.5 125.5q138 0 222 -92l39 43q30 32 54 32h77zM437 121q78 0 132 21.5t86.5 66t50.5 97t30 129.5q9 57 11 96.5t-5.5 83t-30 69.5t-67 43t-110.5 17q-116 0 -192 -83.5t-98 -220.5 q-23 -142 29.5 -230.5t163.5 -88.5z" />
<glyph unicode="h" horiz-adv-x="1013" d="M627 883q70 0 126 -22.5t97.5 -71t55.5 -124t-1 -181.5l-72 -453q-2 -13 -12 -22t-22 -9h-112q-12 0 -20 9t-6 22l71 449q20 126 -24.5 195t-145.5 69q-108 0 -174.5 -60t-77.5 -128l-84 -525q-2 -13 -11.5 -22t-21.5 -9h-113q-12 0 -20 9t-6 22l220 1386q2 14 12.5 23.5 t23.5 9.5h113q12 0 18.5 -9t4.5 -24l-101 -638q115 104 282 104z" />
<glyph unicode="i" horiz-adv-x="475" d="M360 1207q-42 0 -67.5 29t-18.5 71q7 43 41.5 72.5t76.5 29.5t67 -29.5t18 -72.5q-7 -42 -41 -71t-76 -29zM113 0q-12 0 -20 8.5t-6 20.5l127 802q2 15 13.5 25t23.5 10h110q13 0 20 -10t5 -25l-127 -802q-2 -12 -12 -20.5t-23 -8.5h-111z" />
<glyph unicode="j" horiz-adv-x="507" d="M411 1205q-42 0 -67 29.5t-18 71.5t41.5 72t76.5 30t67 -30t18 -72t-41.5 -71.5t-76.5 -29.5zM-103 -573q-113 0 -190.5 55.5t-112.5 126.5q-10 18 15 36l78 45q22 13 36 -8q41 -59 80.5 -86.5t94.5 -27.5q89 0 137.5 56t68.5 182l161 1030q2 12 12 21t22 9h112 q15 0 21.5 -9t4.5 -21l-162 -1037q-26 -181 -132 -276.5t-246 -95.5z" />
<glyph unicode="k" horiz-adv-x="946" d="M876 866q19 0 24 -18t-14 -34l-413 -325l364 -442q10 -12 -1 -29.5t-31 -17.5h-99q-31 0 -57 29l-355 429l-68 -427q-2 -13 -12.5 -22t-22.5 -9h-113q-12 0 -19 9t-5 22l220 1386q2 14 12 23.5t22 9.5h113q12 0 19.5 -10t5.5 -23l-141 -890l396 309q39 30 67 30h108z" />
<glyph unicode="l" horiz-adv-x="442" d="M96 0q-12 0 -19 9t-5 22l219 1386q2 14 12 23.5t22 9.5h113q12 0 19.5 -10t5.5 -23l-219 -1386q-2 -13 -13 -22t-23 -9h-112z" />
<glyph unicode="m" horiz-adv-x="1601" d="M1195 883q193 0 262 -92.5t39 -280.5l-76 -479q-2 -12 -12.5 -21.5t-22.5 -9.5h-113q-12 0 -19 9.5t-5 21.5l75 473q19 124 -20.5 182t-140.5 58q-97 0 -169.5 -53.5t-86.5 -135.5l-83 -524q-2 -14 -12.5 -22.5t-23.5 -8.5h-113q-28 0 -23 31l71 450q23 145 -13.5 204 t-141.5 59t-176 -54t-84 -135l-82 -524q-5 -31 -34 -31h-112q-14 0 -21 9t-5 22l127 800q2 14 13 24.5t23 10.5h83q26 0 31 -35l10 -64q121 116 290 116q197 0 258 -131q64 60 146.5 95.5t160.5 35.5z" />
<glyph unicode="n" horiz-adv-x="1056" d="M646 883q365 0 304 -385l-74 -467q-2 -14 -14.5 -22.5t-23.5 -8.5h-108q-31 0 -26 31l72 454q21 133 -19.5 196t-172.5 63q-120 0 -192 -56t-84 -132l-83 -525q-5 -31 -36 -31h-112q-29 0 -24 31l127 800q2 12 11 23.5t23 11.5h89q9 0 17.5 -9.5t10.5 -25.5l10 -64v-1 q58 55 138 86t167 31z" />
<glyph unicode="o" horiz-adv-x="1058" d="M459 -16q-193 0 -302 130t-79 316q30 189 180.5 321t343.5 132q126 0 220.5 -61t136 -164.5t21.5 -227.5q-30 -186 -179.5 -316t-341.5 -130zM481 121q120 0 215.5 89t116.5 220q21 133 -46 223.5t-187 90.5q-121 0 -217 -90.5t-116 -223.5q-22 -131 45.5 -220t188.5 -89 z" />
<glyph unicode="p" horiz-adv-x="1007" d="M621 883q118 0 199.5 -62.5t113 -165.5t11.5 -227q-31 -192 -160 -318t-307 -126q-156 0 -243 111l-101 -638q-2 -12 -13 -21t-23 -9h-112q-12 0 -19 9t-5 21l218 1374q2 15 12 25t22 10h56q26 0 47 -36l32 -51q122 104 272 104zM778 428q22 142 -32 229t-165 87 q-143 0 -206.5 -76.5t-88.5 -235.5q-24 -152 18.5 -231.5t179.5 -79.5q104 0 188 82t106 225z" />
<glyph unicode="q" horiz-adv-x="1021" d="M945 866q12 0 18.5 -10t4.5 -25l-218 -1374q-2 -12 -11.5 -21t-21.5 -9h-113q-12 0 -20 9t-6 21l101 633q-114 -106 -263 -106q-188 0 -279.5 127.5t-61.5 319.5q31 195 164.5 323.5t322.5 128.5q142 0 225 -99l44 46q33 36 58 36h56zM451 121q128 0 194 78.5t90 230.5 q15 99 8 169t-54 107.5t-139 37.5q-121 0 -204 -90.5t-104 -224.5q-21 -133 33 -220.5t176 -87.5z" />
<glyph unicode="r" horiz-adv-x="765" d="M774 821q21 -17 5 -38l-64 -83q-8 -9 -18.5 -11.5t-19.5 4.5q-58 53 -144 53q-77 0 -143.5 -49.5t-80.5 -136.5l-84 -529q-2 -13 -13 -22t-23 -9h-110q-14 0 -21 9t-5 22l127 800q2 15 12.5 25t23.5 10h68q26 0 35 -35l8 -32q98 84 239 84q122 0 208 -62z" />
<glyph unicode="s" horiz-adv-x="817" d="M334 -16q-97 0 -182.5 30t-133.5 81q-14 17 2 39l46 64q21 32 43 13q32 -24 54 -38.5t77.5 -33.5t115.5 -19q183 0 204 131q8 49 -33.5 76.5t-132.5 48.5q-151 35 -222 92.5t-55 160.5q16 104 116 179t236 75q99 0 159.5 -16.5t120.5 -53.5q23 -14 6 -39l-46 -65 l-4.5 -4.5l-4.5 -4.5t-4.5 -4t-6 -3.5t-6.5 -1t-8 1t-9 3.5q-56 29 -100 39.5t-99 10.5q-165 0 -183 -117q-5 -31 31 -62t118 -51q135 -33 185 -57q131 -64 109 -205v-3q-6 -40 -30.5 -83t-68.5 -86t-121 -70.5t-173 -27.5z" />
<glyph unicode="t" horiz-adv-x="743" d="M671 866q12 0 20 -10t6 -25l-12 -71q-2 -14 -12.5 -23.5t-23.5 -9.5h-230l-73 -462q-4 -36 -5 -67.5t19.5 -53t64.5 -21.5q78 0 152 62q10 9 23 9.5t22 -11.5l29 -72q9 -21 -12 -37q-43 -37 -117.5 -63.5t-151.5 -26.5q-235 0 -202 247l79 496h-93q-12 0 -19 9t-5 24 l12 71q2 15 12 25t22 10h93l34 215q2 14 12 22.5t23 8.5h111q12 0 20 -9t6 -22l-34 -215h230z" />
<glyph unicode="u" horiz-adv-x="1050" d="M973 866q12 0 19.5 -10t5.5 -25l-127 -802q-2 -12 -12.5 -20.5t-22.5 -8.5h-52q-27 0 -40 29l-34 73q-114 -118 -300 -118q-174 0 -252.5 102.5t-54.5 258.5l77 486q2 15 12 25t22 10h112q12 0 20 -10t6 -25l-75 -471q-16 -103 34.5 -171t168.5 -68q115 0 183 58t80 128 l83 524q6 35 36 35h111z" />
<glyph unicode="v" horiz-adv-x="937" d="M937 866q18 0 24.5 -14t-3.5 -31l-491 -792q-18 -29 -37 -29h-46h-13q-20 0 -30 29l-239 794q-3 13 7 28t28 15h112q19 0 26 -30l161 -608l355 608q18 30 35 30h111z" />
<glyph unicode="w" horiz-adv-x="1294" d="M1272 866q16 0 22 -15t-2 -28l-392 -803q-11 -20 -32 -20h-44h-20q-18 0 -25 20l-105 581l-290 -583q-9 -18 -29 -18h-49h-19q-20 0 -26 18l-137 805q-3 15 6.5 29t27.5 14h103q24 0 27 -20l75 -580l310 580q12 20 27 20h26h6q20 0 23 -20l125 -573l255 571q10 22 34 22 h103z" />
<glyph unicode="x" horiz-adv-x="892" d="M833 866q16 0 23 -15t-6 -32l-318 -392l191 -382q7 -13 -3.5 -29t-30.5 -16h-87q-12 0 -25 8.5t-19 20.5l-133 267l-216 -267q-10 -12 -26.5 -20.5t-29.5 -8.5h-85q-15 0 -22.5 14t5.5 33l310 380l-195 392q-8 18 3.5 32.5t28.5 14.5h86q12 0 25 -9t19 -21l139 -279 l227 279q10 12 26 21t28 9h85z" />
<glyph unicode="y" horiz-adv-x="1034" d="M1017 866q15 0 23 -12t-1 -31l-917 -1380q-10 -16 -29 -16h-103q-15 0 -22.5 12t2.5 31l384 579l-234 774q-5 13 5 28t28 15h110q23 0 30 -30l176 -615l416 627q11 18 31 18h101z" />
<glyph unicode="z" horiz-adv-x="862" d="M820 866q19 0 24.5 -14.5t-8.5 -33.5l-550 -679h402q12 0 19.5 -9t5.5 -21l-12 -80q-2 -12 -12.5 -20.5t-22.5 -8.5h-559h-65q-17 0 -23.5 15t10.5 35l555 677h-391q-12 0 -20 8.5t-6 20.5l13 80q2 12 12.5 21t22.5 9h544h61z" />
<glyph unicode="{" horiz-adv-x="694" d="M741 1669q32 0 27 -31l-14 -90q-5 -31 -38 -31h-46q-2 0 -6 -0.5t-14 -4t-18 -9.5t-16 -19t-11 -31l-100 -631q-11 -67 -56 -108t-108 -54q58 -13 90.5 -55.5t21.5 -109.5l-100 -631q-4 -28 7.5 -44t25.5 -18l13 -2h45q33 0 28 -31l-14 -90q-5 -31 -38 -31h-65h-14 q-105 0 -144.5 52t-22.5 164l98 617q4 29 -2 50t-18 30.5t-24.5 15t-21.5 5.5l-10 1h-23q-33 0 -28 31l14 90q5 31 38 31h23q4 0 10 0.5t23 6t30.5 15t27 30.5t17.5 50l98 616q17 110 71.5 163t163.5 53h60h20z" />
<glyph unicode="|" horiz-adv-x="462" d="M73 -238q-12 0 -20 8.5t-6 20.5l292 1843q2 15 13 25t23 10h104q13 0 20 -10t5 -25l-292 -1843q-2 -12 -12 -20.5t-23 -8.5h-104z" />
<glyph unicode="}" horiz-adv-x="694" d="M593 735q33 0 28 -31l-15 -90q-5 -31 -37 -31h-23q-4 0 -10.5 -0.5t-23 -6t-30.5 -15t-27.5 -30.5t-17.5 -50l-97 -617q-17 -110 -72 -163t-164 -53h-60h-19q-33 0 -28 31l15 90q5 31 37 31h47q2 0 6 0.5t14 4t18 9.5t16 19t11 31l100 631q11 67 56 108t108 54 q-58 13 -90.5 55.5t-21.5 109.5l99 631q4 28 -7.5 44t-24.5 18l-14 2h-45q-33 0 -28 31l15 90q5 31 37 31h66h13q105 0 144.5 -52t22.5 -164l-97 -616q-4 -29 2 -50t18 -30.5t24.5 -15t21.5 -5.5l10 -1h23z" />
<glyph unicode="~" horiz-adv-x="956" d="M916 784q14 -8 8 -25q-13 -48 -75.5 -99t-152.5 -52h-1h-1q-61 0 -111 11t-78.5 23.5t-67 23t-78.5 10.5q-124 0 -182 -53q-16 -12 -29 -3l-19 18q-15 9 -9 25q12 47 78 98.5t160 52.5h2q87 -1 181.5 -34.5t154.5 -33.5q64 0 102 12.5t70 40.5q15 12 29 4z" />
<glyph unicode="&#xa1;" horiz-adv-x="423" d="M342 884q32 0 28 -30l-21 -133q-5 -30 -37 -30h-119q-33 0 -28 30l21 133q4 30 37 30h119zM255 553q33 0 28 -31l-132 -1073q-5 -31 -38 -31h-125q-11 0 -21 8.5t-7 22.5l208 1073q6 31 38 31h49z" />
<glyph unicode="&#xa2;" horiz-adv-x="974" d="M809 627q-53 90 -155 111l-97 -610q117 24 198 115q8 10 20.5 12t23.5 -8l50 -56q15 -18 -2 -39q-124 -139 -312 -164l-18 -115q-2 -12 -12 -20.5t-23 -8.5h-109q-12 0 -20 8.5t-6 20.5l19 122q-147 35 -230 156.5t-58 278.5q25 159 147 282.5t280 158.5l18 116 q2 15 13 25t23 10h109q13 0 20 -10t5 -25l-17 -109q173 -24 256 -148q10 -20 -9 -39l-74 -66q-10 -9 -22 -8.5t-18 10.5zM245 430q-15 -97 25 -175.5t119 -112.5l93 582q-90 -34 -155.5 -113t-81.5 -181z" />
<glyph unicode="&#xa3;" horiz-adv-x="1138" d="M1176 1274q9 -21 -10 -38l-94 -52q-11 -8 -23 -7t-17 11q-64 113 -196 113q-73 0 -130 -26.5t-94 -75t-60 -107t-34 -131.5l-27 -166h341q12 0 20 -9.5t6 -21.5l-14 -90q-2 -12 -13 -21t-23 -9h-341l-47 -300v-1v-1q-23 -137 -83 -191h666q12 0 20 -9t6 -21l-15 -90 q-2 -12 -12.5 -21.5t-22.5 -9.5h-894q-12 0 -20 9.5t-6 21.5l13 81q2 12 13 21.5t23 9.5h6q41 5 77 60.5t49 139.5l47 301h-106q-12 0 -20 9t-6 21l14 90q2 12 13 21.5t23 9.5h106l27 168q16 98 56 183.5t103.5 155t157 110t205.5 40.5q109 0 190 -48t126 -130z" />
<glyph unicode="&#xa4;" horiz-adv-x="1034" d="M841 515l66 -79q7 -9 7 -23t-7 -20l-78 -64q-9 -7 -22 -6.5t-19 8.5l-59 67q-94 -64 -211 -64q-118 0 -212 64l-61 -68q-6 -8 -19 -8.5t-22 6.5l-77 62q-7 6 -7 20t7 23l68 81q-56 90 -56 199q0 104 54 195l-68 81q-8 9 -8.5 22t8.5 21l77 62q9 7 22 6.5t19 -8.5l59 -67 q97 67 216 67q113 0 209 -64l60 70q8 8 21 8.5t22 -6.5l77 -64q21 -18 0 -43l-68 -80q58 -93 58 -200q0 -105 -56 -198zM284 713q0 -95 69.5 -164.5t164.5 -69.5t164 69.5t69 164.5t-69.5 164t-163.5 69q-95 0 -164.5 -69t-69.5 -164z" />
<glyph unicode="&#xa5;" horiz-adv-x="1310" d="M1369 1434q16 0 23.5 -14.5t-4.5 -33.5l-556 -702h133q12 0 21.5 -9.5t9.5 -21.5v-67q0 -12 -9.5 -21.5t-21.5 -9.5h-199l-27 -175h226q12 0 21.5 -9t9.5 -21v-67q0 -12 -9.5 -21.5t-21.5 -9.5h-247l-35 -223q-2 -12 -12.5 -20.5t-22.5 -8.5h-119q-12 0 -20 8.5t-6 20.5 l35 223h-193q-12 0 -21.5 9.5t-9.5 21.5v67q0 12 9.5 21t21.5 9h213l28 175h-241q-12 0 -21.5 9.5t-9.5 21.5v67q0 12 9.5 21.5t21.5 9.5h215l-331 705q-8 17 5 31t29 14h109q27 0 46 -31l292 -633l493 633q29 31 54 31h112z" />
<glyph unicode="&#xa6;" horiz-adv-x="462" d="M253 897q-12 0 -20 8.5t-6 20.5l112 708q2 15 13 25t23 10h104q13 0 20 -10t5 -25l-112 -708q-2 -12 -12 -20.5t-23 -8.5h-104zM73 -238q-12 0 -20 8.5t-6 20.5l112 709q2 15 13.5 25t23.5 10h103q13 0 20.5 -10t5.5 -25l-113 -709q-2 -12 -12 -20.5t-23 -8.5h-104z" />
<glyph unicode="&#xa7;" horiz-adv-x="1095" d="M687 1303q-115 0 -186 -41.5t-83 -117.5q-12 -78 45 -121.5t192 -77.5q44 -11 68.5 -17.5t71.5 -23t75 -32.5t63 -43t52.5 -57t27 -73t1.5 -93q-12 -78 -71.5 -156.5t-156.5 -124.5q149 -90 123 -254q-8 -54 -42 -109t-92 -104.5t-151.5 -81t-205.5 -31.5 q-253 0 -381 155q-15 13 5 33l80 74q19 19 35 4q1 -1 16 -16.5t35.5 -31t52 -33t79 -28t103.5 -10.5q40 0 77 5.5t86 22t83 55.5t43 96q5 21 2 39.5t-6.5 33t-14.5 27t-21.5 22t-28 18.5t-33 15.5t-37.5 13t-41.5 11.5t-43.5 11l-24 6q-185 49 -275.5 127.5t-70.5 204.5 q13 77 72.5 158t157.5 130q-152 93 -127 247q8 53 40 106t86.5 101t143 78t195.5 30q229 0 357 -116q16 -13 -4 -37l-75 -78q-16 -19 -34 -4q-49 41 -108.5 64.5t-154.5 23.5zM836 606q7 47 -5 79t-51.5 53.5t-71 32t-97.5 26.5l-24 6q-33 9 -63 18q-84 -19 -140.5 -79 t-68.5 -133q-12 -78 45 -120.5t193 -78.5q19 -5 63 -17q79 20 142.5 72.5t77.5 140.5z" />
<glyph unicode="&#xa8;" horiz-adv-x="655" d="M360 1372q-34 0 -58 23t-24 57q0 35 24 58.5t58 23.5t58 -23.5t24 -58.5q0 -34 -24 -57t-58 -23zM617 1372q-34 0 -57.5 23t-23.5 57q0 35 23.5 58.5t57.5 23.5t58 -23.5t24 -58.5q0 -34 -24 -57t-58 -23z" />
<glyph unicode="&#xa9;" horiz-adv-x="1697" d="M779 -16q-150 0 -276.5 58t-209 156t-119.5 233.5t-13 283.5q31 200 156 369t309.5 267.5t384.5 98.5q198 0 350.5 -98.5t223.5 -267.5t40 -369q-24 -148 -103 -283.5t-192.5 -233.5t-258 -156t-292.5 -58zM799 111q127 0 243.5 47.5t204 129t147 192.5t79.5 235 q26 167 -23.5 305t-169.5 220t-289 82q-127 0 -243.5 -48t-204.5 -130t-148 -193.5t-80 -235.5q-26 -167 24 -304t170.5 -218.5t289.5 -81.5zM818 234q-181 0 -271 133t-56 350q35 216 167 349t313 133q136 0 220.5 -67t101.5 -179q6 -39 -33 -48l-70 -13q-39 -8 -43 34 q-5 57 -61 100t-136 43q-111 0 -197 -97.5t-111 -252.5q-13 -90 -2.5 -156.5t41.5 -110.5t71.5 -65.5t87.5 -21.5q76 0 146.5 48.5t99.5 107.5q16 32 49 27l72 -16q13 -3 18 -16t-2 -27q-48 -108 -159 -181.5t-246 -73.5z" />
<glyph unicode="&#xaa;" horiz-adv-x="784" d="M551 1434q93 0 152 -23.5t84 -66t31 -101.5t-7 -129l-63 -402q-1 -10 -10.5 -18.5t-20.5 -8.5h-58q-28 0 -30 34l-2 31q-90 -83 -215 -83q-137 0 -202.5 77t-48.5 187q16 98 111 172t224 74q106 0 165 -51l4 25q26 169 -140 169q-75 0 -203 -51q-22 -7 -25 11l-12 70 q-3 16 12 25q111 59 254 59zM444 780q162 0 186 151q10 64 -28 100.5t-113 36.5q-60 0 -113 -38t-63 -99q-12 -74 28.5 -112.5t102.5 -38.5zM541 333q12 0 19.5 -9.5t5.5 -21.5l-14 -90q-2 -12 -12.5 -21.5t-22.5 -9.5h-299q-12 0 -20 9.5t-6 21.5l14 90q2 12 13 21.5 t23 9.5h299z" />
<glyph unicode="&#xab;" horiz-adv-x="1005" d="M285 433l182 -410q8 -17 0.5 -28t-26.5 -11h-50q-35 0 -46 20l-210 371q-24 36 -21 51l1 4l2 10q4 20 36 52l328 370q19 21 53 21h49q19 0 23 -11.5t-9 -28.5zM933 883q19 0 23 -11.5t-9 -28.5l-312 -410l182 -410q8 -17 0.5 -28t-26.5 -11h-50q-35 0 -46 20l-210 371 q-24 36 -21 51l1 4l2 10q4 20 36 52l328 370q19 21 52 21h50z" />
<glyph unicode="&#xac;" horiz-adv-x="1050" d="M902 783q33 0 33 -31v-77v-264q0 -32 -31 -32h-98q-31 0 -31 32v233h-626q-32 0 -32 31v77q0 31 32 31h753z" />
<glyph unicode="&#xad;" horiz-adv-x="782" d="M159 494q-33 0 -28 31l12 77q5 31 38 31h484q33 0 28 -31l-12 -77q-5 -31 -37 -31h-485z" />
<glyph unicode="&#xae;" horiz-adv-x="1697" d="M1011 1450q198 0 350.5 -98.5t223.5 -267.5t40 -369q-24 -148 -103 -283.5t-192.5 -233.5t-258 -156t-292.5 -58q-150 0 -276.5 58t-209 156t-119.5 233.5t-13 283.5q31 200 156 369t309.5 267.5t384.5 98.5zM1468 715q20 125 -4 236t-84.5 193t-161 130t-227.5 48 t-243 -48t-203 -130t-146.5 -193t-79.5 -236q-26 -166 23 -303t168.5 -219t288.5 -82t314 82t236.5 219t118.5 303zM1077 1180q117 0 169.5 -81.5t34.5 -195.5q-13 -78 -55 -145t-107 -103q92 -146 54 -380q-1 -6 -7 -10.5t-12 -4.5h-105q-6 0 -10.5 4.5t-3.5 10.5 q6 37 6.5 77t-5.5 87t-25 95t-50 88h-256l-55 -347q-1 -6 -7 -10.5t-12 -4.5h-109q-14 0 -12 15l141 889q1 6 6 11t11 5h109h300zM1141 903q10 63 -13.5 109t-97.5 46h-256l-50 -314h258q69 0 109 46.5t50 112.5z" />
<glyph unicode="&#xaf;" horiz-adv-x="679" d="M314 1371q-33 0 -33 31v68q0 31 33 31h370q33 0 33 -31v-68q0 -31 -33 -31h-370z" />
<glyph unicode="&#xb0;" horiz-adv-x="817" d="M478 866q-122 0 -194 85t-53 206q20 122 119 207.5t220 85.5q120 0 192 -86t53 -207t-118 -206t-219 -85zM497 985q72 0 126.5 49.5t65.5 122.5t-27 124t-110 51t-127.5 -51t-66.5 -124t27.5 -122.5t111.5 -49.5z" />
<glyph unicode="&#xb1;" horiz-adv-x="1107" d="M927 770q33 0 33 -31v-77q0 -30 -33 -30h-302v-305q0 -33 -31 -33h-97q-31 0 -31 33v305h-301q-33 0 -33 30v77q0 31 33 31h301v305q0 32 31 32h97q31 0 31 -32v-305h302zM927 130q33 0 33 -31v-71q0 -31 -33 -31h-762q-33 0 -33 31v71q0 31 33 31h762z" />
<glyph unicode="&#xb2;" horiz-adv-x="772" d="M786 1392q-5 -32 -17.5 -63t-26.5 -51.5t-27.5 -37t-22.5 -24.5l-9 -7l-371 -350h393q8 0 13.5 -6t4.5 -13l-14 -88q-1 -7 -8.5 -13t-15.5 -6h-566q-8 0 -13 5.5t-3 13.5l12 73q2 12 13 22l402 381q99 93 111 164q10 64 -21.5 98.5t-93.5 34.5q-139 0 -179 -111 q-7 -16 -21 -16h-104q-8 0 -13 6t-3 14q29 97 111.5 164.5t228.5 68.5h1h1q139 -1 197.5 -74t40.5 -185z" />
<glyph unicode="&#xb3;" horiz-adv-x="776" d="M795 1408q-24 -150 -145 -208q49 -18 82 -68t18 -146q-8 -51 -30 -95.5t-61 -85t-105 -64.5t-151 -24h-1h-1q-148 1 -215.5 70.5t-53.5 161.5q3 22 25 22h105q6 0 11.5 -4t4.5 -12q-8 -47 31.5 -77.5t111.5 -31.5q84 1 131 39.5t57 100.5q12 75 -34.5 110.5t-144.5 35.5 h-32q-8 0 -12.5 5.5t-3.5 12.5l15 91q4 18 21 18h33q89 0 141 38.5t63 108.5q9 56 -25 88t-101 33q-73 -1 -122.5 -32t-57.5 -82q-3 -15 -21 -15h-103q-23 0 -19 21q15 95 104.5 163t238.5 69h1h1q66 0 114.5 -15t74.5 -39t42 -55.5t16 -65.5t-3 -68z" />
<glyph unicode="&#xb4;" horiz-adv-x="577" d="M341 1315q-23 -17 -45 7l-24 33q-15 20 10 43l250 238q26 22 47 -5l48 -73q18 -22 -6 -45z" />
<glyph unicode="&#xb6;" horiz-adv-x="1114" d="M1128 1434q12 0 18.5 -9.5t4.5 -21.5l-255 -1610q-2 -12 -11.5 -21.5t-21.5 -9.5h-106q-12 0 -20 9.5t-6 21.5l238 1502h-159l-238 -1502q-2 -12 -12 -21.5t-22 -9.5h-106q-12 0 -19.5 9.5t-5.5 21.5l125 791q-93 0 -174.5 56.5t-124.5 156t-25 213.5q18 112 92.5 211.5 t173.5 156t192 56.5h2h135h239h86z" />
<glyph unicode="&#xb7;" horiz-adv-x="501" d="M224 684q-33 0 -28 31l22 135q4 30 37 30h134q33 0 28 -30l-21 -135q-3 -15 -15 -23t-23 -8h-134z" />
<glyph unicode="&#xb8;" horiz-adv-x="563" d="M200 -79q67 6 110.5 -37.5t31.5 -117.5q-13 -87 -70 -135t-146 -48q-50 0 -86.5 26t-43.5 52q-3 16 9 22l67 35q12 7 21 -5q17 -24 50 -24q25 0 48 21.5t29 57.5q7 41 -19.5 55t-57.5 2q-11 -4 -20.5 -5.5t-14.5 -1.5l-4 1l-59 13q-14 3 -7 20l93 164h121z" />
<glyph unicode="&#xb9;" horiz-adv-x="679" d="M614 854q8 0 13 -6t3 -14l-14 -86q-1 -8 -7.5 -13.5t-14.5 -5.5h-291h-185q-8 0 -13 5.5t-4 13.5l13 86q2 8 9 14t15 6h165l97 613l-150 -100q-12 -8 -21.5 -3t-7.5 16l14 91q2 11 23 25l178 128h1q12 6 21 6h94q7 0 12 -6t3 -14l-119 -756h166z" />
<glyph unicode="&#xba;" horiz-adv-x="843" d="M459 666q-147 0 -227.5 100.5t-51.5 284.5q29 183 141 283t259 100t228 -100t52 -283q-30 -184 -142 -284.5t-259 -100.5zM478 790q95 0 153.5 72.5t76.5 188.5q18 115 -17 186.5t-130 71.5t-153 -71.5t-76 -186.5q-18 -117 16.5 -189t129.5 -72zM234 180q-12 0 -19.5 9 t-5.5 21l14 91q2 12 12.5 21t22.5 9h299q12 0 20 -9t6 -21l-14 -91q-2 -12 -13 -21t-23 -9h-299z" />
<glyph unicode="&#xbb;" horiz-adv-x="1005" d="M489 426q-3 -18 -36 -51l-328 -371q-19 -20 -53 -20h-49q-19 0 -23 11t9 28l312 410l-182 410q-8 17 -0.5 28.5t26.5 11.5h50q34 0 46 -21l210 -370q24 -36 21 -52l-1 -4zM821 492q24 -36 21 -52l-1 -4l-2 -10q-3 -18 -36 -51l-328 -371q-19 -20 -53 -20h-49 q-19 0 -23 11t9 28l312 410l-182 410q-8 17 -0.5 28.5t26.5 11.5h50q34 0 46 -21z" />
<glyph unicode="&#xbc;" horiz-adv-x="1816" d="M616 551q-1 -8 -7.5 -13.5t-14.5 -5.5h-291h-185q-8 0 -13 5.5t-4 13.5l13 87q2 8 9 14t15 6h165l97 612l-150 -100q-12 -8 -21.5 -2.5t-7.5 16.5l14 90q2 12 23 26l178 127h1q14 7 21 7h94q7 0 12 -6.5t3 -14.5l-119 -755h166q8 0 13 -6t3 -14zM1359 1434 q16 0 23.5 -10.5t-0.5 -26.5l-698 -1366q-16 -31 -43 -31h-69q-21 0 -29.5 14.5t-0.5 30.5l694 1358q15 31 41 31h82zM1701 355q8 0 13.5 -5.5t4.5 -12.5l-14 -89q-1 -7 -8.5 -12.5t-15.5 -5.5h-94l-25 -157q-2 -8 -8.5 -14t-13.5 -6h-106q-8 0 -13 6.5t-4 13.5l25 157h-402 q-8 0 -12.5 5.5t-3.5 12.5l13 82q2 6 4 9h-1l496 603q5 12 23 12h124q8 0 12.5 -5.5t3.5 -12.5l-92 -581h94zM1196 355h266l61 388z" />
<glyph unicode="&#xbd;" horiz-adv-x="1818" d="M616 551q-1 -8 -7.5 -13.5t-14.5 -5.5h-291h-185q-8 0 -13 5.5t-4 13.5l13 87q2 8 9 14t15 6h165l97 612l-150 -100q-12 -8 -21.5 -2.5t-7.5 16.5l14 90q2 12 23 26l178 127h1q14 7 21 7h94q7 0 12 -6.5t3 -14.5l-119 -755h166q8 0 13 -6t3 -14zM1325 1434 q16 0 23.5 -10.5t-0.5 -26.5l-698 -1366q-16 -31 -43 -31h-69q-21 0 -30 14.5t-1 30.5l695 1358q15 31 40 31h83zM1757 708q-5 -32 -17.5 -63t-26.5 -51.5t-27 -37t-22 -24.5l-9 -7l-372 -350h394q8 0 13 -6t4 -13l-14 -88q-1 -7 -8 -13t-15 -6h-567q-8 0 -13 5.5t-3 13.5 l12 73q2 12 13 22l402 381q99 93 111 164q10 65 -21 99t-93 34q-140 0 -180 -111q-8 -17 -21 -17h-104q-8 0 -12.5 6.5t-2.5 14.5q29 97 111 164.5t228 68.5h1h1q139 -1 197.5 -74t40.5 -185z" />
<glyph unicode="&#xbe;" horiz-adv-x="1890" d="M403 516h-1h-1q-148 1 -215.5 70.5t-53.5 161.5q3 22 25 22h105q6 0 11.5 -4t4.5 -12q-8 -47 31.5 -77.5t111.5 -31.5q84 1 131 39.5t57 100.5q12 75 -34.5 110.5t-144.5 35.5h-32q-8 0 -12.5 5.5t-3.5 12.5l15 91q4 19 21 19h33q89 0 141 38t63 108q9 56 -25 88t-101 33 q-73 -1 -122.5 -32t-57.5 -82q-3 -15 -21 -15h-103q-23 0 -19 21q15 95 104.5 163t238.5 69h1h1q66 0 114.5 -15t74.5 -39t42 -55.5t16 -65.5t-3 -68q-24 -149 -145 -207q16 -6 30.5 -15t31.5 -26t26 -40t15 -57t-3 -77q-8 -51 -30 -95.5t-61 -85t-105 -64.5t-151 -24z M1411 1434q16 0 23 -10.5t-1 -26.5l-698 -1366q-15 -31 -43 -31h-68q-21 0 -30 14.5t-1 30.5l694 1358q15 31 41 31h83zM1775 355q8 0 13.5 -5.5t4.5 -12.5l-14 -89q-4 -18 -23 -18h-95l-25 -157q-2 -8 -8 -14t-13 -6h-106q-8 0 -13 6.5t-4 13.5l24 157h-402q-8 0 -12.5 5.5 t-3.5 12.5l13 82q2 6 4 9l496 603q5 12 22 12h124q8 0 12.5 -5.5t3.5 -12.5l-92 -581h94zM1271 355h265l62 388z" />
<glyph unicode="&#xbf;" horiz-adv-x="999" d="M539 688q-33 0 -28 31l21 132q5 31 38 31h119q33 0 28 -31l-21 -132q-5 -31 -38 -31h-119zM804 -89q30 0 25 -35q-34 -211 -163 -335.5t-343 -125.5h-1h-1q-71 0 -128.5 16.5t-95.5 45.5t-65.5 68t-38.5 83.5t-15 92.5t6 96q13 82 40 147.5t66 112.5t78 78.5t90 60.5 q67 40 112 80t67.5 80t32.5 69t16 69q4 28 31 28h116q29 0 24 -28q-7 -46 -15 -78.5t-24.5 -72.5t-40 -72t-62.5 -67.5t-91 -68.5q-78 -48 -129.5 -91.5t-77.5 -85.5t-37 -73t-18 -76q-22 -137 31 -199t154 -63q126 1 206 86.5t103 232.5q2 12 12.5 18.5t20.5 6.5h115z" />
<glyph unicode="&#xc0;" d="M699 1624q-29 13 -18 41l26 83q5 14 16.5 19.5t26.5 -1.5l306 -159q31 -17 21 -39l-13 -39q-13 -28 -41 -19zM1296 41q4 -15 -8 -28t-27 -13h-117q-20 0 -23 20l-73 282h-693l-161 -284q-11 -18 -30 -18h-117q-14 0 -21 12t2 31l798 1389q12 18 30 18h37h16q19 0 22 -18z M442 453h567l-177 683z" />
<glyph unicode="&#xc1;" d="M696 1527l-13 39q-10 22 20 39l306 159q15 7 26.5 1.5t16.5 -19.5l26 -83q11 -28 -18 -41l-323 -114q-28 -9 -41 19zM1296 41q4 -15 -8 -28t-27 -13h-117q-20 0 -23 20l-73 282h-693l-161 -284q-11 -18 -30 -18h-117q-14 0 -21 12t2 31l798 1389q12 18 30 18h37h16 q19 0 22 -18zM442 453h567l-177 683z" />
<glyph unicode="&#xc2;" d="M688 1536q-20 -12 -30 -8.5t-7 22.5l5 30q3 16 7.5 22.5t19.5 18.5l191 167q28 24 55 24h8q27 0 48 -24l136 -167q1 -1 3.5 -4t3.5 -4t3 -3.5t2.5 -4t1.5 -3.5t1 -4v-5v-6t-1 -7l-5 -30q-6 -39 -41 -14l-178 135zM1296 41q4 -15 -8 -28t-27 -13h-117q-20 0 -23 20 l-73 282h-693l-161 -284q-11 -18 -30 -18h-117q-14 0 -21 12t2 31l798 1389q12 18 30 18h37h16q19 0 22 -18zM442 453h567l-177 683z" />
<glyph unicode="&#xc3;" d="M595 1573q-16 7 -9 24q48 133 171 134h1h1q66 0 110 -17t75 -34t66 -17q19 0 51.5 11.5t59.5 40.5q13 13 29 4l20 -10q15 -7 8 -25q-48 -133 -167 -134h-1h-1q-76 1 -139 34t-111 33q-23 0 -57 -11.5t-59 -39.5q-12 -14 -28 -4zM1296 41q4 -15 -8 -28t-27 -13h-117 q-20 0 -23 20l-73 282h-693l-161 -284q-11 -18 -30 -18h-117q-14 0 -21 12t2 31l798 1389q12 18 30 18h37h16q19 0 22 -18zM442 453h567l-177 683z" />
<glyph unicode="&#xc4;" d="M753 1567q-34 0 -58 23t-24 57q0 35 24 58t58 23t57.5 -23t23.5 -58q0 -34 -23.5 -57t-57.5 -23zM1010 1567q-34 0 -57.5 23t-23.5 57q0 35 23.5 58t57.5 23t58 -23t24 -58q0 -34 -24 -57t-58 -23zM1296 41q4 -15 -8 -28t-27 -13h-117q-20 0 -23 20l-73 282h-693 l-161 -284q-11 -18 -30 -18h-117q-14 0 -21 12t2 31l798 1389q12 18 30 18h37h16q19 0 22 -18zM442 453h567l-177 683z" />
<glyph unicode="&#xc5;" d="M881 1504q-88 0 -148 57t-60 153t60 153t148 57q89 0 149.5 -57.5t60.5 -152.5t-60.5 -152.5t-149.5 -57.5zM881 1818q-44 0 -66 -31t-22 -73q0 -43 22 -74.5t66 -31.5t67.5 31.5t23.5 74.5q0 41 -23.5 72.5t-67.5 31.5zM1296 41q4 -15 -8 -28t-27 -13h-117q-20 0 -23 20 l-73 282h-693l-161 -284q-11 -18 -30 -18h-117q-14 0 -21 12t2 31l798 1389q12 18 30 18h37h16q19 0 22 -18zM442 453h567l-177 683z" />
<glyph unicode="&#xc6;" horiz-adv-x="2004" d="M2054 1434q12 0 19 -9.5t5 -21.5l-15 -90q-2 -12 -11.5 -21.5t-21.5 -9.5h-653l-78 -490h450q12 0 20 -8.5t6 -20.5l-14 -94q-2 -12 -13 -20.5t-23 -8.5h-450l-77 -488h655q12 0 20 -9.5t6 -21.5l-15 -90q-2 -12 -12.5 -21.5t-22.5 -9.5h-729h-76q-12 0 -20 9.5t-6 21.5 l43 271h-597l-237 -284q-16 -18 -29 -18h-139q-18 0 -26.5 12.5t5.5 30.5l1142 1372q16 19 31 19h106h75h682zM571 453h494l115 726z" />
<glyph unicode="&#xc7;" horiz-adv-x="1466" d="M1481 1198q12 -21 -8 -39l-85 -74q-10 -9 -23.5 -8.5t-19.5 10.5q-48 87 -153 149.5t-234 62.5q-148 0 -288.5 -79t-236 -213t-120.5 -290q-24 -151 29.5 -285.5t169 -215.5t261.5 -81q134 0 260.5 65t209.5 163q10 11 23.5 12t21.5 -8l60 -68q18 -20 -4 -42 q-114 -122 -257 -192.5t-294 -79.5l-31 -56q69 9 115 -35t34 -120q-13 -87 -69.5 -134.5t-145.5 -47.5q-50 0 -86.5 25.5t-43.5 51.5q-3 16 9 22l60 33q9 6 19 -8q7 -9 23.5 -17t34.5 -8q34 0 58 23.5t30 61.5q5 28 -9.5 45t-36 17t-41.5 -9q-8 -5 -16.5 -7t-12.5 -1l-5 1 l-54 18q-14 4 -7 21l71 125q-183 16 -321.5 118t-202 264.5t-33.5 348.5q31 197 155.5 365.5t309.5 268t385 99.5q160 0 292.5 -65.5t206.5 -186.5z" />
<glyph unicode="&#xc8;" horiz-adv-x="1116" d="M555 1624q-29 13 -18 41l26 83q5 14 16.5 19.5t26.5 -1.5l306 -159q31 -17 21 -39l-14 -39q-13 -28 -41 -19zM1137 1434q12 0 19 -9.5t5 -21.5l-14 -90q-2 -12 -12 -21.5t-22 -9.5h-653l-77 -490h450q12 0 20 -8.5t6 -20.5l-15 -94q-1 -12 -12 -20.5t-23 -8.5h-450 l-78 -488h655q12 0 20 -9.5t6 -21.5l-14 -90q-2 -12 -13 -21.5t-23 -9.5h-729h-75q-12 0 -20 9.5t-6 21.5l217 1372q2 12 13 21.5t23 9.5h121h681z" />
<glyph unicode="&#xc9;" horiz-adv-x="1116" d="M552 1527l-14 39q-10 22 21 39l306 159q15 7 26.5 1.5t16.5 -19.5l26 -83q11 -28 -18 -41l-323 -114q-28 -9 -41 19zM1137 1434q12 0 19 -9.5t5 -21.5l-14 -90q-2 -12 -12 -21.5t-22 -9.5h-653l-77 -490h450q12 0 20 -8.5t6 -20.5l-15 -94q-1 -12 -12 -20.5t-23 -8.5 h-450l-78 -488h655q12 0 20 -9.5t6 -21.5l-14 -90q-2 -12 -13 -21.5t-23 -9.5h-729h-75q-12 0 -20 9.5t-6 21.5l217 1372q2 12 13 21.5t23 9.5h121h681z" />
<glyph unicode="&#xca;" horiz-adv-x="1116" d="M543 1536q-20 -12 -29.5 -8.5t-6.5 22.5l5 30q3 16 7.5 22.5t19.5 18.5l191 167q28 24 55 24h8q26 0 47 -24l137 -167q1 -1 3.5 -4t3.5 -4t3 -3.5t2.5 -4t1.5 -3.5t1 -4v-5v-6t-1 -7l-5 -30q-6 -39 -41 -14l-178 135zM1137 1434q12 0 19 -9.5t5 -21.5l-14 -90 q-2 -12 -12 -21.5t-22 -9.5h-653l-77 -490h450q12 0 20 -8.5t6 -20.5l-15 -94q-1 -12 -12 -20.5t-23 -8.5h-450l-78 -488h655q12 0 20 -9.5t6 -21.5l-14 -90q-2 -12 -13 -21.5t-23 -9.5h-729h-75q-12 0 -20 9.5t-6 21.5l217 1372q2 12 13 21.5t23 9.5h121h681z" />
<glyph unicode="&#xcb;" horiz-adv-x="1116" d="M609 1567q-34 0 -58 23t-24 57q0 35 24 58t58 23t57.5 -23t23.5 -58q0 -34 -23.5 -57t-57.5 -23zM866 1567q-34 0 -58 23t-24 57q0 35 24 58t58 23t58 -23t24 -58q0 -34 -24 -57t-58 -23zM1137 1434q12 0 19 -9.5t5 -21.5l-14 -90q-2 -12 -12 -21.5t-22 -9.5h-653 l-77 -490h450q12 0 20 -8.5t6 -20.5l-15 -94q-1 -12 -12 -20.5t-23 -8.5h-450l-78 -488h655q12 0 20 -9.5t6 -21.5l-14 -90q-2 -12 -13 -21.5t-23 -9.5h-729h-75q-12 0 -20 9.5t-6 21.5l217 1372q2 12 13 21.5t23 9.5h121h681z" />
<glyph unicode="&#xcc;" horiz-adv-x="501" d="M564 1510l-323 114q-29 13 -18 41l26 83q5 14 16.5 19.5t26.5 -1.5l306 -159q30 -17 20 -39l-13 -39q-13 -28 -41 -19zM114 0q-12 0 -20 9.5t-6 21.5l218 1372q2 12 12.5 21.5t22.5 9.5h121q12 0 19 -9.5t5 -21.5l-217 -1372q-2 -12 -12 -21.5t-22 -9.5h-121z" />
<glyph unicode="&#xcd;" horiz-adv-x="501" d="M278 1508q-27 -9 -40 19l-14 39q-10 22 21 39l306 159q15 7 26.5 1.5t16.5 -19.5l26 -83q11 -28 -18 -41zM114 0q-12 0 -20 9.5t-6 21.5l218 1372q2 12 12.5 21.5t22.5 9.5h121q12 0 19 -9.5t5 -21.5l-217 -1372q-2 -12 -12 -21.5t-22 -9.5h-121z" />
<glyph unicode="&#xce;" horiz-adv-x="501" d="M663 1621q1 -1 3.5 -4t3.5 -4t3 -3.5t2.5 -4t1.5 -3.5t1 -4v-5v-6t-1 -7l-5 -30q-6 -39 -41 -14l-178 135l-224 -135q-20 -12 -29.5 -8.5t-6.5 22.5l4 30q3 16 7.5 22.5t19.5 18.5l192 167q28 24 55 24h8q26 0 47 -24zM462 1434q12 0 19 -9.5t5 -21.5l-217 -1372 q-2 -12 -12 -21.5t-22 -9.5h-121q-12 0 -20 9.5t-6 21.5l218 1372q2 12 12.5 21.5t22.5 9.5h121z" />
<glyph unicode="&#xcf;" horiz-adv-x="501" d="M294 1567q-34 0 -57.5 23t-23.5 57q0 35 23.5 58t57.5 23t58 -23t24 -58q0 -34 -24 -57t-58 -23zM552 1567q-34 0 -58 23t-24 57q0 35 24 58t58 23t57.5 -23t23.5 -58q0 -34 -23.5 -57t-57.5 -23zM114 0q-12 0 -20 9.5t-6 21.5l218 1372q2 12 12.5 21.5t22.5 9.5h121 q12 0 19 -9.5t5 -21.5l-217 -1372q-2 -12 -12 -21.5t-22 -9.5h-121z" />
<glyph unicode="&#xd0;" horiz-adv-x="1480" d="M877 1433q128 -3 232.5 -54t174.5 -141.5t97 -225.5t1 -297q-34 -212 -144.5 -375.5t-265.5 -250t-330 -89.5h-411h-54q-12 0 -20 9.5t-6 21.5l97 613h-158q-33 0 -27 31l15 81q6 31 39 31h154l97 616q2 12 13 21.5t23 9.5h121h352v-1zM1202 715q21 136 1 241.5t-72 178 t-128 110t-168 37.5h-306l-78 -495h285q33 0 27 -31l-15 -81q-6 -31 -38 -31h-282l-78 -492h306q92 0 180 38t162.5 108t128.5 178t75 239z" />
<glyph unicode="&#xd1;" horiz-adv-x="1386" d="M565 1573q-15 7 -8 24q48 133 170 134h1h1q66 0 110 -17t75 -34t66 -17q19 0 52 11.5t60 40.5q13 13 28 4l20 -10q15 -7 8 -25q-48 -133 -167 -134h-1h-1q-76 1 -139 34t-111 33q-23 0 -57 -11.5t-59 -39.5q-12 -14 -28 -4zM1365 1434q12 0 20 -9.5t6 -21.5l-218 -1374 q-2 -12 -12.5 -20.5t-22.5 -8.5h-72h-19q-33 0 -47 29l-565 1071l-170 -1071q-2 -12 -11.5 -20.5t-21.5 -8.5h-121q-12 0 -20 8.5t-6 20.5l217 1374q2 12 13 21.5t23 9.5h72h22q28 0 44 -31l564 -1077l170 1077q2 12 12 21.5t22 9.5h121z" />
<glyph unicode="&#xd2;" horiz-adv-x="1638" d="M1120 1510l-323 114q-29 13 -18 41l26 83q5 14 16.5 19.5t26.5 -1.5l306 -159q30 -17 20 -39l-13 -39q-13 -28 -41 -19zM749 -16q-200 0 -353 98t-224 266.5t-40 366.5q31 200 156 369t309.5 267.5t384.5 98.5q198 0 350.5 -98.5t223.5 -267.5t40 -369 q-31 -198 -156 -366.5t-309 -266.5t-382 -98zM773 135q146 0 285.5 77.5t236 211.5t121.5 291t-29 292t-168.5 213t-260.5 78q-111 0 -221 -46.5t-196.5 -124.5t-148 -186t-80.5 -226q-25 -158 28.5 -291.5t168.5 -211t264 -77.5z" />
<glyph unicode="&#xd3;" horiz-adv-x="1638" d="M834 1508q-28 -9 -41 19l-13 39q-10 22 21 39l306 159q15 7 26.5 1.5t16.5 -19.5l26 -83q11 -28 -18 -41zM749 -16q-200 0 -353 98t-224 266.5t-40 366.5q31 200 156 369t309.5 267.5t384.5 98.5q198 0 350.5 -98.5t223.5 -267.5t40 -369q-31 -198 -156 -366.5 t-309 -266.5t-382 -98zM773 135q146 0 285.5 77.5t236 211.5t121.5 291t-29 292t-168.5 213t-260.5 78q-111 0 -221 -46.5t-196.5 -124.5t-148 -186t-80.5 -226q-25 -158 28.5 -291.5t168.5 -211t264 -77.5z" />
<glyph unicode="&#xd4;" horiz-adv-x="1638" d="M785 1536q-20 -12 -29.5 -8.5t-6.5 22.5l4 30q3 16 7.5 22.5t19.5 18.5l192 167q28 24 55 24h8q26 0 47 -24l137 -167q1 -1 3.5 -4t3.5 -4t3 -3.5t2.5 -4t1.5 -3.5t1 -4v-5v-6t-1 -7l-5 -30q-6 -39 -41 -14l-178 135zM982 1450q198 0 350.5 -98.5t223.5 -267.5t40 -369 q-31 -198 -156 -366.5t-309 -266.5t-382 -98q-200 0 -353 98t-224 266.5t-40 366.5q31 200 156 369t309.5 267.5t384.5 98.5zM1416 715q25 157 -29 292t-168.5 213t-260.5 78q-111 0 -221 -46.5t-196.5 -124.5t-148 -186t-80.5 -226q-25 -158 28.5 -291.5t168.5 -211 t264 -77.5q146 0 285.5 77.5t236 211.5t121.5 291z" />
<glyph unicode="&#xd5;" horiz-adv-x="1638" d="M692 1573q-15 7 -8 24q48 133 171 134h1h1q66 0 110 -17t75 -34t66 -17q19 0 51.5 11.5t59.5 40.5q13 13 29 4l20 -10q15 -7 8 -25q-48 -133 -167 -134h-1h-1q-76 1 -139.5 34t-111.5 33q-23 0 -56.5 -11.5t-58.5 -39.5q-12 -14 -29 -4zM982 1450q198 0 350.5 -98.5 t223.5 -267.5t40 -369q-31 -198 -156 -366.5t-309 -266.5t-382 -98q-200 0 -353 98t-224 266.5t-40 366.5q31 200 156 369t309.5 267.5t384.5 98.5zM1416 715q25 157 -29 292t-168.5 213t-260.5 78q-111 0 -221 -46.5t-196.5 -124.5t-148 -186t-80.5 -226 q-25 -158 28.5 -291.5t168.5 -211t264 -77.5q146 0 285.5 77.5t236 211.5t121.5 291z" />
<glyph unicode="&#xd6;" horiz-adv-x="1638" d="M850 1567q-34 0 -57.5 23t-23.5 57q0 35 23.5 58t57.5 23t58 -23t24 -58q0 -34 -24 -57t-58 -23zM1108 1567q-34 0 -58 23t-24 57q0 35 24 58t58 23t57.5 -23t23.5 -58q0 -34 -23.5 -57t-57.5 -23zM749 -16q-200 0 -353 98t-224 266.5t-40 366.5q31 200 156 369 t309.5 267.5t384.5 98.5q198 0 350.5 -98.5t223.5 -267.5t40 -369q-31 -198 -156 -366.5t-309 -266.5t-382 -98zM773 135q146 0 285.5 77.5t236 211.5t121.5 291t-29 292t-168.5 213t-260.5 78q-111 0 -221 -46.5t-196.5 -124.5t-148 -186t-80.5 -226q-25 -158 28.5 -291.5 t168.5 -211t264 -77.5z" />
<glyph unicode="&#xd7;" horiz-adv-x="901" d="M772 431q24 -23 2 -45l-60 -59q-22 -25 -44 -1l-219 220l-219 -219q-24 -24 -45 -1l-60 60q-21 22 2 45l218 218l-218 218q-23 23 -2 45l60 59q22 25 44 2l220 -220l218 218q24 24 45 2l60 -61q22 -22 -2 -45l-218 -218z" />
<glyph unicode="&#xd8;" horiz-adv-x="1673" d="M1350 1339q143 -99 210 -264.5t36 -359.5q-31 -198 -156 -366.5t-309 -266.5t-382 -98q-147 0 -271 55l-17 -25q-19 -30 -48 -30h-66q-21 0 -27.5 15t4.5 30l47 71q-139 99 -204 262t-35 353q31 200 156 369t309.5 267.5t384.5 98.5q138 0 261 -52l14 21q20 31 45 31h81 q15 0 20 -11t-4 -26zM312 715q-23 -142 20 -265.5t137 -204.5l679 1013q-89 40 -190 40q-111 0 -221 -46.5t-196.5 -124.5t-148 -186t-80.5 -226zM1416 715q23 146 -22 271.5t-142 206.5l-681 -1014q94 -44 202 -44q146 0 285.5 77.5t236 211.5t121.5 291z" />
<glyph unicode="&#xd9;" horiz-adv-x="1351" d="M652 1624q-29 13 -18 41l26 83q5 14 16.5 19.5t26.5 -1.5l306 -159q31 -17 21 -39l-14 -39q-13 -28 -41 -19zM1335 1434q12 0 19 -10t5 -23l-128 -808v-1v-1q-23 -141 -67.5 -248.5t-118 -190t-184.5 -125.5t-256 -43q-118 0 -204.5 28.5t-137.5 81t-79 127.5t-28.5 168 t15.5 202v1v1l128 808q2 13 13 23t23 10h121q12 0 18.5 -9.5t4.5 -23.5l-122 -771q-41 -260 22 -377.5t250 -117.5q186 0 286.5 118t141.5 378l122 770q2 13 13 23t23 10h120z" />
<glyph unicode="&#xda;" horiz-adv-x="1351" d="M649 1527l-14 39q-10 22 21 39l306 159q15 7 26.5 1.5t16.5 -19.5l26 -83q11 -28 -18 -41l-323 -114q-28 -9 -41 19zM1335 1434q12 0 19 -10t5 -23l-128 -808v-1v-1q-23 -141 -67.5 -248.5t-118 -190t-184.5 -125.5t-256 -43q-118 0 -204.5 28.5t-137.5 81t-79 127.5 t-28.5 168t15.5 202v1v1l128 808q2 13 13 23t23 10h121q12 0 18.5 -9.5t4.5 -23.5l-122 -771q-41 -260 22 -377.5t250 -117.5q186 0 286.5 118t141.5 378l122 770q2 13 13 23t23 10h120z" />
<glyph unicode="&#xdb;" horiz-adv-x="1351" d="M641 1536q-20 -12 -30 -8.5t-7 22.5l5 30q3 16 7.5 22.5t19.5 18.5l191 167q28 24 55 24h8q26 0 47 -24l137 -167q1 -1 3.5 -4t3.5 -4t3 -3.5t2.5 -4t1.5 -3.5t1 -4v-5v-6t-1 -7l-5 -30q-6 -39 -41 -14l-178 135zM1335 1434q12 0 19 -10t5 -23l-128 -808v-1v-1 q-23 -141 -67.5 -248.5t-118 -190t-184.5 -125.5t-256 -43q-118 0 -204.5 28.5t-137.5 81t-79 127.5t-28.5 168t15.5 202v1v1l128 808q2 13 13 23t23 10h121q12 0 18.5 -9.5t4.5 -23.5l-122 -771q-41 -260 22 -377.5t250 -117.5q186 0 286.5 118t141.5 378l122 770 q2 13 13 23t23 10h120z" />
<glyph unicode="&#xdc;" horiz-adv-x="1351" d="M706 1567q-34 0 -58 23t-24 57q0 35 24 58t58 23t57.5 -23t23.5 -58q0 -34 -23.5 -57t-57.5 -23zM963 1567q-34 0 -58 23t-24 57q0 35 24 58t58 23t58 -23t24 -58q0 -34 -24 -57t-58 -23zM1335 1434q12 0 19 -10t5 -23l-128 -808v-1v-1q-23 -141 -67.5 -248.5t-118 -190 t-184.5 -125.5t-256 -43q-118 0 -204.5 28.5t-137.5 81t-79 127.5t-28.5 168t15.5 202v1v1l128 808q2 13 13 23t23 10h121q12 0 18.5 -9.5t4.5 -23.5l-122 -771q-41 -260 22 -377.5t250 -117.5q186 0 286.5 118t141.5 378l122 770q2 13 13 23t23 10h120z" />
<glyph unicode="&#xdd;" horiz-adv-x="1269" d="M628 1527l-13 39q-10 22 21 39l305 159q15 7 26.5 1.5t16.5 -19.5l27 -83q11 -28 -18 -41l-324 -114q-28 -9 -41 19zM1367 1434q16 0 23.5 -14.5t-4.5 -33.5l-612 -774l-93 -583q-2 -12 -12.5 -20.5t-22.5 -8.5h-119q-12 0 -20 8.5t-6 20.5l92 581l-366 779q-8 17 5 31 t29 14h109q28 0 47 -31l291 -633l494 633q29 31 54 31h111z" />
<glyph unicode="&#xde;" horiz-adv-x="1316" d="M899 1183q104 -1 183.5 -53.5t118 -156t17.5 -236.5q-21 -132 -95.5 -234.5t-173.5 -154.5t-204 -53h-441l-42 -265q-2 -12 -11.5 -20t-21.5 -8l-121 -2q-13 0 -20.5 8.5t-5.5 20.5l217 1374q2 12 12.5 21.5t23.5 9.5l121 1q12 0 19 -9t5 -21l-35 -222h454zM1038 737 q5 42 6.5 83.5t-10.5 80t-32.5 67.5t-60.5 46.5t-94 17.5h-426l-93 -586h430q75 0 137 44.5t96.5 109t46.5 137.5z" />
<glyph unicode="&#xdf;" horiz-adv-x="956" d="M647 1450q92 0 157.5 -13.5t103 -38.5t57.5 -60.5t21 -79t-6 -94.5q-7 -48 -32 -91.5t-57 -74t-69 -62.5t-68 -58t-54 -59.5t-28 -67.5q-6 -39 7.5 -73t37.5 -59t51.5 -58t50 -70t32 -94.5t-2.5 -131.5q-44 -281 -339 -281q-106 0 -183 53q-26 16 -8 41l46 69 q19 24 41 11q54 -37 121 -37q129 0 151 144q11 70 -7 125.5t-49.5 93t-63.5 73.5t-50 87t-8 114q9 55 42 104t74.5 84.5t82.5 67.5t72 67t36 70q15 93 -21 126.5t-160 33.5q-102 0 -158.5 -57t-76.5 -183l-165 -1040q-5 -31 -36 -31h-110q-13 0 -20.5 8.5t-5.5 22.5 l166 1048v2q12 73 34.5 131t48 96.5t61 66t66.5 41.5t73.5 22t72.5 10t72 2z" />
<glyph unicode="&#xe0;" horiz-adv-x="1038" d="M472 1140q-24 23 -6 45l48 73q21 27 47 6l250 -239q25 -23 10 -43l-24 -33q-22 -24 -46 -6zM941 866q12 0 18.5 -9t4.5 -23l-127 -803q-2 -12 -12.5 -21.5t-21.5 -9.5h-53q-39 0 -51 39l-19 61q-109 -116 -272 -116q-126 0 -209.5 59.5t-113.5 160t-10 228.5 q31 195 158 323t317 128q151 0 225 -99l46 50q30 32 54 32h66zM436 121q137 0 206 78.5t93 230.5q13 69 9 126.5t-23.5 99t-66 65t-118.5 23.5q-117 0 -194 -83t-100 -229q-22 -138 32.5 -224.5t161.5 -86.5z" />
<glyph unicode="&#xe1;" horiz-adv-x="1038" d="M488 949l-24 33q-15 20 10 43l249 239q26 21 47 -6l49 -73q18 -22 -7 -45l-279 -197q-24 -18 -45 6zM941 866q12 0 18.5 -9t4.5 -23l-127 -803q-2 -12 -12.5 -21.5t-21.5 -9.5h-53q-39 0 -51 39l-19 61q-109 -116 -272 -116q-126 0 -209.5 59.5t-113.5 160t-10 228.5 q31 195 158 323t317 128q151 0 225 -99l46 50q30 32 54 32h66zM436 121q137 0 206 78.5t93 230.5q13 69 9 126.5t-23.5 99t-66 65t-118.5 23.5q-117 0 -194 -83t-100 -229q-22 -138 32.5 -224.5t161.5 -86.5z" />
<glyph unicode="&#xe2;" horiz-adv-x="1038" d="M448 969q-20 -12 -29.5 -8.5t-6.5 22.5l5 30q3 16 7.5 22.5t19.5 18.5l191 166q29 25 55 25h8q25 0 47 -25l137 -166q1 -1 3.5 -4t3.5 -4t3 -3.5t2.5 -4t1.5 -3.5t1 -4v-5v-6t-1 -7l-5 -30q-6 -39 -41 -14l-178 135zM941 866q12 0 18.5 -9t4.5 -23l-127 -803 q-2 -12 -12.5 -21.5t-21.5 -9.5h-53q-39 0 -51 39l-19 61q-109 -116 -272 -116q-126 0 -209.5 59.5t-113.5 160t-10 228.5q31 195 158 323t317 128q151 0 225 -99l46 50q30 32 54 32h66zM436 121q137 0 206 78.5t93 230.5q13 69 9 126.5t-23.5 99t-66 65t-118.5 23.5 q-117 0 -194 -83t-100 -229q-22 -138 32.5 -224.5t161.5 -86.5z" />
<glyph unicode="&#xe3;" horiz-adv-x="1038" d="M356 1006q-16 8 -9 24q48 133 171 134h1h1q66 0 110 -17t75 -34t66 -17q11 0 26.5 3t40.5 15.5t44 32.5q13 13 29 4l20 -10q15 -7 8 -24q-48 -133 -167 -134h-1h-1q-76 1 -139 34t-111 33q-23 0 -57 -11.5t-59 -39.5q-12 -14 -28 -4zM941 866q12 0 18.5 -9t4.5 -23 l-127 -803q-2 -12 -12.5 -21.5t-21.5 -9.5h-53q-39 0 -51 39l-19 61q-109 -116 -272 -116q-126 0 -209.5 59.5t-113.5 160t-10 228.5q31 195 158 323t317 128q151 0 225 -99l46 50q30 32 54 32h66zM436 121q137 0 206 78.5t93 230.5q13 69 9 126.5t-23.5 99t-66 65 t-118.5 23.5q-117 0 -194 -83t-100 -229q-22 -138 32.5 -224.5t161.5 -86.5z" />
<glyph unicode="&#xe4;" horiz-adv-x="1038" d="M514 1000q-34 0 -58 23t-24 56q0 35 24 58.5t58 23.5t57.5 -23.5t23.5 -58.5q0 -34 -23.5 -56.5t-57.5 -22.5zM771 1000q-34 0 -58 23t-24 56q0 35 24 58.5t58 23.5t58 -23.5t24 -58.5q0 -33 -24 -56t-58 -23zM941 866q12 0 18.5 -9t4.5 -23l-127 -803 q-2 -12 -12.5 -21.5t-21.5 -9.5h-53q-39 0 -51 39l-19 61q-109 -116 -272 -116q-126 0 -209.5 59.5t-113.5 160t-10 228.5q31 195 158 323t317 128q151 0 225 -99l46 50q30 32 54 32h66zM436 121q137 0 206 78.5t93 230.5q13 69 9 126.5t-23.5 99t-66 65t-118.5 23.5 q-117 0 -194 -83t-100 -229q-22 -138 32.5 -224.5t161.5 -86.5z" />
<glyph unicode="&#xe5;" horiz-adv-x="1038" d="M642 937q-88 0 -148 57t-60 153t60 153t148 57q89 0 149.5 -57.5t60.5 -152.5t-60.5 -152.5t-149.5 -57.5zM642 1251q-44 0 -66 -31t-22 -73q0 -43 22 -74.5t66 -31.5t67 31.5t23 74.5q0 41 -23 72.5t-67 31.5zM941 866q12 0 18.5 -9t4.5 -23l-127 -803 q-2 -12 -12.5 -21.5t-21.5 -9.5h-53q-39 0 -51 39l-19 61q-109 -116 -272 -116q-126 0 -209.5 59.5t-113.5 160t-10 228.5q31 195 158 323t317 128q151 0 225 -99l46 50q30 32 54 32h66zM436 121q137 0 206 78.5t93 230.5q13 69 9 126.5t-23.5 99t-66 65t-118.5 23.5 q-117 0 -194 -83t-100 -229q-22 -138 32.5 -224.5t161.5 -86.5z" />
<glyph unicode="&#xe6;" horiz-adv-x="1460" d="M1072 883q175 0 258.5 -116.5t45.5 -352.5q-2 -13 -13.5 -22t-22.5 -9h-136h-441q-5 -122 51.5 -193t152.5 -71q138 0 234 106q22 23 42 1l50 -54q19 -19 -2 -40q-147 -148 -348 -148q-98 0 -173.5 39.5t-120.5 111.5q-61 -71 -154.5 -111t-188.5 -40q-154 0 -230.5 90 t-56.5 218q18 116 126.5 203t259.5 87q119 0 201 -54l4 23q31 197 -173 197q-20 0 -40 -2t-40 -6.5t-35.5 -8.5t-35.5 -11t-29.5 -10.5t-28 -11t-21.5 -8.5q-11 -4 -19 -0.5t-10 13.5l-14 83q-3 16 15 28q138 69 290 69q233 0 292 -129q132 129 311 129zM784 508h434 q11 125 -35.5 182.5t-132.5 57.5q-98 0 -166 -61.5t-100 -178.5zM343 112q57 0 100.5 16.5t68.5 45t38.5 58t18.5 62.5q14 86 -21.5 125.5t-149.5 39.5q-73 0 -136.5 -45t-75.5 -122q-14 -89 34.5 -134.5t122.5 -45.5z" />
<glyph unicode="&#xe7;" horiz-adv-x="974" d="M591 744q-124 0 -224.5 -90t-121.5 -224q-20 -128 52.5 -218.5t194.5 -90.5q90 0 159 40.5t104 81.5q8 10 20.5 12t23.5 -8l50 -56q15 -18 -2 -39q-133 -150 -337 -167l-31 -56q69 9 115 -35t34 -120q-13 -87 -69.5 -134.5t-145.5 -47.5q-50 0 -87 25.5t-44 51.5 q-3 16 9 22l61 33q9 6 19 -8q7 -9 23.5 -17t33.5 -8q34 0 58.5 23.5t30.5 61.5q5 28 -10 45t-36.5 17t-41.5 -9q-8 -5 -16.5 -7t-12.5 -1l-5 1l-54 18q-14 4 -7 21l72 127q-163 22 -259 148t-69 294q30 187 187.5 320t343.5 133q105 0 189.5 -40t133.5 -113q10 -20 -9 -39 l-74 -66q-10 -9 -22 -8.5t-18 10.5q-68 117 -218 117z" />
<glyph unicode="&#xe8;" horiz-adv-x="1007" d="M410 1140q-24 23 -6 45l48 73q21 27 47 6l249 -239q25 -23 10 -43l-24 -33q-21 -24 -45 -6zM586 883q202 0 286.5 -126.5t50.5 -342.5q-2 -13 -13.5 -22t-22.5 -9h-136h-511q0 -120 70 -192t166 -72q137 0 264 97q24 20 42 -6l37 -56q8 -15 6.5 -23.5t-13.5 -19.5 q-53 -48 -157 -87.5t-214 -39.5q-88 0 -162.5 33.5t-124.5 92t-71.5 143t-6.5 181.5q31 195 181 322t329 127zM259 508h506q5 107 -50 173.5t-160 66.5q-94 0 -177.5 -64.5t-118.5 -175.5z" />
<glyph unicode="&#xe9;" horiz-adv-x="1007" d="M426 949l-25 33q-15 20 10 43l250 239q26 21 47 -6l48 -73q18 -22 -6 -45l-279 -197q-24 -18 -45 6zM586 883q202 0 286.5 -126.5t50.5 -342.5q-2 -13 -13.5 -22t-22.5 -9h-136h-511q0 -120 70 -192t166 -72q137 0 264 97q24 20 42 -6l37 -56q8 -15 6.5 -23.5 t-13.5 -19.5q-53 -48 -157 -87.5t-214 -39.5q-88 0 -162.5 33.5t-124.5 92t-71.5 143t-6.5 181.5q31 195 181 322t329 127zM259 508h506q5 107 -50 173.5t-160 66.5q-94 0 -177.5 -64.5t-118.5 -175.5z" />
<glyph unicode="&#xea;" horiz-adv-x="1007" d="M386 969q-20 -12 -30 -8.5t-7 22.5l5 30q3 16 7.5 22.5t19.5 18.5l191 166q29 25 55 25h9q25 0 47 -25l137 -166q8 -9 9.5 -11.5t4.5 -11.5t-1 -18l-4 -30q-6 -39 -41 -14l-179 135zM586 883q202 0 286.5 -126.5t50.5 -342.5q-2 -13 -13.5 -22t-22.5 -9h-136h-511 q0 -120 70 -192t166 -72q137 0 264 97q24 20 42 -6l37 -56q8 -15 6.5 -23.5t-13.5 -19.5q-53 -48 -157 -87.5t-214 -39.5q-88 0 -162.5 33.5t-124.5 92t-71.5 143t-6.5 181.5q31 195 181 322t329 127zM259 508h506q5 107 -50 173.5t-160 66.5q-94 0 -177.5 -64.5 t-118.5 -175.5z" />
<glyph unicode="&#xeb;" horiz-adv-x="1007" d="M451 1000q-34 0 -57.5 22.5t-23.5 56.5q0 35 23.5 58.5t57.5 23.5t58 -23.5t24 -58.5q0 -33 -24 -56t-58 -23zM709 1000q-34 0 -58 23t-24 56q0 35 24 58.5t58 23.5t57.5 -23.5t23.5 -58.5q0 -34 -23.5 -56.5t-57.5 -22.5zM586 883q202 0 286.5 -126.5t50.5 -342.5 q-2 -13 -13.5 -22t-22.5 -9h-136h-511q0 -120 70 -192t166 -72q137 0 264 97q24 20 42 -6l37 -56q8 -15 6.5 -23.5t-13.5 -19.5q-53 -48 -157 -87.5t-214 -39.5q-88 0 -162.5 33.5t-124.5 92t-71.5 143t-6.5 181.5q31 195 181 322t329 127zM259 508h506q5 107 -50 173.5 t-160 66.5q-94 0 -177.5 -64.5t-118.5 -175.5z" />
<glyph unicode="&#xec;" horiz-adv-x="440" d="M433 1167l-279 198q-24 23 -6 45l48 72q21 27 47 6l249 -238q25 -23 10 -43l-24 -33q-22 -24 -45 -7zM96 0q-12 0 -20 8.5t-6 20.5l127 802q2 15 13 25t23 10h111q13 0 20 -10t5 -25l-127 -802q-2 -12 -12 -20.5t-23 -8.5h-111z" />
<glyph unicode="&#xed;" horiz-adv-x="440" d="M215 1167q-23 -17 -45 7l-24 33q-15 20 10 43l249 238q26 21 47 -6l48 -72q18 -22 -6 -45zM96 0q-12 0 -20 8.5t-6 20.5l127 802q2 15 13 25t23 10h111q13 0 20 -10t5 -25l-127 -802q-2 -12 -12 -20.5t-23 -8.5h-111z" />
<glyph unicode="&#xee;" horiz-adv-x="440" d="M564 1278q1 -1 3.5 -4t3.5 -4t3 -3.5t2.5 -4t1.5 -3.5t1 -4v-5v-6t-1 -7l-5 -29q-6 -40 -41 -15l-178 136l-224 -136q-20 -12 -29.5 -8t-6.5 23l4 29q3 16 7.5 22.5t19.5 18.5l192 167q29 25 55 25h8q25 0 47 -25zM344 866q13 0 20 -10t5 -25l-127 -802q-2 -12 -12 -20.5 t-23 -8.5h-111q-12 0 -20 8.5t-6 20.5l127 802q2 15 13 25t23 10h111z" />
<glyph unicode="&#xef;" horiz-adv-x="440" d="M195 1224q-34 0 -57.5 23t-23.5 57q0 35 23.5 58.5t57.5 23.5t58 -23.5t24 -58.5q0 -34 -24 -57t-58 -23zM453 1224q-34 0 -58 23t-24 57q0 35 24 58.5t58 23.5t57.5 -23.5t23.5 -58.5q0 -34 -23.5 -57t-57.5 -23zM96 0q-12 0 -20 8.5t-6 20.5l127 802q2 15 13 25t23 10 h111q13 0 20 -10t5 -25l-127 -802q-2 -12 -12 -20.5t-23 -8.5h-111z" />
<glyph unicode="&#xf0;" horiz-adv-x="1085" d="M1013 759q3 -109 -7.5 -204t-30 -156t-31 -89t-22.5 -46q-69 -126 -193.5 -203t-269.5 -77q-193 0 -302 130t-79 316q30 189 180.5 321t343.5 132q137 0 237 -73q-9 173 -159 333l-74 -90q-19 -23 -43 -4l-46 38q-10 8 -11 19.5t9 23.5l77 95q-71 58 -140 97 q-28 15 -11 39l46 69q13 20 27.5 20.5t29.5 -10.5q73 -39 148 -92l70 85q19 26 45 5l44 -36q24 -19 4 -44l-70 -85q220 -202 228 -514zM813 430q21 133 -46 223.5t-187 90.5q-121 0 -217 -90.5t-116 -223.5q-22 -131 45.5 -220t188.5 -89q120 0 215.5 89t116.5 220z" />
<glyph unicode="&#xf1;" horiz-adv-x="1056" d="M311 1006q-15 7 -8 24q48 133 171 134h2q66 0 109.5 -17t74.5 -34t66 -17q11 0 26.5 3t41 15.5t44.5 32.5q13 13 28 4l20 -10q15 -7 8 -24q-48 -133 -166 -134h-2q-76 1 -139.5 34t-111.5 33q-23 0 -56.5 -11.5t-58.5 -39.5q-12 -14 -29 -4zM646 883q365 0 304 -385 l-74 -467q-2 -14 -14.5 -22.5t-23.5 -8.5h-108q-31 0 -26 31l72 454q21 133 -19.5 196t-172.5 63q-120 0 -192 -56t-84 -132l-83 -525q-5 -31 -36 -31h-112q-29 0 -24 31l127 800q2 12 11 23.5t23 11.5h89q9 0 17.5 -9.5t10.5 -25.5l10 -64v-1q58 55 138 86t167 31z" />
<glyph unicode="&#xf2;" horiz-adv-x="1058" d="M728 943l-279 197q-25 23 -7 45l49 73q21 27 47 6l249 -239q25 -23 10 -43l-24 -33q-21 -24 -45 -6zM459 -16q-193 0 -302 130t-79 316q30 189 180.5 321t343.5 132q126 0 220.5 -61t136 -164.5t21.5 -227.5q-30 -186 -179.5 -316t-341.5 -130zM481 121q120 0 215.5 89 t116.5 220q21 133 -46 223.5t-187 90.5q-121 0 -217 -90.5t-116 -223.5q-22 -131 45.5 -220t188.5 -89z" />
<glyph unicode="&#xf3;" horiz-adv-x="1058" d="M509 943q-24 -18 -45 6l-24 33q-15 20 10 43l250 239q26 21 47 -6l48 -73q18 -22 -6 -45zM459 -16q-193 0 -302 130t-79 316q30 189 180.5 321t343.5 132q126 0 220.5 -61t136 -164.5t21.5 -227.5q-30 -186 -179.5 -316t-341.5 -130zM481 121q120 0 215.5 89t116.5 220 q21 133 -46 223.5t-187 90.5q-121 0 -217 -90.5t-116 -223.5q-22 -131 45.5 -220t188.5 -89z" />
<glyph unicode="&#xf4;" horiz-adv-x="1058" d="M425 969q-20 -12 -30 -8.5t-7 22.5l5 30q3 16 7.5 22.5t19.5 18.5l191 166q29 25 55 25h9q25 0 47 -25l136 -166q1 -1 3.5 -4t3.5 -4t3 -3.5t2.5 -4t1.5 -3.5t1 -4v-5v-6t-1 -7l-4 -30q-3 -19 -14.5 -22.5t-27.5 8.5l-178 135zM602 883q126 0 220.5 -61t136 -164.5 t21.5 -227.5q-30 -186 -179.5 -316t-341.5 -130q-193 0 -302 130t-79 316q30 189 180.5 321t343.5 132zM813 430q21 133 -46 223.5t-187 90.5q-121 0 -217 -90.5t-116 -223.5q-22 -131 45.5 -220t188.5 -89q120 0 215.5 89t116.5 220z" />
<glyph unicode="&#xf5;" horiz-adv-x="1058" d="M332 1006q-15 7 -8 24q48 133 171 134h2q66 0 109.5 -17t74.5 -34t66 -17q11 0 26.5 3t41 15.5t44.5 32.5q13 13 28 4l20 -10q15 -7 8 -24q-48 -133 -166 -134h-2q-76 1 -139.5 34t-111.5 33q-23 0 -56.5 -11.5t-58.5 -39.5q-12 -14 -29 -4zM602 883q126 0 220.5 -61 t136 -164.5t21.5 -227.5q-30 -186 -179.5 -316t-341.5 -130q-193 0 -302 130t-79 316q30 189 180.5 321t343.5 132zM813 430q21 133 -46 223.5t-187 90.5q-121 0 -217 -90.5t-116 -223.5q-22 -131 45.5 -220t188.5 -89q120 0 215.5 89t116.5 220z" />
<glyph unicode="&#xf6;" horiz-adv-x="1058" d="M490 1000q-34 0 -58 23t-24 56q0 35 24 58.5t58 23.5t58 -23.5t24 -58.5q0 -33 -24 -56t-58 -23zM747 1000q-34 0 -57.5 22.5t-23.5 56.5q0 35 23.5 58.5t57.5 23.5t58 -23.5t24 -58.5q0 -33 -24 -56t-58 -23zM459 -16q-193 0 -302 130t-79 316q30 189 180.5 321 t343.5 132q126 0 220.5 -61t136 -164.5t21.5 -227.5q-30 -186 -179.5 -316t-341.5 -130zM481 121q120 0 215.5 89t116.5 220q21 133 -46 223.5t-187 90.5q-121 0 -217 -90.5t-116 -223.5q-22 -131 45.5 -220t188.5 -89z" />
<glyph unicode="&#xf7;" horiz-adv-x="995" d="M554 892q-48 0 -80.5 33t-32.5 80t32.5 80.5t80.5 33.5q46 0 80 -33.5t34 -80.5q0 -46 -33.5 -79.5t-80.5 -33.5zM165 628q-32 0 -32 31v77q0 31 32 31h751q33 0 33 -31v-77q0 -31 -33 -31h-751zM554 269q-48 0 -80.5 33.5t-32.5 80.5t32.5 80.5t80.5 33.5q46 0 80 -33.5 t34 -80.5t-34 -80.5t-80 -33.5z" />
<glyph unicode="&#xf8;" horiz-adv-x="1058" d="M839 810q84 -62 122 -162t19 -218q-30 -186 -179.5 -316t-341.5 -130q-87 0 -156 27q-19 -27 -46 -27h-36q-21 0 -28 15t4 30l20 29q-83 61 -120.5 159t-18.5 213q30 189 180.5 321t343.5 132q80 0 151 -27q18 27 42 27h51q15 0 20.5 -11t-3.5 -26zM247 430 q-24 -147 60 -238l360 537q-39 15 -87 15q-121 0 -217 -90.5t-116 -223.5zM813 430q24 152 -64 245l-361 -537q43 -17 93 -17q120 0 215.5 89t116.5 220z" />
<glyph unicode="&#xf9;" horiz-adv-x="1050" d="M425 1140q-24 23 -6 45l48 73q21 27 47 6l250 -239q25 -23 10 -43l-24 -33q-21 -24 -45 -6zM973 866q12 0 19.5 -10t5.5 -25l-127 -802q-2 -12 -12.5 -20.5t-22.5 -8.5h-52q-27 0 -40 29l-34 73q-114 -118 -300 -118q-174 0 -252.5 102.5t-54.5 258.5l77 486q2 15 12 25 t22 10h112q12 0 20 -10t6 -25l-75 -471q-16 -103 34.5 -171t168.5 -68q115 0 183 58t80 128l83 524q6 35 36 35h111z" />
<glyph unicode="&#xfa;" horiz-adv-x="1050" d="M441 949l-24 33q-15 20 10 43l249 239q26 21 47 -6l49 -73q18 -22 -6 -45l-280 -197q-24 -18 -45 6zM973 866q12 0 19.5 -10t5.5 -25l-127 -802q-2 -12 -12.5 -20.5t-22.5 -8.5h-52q-27 0 -40 29l-34 73q-114 -118 -300 -118q-174 0 -252.5 102.5t-54.5 258.5l77 486 q2 15 12 25t22 10h112q12 0 20 -10t6 -25l-75 -471q-16 -103 34.5 -171t168.5 -68q115 0 183 58t80 128l83 524q6 35 36 35h111z" />
<glyph unicode="&#xfb;" horiz-adv-x="1050" d="M402 969q-20 -12 -30 -8.5t-7 22.5l5 30q3 16 7.5 22.5t19.5 18.5l191 166q29 25 55 25h8q26 0 48 -25l136 -166q1 -1 3.5 -4t3.5 -4t3 -3.5t2.5 -4t1.5 -3.5t1 -4v-5v-6t-1 -7l-5 -30q-6 -39 -41 -14l-178 135zM973 866q12 0 19.5 -10t5.5 -25l-127 -802 q-2 -12 -12.5 -20.5t-22.5 -8.5h-52q-27 0 -40 29l-34 73q-114 -118 -300 -118q-174 0 -252.5 102.5t-54.5 258.5l77 486q2 15 12 25t22 10h112q12 0 20 -10t6 -25l-75 -471q-16 -103 34.5 -171t168.5 -68q115 0 183 58t80 128l83 524q6 35 36 35h111z" />
<glyph unicode="&#xfc;" horiz-adv-x="1050" d="M467 1000q-34 0 -58 23t-24 56q0 35 24 58.5t58 23.5t57.5 -23.5t23.5 -58.5q0 -34 -23.5 -56.5t-57.5 -22.5zM724 1000q-34 0 -57.5 22.5t-23.5 56.5q0 35 23.5 58.5t57.5 23.5t58 -23.5t24 -58.5q0 -33 -24 -56t-58 -23zM973 866q12 0 19.5 -10t5.5 -25l-127 -802 q-2 -12 -12.5 -20.5t-22.5 -8.5h-52q-27 0 -40 29l-34 73q-114 -118 -300 -118q-174 0 -252.5 102.5t-54.5 258.5l77 486q2 15 12 25t22 10h112q12 0 20 -10t6 -25l-75 -471q-16 -103 34.5 -171t168.5 -68q115 0 183 58t80 128l83 524q6 35 36 35h111z" />
<glyph unicode="&#xfd;" horiz-adv-x="1034" d="M429 949l-25 33q-15 20 10 43l250 239q26 21 47 -6l48 -73q18 -22 -6 -45l-279 -197q-24 -18 -45 6zM1017 866q15 0 23 -12t-1 -31l-917 -1380q-10 -16 -29 -16h-103q-15 0 -22.5 12t2.5 31l384 579l-234 774q-5 13 5 28t28 15h110q23 0 30 -30l176 -615l416 627 q11 18 31 18h101z" />
<glyph unicode="&#xfe;" horiz-adv-x="1009" d="M621 883q95 0 166 -36.5t108 -98.5t52 -145t-2 -175q-31 -195 -156 -319.5t-311 -124.5q-154 0 -242 115l-68 -429q-2 -12 -13 -21.5t-23 -9.5h-112q-12 0 -19 9.5t-5 21.5l241 1522q2 15 12 25t22 10h114q29 0 24 -35l-67 -419q123 110 279 110zM778 428q23 148 -25 232 t-172 84q-138 0 -204 -77.5t-91 -234.5q-14 -95 -6.5 -164t58 -108t146.5 -39q120 0 195.5 79t98.5 228z" />
<glyph unicode="&#xff;" horiz-adv-x="1034" d="M454 1000q-34 0 -58 23t-24 56q0 35 24 58.5t58 23.5t58 -23.5t24 -58.5q0 -33 -24 -56t-58 -23zM711 1000q-34 0 -57.5 22.5t-23.5 56.5q0 35 23.5 58.5t57.5 23.5t58 -23.5t24 -58.5q0 -33 -24 -56t-58 -23zM1017 866q15 0 23 -12t-1 -31l-917 -1380q-10 -16 -29 -16 h-103q-15 0 -22.5 12t2.5 31l384 579l-234 774q-5 13 5 28t28 15h110q23 0 30 -30l176 -615l416 627q11 18 31 18h101z" />
<glyph unicode="&#x152;" horiz-adv-x="1859" d="M1911 1434q12 0 19 -9.5t5 -21.5l-14 -90q-2 -12 -12 -21.5t-22 -9.5h-652l-78 -490h450q12 0 20 -8.5t6 -20.5l-15 -94q-1 -12 -12 -20.5t-23 -8.5h-450l-77 -488h654q12 0 20 -9.5t6 -21.5l-14 -90q-2 -12 -13 -21.5t-23 -9.5h-729h-69q-87 -16 -154 -16h-2 q-102 0 -200.5 30t-183.5 92t-145 147.5t-85 205.5t-3 258t85 258t149.5 205.5t191.5 147.5t212.5 92t208.5 30q79 0 153 -16h115h681zM296 719q-21 -130 5.5 -240.5t89.5 -185.5t157.5 -116.5t207.5 -41.5q64 0 119 12l180 1139q-50 12 -117 12q-152 -1 -288 -72.5 t-231.5 -204.5t-122.5 -302z" />
<glyph unicode="&#x153;" horiz-adv-x="1591" d="M1203 883q175 0 258.5 -116.5t45.5 -352.5q-2 -13 -13.5 -22t-22.5 -9h-136h-440q-5 -123 51 -193.5t152 -70.5q138 0 234 106q22 23 42 1l50 -54q19 -19 -2 -40q-147 -148 -348 -148q-102 0 -180.5 43t-121.5 121q-138 -164 -355 -164q-127 0 -212 60t-116 160.5 t-11 225.5q31 196 161 324.5t321 128.5q211 0 300 -164q66 78 155 121t188 43zM915 508h434q11 125 -35.5 182.5t-132.5 57.5q-98 0 -166 -61.5t-100 -178.5zM439 121q116 0 192 80.5t100 230.5q24 151 -26.5 231.5t-166.5 80.5q-117 0 -192.5 -80.5t-99.5 -231.5 q-24 -150 27 -230.5t166 -80.5z" />
<glyph unicode="&#x178;" horiz-adv-x="1269" d="M685 1567q-34 0 -57.5 23t-23.5 57q0 35 23.5 58t57.5 23t58 -23t24 -58q0 -34 -24 -57t-58 -23zM943 1567q-34 0 -58 23t-24 57q0 35 24 58t58 23t57.5 -23t23.5 -58q0 -34 -23.5 -57t-57.5 -23zM1367 1434q16 0 23.5 -14.5t-4.5 -33.5l-612 -774l-93 -583 q-2 -12 -12.5 -20.5t-22.5 -8.5h-119q-12 0 -20 8.5t-6 20.5l92 581l-366 779q-8 17 5 31t29 14h109q28 0 47 -31l291 -633l494 633q29 31 54 31h111z" />
<glyph unicode="&#x2c6;" horiz-adv-x="720" d="M753 1427q1 -1 3.5 -4t3.5 -4t3 -3.5t2.5 -4t1.5 -3.5t1 -4v-5v-6t-1 -7l-5 -30q-6 -40 -41 -15l-179 136l-223 -136q-20 -12 -29.5 -8t-6.5 23l4 30q3 16 7.5 22.5t19.5 18.5l192 166q29 25 55 25h8q25 0 47 -25z" />
<glyph unicode="&#x2dc;" horiz-adv-x="813" d="M854 1514q15 -7 8 -24q-49 -134 -167 -135h-1h-1q-76 1 -139.5 34.5t-111.5 33.5q-23 0 -56.5 -11.5t-58.5 -39.5q-12 -14 -29 -4l-20 10q-15 7 -8 25q48 132 171 133h1h1q52 0 91.5 -10.5t59 -23t45.5 -23t55 -10.5q11 0 26.5 3t40.5 15.5t44 32.5q13 13 29 4z" />
<glyph unicode="&#x2000;" horiz-adv-x="962" />
<glyph unicode="&#x2001;" horiz-adv-x="1924" />
<glyph unicode="&#x2002;" horiz-adv-x="962" />
<glyph unicode="&#x2003;" horiz-adv-x="1924" />
<glyph unicode="&#x2004;" horiz-adv-x="641" />
<glyph unicode="&#x2005;" horiz-adv-x="481" />
<glyph unicode="&#x2006;" horiz-adv-x="320" />
<glyph unicode="&#x2007;" horiz-adv-x="320" />
<glyph unicode="&#x2008;" horiz-adv-x="240" />
<glyph unicode="&#x2009;" horiz-adv-x="384" />
<glyph unicode="&#x200a;" horiz-adv-x="106" />
<glyph unicode="&#x2010;" horiz-adv-x="782" d="M159 494q-33 0 -28 31l12 77q5 31 38 31h484q33 0 28 -31l-12 -77q-5 -31 -37 -31h-485z" />
<glyph unicode="&#x2011;" horiz-adv-x="782" d="M159 494q-33 0 -28 31l12 77q5 31 38 31h484q33 0 28 -31l-12 -77q-5 -31 -37 -31h-485z" />
<glyph unicode="&#x2012;" horiz-adv-x="782" d="M159 494q-33 0 -28 31l12 77q5 31 38 31h484q33 0 28 -31l-12 -77q-5 -31 -37 -31h-485z" />
<glyph unicode="&#x2013;" horiz-adv-x="1048" d="M159 494q-33 0 -28 31l12 77q5 31 38 31h750q33 0 28 -31l-12 -77q-5 -31 -38 -31h-750z" />
<glyph unicode="&#x2014;" horiz-adv-x="1595" d="M159 494q-33 0 -28 31l12 77q5 31 38 31h1296q33 0 28 -31l-12 -77q-5 -31 -37 -31h-1297z" />
<glyph unicode="&#x2018;" horiz-adv-x="399" d="M362 1238q49 -18 43 -57l-26 -165q-4 -31 -38 -31h-142q-32 0 -28 31l31 195q1 6 5 12l134 273h48q10 0 15.5 -9t-0.5 -25l-85 -209z" />
<glyph unicode="&#x2019;" horiz-adv-x="399" d="M457 1495q32 0 28 -31l-30 -195q-1 -6 -5 -12l-135 -273h-48q-10 0 -15 8t0 25l86 209l-44 15q-49 18 -43 58l26 165q4 31 38 31h142z" />
<glyph unicode="&#x201a;" horiz-adv-x="372" d="M262 248q32 0 28 -31l-31 -194q-2 -9 -4 -12l-135 -274h-48q-10 0 -15.5 8.5t0.5 25.5l86 209l-44 15q-49 18 -43 57l26 165q4 31 38 31h142z" />
<glyph unicode="&#x201c;" horiz-adv-x="706" d="M396 1496q10 0 15 -8t0 -25l-86 -209l44 -15q49 -18 43 -58l-26 -165q-4 -31 -39 -31h-141q-32 0 -28 31l30 195q1 6 5 12l135 273h48zM670 1239q49 -18 43 -58l-26 -165q-4 -31 -38 -31h-142q-32 0 -28 31l30 195q1 6 5 12l135 273h48q10 0 15 -8t0 -25l-86 -209z" />
<glyph unicode="&#x201d;" horiz-adv-x="706" d="M456 1495q33 0 29 -31l-31 -195q-1 -6 -5 -12l-135 -273h-48q-10 0 -15 8t0 25l86 209l-44 15q-49 17 -42 58l26 165q4 31 38 31h141zM758 1495q32 0 28 -31l-31 -195q-1 -6 -5 -12l-134 -273h-49q-10 0 -15 8t0 25l86 209l-43 15q-49 18 -43 58l26 165q4 31 38 31h142z " />
<glyph unicode="&#x201e;" horiz-adv-x="673" d="M263 248q32 0 28 -31l-31 -194q-2 -9 -4 -12l-135 -274h-48q-10 0 -15.5 8.5t0.5 25.5l86 209l-44 15q-49 18 -43 57l26 165q4 31 38 31h142zM564 248q32 0 28 -31l-31 -194q-2 -9 -4 -12l-135 -274h-48q-10 0 -15.5 8.5t0.5 25.5l86 209l-44 15q-49 18 -43 57l26 165 q4 31 38 31h142z" />
<glyph unicode="&#x2022;" horiz-adv-x="462" d="M283 648q-48 0 -80.5 33t-32.5 80t32.5 80.5t80.5 33.5q47 0 80.5 -33.5t33.5 -80.5q0 -46 -33.5 -79.5t-80.5 -33.5z" />
<glyph unicode="&#x2026;" horiz-adv-x="1433" d="M47 0q-33 0 -28 31l21 134q5 31 38 31h134q33 0 28 -31l-22 -134q-3 -15 -14.5 -23t-22.5 -8h-134zM564 0q-33 0 -28 31l21 134q5 31 38 31h134q33 0 28 -31l-21 -134q-3 -15 -15 -23t-23 -8h-134zM1081 0q-33 0 -28 31l22 134q5 31 37 31h134q33 0 28 -31l-21 -134 q-3 -15 -15 -23t-23 -8h-134z" />
<glyph unicode="&#x202f;" horiz-adv-x="384" />
<glyph unicode="&#x2039;" horiz-adv-x="655" d="M584 883q19 0 23 -11.5t-9 -28.5l-312 -410l182 -410q8 -17 0.5 -28t-26.5 -11h-50q-35 0 -46 20l-210 371q-24 36 -21 51l1 4l2 10q4 20 36 52l328 370q20 21 53 21h49z" />
<glyph unicode="&#x203a;" horiz-adv-x="655" d="M520 492q24 -36 21 -52l-1 -4l-2 -10q-3 -18 -36 -51l-328 -371q-19 -20 -53 -20h-49q-19 0 -23 11t9 28l312 410l-182 410q-8 17 -0.5 28.5t26.5 11.5h50q34 0 46 -21z" />
<glyph unicode="&#x205f;" horiz-adv-x="481" />
<glyph unicode="&#x20ac;" horiz-adv-x="1275" d="M1257 1383q9 -7 10.5 -18t-8.5 -25l-69 -82q-23 -25 -45 -10q-78 51 -189 51q-170 0 -287.5 -98.5t-181.5 -269.5h360q12 0 20 -9.5t6 -21.5l-10 -67q-2 -12 -13 -21t-23 -9h-378q-7 -30 -16 -84q-8 -50 -11 -88h378q12 0 20 -9.5t6 -21.5l-11 -66q-2 -12 -12.5 -21.5 t-22.5 -9.5h-360q9 -172 95 -270t256 -98q68 0 138 21.5t113 51.5q14 9 24.5 6.5t15.5 -12.5l42 -81q12 -23 -15 -43q-57 -42 -153 -68t-189 -26q-240 0 -372 133t-137 386h-80q-12 0 -20 9.5t-6 21.5l11 66q2 12 13 21.5t23 9.5h64q7 62 11 88q9 54 16 84h-64q-12 0 -20 9 t-6 21l11 67q2 12 12.5 21.5t22.5 9.5h79q85 253 259.5 386t415.5 133q84 0 158.5 -19t118.5 -48z" />
<glyph unicode="&#x2122;" horiz-adv-x="1300" d="M680 1342h-148l-71 -447q-1 -12 -14 -12h-89q-12 0 -10 12l71 447h-146q-13 0 -11 12l11 67q2 13 14 13h187h60h160q11 0 9 -13l-11 -67q-2 -12 -12 -12zM1331 1434q12 0 10 -13l-83 -526q-2 -12 -14 -12h-87q-6 0 -10 3t-3 9l54 339l-216 -349q-8 -12 -20 -12h-12h-4 q-11 0 -15 12l-93 340l-52 -330q-2 -12 -17 -12h-86q-13 0 -11 12l84 526q2 13 12 13h77h29q11 0 16 -13l96 -363l220 363q8 13 21 13h66h38z" />
<glyph unicode="&#x25fc;" horiz-adv-x="870" d="M0 870h870v-870h-870v870z" />
<glyph unicode="&#xfb03;" horiz-adv-x="1509" d="M986 1071l-33 -205h461q12 0 19.5 -9t5.5 -21l-4 -29l-123 -778q-2 -12 -12.5 -20.5t-23.5 -8.5h-110q-12 0 -20 8.5t-6 20.5l110 698h-319l-161 -1012q-5 -31 -35 -31h-111q-13 0 -20.5 8.5t-5.5 22.5l161 1012h-101h-245l-161 -1013q-4 -30 -35 -30h-111q-13 0 -20.5 8 t-5.5 22l161 1013h-102q-12 0 -18.5 9t-4.5 21l12 79q2 12 11.5 21t21.5 9h102l28 177q33 202 129 288.5t282 86.5q65 0 109.5 -13t91.5 -42l3 -3q7 -4 21 -16q55 60 132.5 83t179.5 23q148 0 236 -62q25 -17 7 -42l-57 -69q-20 -23 -41 -10q-26 19 -71.5 31.5t-84.5 12.5 q-124 0 -172 -51.5t-70 -188.5zM781 866l33 206q13 87 7.5 126.5t-36.5 57.5q-45 23 -99 23q-104 0 -153.5 -54.5t-70.5 -184.5l-27 -174h346z" />
<glyph unicode="&#xfb04;" horiz-adv-x="1601" d="M1599 1450q12 0 20 -10t6 -23l-220 -1386q-2 -13 -12.5 -22t-22.5 -9h-113q-12 0 -19 9t-5 22l173 1089h-1q9 56 -3.5 87.5t-74.5 69.5v1q-55 33 -115 33q-102 0 -152.5 -54t-71.5 -184l-33 -207h185q12 0 20 -9t6 -21l-12 -79q-2 -12 -13 -21t-23 -9h-185l-160 -1012 q-5 -31 -35 -31h-111q-13 0 -20.5 8.5t-5.5 22.5l160 1012h-101h-247l-160 -1013q-5 -31 -36 -31h-111q-13 0 -20 8.5t-5 22.5l160 1013h-102q-12 0 -18.5 9t-4.5 21l12 79q2 12 11.5 21t21.5 9h102l28 177q33 202 129 288.5t282 86.5q65 0 109.5 -13t91.5 -42l3 -3 q2 -2 10 -7t12 -9q58 64 132 85t167 21q79 0 136 -23q33 -12 55.5 -11t40.5 20l1 -1q10 15 27 15h112zM783 866l31 192q14 93 9.5 134.5t-33.5 60.5q-47 26 -104 26q-104 0 -153 -54.5t-70 -183.5l-28 -175h348z" />
</font>
</defs>
</svg>
