<?xml version="1.0" standalone="no"?>
<!DOCTYPE svg PUBLIC "-//W3C//DTD SVG 1.1//EN" "http://www.w3.org/Graphics/SVG/1.1/DTD/svg11.dtd" >
<svg xmlns="http://www.w3.org/2000/svg">
<metadata></metadata>
<defs>
<font id="woodford_bournethin_italic" horiz-adv-x="964" >
<font-face units-per-em="2048" ascent="1638" descent="-410" />
<missing-glyph horiz-adv-x="389" />
<glyph unicode="&#xfb01;" horiz-adv-x="890" d="M872 1397q13 -8 14 -21t-6 -20l-26 -33q-19 -24 -41 -10q-27 19 -70.5 32t-85.5 13q-47 0 -81 -5.5t-59.5 -20t-42 -33.5t-29.5 -52t-21 -69t-17 -91l-35 -221h403q12 0 20 -9t6 -21l-3 -20l-124 -787q-2 -12 -11.5 -20.5t-22.5 -8.5h-49q-12 0 -19 8.5t-5 20.5l118 745 h-328l-170 -1064q-5 -30 -34 -30h-49q-28 0 -24 30l170 1064h-106q-12 0 -18.5 9.5t-4.5 21.5l4 31q2 12 12 21t22 9h106l37 230v1q19 113 50.5 184.5t80.5 107.5t103 48.5t135 12.5q126 0 201 -53z" />
<glyph unicode="&#xfb02;" d="M955 1450q12 0 18.5 -9.5t4.5 -23.5l-220 -1386q-2 -13 -11.5 -22t-21.5 -9h-52q-12 0 -18 8.5t-4 22.5l183 1153q3 41 -12 73.5t-64 64.5q-50 36 -112 36q-114 0 -165 -63t-74 -208l-36 -221h199q12 0 20 -9t6 -21l-5 -31q-2 -12 -12.5 -21.5t-22.5 -9.5h-199 l-170 -1063q-5 -31 -34 -31h-49q-12 0 -19 8t-5 23l170 1063h-106q-12 0 -19 9.5t-5 21.5l5 31q2 12 12 21t22 9h106l37 230v1q10 62 25.5 112t35.5 85.5t41 62t47.5 43t50 27.5t54 15.5t52.5 6t53 1.5q57 0 103 -18q30 -11 40.5 -14.5t25.5 -5t24.5 4.5t23.5 19 q11 14 25 14h52z" />
<glyph horiz-adv-x="0" />
<glyph horiz-adv-x="682" />
<glyph unicode=" "  horiz-adv-x="389" />
<glyph unicode="&#x09;" horiz-adv-x="389" />
<glyph unicode="&#xa0;" horiz-adv-x="389" />
<glyph unicode="!" horiz-adv-x="372" d="M156 295q-29 0 -24 31l147 1093q5 31 36 31h63q13 0 21.5 -8.5t6.5 -22.5l-199 -1093q-5 -31 -34 -31h-17zM84 -16q-32 0 -27 30l17 109q5 31 37 31h62q33 0 28 -31l-17 -109q-4 -30 -38 -30h-62z" />
<glyph unicode="&#x22;" horiz-adv-x="616" d="M163 942q-27 0 -25 31l35 469q3 31 35 31h92q33 0 25 -31l-113 -469q-6 -31 -35 -31h-14zM402 942q-27 0 -25 31l36 469q3 31 34 31h93q32 0 24 -31l-113 -469q-6 -31 -34 -31h-15z" />
<glyph unicode="#" horiz-adv-x="1134" d="M1071 1081q33 0 33 -30v-31q0 -14 -9.5 -22.5t-23.5 -8.5h-126l-71 -444h105q14 0 23.5 -8.5t9.5 -22.5v-31q0 -30 -33 -30h-120l-68 -422q-6 -31 -40 -31h-32q-37 0 -28 45l65 408h-369l-69 -422q-6 -31 -39 -31h-32q-37 0 -28 45l65 408h-115q-33 0 -33 30v31 q0 31 33 31h130l71 444h-111q-33 0 -33 31v31q0 30 33 30h125l54 338q6 31 39 31h44q28 0 21 -37l-54 -332h368l54 338q6 31 39 31h44q28 0 21 -37l-54 -332h111zM771 545l71 444h-369l-72 -444h370z" />
<glyph unicode="$" horiz-adv-x="1234" d="M1205 1311q18 -17 -2 -41l-31 -40q-17 -23 -39 -4q-68 54 -138.5 86.5t-173.5 39.5l-92 -580q147 -40 203 -65q205 -90 199 -275q-1 -22 -5 -46q-12 -73 -51 -140.5t-102.5 -124.5t-159 -93.5t-209.5 -42.5l-17 -112q-2 -12 -12.5 -20.5t-23.5 -8.5h-49q-12 0 -20 8.5 t-6 20.5l18 113q-130 10 -233.5 59.5t-161.5 126.5q-14 17 5 38l34 37q22 22 41 6l13 -13q13 -14 29 -30t45.5 -37t62.5 -38.5t81 -32t99 -19.5l97 611q-99 32 -165.5 64.5t-115 76.5t-65.5 101.5t-5 132.5q10 66 41.5 126.5t86 116t143 92t199.5 44.5l17 106q2 15 13.5 25 t23.5 10h49q13 0 20 -10t5 -25l-17 -105q242 -13 369 -138zM371 1078q-16 -100 46.5 -162.5t205.5 -111.5l87 547q-146 -15 -234.5 -92.5t-104.5 -180.5zM1010 382q10 64 -7.5 110.5t-68 78.5t-95 49t-127.5 42l-92 -580q60 6 119 24.5t117.5 52t100 91.5t53.5 132z" />
<glyph unicode="%" horiz-adv-x="1730" d="M383 516q-142 0 -197.5 110t-16.5 357q39 246 129.5 356.5t232.5 110.5q285 0 210 -467q-39 -246 -129.5 -356.5t-228.5 -110.5zM528 0q-20 0 -27 15t2 30l696 1358q15 31 39 31h46q15 0 20.5 -11t-2.5 -26l-701 -1366q-15 -31 -41 -31h-32zM397 604q184 0 244 381 q60 377 -124 377q-187 0 -247 -377q-60 -381 127 -381zM1300 31q-142 0 -197 110t-16 357q39 246 129.5 356.5t231.5 110.5q285 0 210 -467q-39 -246 -129.5 -356.5t-228.5 -110.5zM1314 119q184 0 244 381q60 377 -124 377q-187 0 -247 -377q-60 -381 127 -381z" />
<glyph unicode="&#x26;" horiz-adv-x="1275" d="M1189 593q13 -23 -11 -41q-108 -75 -265 -234q100 -106 237 -234q8 -11 6 -22.5t-10 -18.5l-34 -31q-28 -24 -46 -4q-112 103 -230 229q-41 -46 -75 -79t-92.5 -78.5t-126.5 -70.5t-139 -25q-80 0 -146 25t-113 73t-66.5 124.5t-4.5 172.5q20 127 94.5 219t242.5 201 q-108 205 -88 331q23 143 118 231.5t214 88.5q118 0 181.5 -89.5t41.5 -230.5q-7 -48 -34.5 -95.5t-60 -82.5t-80.5 -73t-80.5 -59t-76.5 -47q105 -172 303 -386q50 53 130 124.5t144 120.5q24 16 42 -4zM437 1130q-21 -111 63 -277q121 69 185.5 132t77.5 145 q16 100 -20.5 162t-104.5 62q-73 0 -129 -60.5t-72 -163.5zM420 80q83 0 168 58t186 167q-201 224 -319 415q-45 -28 -80.5 -55t-78 -69.5t-71 -98t-38.5 -118.5q-11 -71 5 -129.5t51 -94.5t81 -55.5t96 -19.5z" />
<glyph unicode="'" horiz-adv-x="315" d="M231 942q-27 0 -25 31l36 469q3 31 34 31h93q32 0 24 -31l-113 -469q-6 -31 -34 -31h-15z" />
<glyph unicode="(" horiz-adv-x="612" d="M343 -209q-12 -9 -22.5 -8t-16.5 10q-102 184 -139 415.5t2 502.5q41 259 154.5 498t262.5 395q26 26 45 8l29 -29q20 -18 0 -43q-162 -178 -252 -399.5t-118 -431.5q-84 -501 103 -846q9 -23 -9 -41z" />
<glyph unicode=")" horiz-adv-x="641" d="M382 1611q12 9 22.5 8t16.5 -10q102 -184 139 -415.5t-2 -502.5q-41 -259 -154.5 -498t-262.5 -395q-27 -26 -45 -8l-29 29q-20 18 0 43q162 178 252 399.5t118 431.5q84 501 -103 846q-9 23 9 41z" />
<glyph unicode="*" horiz-adv-x="735" d="M734 1229q8 -25 -14 -31l-213 -39q-1 -1 -1 -2.5t-1 -2.5l151 -156q7 -9 4.5 -18t-11.5 -15l-49 -36q-8 -5 -18.5 -3.5t-15.5 10.5l-102 189h-3h-2l-100 -192q-5 -9 -15.5 -10.5t-17.5 3.5l-52 36q-21 14 -7 33l149 159q0 1 -1 3.5t-1 3.5l-212 37q-21 6 -15 31l19 56 q2 9 11.5 14t18.5 3l194 -93q3 3 7 5l-31 211q-1 11 6.5 18t18.5 7h61q10 0 17.5 -6t6.5 -17l-29 -214q1 -1 2.5 -2t2.5 -2l192 90q10 4 19.5 -0.5t12.5 -14.5z" />
<glyph unicode="+" horiz-adv-x="1054" d="M938 750q33 0 33 -31v-35q0 -31 -33 -31h-313v-319q0 -33 -31 -33h-49q-31 0 -31 33v319h-313q-33 0 -33 31v35q0 31 33 31h313v319q0 33 31 33h49q31 0 31 -33v-319h313z" />
<glyph unicode="," horiz-adv-x="368" d="M170 164q33 0 28 -31l-16 -102q-1 -5 -5 -13l-119 -215h-33q-10 0 -16 8.5t1 24.5l87 164h-51q-33 0 -28 31l16 102q5 31 38 31h98z" />
<glyph unicode="-" horiz-adv-x="786" d="M169 516q-33 0 -28 31l5 35q4 30 38 30h475q33 0 28 -30l-6 -35q-5 -31 -37 -31h-475z" />
<glyph unicode="." horiz-adv-x="368" d="M46 0q-33 0 -28 31l16 102q5 31 38 31h98q33 0 28 -31l-16 -102q-2 -15 -13.5 -23t-24.5 -8h-98z" />
<glyph unicode="/" horiz-adv-x="835" d="M136 0h-36q-20 0 -26 15t3 30l784 1358q17 31 46 31h50q15 0 20 -11t-3 -26l-790 -1366q-17 -31 -48 -31z" />
<glyph unicode="0" horiz-adv-x="1155" d="M508 -16q-456 0 -340 733q60 376 206.5 554.5t366.5 178.5q452 0 336 -733t-569 -733zM524 80q168 0 278.5 162.5t160.5 476.5q49 311 -10.5 473t-227.5 162q-169 0 -281 -162.5t-161 -473.5q-50 -313 10.5 -475.5t230.5 -162.5z" />
<glyph unicode="1" horiz-adv-x="937" d="M771 96q12 0 20 -9t6 -21l-6 -37q-2 -12 -12.5 -20.5t-22.5 -8.5h-363h-308q-12 0 -20 8.5t-6 20.5l6 37q2 12 12.5 21t22.5 9h278l190 1201l-252 -185q-21 -14 -37 -7t-13 25l6 40q1 8 7.5 16t11 12t17.5 13l282 207l1 1l2 2t2 1l2 1q16 11 33 11h46q12 0 18.5 -9.5 t4.5 -21.5l-207 -1307h279z" />
<glyph unicode="2" horiz-adv-x="1148" d="M1086 1047q-7 -44 -27 -89.5t-43.5 -79.5t-46.5 -61t-38 -41l-15 -14l-690 -666h716q12 0 20 -9t6 -21l-6 -37q-2 -12 -12.5 -20.5t-22.5 -8.5h-852q-12 0 -20 7.5t-6 19.5l4 24q2 10 10 18v1l713 692q85 77 134.5 145.5t60.5 139.5q13 83 -1.5 144t-51 95.5t-85 51 t-108.5 16.5q-277 -1 -363 -248q-11 -25 -31 -25h-61q-12 0 -18.5 9.5t-2.5 21.5q17 48 39 90t63 89.5t92 80.5t128 55.5t169 22.5h1h1q88 0 154.5 -21.5t106 -58.5t63.5 -87.5t26 -110t-6 -125.5z" />
<glyph unicode="3" horiz-adv-x="1155" d="M1100 1078q-9 -60 -32.5 -112.5t-50 -87t-60.5 -64t-59 -44.5t-51 -27q33 -11 64 -31t65.5 -58t49.5 -103t2 -147q-9 -61 -32 -118t-66 -112.5t-100 -97t-141 -67t-183 -25.5h-1h-1q-116 0 -201.5 30t-129.5 79t-61 106.5t-7 119.5q5 35 36 35h53q10 0 18.5 -6t6.5 -18 q-19 -116 62 -182.5t238 -67.5q154 1 262 87t131 232q11 68 -3.5 120.5t-46 84t-81 51.5t-102.5 27.5t-118 7.5h-108q-12 0 -20 8.5t-6 20.5l6 39q2 12 13 20t23 8h107q74 0 138.5 14.5t122 46.5t96.5 90.5t52 138.5q11 70 -4 124t-52 87t-89.5 50t-118.5 17 q-152 -1 -256 -66.5t-122 -182.5q-2 -12 -12.5 -18.5t-20.5 -6.5h-54q-30 0 -25 35q10 61 45 118t95 106.5t155 80t211 30.5h1h1q80 0 143.5 -16t103 -43.5t68 -64t38.5 -77.5t13.5 -85t-5.5 -86z" />
<glyph unicode="4" horiz-adv-x="1204" d="M1047 418q12 0 20 -8.5t6 -20.5l-6 -39q-2 -12 -12.5 -20t-22.5 -8h-131l-46 -291q-2 -12 -12 -21.5t-22 -9.5h-55q-12 0 -20 9.5t-6 21.5l46 291h-660q-12 0 -20 8t-6 20l6 39q2 11 7 16l811 1010q11 19 36 19h88q12 0 19 -9.5t5 -21.5l-156 -985h131zM801 418l137 862 l-692 -862h555z" />
<glyph unicode="5" horiz-adv-x="1155" d="M1090 1434q12 0 20 -8.5t6 -20.5l-6 -39q-2 -12 -12.5 -20.5t-22.5 -8.5h-581l-171 -539q72 51 159 78.5t172 30t162.5 -25t132.5 -79.5t79.5 -141.5t6.5 -204.5q-11 -70 -35.5 -135t-68.5 -127t-102.5 -108t-144 -74t-186.5 -28h-1h-1q-96 0 -176.5 31.5t-129 80.5 t-72 107.5t-14.5 113.5q5 37 35 37h51q23 0 21 -24q-9 -85 80.5 -168t219.5 -84q160 1 270.5 100.5t138.5 272.5q16 100 -4.5 175t-67.5 115.5t-112.5 58t-138 8.5t-146.5 -40t-136 -81q-8 -4 -18 -5.5t-16 -1.5l-6 1l-66 13q-26 6 -18 31l217 680q9 29 35 29h647z" />
<glyph unicode="6" horiz-adv-x="1155" d="M750 1450q76 0 137 -21.5t99.5 -56t64 -79.5t35.5 -90t8 -90q0 -33 -28 -33h-59q-26 0 -29 25q-5 45 -18 84t-39.5 78.5t-75.5 63t-115 23.5q-154 0 -275.5 -162t-188.5 -506q64 102 170 171t243 69q184 0 287.5 -127t70.5 -334q-33 -206 -175.5 -343.5t-346.5 -137.5 q-207 0 -296 133v-1q-5 6 -13 17.5t-26 58.5t-28 105.5t-9.5 161.5t19.5 223q32 203 91 353.5t137 240t167.5 132t192.5 42.5zM662 829q-63 0 -125 -22t-118 -64t-97 -113t-55 -161q-7 -58 -7.5 -113.5t17.5 -105.5t48.5 -87.5t86 -60t129.5 -22.5q143 0 247.5 103 t131.5 273q15 94 -1.5 168.5t-56 117.5t-90.5 65t-110 22z" />
<glyph unicode="7" horiz-adv-x="1058" d="M1129 1433q15 -2 19.5 -15t-6.5 -35l-831 -1358q-20 -25 -46 -25h-49q-17 0 -20.5 15t6.5 28l792 1294h-699q-12 0 -19 8.5t-5 20.5l5 35q2 14 12 23.5t22 9.5h815q1 0 2 -0.5t2 -0.5z" />
<glyph unicode="8" horiz-adv-x="1155" d="M1089 1091q-20 -122 -97.5 -214t-182.5 -132q110 -41 172 -141.5t42 -227.5q-12 -77 -54 -147t-107.5 -125t-158 -87.5t-197.5 -32.5q-134 0 -230.5 55t-137.5 144t-24 194q20 128 116.5 228t222.5 141q-95 41 -148.5 133t-34.5 213q24 154 148.5 256t319.5 102 q200 0 288 -100.5t63 -258.5zM636 795q62 11 115 31.5t101 54t80 87t43 122.5q19 121 -47.5 192.5t-202.5 71.5q-135 0 -228 -70t-113 -195q-20 -129 52 -199.5t200 -94.5zM907 375q21 136 -61.5 218.5t-220.5 114.5q-56 -11 -106.5 -29t-100 -46.5t-87.5 -64.5t-65.5 -85.5 t-36.5 -106.5q-12 -72 7.5 -130t62 -93.5t100.5 -54t125 -18.5q143 0 252 78.5t131 216.5z" />
<glyph unicode="9" horiz-adv-x="1148" d="M728 1450q194 0 287 -100t91 -276q0 -136 -37 -367q-59 -371 -209.5 -547t-371.5 -176q-79 0 -142.5 24.5t-101.5 62.5t-62.5 85t-32.5 90t-4 80q2 19 8 26.5t19 7.5h62q13 0 19.5 -6t5.5 -18q-1 -34 12.5 -75.5t40 -83t75 -69.5t108.5 -28q185 0 295 149t169 451 q-57 -78 -159.5 -123t-223.5 -45q-140 0 -231.5 62.5t-124.5 163t-13 225.5q36 224 183 355.5t338 131.5zM593 608q65 0 126 19t117 58.5t97 110.5t56 167q30 188 -42 289.5t-236 101.5q-64 0 -122.5 -19.5t-113.5 -62.5t-96 -122t-58 -187q-26 -163 53 -259t219 -96z" />
<glyph unicode=":" horiz-adv-x="430" d="M199 698q-33 0 -28 31l16 102q5 31 38 31h98q33 0 28 -31l-17 -102q-2 -15 -13 -23t-24 -8h-98zM88 0q-33 0 -28 31l16 102q5 31 38 31h98q33 0 28 -31l-16 -102q-2 -15 -13.5 -23t-24.5 -8h-98z" />
<glyph unicode=";" horiz-adv-x="389" d="M283 866q31 0 27 -30l-16 -103q-2 -15 -13 -23t-24 -8h-99q-33 0 -28 31l17 103q5 30 37 30h99zM171 164q33 0 28 -31l-16 -102q-1 -5 -5 -13l-119 -215h-33q-10 0 -16 8.5t1 24.5l87 164h-51q-33 0 -28 31l16 102q5 31 38 31h98z" />
<glyph unicode="&#x3c;" horiz-adv-x="1146" d="M972 1044q11 -28 -19 -40l-713 -273l705 -295q29 -12 19 -41l-13 -30q-11 -30 -43 -17l-809 336q-11 5 -19 16t-3 22v18q-5 11 3 22.5t19 15.5l817 316q33 12 43 -17z" />
<glyph unicode="=" horiz-adv-x="1015" d="M198 831q-33 0 -30 31v35q3 31 36 31h722q34 0 31 -31l-1 -35q-3 -31 -35 -31h-723zM198 500q-33 0 -30 30v35q3 31 36 31h722q34 0 31 -31l-1 -35q-3 -30 -35 -30h-723z" />
<glyph unicode="&#x3e;" horiz-adv-x="1171" d="M1070 740v-18q5 -11 -3 -22t-19 -16l-809 -336q-32 -13 -43 17l-13 30q-10 29 19 41l705 295l-713 273q-30 12 -19 40l12 33q10 29 43 17l818 -316q11 -4 19 -15.5t3 -22.5z" />
<glyph unicode="?" horiz-adv-x="937" d="M639 1450q69 0 124 -15.5t90.5 -42.5t61.5 -63.5t35.5 -78.5t12.5 -87.5t-6 -91.5q-12 -77 -38.5 -139.5t-67.5 -112t-82 -84.5t-100 -76q-66 -46 -111 -92.5t-67.5 -92.5t-31.5 -76t-16 -72q-4 -29 -29 -29h-63q-26 0 -21 29q17 110 67 200t162 169q151 105 209.5 188.5 t73.5 181.5q23 144 -39.5 216t-180.5 73q-120 -1 -197.5 -70t-114.5 -180q-6 -11 -16.5 -14.5t-18.5 -0.5l-51 7q-25 8 -12 37q43 140 151.5 228t273.5 89h2zM391 153q33 0 28 -31l-17 -108q-4 -30 -38 -30h-65q-33 0 -28 30l17 108q5 31 37 31h66z" />
<glyph unicode="@" horiz-adv-x="1609" d="M1285 1126q135 0 196 -77t42 -196l-100 -630q-38 -239 -240 -239q-79 0 -111.5 31.5t-46.5 96.5q-112 -128 -301 -128q-96 0 -165.5 36t-104.5 98t-47.5 144.5t4.5 175.5q32 198 149.5 321.5t307.5 123.5q173 0 248 -100l22 39q22 36 47 36h32q24 0 19 -32l-99 -627 q-8 -53 7 -88t53 -35q48 0 77.5 31t42.5 116l99 630q12 74 -26.5 127.5t-119.5 53.5q-32 0 -199 1t-211 1q-246 0 -410 -155.5t-211 -450.5q-34 -210 42 -387q7 -13 -0.5 -28t-25.5 -15h-47q-41 0 -52 43q-55 190 -23 387q28 180 94.5 315t164 218t218.5 124t264 41 q41 0 208.5 -1t202.5 -1zM738 76q86 0 145 24t95 74.5t55.5 110.5t33.5 151q17 113 11.5 192t-60 121t-166.5 42q-138 0 -223 -91.5t-112 -263.5q-26 -168 29 -264t192 -96z" />
<glyph unicode="A" horiz-adv-x="1406" d="M1251 41q4 -15 -8 -28t-27 -13h-54q-20 0 -23 20l-82 322h-739l-183 -324q-11 -18 -29 -18h-54q-14 0 -21.5 12t1.5 31l802 1402q6 9 19 9l2 -40l15 40q14 0 15 -9zM373 438h659l-205 802z" />
<glyph unicode="B" horiz-adv-x="1212" d="M1139 1053q-34 -212 -197 -314q89 -38 130 -126.5t21 -217.5q-27 -171 -148.5 -282.5t-284.5 -112.5h-503h-41q-12 0 -20 9.5t-6 21.5l217 1372q2 12 13 21.5t23 9.5h55h438h1q1 -1 2 -1q80 -2 140 -23.5t103.5 -67t57 -116.5t-0.5 -173zM412 1337l-91 -571h417 q110 0 186 67t100 220q13 83 0 140.5t-49.5 88t-83 43t-111.5 12.5h-368zM978 395q10 50 5 89t-13 68t-26 49.5t-35 33t-39 20.5t-38 11t-33 4h-167h-326l-91 -574h431q56 0 108 17t98.5 51.5t80 93.5t45.5 137z" />
<glyph unicode="C" horiz-adv-x="1439" d="M738 -16q-199 0 -348.5 100t-216.5 268.5t-36 364.5q23 147 99.5 281.5t187 234t253.5 158.5t293 59q156 0 283 -60t199 -180q13 -21 -8 -39l-41 -35q-10 -8 -22 -8.5t-20 10.5q-51 89 -156.5 152.5t-249.5 63.5q-125 0 -246.5 -53t-214.5 -140t-157.5 -203.5 t-84.5 -240.5q-19 -120 9.5 -235.5t94 -204t169.5 -143t228 -54.5q144 0 276 68t212 166q24 25 45 4l28 -31q8 -10 7 -21.5t-9 -19.5q-120 -130 -268 -196t-306 -66z" />
<glyph unicode="D" horiz-adv-x="1290" d="M754 1433q128 -4 230.5 -55.5t168 -144.5t91 -224.5t-0.5 -293.5q-25 -157 -93 -291t-164 -226t-216.5 -144t-250.5 -54h-377h-26q-12 0 -20 9.5t-6 21.5l217 1372q2 12 13 21.5t23 9.5h55h356v-1zM1128 715q44 279 -73.5 450.5t-333.5 171.5h-309l-197 -1241h309 q141 0 267.5 74.5t217 217t119.5 327.5z" />
<glyph unicode="E" horiz-adv-x="1048" d="M1082 1434q12 0 19 -9.5t5 -21.5l-6 -35q-2 -12 -11.5 -21.5t-21.5 -9.5h-655l-91 -571h453q12 0 20 -8.5t6 -20.5l-6 -39q-2 -12 -13 -20t-23 -8h-452l-91 -574h657q12 0 20 -9t6 -21l-5 -35q-2 -12 -13 -21.5t-23 -9.5h-700h-41q-12 0 -20 9.5t-6 21.5l217 1372 q2 12 13 21.5t23 9.5h55h684z" />
<glyph unicode="F" horiz-adv-x="1009" d="M1056 1434q12 0 19.5 -9.5t5.5 -21.5l-5 -35q-2 -12 -13 -21.5t-23 -9.5h-628l-99 -622h446q12 0 20.5 -8.5t6.5 -20.5l-7 -39q-2 -12 -12.5 -20.5t-22.5 -8.5h-446l-93 -587q-2 -12 -12 -21.5t-22 -9.5h-55q-12 0 -20 9.5t-6 21.5l217 1372q2 12 13 21.5t23 9.5h55h658z " />
<glyph unicode="G" horiz-adv-x="1488" d="M1461 1225q13 -20 -11 -41l-41 -36q-21 -17 -37 2q-44 53 -70 76q-144 128 -353 128q-163 0 -313.5 -86t-252.5 -232t-131 -319q-26 -159 28.5 -306t176 -239t276.5 -92q276 0 465 147l56 351h-306q-14 0 -21.5 8t-5.5 20l7 39q2 12 12 20.5t23 8.5h392q12 0 19 -8.5 t5 -20.5l-3 -20l-3 -19l-66 -413q-2 -13 -11 -21q-89 -78 -245.5 -133t-333.5 -55q-126 0 -241.5 53.5t-200 146.5t-124 233t-14.5 300q20 128 78 244.5t140.5 204t182.5 152.5t209.5 98.5t216.5 33.5q159 0 294 -62t203 -163z" />
<glyph unicode="H" horiz-adv-x="1380" d="M1357 1434q12 0 18.5 -9.5t4.5 -21.5l-217 -1372q-2 -12 -11.5 -21.5t-21.5 -9.5h-56q-13 0 -20.5 9.5t-5.5 21.5l102 639h-844l-101 -639q-2 -12 -12 -21.5t-22 -9.5h-55q-12 0 -20 9.5t-6 21.5l217 1372q2 12 12.5 21.5t23.5 9.5h55q12 0 19 -9.5t5 -21.5l-101 -637 h844l101 637q2 13 12 22t23 9h56z" />
<glyph unicode="I" horiz-adv-x="432" d="M116 0q-12 0 -20 9.5t-6 21.5l217 1372q2 12 13 21.5t23 9.5h55q12 0 19 -9.5t5 -21.5l-217 -1372q-2 -12 -12 -21.5t-22 -9.5h-55z" />
<glyph unicode="J" horiz-adv-x="940" d="M914 1434q12 0 20 -10t6 -23l-159 -1004l-1 -2q-18 -105 -61 -185.5t-103 -128.5t-129.5 -72.5t-146.5 -24.5q-127 0 -209.5 59.5t-114.5 149.5q-7 26 18 37l51 30q24 9 34 -14q27 -67 88 -116.5t149 -49.5q121 0 203.5 82.5t108.5 247.5l157 991q2 14 12 23.5t22 9.5h55 z" />
<glyph unicode="K" horiz-adv-x="1169" d="M1230 1434q13 0 19 -7.5t3.5 -17t-11.5 -16.5l-823 -676l610 -677q9 -12 0.5 -26t-26.5 -14h-66q-28 0 -55 31l-574 644l-102 -644q-2 -12 -12 -21.5t-22 -9.5h-55q-12 0 -20 9.5t-6 21.5l217 1372q2 12 13 21.5t23 9.5h55q12 0 19 -9.5t5 -21.5l-102 -644l779 644 q40 31 64 31h67z" />
<glyph unicode="L" horiz-adv-x="1015" d="M862 96q12 0 19 -9t5 -21l-6 -35q-2 -12 -11.5 -21.5t-21.5 -9.5h-692h-39q-12 0 -20 9.5t-6 21.5l217 1370q2 13 13 23t23 10h55q12 0 19 -10t5 -23l-207 -1305h647z" />
<glyph unicode="M" horiz-adv-x="1617" d="M1594 1434q12 0 19 -9.5t5 -21.5l-218 -1374q-2 -12 -11.5 -20.5t-21.5 -8.5h-55q-12 0 -20 8.5t-6 20.5l178 1129l-691 -1152q-16 -28 -33 -28l-2 9l-4 -9q-8 0 -12.5 4t-6.5 8.5t-5 15.5l-326 1158l-180 -1135q-2 -12 -12.5 -20.5t-22.5 -8.5h-55q-12 0 -19 8.5 t-5 20.5l217 1374q2 13 12.5 22t24.5 9l28 -8l-1 -6l19 14q26 0 38 -31l345 -1199l727 1199q21 31 46 31h29h19z" />
<glyph unicode="N" horiz-adv-x="1339" d="M1314 1434q12 0 19.5 -9.5t5.5 -21.5l-217 -1374q-2 -12 -12.5 -20.5t-22.5 -8.5h-27h-10q-28 0 -43 29l-616 1179l-187 -1179q-2 -12 -11.5 -20.5t-21.5 -8.5h-55q-12 0 -20 8.5t-6 20.5l217 1374q2 12 13 21.5t23 9.5h26h11q24 0 40 -31l616 -1191l189 1191 q2 12 11.5 21.5t21.5 9.5h56z" />
<glyph unicode="O" horiz-adv-x="1615" d="M738 -16q-199 0 -348.5 98t-217 266t-35.5 367q24 150 100.5 285.5t187 234.5t253.5 157t292 58q119 0 223 -37.5t180 -104.5t128.5 -159t67.5 -201.5t-1 -232.5q-24 -149 -100.5 -284t-187 -233t-252.5 -156t-290 -58zM753 80q168 0 320.5 88t253 233.5t127.5 313.5 q20 125 -7.5 242t-92.5 204.5t-169 140t-230 52.5q-128 0 -249.5 -52.5t-213.5 -140t-156 -204t-84 -242.5q-27 -168 26.5 -313.5t179 -233.5t295.5 -88z" />
<glyph unicode="P" horiz-adv-x="1118" d="M802 1434q78 0 142 -30.5t108 -86.5t61 -141t1 -189q-16 -103 -63 -188t-112 -139.5t-141 -84.5t-154 -30h-358l-82 -516q-2 -12 -11.5 -20.5t-21.5 -8.5h-55q-13 0 -20.5 8.5t-5.5 20.5l217 1374q2 12 12.5 21.5t23.5 9.5h55h404zM999 987q5 47 6 95.5t-16.5 94.5 t-47 81.5t-86.5 57t-134 21.5h-309l-111 -696h314q76 0 138.5 21.5t103.5 55t71.5 80.5t46.5 93t24 96z" />
<glyph unicode="Q" horiz-adv-x="1626" d="M970 1450q119 0 223 -37.5t180 -104.5t128.5 -159t67.5 -201.5t-1 -232.5q-21 -133 -84 -254.5t-158 -218.5l2 -2l157 -187q7 -7 5.5 -19.5t-11.5 -21.5l-46 -39q-10 -8 -22 -8t-19 8l-156 187l-1 1q-228 -177 -498 -177q-199 0 -348.5 98t-217 266t-35.5 367 q32 200 152.5 369t301.5 267.5t380 98.5zM1453 715q20 125 -7.5 242t-92.5 204.5t-169 140t-230 52.5q-128 0 -249.5 -52.5t-213.5 -140t-156 -204t-84 -242.5t7 -242t92 -202.5t170 -138.5t233 -52q126 0 246.5 52t213 138.5t156.5 203t84 241.5z" />
<glyph unicode="R" horiz-adv-x="1253" d="M1175 1008q-24 -152 -114 -255.5t-215 -138.5l196 -571q6 -19 -3 -31t-23 -12h-56q-23 0 -35 31l-198 567h-433l-90 -569q-2 -12 -11.5 -20.5t-21.5 -8.5h-55q-13 0 -20.5 8.5t-5.5 20.5l217 1374q2 12 12.5 21.5t23.5 9.5h55h482q54 0 103 -17.5t90.5 -51.5t68.5 -85 t37 -119t-4 -153zM714 694q298 0 347 314q6 37 7 70.5t-3.5 73t-21 71t-44 58t-75 41.5t-110.5 15h-402l-102 -643h404z" />
<glyph unicode="S" horiz-adv-x="1265" d="M558 -16q-152 0 -273 50.5t-186 137.5q-14 17 5 38l33 37q22 22 41 6l11 -12q11 -12 26.5 -26.5t39.5 -33.5t56 -36t69.5 -32t86.5 -24t102 -9q46 0 97 8.5t108.5 31t105 55.5t83.5 86.5t47 120.5q7 45 0 81.5t-28 63t-49 47t-68.5 37t-79.5 29t-89 27.5q-35 10 -52 15 q-110 33 -182.5 66t-127 78t-74 105t-6.5 138q9 55 32 107t66 102.5t101.5 88t144.5 60.5t188 23q275 0 419 -139q18 -17 -2 -41l-31 -40q-17 -23 -40 -4q-49 39 -88.5 62.5t-112 44.5t-157.5 21q-173 0 -279 -80.5t-124 -195.5q-9 -59 8.5 -105t65 -81.5t111.5 -62 t160 -54.5q12 -3 39 -11q70 -19 109 -31t103 -44t96.5 -68t53 -97.5t8.5 -137.5q-12 -77 -54 -147.5t-111 -128t-173.5 -92t-228.5 -34.5z" />
<glyph unicode="T" horiz-adv-x="1155" d="M1234 1434q12 0 18.5 -10.5t4.5 -22.5l-5 -33q-2 -12 -12 -21.5t-22 -9.5h-419l-207 -1306q-2 -12 -13 -21.5t-23 -9.5h-55q-12 0 -19 9.5t-5 21.5l207 1306h-418q-12 0 -20 9.5t-6 21.5l5 33q2 12 13 22.5t23 10.5h465h37h451z" />
<glyph unicode="U" horiz-adv-x="1302" d="M1278 1434q12 0 19 -10t5 -23l-131 -830h-1q-17 -108 -45.5 -194.5t-76 -161.5t-112 -125t-154.5 -78t-202 -28q-115 0 -197.5 27.5t-129.5 79t-71.5 124t-23 162t16.5 194.5v1l1 1l131 828q2 13 12.5 23t22.5 10h56q12 0 18.5 -9.5t4.5 -23.5l-124 -783 q-28 -178 -14 -297.5t89.5 -180t222.5 -60.5q110 0 189.5 33t134 102.5t88.5 166t56 234.5l124 785q2 13 13 23t23 10h55z" />
<glyph unicode="V" horiz-adv-x="1298" d="M1380 1434q13 0 19.5 -10.5t-1.5 -27.5l-751 -1374q-15 -22 -32 -22h-37h-11q-11 0 -16.5 5t-8.5 18l-316 1373q-4 16 6.5 27t23.5 11h54q12 0 22 -9.5t13 -22.5l274 -1225l662 1226q7 14 21 22.5t27 8.5h51z" />
<glyph unicode="W" horiz-adv-x="1787" d="M1866 1434q13 0 20.5 -12.5t0.5 -28.5l-656 -1373q-10 -20 -28 -20h-20q-15 0 -21 18l-142 1147l-501 -1145q-9 -20 -27 -20h-20q-16 0 -22 20l-224 1373q-1 18 10.5 29.5t24.5 11.5h53q9 0 15.5 -6.5t8.5 -14.5l179 -1142l499 1142q9 21 28 21h31h4q17 0 20 -21 l143 -1143l539 1143q12 21 32 21h53z" />
<glyph unicode="X" horiz-adv-x="1200" d="M1237 1434q16 0 20.5 -15.5t-8.5 -32.5l-535 -652l346 -689q8 -12 0 -28.5t-29 -16.5h-48q-22 0 -40 29l-306 610l-500 -610q-27 -29 -52 -29h-47q-14 0 -19.5 14t7.5 33l563 687l-326 652q-9 18 1 33t26 15h49q25 0 40 -31l288 -574l471 574q25 31 50 31h49z" />
<glyph unicode="Y" horiz-adv-x="1200" d="M1278 1434q16 0 22.5 -14.5t-5.5 -33.5l-598 -765l-93 -592q-2 -12 -13 -20.5t-23 -8.5h-53q-12 0 -20 8.5t-6 20.5l93 589l-354 771q-8 17 4.5 31t27.5 14h38q29 0 46 -31l311 -684l529 684q26 31 54 31h40z" />
<glyph unicode="Z" horiz-adv-x="1189" d="M1249 1434q15 0 20.5 -15t-5.5 -30l-1043 -1293h815q11 0 18.5 -8.5t5.5 -21.5l-5 -35q-2 -13 -12 -22t-22 -9h-940h-8q-17 0 -22.5 15t4.5 28l1045 1294h-789q-12 0 -19 8.5t-5 20.5l6 35q2 14 11.5 23.5t21.5 9.5h894h29z" />
<glyph unicode="[" horiz-adv-x="540" d="M584 1669q30 0 26 -28l-7 -40q-4 -28 -34 -28h-150l-290 -1825h151q29 0 25 -28l-6 -41q-4 -27 -34 -27h-196h-39q-12 0 -20 9.5t-6 21.5l310 1955q2 12 13 21.5t23 9.5h55h179z" />
<glyph unicode="\" horiz-adv-x="811" d="M612 0q-31 0 -39 31l-356 1366q-4 15 4.5 26t23.5 11h50q28 0 36 -31l354 -1358q4 -16 -6 -30.5t-31 -14.5h-36z" />
<glyph unicode="]" horiz-adv-x="573" d="M615 1669q12 0 20 -9.5t6 -21.5l-310 -1955q-2 -12 -13 -21.5t-23 -9.5h-55h-179q-29 0 -25 27l6 41q4 28 34 28h151l289 1825h-151q-29 0 -25 28l6 40q4 28 34 28h196h39z" />
<glyph unicode="^" horiz-adv-x="780" d="M771 1190q6 -17 -1.5 -31t-27.5 -14h-12q-14 0 -21 7t-15 24l-138 308l-235 -308q-14 -17 -23 -24t-23 -7h-12q-20 0 -22.5 15t8.5 30l269 418q11 18 19 24t23 6h36h5q14 0 20 -6t13 -24z" />
<glyph unicode="_" horiz-adv-x="1208" d="M20 -232q-32 0 -28 30l3 20q5 30 37 30h959q33 0 28 -30l-3 -20q-4 -30 -38 -30h-958z" />
<glyph unicode="`" horiz-adv-x="630" d="M579 1325l-257 202q-25 23 -5 45l31 41q21 25 47 4l234 -236q21 -21 10 -38l-13 -18q-18 -24 -47 0z" />
<glyph unicode="a" d="M874 858q12 0 17 -9.5t3 -23.5l-126 -794q-2 -12 -11 -21.5t-19 -9.5h-18q-15 0 -26 10.5t-13 29.5l-9 69q-107 -125 -282 -125q-95 0 -164.5 35.5t-106 96t-50.5 142.5t3 175q15 92 51 172t92.5 143t138.5 99t180 36q168 0 236 -113l31 55q8 13 21.5 23t25.5 10h26z M408 76q146 0 220 86.5t103 267.5q29 184 -17.5 272.5t-193.5 88.5q-144 0 -230 -97t-111 -258q-16 -101 1 -180.5t75 -129.5t153 -50z" />
<glyph unicode="b" horiz-adv-x="956" d="M576 883q93 0 161 -36.5t103 -99t48 -145t-4 -175.5q-31 -198 -151 -320.5t-298 -122.5q-168 0 -247 136l-39 -81q-19 -39 -43 -39h-25q-12 0 -18 9.5t-4 21.5l220 1386q2 14 12 23.5t22 9.5h49q13 0 19 -9.5t4 -23.5l-109 -687q126 153 300 153zM778 430q14 75 6.5 141 t-31.5 115t-74 77t-120 28q-128 0 -215 -89t-116 -271q-56 -355 215 -355q128 0 218.5 94.5t116.5 259.5z" />
<glyph unicode="c" horiz-adv-x="948" d="M455 -16q-121 0 -214 59.5t-136 162t-24 224.5q30 189 181 321t336 132q208 0 306 -146q10 -21 -8 -39l-38 -33q-10 -9 -22.5 -8.5t-18.5 10.5q-71 124 -234 124q-146 0 -259 -106.5t-136 -254.5q-15 -90 14.5 -171t100.5 -132t167 -51q52 0 101.5 15t84.5 38.5 t56.5 41.5t35.5 35q9 11 21 12.5t23 -8.5l24 -28q16 -19 -2 -39q-153 -159 -359 -159z" />
<glyph unicode="d" horiz-adv-x="966" d="M978 1450q12 0 18 -9.5t4 -23.5l-220 -1386q-6 -31 -30 -31h-24q-27 0 -34 39l-13 83q-121 -138 -298 -138q-174 0 -253 123.5t-47 322.5q15 95 50.5 175t90 143t134.5 99t176 36q181 0 255 -136l106 670q2 14 11.5 23.5t21.5 9.5h52zM406 76q70 0 124 20t88 51.5 t59 80.5t38 97t23 111q7 41 10 73.5t2 71t-8 67t-23.5 57t-41.5 46.5t-65 29t-92 11q-72 0 -131 -28t-98.5 -77.5t-64.5 -112t-37 -137.5q-26 -163 30.5 -261.5t186.5 -98.5z" />
<glyph unicode="e" horiz-adv-x="978" d="M577 883q192 0 272.5 -121.5t47.5 -329.5q-2 -13 -13.5 -22t-22.5 -9h-74h-601q-9 -147 67 -236t209 -89q147 0 269 107q22 20 40 -2l21 -28q15 -21 -8 -42q-52 -50 -144 -88.5t-205 -38.5q-182 0 -283 127t-70 323q31 197 172.5 323t322.5 126zM200 494h596 q15 142 -51.5 219.5t-194.5 77.5q-121 0 -218.5 -82t-131.5 -215z" />
<glyph unicode="f" horiz-adv-x="729" d="M843 1397q24 -17 8 -41l-25 -32q-20 -24 -41 -10q-64 44 -143 44q-113 0 -160.5 -56.5t-70.5 -200.5l-37 -235h258q12 0 20 -8t6 -20l-5 -35q-2 -12 -12.5 -20.5t-22.5 -8.5h-259l-171 -1065q-5 -31 -33 -31h-49q-12 0 -19 8t-5 23l170 1065h-107q-12 0 -19.5 8.5 t-5.5 20.5l6 35q2 12 11.5 20t21.5 8h108l39 243v2q18 105 51 174.5t81 104t98 47.5t119 13q119 0 188 -53z" />
<glyph unicode="g" d="M885 858q12 0 16.5 -9.5t2.5 -23.5l-127 -793l-33 -209q-25 -162 -131 -262t-287 -100q-242 0 -323 220q-5 14 11 28l41 31q24 16 36 -6q42 -89 96.5 -133.5t152.5 -44.5q37 0 72 7t73.5 26.5t69.5 50t55.5 82.5t35.5 119l39 262q-108 -119 -285 -119q-77 0 -138 24.5 t-98.5 67t-61 100.5t-26 125t6.5 139q31 194 151 318.5t306 124.5q161 0 239 -105l26 47q21 33 45 33h35zM413 76q68 0 120 17.5t86.5 46.5t59 77t38.5 98.5t25 120.5q11 67 13.5 113t-5.5 95.5t-32 79t-72.5 48.5t-121.5 19t-132.5 -27.5t-99.5 -77t-65 -110.5t-37 -134 q-16 -103 1 -184t74 -131.5t148 -50.5z" />
<glyph unicode="h" horiz-adv-x="923" d="M551 883q30 0 58.5 -5t59.5 -16.5t55.5 -30t47 -46.5t34 -66.5t16 -88t-6.5 -112.5l-78 -487q-2 -14 -10.5 -22.5t-20.5 -8.5h-51q-12 0 -19 9t-5 22l74 467q24 147 -24.5 220t-161.5 73q-65 0 -119 -20.5t-87.5 -52.5t-53.5 -65.5t-25 -64.5l-88 -557q-2 -14 -11 -22.5 t-21 -8.5h-51q-12 0 -19 9t-5 22l220 1386q2 15 12 24t22 9h51q26 0 21 -33l-105 -663q48 57 122 93t169 36z" />
<glyph unicode="i" horiz-adv-x="423" d="M338 1230q-29 0 -45.5 19t-12.5 47q4 29 27.5 49t52.5 20t45 -20t12 -49q-4 -28 -27 -47t-52 -19zM119 0q-12 0 -19 8.5t-5 20.5l127 802q2 15 11.5 25t21.5 10h50q28 0 23 -35l-127 -802q-2 -13 -11 -21t-22 -8h-49z" />
<glyph unicode="j" horiz-adv-x="456" d="M391 1228q-28 0 -45 19.5t-12 48.5t28 49t51 20t45.5 -20t12.5 -49q-4 -28 -27.5 -48t-52.5 -20zM-117 -573q-98 0 -172 50.5t-106 111.5q-9 18 11 37l34 26q22 16 34 -3q20 -29 35.5 -47.5t40 -39t56 -31t70.5 -10.5q92 0 145 57.5t75 194.5l166 1063q2 12 10.5 21 t20.5 9h52q27 0 23 -30l-168 -1080q-14 -90 -47.5 -156.5t-79.5 -102.5t-95.5 -53t-104.5 -17z" />
<glyph unicode="k" horiz-adv-x="835" d="M755 866q19 0 21 -17t-15 -30l-409 -321l373 -458q10 -12 1.5 -26t-25.5 -14h-48q-29 0 -55 29l-363 440l-69 -438q-2 -13 -11.5 -22t-21.5 -9h-52q-12 0 -17.5 8.5t-3.5 22.5l219 1386q2 14 11 23.5t21 9.5h52q12 0 18.5 -9.5t4.5 -23.5l-141 -888l393 307q38 30 63 30 h54z" />
<glyph unicode="l" horiz-adv-x="393" d="M102 0q-12 0 -18 8.5t-4 22.5l220 1386q6 33 31 33h53q12 0 18 -9.5t4 -23.5l-219 -1386q-2 -13 -11.5 -22t-21.5 -9h-52z" />
<glyph unicode="m" horiz-adv-x="1511" d="M1134 883q165 0 232 -84.5t43 -238.5l-84 -529q-2 -13 -11 -22t-21 -9h-53q-12 0 -17.5 9.5t-3.5 21.5l78 491q21 132 -19 200.5t-157 68.5q-114 0 -194.5 -62.5t-93.5 -146.5l-87 -551q-5 -31 -33 -31h-52q-27 0 -22 31l74 465q25 159 -14 227t-156 68 q-120 0 -198.5 -63t-91.5 -146l-87 -551q-5 -31 -31 -31h-52q-28 0 -23 31l126 800q2 13 13 24t22 11h30q23 0 25 -35l4 -70q113 122 291 122q97 0 161.5 -37.5t90.5 -104.5q60 70 142 106t169 36z" />
<glyph unicode="n" horiz-adv-x="987" d="M603 883q72 0 128 -18.5t96 -57.5t55 -105t1 -155l-82 -516q-2 -14 -13.5 -22.5t-21.5 -8.5h-48q-29 0 -24 31l75 469q13 65 10.5 118.5t-21 92t-65.5 59.5t-123 21q-137 0 -220.5 -64t-95.5 -143l-88 -553q-5 -31 -36 -31h-47q-28 0 -23 31l126 800q2 12 11 23.5 t21 11.5h33q21 0 23 -35l3 -80q56 63 143.5 97.5t182.5 34.5z" />
<glyph unicode="o" horiz-adv-x="1034" d="M448 -16q-127 0 -218.5 60t-129.5 161.5t-19 224.5q31 191 174 322t335 131q190 0 291 -131t70 -322q-30 -188 -171.5 -317t-331.5 -129zM463 76q145 0 251.5 106t129.5 248q15 93 -10.5 174.5t-93 134t-164.5 52.5q-148 0 -257 -108t-130 -253q-16 -91 10.5 -171 t95.5 -131.5t168 -51.5z" />
<glyph unicode="p" horiz-adv-x="954" d="M579 883q119 0 198 -62.5t107 -164.5t8 -228q-31 -194 -154 -319t-299 -125q-183 0 -259 141l-106 -668q-2 -12 -11 -21t-21 -9h-51q-12 0 -18.5 9t-4.5 21l217 1374q2 15 11.5 25t21.5 10h21q27 0 35 -35l15 -77q119 129 290 129zM785 428q27 169 -38.5 266t-191.5 97 q-77 0 -134.5 -26.5t-95 -76.5t-60.5 -112t-36 -144q-56 -356 217 -356q125 0 219 93.5t120 258.5z" />
<glyph unicode="q" horiz-adv-x="974" d="M895 866q25 0 20 -35l-218 -1374q-6 -30 -31 -30h-52q-12 0 -19 9t-5 21l106 666q-117 -139 -293 -139q-184 0 -268.5 126t-53.5 320q32 198 158 325.5t309 127.5q152 0 228 -107l49 59q26 31 46 31h24zM421 76q268 0 324 356q27 172 -19 265.5t-190 93.5q-73 0 -135 -31 t-104.5 -83t-70.5 -115.5t-39 -133.5q-15 -94 2.5 -171.5t76.5 -129t155 -51.5z" />
<glyph unicode="r" horiz-adv-x="722" d="M727 809q21 -19 4 -39l-37 -40q-19 -18 -36 -1q-62 62 -162 62q-94 0 -160 -52.5t-81 -148.5l-89 -559q-2 -13 -11.5 -22t-21.5 -9h-50q-28 0 -23 31l126 800q2 15 10.5 25t19.5 10h32q22 0 25 -35l5 -37q93 89 236 89q131 0 213 -74z" />
<glyph unicode="s" horiz-adv-x="774" d="M318 -16q-94 0 -172 31t-126 83q-16 18 1 38l26 34q22 25 40 7q104 -101 246 -101q99 0 164 41.5t77 120.5q5 29 -3 52t-23.5 38.5t-44 29.5t-55 22.5t-67.5 18.5q-142 36 -209.5 90.5t-51.5 153.5q17 104 110.5 172t221.5 68q64 0 115.5 -12t76 -24.5t54.5 -32.5 q24 -16 9 -38l-27 -36q-19 -20 -38 -9q-52 32 -95 46t-101 14q-36 0 -69 -6t-65.5 -21t-55 -44.5t-28.5 -70.5q-8 -50 32 -87.5t136 -63.5q118 -31 154 -46q155 -65 132 -208q-7 -41 -30 -83.5t-64.5 -83.5t-111.5 -67t-158 -26z" />
<glyph unicode="t" horiz-adv-x="692" d="M624 866q12 0 19.5 -8.5t5.5 -23.5l-4 -29q-2 -14 -12.5 -22.5t-23.5 -8.5h-242l-85 -538q-25 -160 88 -160q84 0 164 76q10 9 21 10t18 -8l23 -37q9 -18 -8 -35q-43 -42 -106 -70t-135 -28q-208 0 -177 217l1 7v1l90 565h-96q-12 0 -19 8t-5 23l4 29q2 15 12 23.5 t22 8.5h97l34 215q5 31 33 31h50q12 0 18.5 -9t4.5 -22l-34 -215h242z" />
<glyph unicode="u" horiz-adv-x="991" d="M908 866q12 0 18.5 -10t4.5 -25l-127 -802q-5 -29 -29 -29h-17q-24 0 -30 29l-19 78q-109 -123 -299 -123q-93 0 -159.5 28t-99 76t-45.5 111.5t1 134.5l79 497q2 15 11.5 25t21.5 10h51q12 0 18 -10t4 -25l-76 -483q-20 -128 35.5 -200t192.5 -72q66 0 121.5 20.5 t90.5 53t56 68.5t27 71l86 542q6 35 34 35h49z" />
<glyph unicode="v" horiz-adv-x="892" d="M892 866q17 0 22 -14t-6 -31l-484 -792q-18 -29 -32 -29h-26h-4q-16 0 -24 29l-232 794q-3 14 5 28.5t25 14.5h54q11 0 16 -6.5t10 -23.5l186 -680l401 680q16 30 36 30h53z" />
<glyph unicode="w" horiz-adv-x="1243" d="M1224 866q16 0 19.5 -15t-4.5 -28l-387 -803q-11 -20 -31 -20h-25h-6q-15 0 -20 20l-111 649l-317 -651q-9 -18 -25 -18h-25h-8q-18 0 -24 18l-134 805q-3 15 5.5 29t25.5 14h46q24 0 27 -20l97 -655l330 655q12 20 25 20h12h4q19 0 22 -20l122 -650l300 648q10 22 37 22 h45z" />
<glyph unicode="x" horiz-adv-x="839" d="M779 866q16 0 20.5 -15t-8.5 -32l-316 -390l191 -384q7 -14 -0.5 -29.5t-27.5 -15.5h-37q-25 0 -39 29l-156 315l-256 -315q-24 -29 -51 -29h-35q-15 0 -20.5 14t8.5 33l312 382l-193 390q-9 18 1 32.5t26 14.5h34q25 0 40 -30l161 -323l262 323q24 30 49 30h35z" />
<glyph unicode="y" horiz-adv-x="987" d="M969 866q14 0 20 -12t-4 -31l-917 -1380q-10 -16 -27 -16h-50q-15 0 -20 12t6 31l380 572l-230 781q-5 13 3 28t25 15h55q22 0 29 -30l191 -683l462 695q11 18 30 18h47z" />
<glyph unicode="z" horiz-adv-x="804" d="M766 866q19 0 21 -15t-13 -34l-592 -725h438q12 0 20 -9.5t6 -21.5l-6 -32q-2 -12 -12.5 -20.5t-22.5 -8.5h-530h-33q-17 0 -23 15.5t11 35.5l599 723h-425q-12 0 -20.5 8.5t-6.5 20.5l6 33q2 12 12.5 21t22.5 9h517h31z" />
<glyph unicode="{" horiz-adv-x="622" d="M665 1669q30 0 26 -28l-7 -40q-4 -28 -34 -28h-50q-2 0 -5 -0.5t-11 -3.5t-15 -8.5t-13.5 -17t-9.5 -27.5l-113 -715q-9 -59 -42 -94t-76 -47q39 -13 60 -51.5t11 -104.5l-112 -703q-4 -25 5.5 -39.5t20.5 -15.5l12 -2h48q30 0 26 -28l-7 -41q-4 -27 -34 -27h-64h-4 q-77 0 -103.5 36.5t-13.5 116.5l109 688q5 34 -0.5 58.5t-16 36t-25 18t-21 7.5t-10.5 1h-16q-30 0 -25 31l6 35q5 31 34 31h16q4 0 10.5 0.5t23 6.5t30.5 16t27 32.5t18 52.5l111 701q13 83 48.5 118t117.5 35h51h17z" />
<glyph unicode="|" horiz-adv-x="421" d="M78 -238q-12 0 -20 8.5t-6 20.5l292 1843q2 15 13 25t23 10h53q13 0 20.5 -10t5.5 -25l-292 -1843q-2 -12 -12.5 -20.5t-23.5 -8.5h-53z" />
<glyph unicode="}" horiz-adv-x="655" d="M547 707q30 0 25 -31l-6 -35q-5 -31 -34 -31h-16q-4 0 -10.5 -0.5t-23 -6.5t-30.5 -16t-27 -32.5t-18 -52.5l-111 -701q-13 -83 -48.5 -118t-117.5 -35h-51h-17q-30 0 -26 27l7 41q4 28 34 28h50q2 0 5 0.5t11 3.5t15 8.5t13.5 17t9.5 27.5l113 715q9 59 42 94t76 47 q-39 13 -60 51.5t-11 104.5l112 703q4 25 -5.5 39.5t-21.5 16.5l-11 1h-48q-30 0 -26 28l7 40q4 28 34 28h64h4q77 0 103.5 -36.5t13.5 -116.5l-109 -689q-5 -34 1 -58.5t16 -36t25 -18t21 -7t10 -0.5h16z" />
<glyph unicode="~" horiz-adv-x="933" d="M898 784q14 -7 8 -24q-11 -46 -71 -91.5t-148 -46.5h-1h-1q-61 0 -111 13t-78.5 28.5t-67 28t-78.5 12.5q-47 0 -88 -15t-54.5 -26t-34.5 -30q-15 -12 -29 -4l-14 8q-14 7 -8 25q11 46 73 91.5t154 46.5h1h1q55 0 103.5 -13t77.5 -28.5t70.5 -28t83.5 -12.5t76.5 12 t49 22.5t43.5 35.5q16 13 29 5z" />
<glyph unicode="&#xa1;" horiz-adv-x="401" d="M316 885q33 0 28 -31l-17 -109q-5 -30 -38 -30h-61q-32 0 -28 30l17 109q5 31 38 31h61zM245 573q29 0 24 -30l-147 -1094q-5 -31 -36 -31h-63q-13 0 -21.5 8.5t-6.5 22.5l199 1094q4 30 34 30h17z" />
<glyph unicode="&#xa2;" horiz-adv-x="948" d="M904 737q10 -21 -8 -39l-38 -33q-10 -9 -22.5 -8.5t-18.5 10.5q-61 108 -195 122l-113 -711q58 7 113 34t81.5 50t44.5 44q9 11 21 12.5t23 -8.5l24 -28q16 -19 -2 -39q-137 -143 -320 -158l-17 -112q-2 -12 -12.5 -20.5t-23.5 -8.5h-45q-12 0 -20 8.5t-6 20.5l18 116 q-158 25 -246 149.5t-61 291.5q27 170 155 296.5t293 151.5l17 109q2 15 13.5 25t23.5 10h45q13 0 20 -10t5 -25l-17 -106q179 -12 268 -144zM188 430q-19 -122 40.5 -222t174.5 -125l111 701q-124 -24 -214.5 -124.5t-111.5 -229.5z" />
<glyph unicode="&#xa3;" horiz-adv-x="1079" d="M1116 1298q10 -20 -8 -38l-41 -32q-10 -9 -22 -8.5t-18 10.5q-81 125 -217 125q-82 0 -145 -29t-102.5 -82.5t-63.5 -117.5t-37 -146l-34 -212h361q12 0 20 -9.5t6 -21.5l-6 -35q-2 -12 -13 -21t-23 -9h-360l-55 -348q-11 -73 -38 -135.5t-60 -92.5h674q12 0 20 -9t6 -21 l-5 -35q-2 -12 -13 -21.5t-23 -9.5h-827q-12 0 -20 9.5t-6 21.5l5 35q2 12 13 21t23 9h2q41 0 79.5 66.5t54.5 161.5l55 348h-106q-12 0 -20 9t-6 21l5 35q2 12 13 21.5t23 9.5h107l33 211v1v1q16 98 50.5 180t90.5 148.5t142 104t195 37.5q188 0 291 -153z" />
<glyph unicode="&#xa4;" horiz-adv-x="1030" d="M811 484l60 -71q8 -8 8 -19.5t-8 -19.5l-43 -35q-20 -17 -38 4l-56 65q-99 -74 -225 -74q-122 0 -221 70l-58 -67q-16 -20 -37 -3l-42 35q-8 6 -8.5 17.5t7.5 21.5l60 71q-80 100 -80 234q0 126 75 227l-59 71q-8 9 -8 21t9 20l39 31q9 7 21 5.5t18 -9.5l56 -63 q100 76 228 76q123 0 223 -73l54 65q7 9 19.5 10.5t21.5 -5.5l40 -34q21 -18 0 -43l-58 -68q79 -103 79 -231q0 -126 -77 -229zM230 713q0 -113 83 -196t196 -83t195.5 83t82.5 196t-82.5 195.5t-195.5 82.5t-196 -82.5t-83 -195.5z" />
<glyph unicode="&#xa5;" horiz-adv-x="1222" d="M1279 1434q16 0 22.5 -14.5t-5.5 -33.5l-562 -720h162q12 0 20.5 -9.5t7.5 -21.5v-33q-1 -12 -11.5 -21.5t-22.5 -9.5h-199l-31 -192h215q12 0 20.5 -9.5t7.5 -21.5l-1 -33q-1 -12 -11 -21t-22 -9h-224l-40 -256q-2 -12 -13 -20.5t-23 -8.5h-53q-12 0 -20 8.5t-6 20.5 l41 256h-202q-12 0 -21 9t-8 21l1 33q1 12 11 21.5t22 9.5h211l31 192h-226q-12 0 -20.5 9.5t-7.5 21.5v33q1 12 11 21.5t22 9.5h206l-332 723q-8 17 4.5 31t27.5 14h38q29 0 46 -31l311 -684l529 684q26 31 54 31h40z" />
<glyph unicode="&#xa6;" horiz-adv-x="421" d="M258 897q-12 0 -20 8.5t-6 20.5l112 708q2 15 13 25t23 10h53q13 0 20.5 -10t5.5 -25l-113 -708q-2 -12 -12 -20.5t-23 -8.5h-53zM78 -238q-12 0 -20 8.5t-6 20.5l112 709q2 15 13.5 25t23.5 10h53q13 0 20 -10t5 -25l-112 -709q-2 -12 -12.5 -20.5t-23.5 -8.5h-53z" />
<glyph unicode="&#xa7;" horiz-adv-x="1064" d="M1015 1341q16 -13 -4 -36l-36 -41q-16 -18 -34 -4q-58 47 -89 62q-67 32 -174 32q-132 0 -212.5 -56t-94.5 -145q-13 -85 55.5 -137t208.5 -89q114 -33 141 -43q224 -87 194 -278q-9 -55 -36 -109.5t-81.5 -106.5t-127.5 -79q165 -83 138 -250q-8 -54 -39 -106.5 t-84.5 -101.5t-142 -79t-197.5 -30q-117 0 -202.5 37t-151.5 117q-14 13 5 32l41 39q19 18 35 4q1 -1 14.5 -16.5t34.5 -34t52.5 -37.5t81 -32t107.5 -13q42 0 80.5 5.5t81.5 20.5t76 38.5t58.5 64t33.5 92.5q8 51 -7 88t-62.5 62.5t-77.5 36.5t-102 30q-19 5 -28 8 q-67 19 -115.5 38t-93.5 46t-70.5 59t-36.5 76t-3 97q9 55 36.5 109.5t85 108.5t132.5 82q-174 93 -149 245q8 53 36.5 103.5t78 96.5t133 74.5t187.5 28.5q69 0 124 -10t94 -29t60 -33.5t46 -36.5zM854 606q8 53 -9 91.5t-66 65t-83 38.5t-107 32q-9 3 -14 4q-41 11 -54 16 q-99 -17 -169 -83.5t-85 -161.5q-8 -49 7 -85.5t54 -63t84.5 -44.5t116.5 -38q10 -3 35 -9.5t38 -10.5q41 9 78 25.5t74.5 45t64 74.5t35.5 104z" />
<glyph unicode="&#xa8;" horiz-adv-x="653" d="M370 1393q-26 0 -43.5 17t-17.5 42q0 27 17.5 44t43.5 17t43.5 -17t17.5 -44q0 -25 -17.5 -42t-43.5 -17zM604 1393q-26 0 -44 17t-18 42q0 27 18 44t44 17t43.5 -17t17.5 -44q0 -25 -17.5 -42t-43.5 -17z" />
<glyph unicode="&#xa9;" horiz-adv-x="1710" d="M785 -16q-200 0 -353 98t-224 266.5t-40 366.5q31 200 156 369t309 267.5t384 98.5q198 0 351 -98.5t224 -267.5t40 -369q-31 -198 -156 -366.5t-309 -266.5t-382 -98zM800 78q129 0 253 52t219.5 139t161.5 203.5t86 242.5q27 169 -30.5 316t-186.5 236t-301 89 q-129 0 -253.5 -52.5t-220 -140t-162 -205t-86.5 -243.5q-27 -169 31 -315t187.5 -234t301.5 -88zM819 219q-186 0 -279 137t-58 361q35 223 172 360t323 137q141 0 228 -67t104 -178q6 -40 -33 -49l-33 -7q-40 -8 -43 35q-5 67 -67 119.5t-171 52.5q-141 0 -242 -114 t-128 -287q-15 -97 -2 -173t48 -127.5t86 -78.5t112 -27q104 0 183 58.5t115 128.5q7 14 20.5 21.5t28.5 4.5l36 -8q13 -3 17.5 -16.5t-2.5 -26.5q-48 -106 -162.5 -181t-252.5 -75z" />
<glyph unicode="&#xaa;" horiz-adv-x="747" d="M529 1434q94 0 151 -23.5t78.5 -65.5t25 -101t-10.5 -130l-64 -401q-2 -11 -9 -19t-17 -8h-32q-18 0 -20 33l-1 41q-82 -92 -226 -92q-92 0 -152 38t-80.5 97t-9.5 131q16 99 107 174.5t217 75.5q124 0 183 -71l6 38q10 49 3.5 84.5t-18.5 58t-36 35t-49 17.5t-59 5 q-15 0 -31.5 -2t-30 -4.5t-30.5 -7.5t-27.5 -8.5t-27 -10t-23 -9.5t-20.5 -9t-16 -7q-8 -3 -16 0.5t-9 10.5l-11 44q-3 14 10 22q122 64 245 64zM420 755q190 0 218 179q12 73 -28.5 118t-135.5 45q-78 0 -137.5 -47t-70.5 -116q-13 -85 30.5 -132t123.5 -47zM520 324 q12 0 19.5 -9.5t5.5 -21.5l-5 -35q-2 -12 -13 -21.5t-23 -9.5h-295q-12 0 -19.5 9.5t-5.5 21.5l5 35q2 12 13 21.5t23 9.5h295z" />
<glyph unicode="&#xab;" horiz-adv-x="970" d="M248 433l178 -410q9 -17 3 -28t-24 -11h-20q-29 0 -40 20l-204 371q-23 37 -20 51v4l2 10q3 16 37 52l321 370q19 21 47 21h19q19 0 21.5 -11t-11.5 -28zM873 883q18 0 20.5 -11t-11.5 -28l-309 -411l179 -410q9 -17 3 -28t-24 -11h-20q-30 0 -41 20l-203 371 q-1 1 -6.5 10.5t-6.5 10.5t-5.5 10t-2.5 10t0 10l1 4l2 10q3 17 36 52l321 370q20 21 48 21h19z" />
<glyph unicode="&#xac;" horiz-adv-x="1042" d="M887 762q33 0 33 -31v-35v-256q0 -32 -31 -32h-49q-31 0 -31 32v226h-631q-33 0 -33 30v35q0 31 33 31h709z" />
<glyph unicode="&#xad;" horiz-adv-x="786" d="M169 516q-33 0 -28 31l5 35q4 30 38 30h475q33 0 28 -30l-6 -35q-5 -31 -37 -31h-475z" />
<glyph unicode="&#xae;" horiz-adv-x="1710" d="M1017 1450q198 0 351 -98.5t224 -267.5t40 -369q-31 -198 -156 -366.5t-309 -266.5t-382 -98q-200 0 -353 98t-224 266.5t-40 366.5q31 200 156 369t309 267.5t384 98.5zM1517 715q20 126 -9 243.5t-96 205t-174 140t-236 52.5t-253 -52.5t-219 -140t-161.5 -205 t-86.5 -243.5q-27 -168 30.5 -314t186.5 -234.5t301 -88.5q129 0 252.5 52t218 139.5t160.5 204t86 241.5zM1082 1198q84 0 137 -43.5t70 -107t5 -136.5q-13 -81 -60 -153.5t-120 -108.5q62 -86 75.5 -185t-8.5 -206q-2 -14 -19 -14h-70q-6 0 -10.5 4t-3.5 10 q37 231 -88 363h-315l-58 -363q-2 -14 -18 -14h-76q-14 0 -12 14l146 924q1 6 6 11t11 5h76h332zM1187 911q13 81 -23.5 137.5t-121.5 56.5h-290l-62 -391h292q83 0 137.5 57.5t67.5 139.5z" />
<glyph unicode="&#xaf;" horiz-adv-x="686" d="M318 1386q-33 0 -30 31l1 35q3 31 35 31h364q34 0 31 -31l-1 -35q-3 -31 -35 -31h-365z" />
<glyph unicode="&#xb0;" horiz-adv-x="829" d="M484 866q-122 0 -194 85t-53 206q20 122 119.5 207.5t220.5 85.5q120 0 191.5 -86t52.5 -207t-118 -206t-219 -85zM498 953q86 0 149.5 58.5t77.5 145.5t-31 146.5t-131 59.5t-150.5 -59.5t-78.5 -146.5t32 -145.5t132 -58.5z" />
<glyph unicode="&#xb1;" horiz-adv-x="1116" d="M918 750q32 0 32 -31v-35q0 -31 -32 -31h-314v-319q0 -33 -31 -33h-49q-30 0 -30 33v319h-314q-33 0 -33 31v35q0 31 33 31h314v319q0 33 30 33h49q31 0 31 -33v-319h314zM918 96q32 0 32 -30v-35q0 -31 -32 -31h-737q-33 0 -33 31v35q0 30 33 30h737z" />
<glyph unicode="&#xb2;" horiz-adv-x="747" d="M759 1395q-8 -48 -39 -98.5t-58 -76.5l-28 -26l-387 -373h428q8 0 13 -5.5t4 -12.5l-8 -51q-1 -7 -8 -13t-15 -6h-545q-7 0 -12 5.5t-3 13.5l6 39q2 14 13 22l418 404q109 104 121 178q27 168 -132 168q-51 0 -89 -13.5t-60.5 -38t-33.5 -43t-22 -45.5q-10 -16 -21 -16 h-63q-8 0 -13 6.5t-2 13.5q74 223 317 224h1h1q133 -1 184 -71.5t33 -184.5z" />
<glyph unicode="&#xb3;" horiz-adv-x="741" d="M761 1418q-8 -49 -25.5 -88.5t-40.5 -64.5t-41 -39.5t-37 -23.5q14 -6 27.5 -14.5t31 -26.5t26.5 -41.5t15 -59t-3 -80.5q-8 -50 -29 -94t-58.5 -83.5t-99.5 -62.5t-142 -23h-1h-1q-143 1 -204.5 66.5t-47.5 156.5q3 23 26 23h60q6 0 11.5 -4.5t4.5 -12.5 q-9 -56 31.5 -97t133.5 -42q103 1 154.5 49.5t62.5 121.5q14 84 -32 128t-151 47h-49q-8 0 -12.5 5.5t-3.5 12.5l9 53q4 18 21 18h47q190 6 218 176q10 64 -26 104.5t-119 41.5q-98 -1 -149 -41t-61 -102q-3 -14 -20 -14h-60q-22 0 -19 20q15 95 96.5 159t226.5 65h1h1 q62 0 107.5 -14t70 -37t39 -53.5t14.5 -63t-3 -65.5z" />
<glyph unicode="&#xb4;" horiz-adv-x="577" d="M343 1325q-29 -24 -47 0l-13 18q-11 17 10 38l234 236q26 21 47 -4l30 -41q21 -22 -4 -45z" />
<glyph unicode="&#xb6;" horiz-adv-x="970" d="M978 1434q12 0 19 -9.5t5 -21.5l-255 -1610q-2 -12 -12 -21.5t-22 -9.5h-55q-12 0 -20 9.5t-6 21.5l245 1544h-162l-245 -1544q-2 -12 -11.5 -21.5t-21.5 -9.5h-56q-12 0 -19.5 9.5t-5.5 21.5l131 828q-61 0 -116 31t-94 83.5t-56 129.5t-4 163q27 169 149 287.5 t249 118.5h2h84h236h41z" />
<glyph unicode="&#xb7;" horiz-adv-x="512" d="M239 696q-33 0 -28 31l17 102q5 31 37 31h98q33 0 28 -31l-16 -102q-2 -15 -13 -23t-24 -8h-99z" />
<glyph unicode="&#xb8;" horiz-adv-x="567" d="M179 -94q67 13 114 -27.5t35 -117.5q-13 -80 -64.5 -124t-128.5 -44q-50 0 -80.5 25t-38.5 53q-4 19 9 23l52 21q11 4 18 -7q15 -30 54 -30q33 0 56 24.5t29 59.5q7 43 -22 59t-64 5q-9 -3 -17 -3.5t-12 0.5l-4 1l-48 13q-13 5 -7 21l89 158h91z" />
<glyph unicode="&#xb9;" horiz-adv-x="636" d="M567 817q7 0 12 -6t3 -14l-8 -49q-4 -19 -21 -19h-248h-186q-8 0 -13.5 6t-4.5 13l8 49q2 7 9.5 13.5t14.5 6.5h165l109 683l-151 -112q-12 -8 -22.5 -3.5t-8.5 15.5l9 60q2 13 23 27l182 137q12 6 21 6h49q7 0 12 -6t3 -14l-125 -793h168z" />
<glyph unicode="&#xba;" horiz-adv-x="813" d="M447 666q-146 0 -221.5 100t-45.5 285q29 184 136 283.5t252 99.5t217.5 -99t43.5 -284q-30 -186 -133.5 -285.5t-248.5 -99.5zM460 752q113 0 178.5 84.5t86.5 214.5q11 58 6 111.5t-21.5 94.5t-56 66t-98.5 25q-114 0 -182 -85t-88 -212q-12 -59 -6 -113t23.5 -95 t58 -66t99.5 -25zM232 225q-12 0 -20 9.5t-6 21.5l5 35q2 12 13 21.5t23 9.5h295q12 0 20 -9.5t6 -21.5l-6 -35q-2 -12 -12.5 -21.5t-22.5 -9.5h-295z" />
<glyph unicode="&#xbb;" horiz-adv-x="970" d="M475 426q-3 -16 -36 -51l-321 -371q-19 -20 -47 -20h-20q-18 0 -20.5 11t11.5 28l309 410l-179 411q-9 17 -3 28t24 11h20q29 0 41 -21l203 -370q24 -39 21 -52l-1 -4zM783 492q23 -37 20 -52v-4l-2 -10q-3 -15 -37 -51l-321 -371q-19 -20 -47 -20h-19q-19 0 -21.5 11 t11.5 28l309 410l-178 411q-9 17 -3 28t24 11h20q28 0 40 -21z" />
<glyph unicode="&#xbc;" horiz-adv-x="1730" d="M574 551q-4 -19 -21 -19h-248h-186q-8 0 -13.5 6t-4.5 13l8 49q2 8 9.5 14.5t14.5 6.5h165l109 682l-151 -112q-12 -8 -22.5 -3.5t-8.5 15.5l9 61q2 12 23 26l182 137q14 7 21 7h49q7 0 12 -6.5t3 -14.5l-125 -792h168q7 0 12 -6.5t3 -14.5zM1298 1434q15 0 20 -11 t-3 -26l-700 -1366q-15 -31 -41 -31h-32q-20 0 -27 15t2 30l696 1358q15 31 39 31h46zM1613 338q8 0 13.5 -6t4.5 -13l-8 -51q-1 -7 -8.5 -12.5t-15.5 -5.5h-98l-28 -178q-2 -8 -8.5 -14.5t-13.5 -6.5h-61q-8 0 -13 7t-4 14l28 178h-412q-8 0 -12 5.5t-3 12.5l8 51q2 6 4 10 h-1l503 609q6 14 26 14h80q8 0 12 -5.5t3 -12.5l-94 -596h98zM1415 338l73 465l-388 -465h315z" />
<glyph unicode="&#xbd;" horiz-adv-x="1763" d="M574 551q-4 -19 -21 -19h-248h-186q-8 0 -13.5 6t-4.5 13l8 49q2 8 9.5 14.5t14.5 6.5h165l109 682l-151 -112q-12 -8 -22.5 -3.5t-8.5 15.5l9 61q2 12 23 26l182 137q14 7 21 7h49q7 0 12 -6.5t3 -14.5l-125 -792h168q7 0 12 -6.5t3 -14.5zM1283 1434q15 0 20 -11 t-3 -26l-700 -1366q-16 -31 -41 -31h-32q-20 0 -27 15t2 30l696 1358q16 31 39 31h46zM1699 711q-8 -48 -39 -98.5t-58 -76.5l-28 -26l-387 -373h428q8 0 13 -5.5t4 -12.5l-8 -51q-1 -7 -8 -13t-15 -6h-545q-7 0 -12 5.5t-3 13.5l6 38q2 15 13 23l418 403q109 103 121 179 q27 168 -132 168q-51 0 -89 -13.5t-60.5 -38t-33.5 -43t-22 -45.5q-10 -16 -21 -16h-63q-8 0 -13 6.5t-2 13.5q74 223 317 224h1h1q133 -1 184 -71.5t33 -184.5z" />
<glyph unicode="&#xbe;" horiz-adv-x="1796" d="M385 516h-1h-1q-143 1 -204.5 66.5t-47.5 156.5q3 23 26 23h60q6 0 11.5 -4.5t4.5 -12.5q-9 -56 31.5 -97t133.5 -42q103 1 154.5 49.5t62.5 121.5q14 84 -32 128t-151 47h-49q-8 0 -12.5 6t-3.5 13l8 52q4 18 22 18l47 1q190 6 218 176q10 64 -26 104t-119 41 q-98 -1 -149 -41t-61 -101q-3 -15 -20 -15h-60q-23 0 -19 21q15 95 96.5 158.5t226.5 64.5h1h1q62 0 107.5 -14t70 -37t39 -53t14.5 -62.5t-3 -65.5q-10 -63 -39 -112.5t-54 -70.5t-51 -34q14 -6 27.5 -14.5t31 -26.5t26.5 -41.5t15 -59t-3 -80.5q-8 -50 -29 -94 t-58.5 -83.5t-99.5 -62.5t-142 -23zM1341 1434q15 0 20 -11t-3 -26l-700 -1366q-16 -31 -41 -31h-32q-20 0 -27 15t2 30l696 1358q16 31 39 31h46zM1679 338q8 0 13 -6t4 -13l-8 -51q-4 -18 -23 -18h-99l-28 -178q-2 -8 -8.5 -14.5t-13.5 -6.5h-61q-8 0 -13 7t-4 14l28 178 h-412q-8 0 -12 5.5t-3 12.5l8 51q2 6 4 10l502 609q6 14 26 14h80q8 0 12.5 -5.5t3.5 -12.5l-95 -596h99zM1480 338l74 465l-388 -465h314z" />
<glyph unicode="&#xbf;" horiz-adv-x="983" d="M592 714q-32 0 -28 30l17 108q5 31 38 31h66q32 0 27 -31l-17 -108q-5 -30 -37 -30h-66zM759 -229q25 -8 12 -37q-43 -141 -151.5 -229t-273.5 -89h-2q-69 0 -124 15.5t-90.5 42.5t-61.5 63.5t-35.5 78.5t-12.5 87.5t6 91.5q12 77 38.5 139.5t67.5 112t82 84.5t100 76 q66 46 111 92.5t67.5 92.5t31.5 76.5t16 72.5q4 28 29 28h63q26 0 21 -28q-8 -52 -22 -96t-39 -92.5t-67.5 -94.5t-100.5 -87q-151 -105 -209 -188.5t-73 -181.5q-23 -144 39 -215.5t180 -72.5q120 1 197.5 69.5t114.5 179.5q6 11 16.5 15t18.5 1z" />
<glyph unicode="&#xc0;" horiz-adv-x="1406" d="M694 1641q-30 14 -16 42l19 47q14 31 44 16l288 -163q26 -15 19 -34l-7 -22q-11 -27 -45 -13zM1251 41q4 -15 -8 -28t-27 -13h-54q-20 0 -23 20l-82 322h-739l-183 -324q-11 -18 -29 -18h-54q-14 0 -21.5 12t1.5 31l802 1402q6 9 19 9l2 -40l15 40q14 0 15 -9zM373 438 h659l-205 802z" />
<glyph unicode="&#xc1;" horiz-adv-x="1406" d="M671 1525l-8 22q-7 18 20 34l288 163q30 15 44 -16l18 -47q14 -28 -16 -42l-301 -127q-34 -14 -45 13zM1251 41q4 -15 -8 -28t-27 -13h-54q-20 0 -23 20l-82 322h-739l-183 -324q-11 -18 -29 -18h-54q-14 0 -21.5 12t1.5 31l802 1402q6 9 19 9l2 -40l15 40q14 0 15 -9z M373 438h659l-205 802z" />
<glyph unicode="&#xc2;" horiz-adv-x="1406" d="M676 1550q-20 -15 -30.5 -12t-7.5 22l3 17q4 21 27 41l173 166q25 24 55 24h8q29 0 47 -24l119 -166q17 -22 14 -41l-3 -17q-3 -19 -14.5 -22t-26.5 12l-156 160zM1251 41q4 -15 -8 -28t-27 -13h-54q-20 0 -23 20l-82 322h-739l-183 -324q-11 -18 -29 -18h-54 q-14 0 -21.5 12t1.5 31l802 1402q6 9 19 9l2 -40l15 40q14 0 15 -9zM373 438h659l-205 802z" />
<glyph unicode="&#xc3;" horiz-adv-x="1406" d="M578 1573q-15 7 -8 24q47 130 166 131h1h1q49 0 89 -13.5t61 -29.5t48 -29.5t53 -13.5q27 0 58.5 16t55.5 54q10 15 28 4l15 -8q15 -8 8 -25q-47 -130 -164 -131h-1h-1q-45 0 -82 13.5t-58.5 29t-50.5 29t-60 13.5q-74 0 -116 -68q-10 -15 -28 -4zM1251 41q4 -15 -8 -28 t-27 -13h-54q-20 0 -23 20l-82 322h-739l-183 -324q-11 -18 -29 -18h-54q-14 0 -21.5 12t1.5 31l802 1402q6 9 19 9l2 -40l15 40q14 0 15 -9zM373 438h659l-205 802z" />
<glyph unicode="&#xc4;" horiz-adv-x="1406" d="M744 1587q-26 0 -43.5 17.5t-17.5 42.5q0 27 17.5 44t43.5 17t44 -17t18 -44q0 -25 -18 -42.5t-44 -17.5zM978 1587q-26 0 -44 17.5t-18 42.5q0 27 18 44t44 17t43.5 -17t17.5 -44q0 -25 -17.5 -42.5t-43.5 -17.5zM1251 41q4 -15 -8 -28t-27 -13h-54q-20 0 -23 20 l-82 322h-739l-183 -324q-11 -18 -29 -18h-54q-14 0 -21.5 12t1.5 31l802 1402q6 9 19 9l2 -40l15 40q14 0 15 -9zM373 438h659l-205 802z" />
<glyph unicode="&#xc5;" horiz-adv-x="1406" d="M861 1507q-87 0 -146 56.5t-59 150.5t59 150.5t146 56.5q88 0 147.5 -56.5t59.5 -150.5t-59.5 -150.5t-147.5 -56.5zM861 1836q-49 0 -78.5 -34.5t-29.5 -87.5t29.5 -88t78.5 -35t79 35t30 88t-30 87.5t-79 34.5zM1251 41q4 -15 -8 -28t-27 -13h-54q-20 0 -23 20l-82 322 h-739l-183 -324q-11 -18 -29 -18h-54q-14 0 -21.5 12t1.5 31l802 1402q6 9 19 9l2 -40l15 40q14 0 15 -9zM373 438h659l-205 802z" />
<glyph unicode="&#xc6;" horiz-adv-x="1961" d="M2017 1434q12 0 18.5 -9.5t4.5 -21.5l-5 -35q-2 -12 -12 -21.5t-22 -9.5h-655l-90 -571h452q12 0 20 -8.5t6 -20.5l-6 -39q-2 -12 -12.5 -20t-22.5 -8h-453l-90 -574h657q12 0 20 -9t6 -21l-6 -35q-2 -12 -12.5 -21.5t-22.5 -9.5h-701h-41q-12 0 -20 9.5t-6 21.5l50 311 h-648l-281 -324q-18 -18 -33 -18h-69q-19 0 -24.5 12t9.5 31l1192 1372q16 19 32 19h49h32h684zM509 438h580l129 818z" />
<glyph unicode="&#xc7;" horiz-adv-x="1439" d="M1452 1210q13 -21 -8 -39l-41 -35q-10 -8 -22 -8.5t-20 10.5q-51 89 -156.5 152.5t-249.5 63.5q-125 0 -246.5 -53t-214.5 -140t-157.5 -203.5t-84.5 -240.5q-19 -120 9.5 -235.5t94 -204t169.5 -143t228 -54.5q144 0 276 68t212 166q24 25 45 4l28 -31q8 -10 7 -21.5 t-9 -19.5q-214 -231 -501 -259l-41 -74q69 14 117 -25.5t36 -117.5q-13 -80 -64.5 -124t-128.5 -44q-50 0 -80.5 24.5t-38.5 52.5q-4 19 9 23l48 20q10 3 17 -9q15 -30 58 -30q38 0 62 26t30 62q7 43 -25.5 59t-67.5 2q-8 -3 -15.5 -4t-10.5 0l-4 1l-44 16q-14 5 -8 21 l67 118q-195 3 -342 103.5t-213 267.5t-35 362q23 147 99.5 281.5t187 234t253.5 158.5t293 59q156 0 283 -60t199 -180z" />
<glyph unicode="&#xc8;" horiz-adv-x="1048" d="M566 1641q-30 14 -16 42l19 47q14 31 44 16l288 -163q26 -15 19 -34l-7 -22q-11 -27 -45 -13zM1082 1434q12 0 19 -9.5t5 -21.5l-6 -35q-2 -12 -11.5 -21.5t-21.5 -9.5h-655l-91 -571h453q12 0 20 -8.5t6 -20.5l-6 -39q-2 -12 -13 -20t-23 -8h-452l-91 -574h657 q12 0 20 -9t6 -21l-5 -35q-2 -12 -13 -21.5t-23 -9.5h-700h-41q-12 0 -20 9.5t-6 21.5l217 1372q2 12 13 21.5t23 9.5h55h684z" />
<glyph unicode="&#xc9;" horiz-adv-x="1048" d="M543 1525l-8 22q-7 18 20 34l288 163q30 15 44 -16l18 -47q14 -28 -16 -42l-301 -127q-34 -14 -45 13zM1082 1434q12 0 19 -9.5t5 -21.5l-6 -35q-2 -12 -11.5 -21.5t-21.5 -9.5h-655l-91 -571h453q12 0 20 -8.5t6 -20.5l-6 -39q-2 -12 -13 -20t-23 -8h-452l-91 -574h657 q12 0 20 -9t6 -21l-5 -35q-2 -12 -13 -21.5t-23 -9.5h-700h-41q-12 0 -20 9.5t-6 21.5l217 1372q2 12 13 21.5t23 9.5h55h684z" />
<glyph unicode="&#xca;" horiz-adv-x="1048" d="M548 1550q-20 -15 -30.5 -12t-7.5 22l3 17q4 21 27 41l173 166q25 24 55 24h8q29 0 47 -24l118 -166q17 -22 14 -41l-2 -17q-3 -19 -14.5 -22t-26.5 12l-156 160zM1082 1434q12 0 19 -9.5t5 -21.5l-6 -35q-2 -12 -11.5 -21.5t-21.5 -9.5h-655l-91 -571h453q12 0 20 -8.5 t6 -20.5l-6 -39q-2 -12 -13 -20t-23 -8h-452l-91 -574h657q12 0 20 -9t6 -21l-5 -35q-2 -12 -13 -21.5t-23 -9.5h-700h-41q-12 0 -20 9.5t-6 21.5l217 1372q2 12 13 21.5t23 9.5h55h684z" />
<glyph unicode="&#xcb;" horiz-adv-x="1048" d="M616 1587q-26 0 -43.5 17.5t-17.5 42.5q0 27 17.5 44t43.5 17t43.5 -17t17.5 -44q0 -25 -17.5 -42.5t-43.5 -17.5zM850 1587q-26 0 -44 17.5t-18 42.5q0 27 18 44t44 17t43.5 -17t17.5 -44q0 -25 -17.5 -42.5t-43.5 -17.5zM1082 1434q12 0 19 -9.5t5 -21.5l-6 -35 q-2 -12 -11.5 -21.5t-21.5 -9.5h-655l-91 -571h453q12 0 20 -8.5t6 -20.5l-6 -39q-2 -12 -13 -20t-23 -8h-452l-91 -574h657q12 0 20 -9t6 -21l-5 -35q-2 -12 -13 -21.5t-23 -9.5h-700h-41q-12 0 -20 9.5t-6 21.5l217 1372q2 12 13 21.5t23 9.5h55h684z" />
<glyph unicode="&#xcc;" horiz-adv-x="432" d="M540 1514l-301 127q-31 15 -17 42l19 47q14 31 44 16l288 -163q26 -15 19 -34l-7 -22q-11 -27 -45 -13zM116 0q-12 0 -20 9.5t-6 21.5l217 1372q2 12 13 21.5t23 9.5h55q12 0 19 -9.5t5 -21.5l-217 -1372q-2 -12 -12 -21.5t-22 -9.5h-55z" />
<glyph unicode="&#xcd;" horiz-adv-x="432" d="M260 1512q-34 -14 -45 13l-7 22q-7 19 19 34l288 163q30 15 44 -16l19 -47q14 -28 -16 -42zM116 0q-12 0 -20 9.5t-6 21.5l217 1372q2 12 13 21.5t23 9.5h55q12 0 19 -9.5t5 -21.5l-217 -1372q-2 -12 -12 -21.5t-22 -9.5h-55z" />
<glyph unicode="&#xce;" horiz-adv-x="432" d="M614 1618q17 -22 14 -41l-3 -17q-3 -19 -14 -22t-26 12l-156 160l-209 -160q-20 -15 -30 -12t-7 22l3 17q4 22 26 41l173 166q25 24 55 24h9q29 0 47 -24zM398 1434q12 0 19 -9.5t5 -21.5l-217 -1372q-2 -12 -12 -21.5t-22 -9.5h-55q-12 0 -20 9.5t-6 21.5l217 1372 q2 12 13 21.5t23 9.5h55z" />
<glyph unicode="&#xcf;" horiz-adv-x="432" d="M289 1587q-26 0 -44 17.5t-18 42.5q0 27 18 44t44 17t43.5 -17t17.5 -44q0 -25 -17.5 -42.5t-43.5 -17.5zM522 1587q-26 0 -43.5 17.5t-17.5 42.5q0 27 17.5 44t43.5 17t43.5 -17t17.5 -44q0 -25 -17.5 -42.5t-43.5 -17.5zM116 0q-12 0 -20 9.5t-6 21.5l217 1372 q2 12 13 21.5t23 9.5h55q12 0 19 -9.5t5 -21.5l-217 -1372q-2 -12 -12 -21.5t-22 -9.5h-55z" />
<glyph unicode="&#xd0;" horiz-adv-x="1419" d="M853 1433q128 -4 230.5 -55.5t168 -144.5t90.5 -224.5t-1 -293.5q-33 -210 -139 -373t-258 -251.5t-326 -90.5h-377h-27q-12 0 -20 9.5t-6 21.5l101 637h-167q-33 0 -30 30l5 35q3 31 35 31h172l102 639q2 12 12.5 21.5t22.5 9.5h55h357v-1zM1226 715q44 279 -73.5 450.5 t-333.5 171.5h-309l-91 -573h341q34 0 31 -31l-5 -35q-3 -30 -35 -30h-347l-91 -572h310q216 0 387.5 170.5t215.5 448.5z" />
<glyph unicode="&#xd1;" horiz-adv-x="1339" d="M584 1573q-15 7 -8 24q47 130 166 131h1h1q49 0 89 -13.5t61 -29.5t48 -29.5t53 -13.5q27 0 58.5 16t55.5 54q10 15 28 4l15 -8q15 -8 8 -25q-47 -130 -164 -131h-1h-1q-45 0 -82 13.5t-58.5 29t-50.5 29t-60 13.5q-74 0 -116 -68q-10 -15 -28 -4zM1314 1434 q12 0 19.5 -9.5t5.5 -21.5l-217 -1374q-2 -12 -12.5 -20.5t-22.5 -8.5h-27h-10q-28 0 -43 29l-616 1179l-187 -1179q-2 -12 -11.5 -20.5t-21.5 -8.5h-55q-12 0 -20 8.5t-6 20.5l217 1374q2 12 13 21.5t23 9.5h26h11q24 0 40 -31l616 -1191l189 1191q2 12 11.5 21.5t21.5 9.5 h56z" />
<glyph unicode="&#xd2;" horiz-adv-x="1615" d="M1141 1514l-301 127q-30 14 -16 42l18 47q14 31 44 16l288 -163q27 -16 20 -34l-8 -22q-11 -27 -45 -13zM738 -16q-199 0 -348.5 98t-217 266t-35.5 367q24 150 100.5 285.5t187 234.5t253.5 157t292 58q119 0 223 -37.5t180 -104.5t128.5 -159t67.5 -201.5t-1 -232.5 q-24 -149 -100.5 -284t-187 -233t-252.5 -156t-290 -58zM753 80q168 0 320.5 88t253 233.5t127.5 313.5q20 125 -7.5 242t-92.5 204.5t-169 140t-230 52.5q-128 0 -249.5 -52.5t-213.5 -140t-156 -204t-84 -242.5q-27 -168 26.5 -313.5t179 -233.5t295.5 -88z" />
<glyph unicode="&#xd3;" horiz-adv-x="1615" d="M861 1512q-34 -14 -45 13l-7 22q-7 19 19 34l288 163q30 15 44 -16l19 -47q14 -28 -16 -42zM738 -16q-199 0 -348.5 98t-217 266t-35.5 367q24 150 100.5 285.5t187 234.5t253.5 157t292 58q119 0 223 -37.5t180 -104.5t128.5 -159t67.5 -201.5t-1 -232.5 q-24 -149 -100.5 -284t-187 -233t-252.5 -156t-290 -58zM753 80q168 0 320.5 88t253 233.5t127.5 313.5q20 125 -7.5 242t-92.5 204.5t-169 140t-230 52.5q-128 0 -249.5 -52.5t-213.5 -140t-156 -204t-84 -242.5q-27 -168 26.5 -313.5t179 -233.5t295.5 -88z" />
<glyph unicode="&#xd4;" horiz-adv-x="1615" d="M821 1550q-20 -15 -30 -12t-7 22l3 17q4 21 27 41l172 166q25 24 55 24h9q29 0 47 -24l118 -166q17 -22 14 -41l-3 -17q-3 -19 -14 -22t-26 12l-156 160zM970 1450q119 0 223 -37.5t180 -104.5t128.5 -159t67.5 -201.5t-1 -232.5q-24 -149 -100.5 -284t-187 -233 t-252.5 -156t-290 -58q-199 0 -348.5 98t-217 266t-35.5 367q24 150 100.5 285.5t187 234.5t253.5 157t292 58zM1454 715q20 125 -7.5 242t-92.5 204.5t-169 140t-230 52.5q-128 0 -249.5 -52.5t-213.5 -140t-156 -204t-84 -242.5q-27 -168 26.5 -313.5t179 -233.5 t295.5 -88q168 0 320.5 88t253 233.5t127.5 313.5z" />
<glyph unicode="&#xd5;" horiz-adv-x="1615" d="M724 1573q-15 7 -8 24q47 130 165 131h2v0q49 0 89 -13.5t61 -29.5t48 -29.5t53 -13.5q27 0 58.5 16t55.5 54q10 15 29 4l14 -8q15 -8 8 -25q-47 -130 -164 -131h-1h-1q-45 0 -82 13.5t-58 29t-50 29t-60 13.5q-74 0 -116 -68q-10 -15 -29 -4zM970 1450q119 0 223 -37.5 t180 -104.5t128.5 -159t67.5 -201.5t-1 -232.5q-24 -149 -100.5 -284t-187 -233t-252.5 -156t-290 -58q-199 0 -348.5 98t-217 266t-35.5 367q24 150 100.5 285.5t187 234.5t253.5 157t292 58zM1454 715q20 125 -7.5 242t-92.5 204.5t-169 140t-230 52.5 q-128 0 -249.5 -52.5t-213.5 -140t-156 -204t-84 -242.5q-27 -168 26.5 -313.5t179 -233.5t295.5 -88q168 0 320.5 88t253 233.5t127.5 313.5z" />
<glyph unicode="&#xd6;" horiz-adv-x="1615" d="M890 1587q-26 0 -44 17.5t-18 42.5q0 27 18 44t44 17t43.5 -17t17.5 -44q0 -25 -17.5 -42.5t-43.5 -17.5zM1123 1587q-26 0 -43.5 17.5t-17.5 42.5q0 27 17.5 44t43.5 17t44 -17t18 -44q0 -25 -18 -42.5t-44 -17.5zM738 -16q-199 0 -348.5 98t-217 266t-35.5 367 q24 150 100.5 285.5t187 234.5t253.5 157t292 58q119 0 223 -37.5t180 -104.5t128.5 -159t67.5 -201.5t-1 -232.5q-24 -149 -100.5 -284t-187 -233t-252.5 -156t-290 -58zM753 80q168 0 320.5 88t253 233.5t127.5 313.5q20 125 -7.5 242t-92.5 204.5t-169 140t-230 52.5 q-128 0 -249.5 -52.5t-213.5 -140t-156 -204t-84 -242.5q-27 -168 26.5 -313.5t179 -233.5t295.5 -88z" />
<glyph unicode="&#xd7;" horiz-adv-x="905" d="M766 430q24 -24 2 -46l-27 -26q-23 -25 -44 -2l-228 228l-225 -225q-24 -24 -46 -3l-27 28q-21 21 2 46l226 225l-226 226q-24 24 -2 46l27 25q22 24 44 2l228 -228l225 225q24 24 45 3l28 -27q21 -21 -2 -46l-226 -225z" />
<glyph unicode="&#xd8;" horiz-adv-x="1636" d="M1326 1345q142 -98 207.5 -265t34.5 -365q-24 -149 -100.5 -284t-187 -233t-252.5 -156t-290 -58q-155 0 -284 62l-21 -32q-19 -30 -45 -30h-43q-20 0 -24.5 15t6.5 30l44 66q-138 98 -201 262t-33 358q24 150 100.5 285.5t187 234.5t253.5 157t292 58q147 0 272 -58 l18 27q20 31 44 31h57q15 0 18 -11t-7 -26zM252 715q-25 -160 23.5 -301t157.5 -228l749 1117q-105 51 -227 51q-128 0 -249.5 -52.5t-213.5 -140t-156 -204t-84 -242.5zM1454 715q26 162 -25.5 305.5t-164.5 231.5l-750 -1118q106 -54 239 -54q168 0 320.5 88t253 233.5 t127.5 313.5z" />
<glyph unicode="&#xd9;" horiz-adv-x="1302" d="M641 1641q-30 14 -16 42l19 47q14 31 44 16l288 -163q26 -15 19 -34l-7 -22q-11 -27 -45 -13zM1278 1434q12 0 19 -10t5 -23l-131 -830h-1q-17 -108 -45.5 -194.5t-76 -161.5t-112 -125t-154.5 -78t-202 -28q-115 0 -197.5 27.5t-129.5 79t-71.5 124t-23 162t16.5 194.5 v1l1 1l131 828q2 13 12.5 23t22.5 10h56q12 0 18.5 -9.5t4.5 -23.5l-124 -783q-28 -178 -14 -297.5t89.5 -180t222.5 -60.5q110 0 189.5 33t134 102.5t88.5 166t56 234.5l124 785q2 13 13 23t23 10h55z" />
<glyph unicode="&#xda;" horiz-adv-x="1302" d="M618 1525l-7 22q-7 19 19 34l288 163q30 15 44 -16l19 -47q14 -28 -16 -42l-302 -127q-34 -14 -45 13zM1278 1434q12 0 19 -10t5 -23l-131 -830h-1q-17 -108 -45.5 -194.5t-76 -161.5t-112 -125t-154.5 -78t-202 -28q-115 0 -197.5 27.5t-129.5 79t-71.5 124t-23 162 t16.5 194.5v1l1 1l131 828q2 13 12.5 23t22.5 10h56q12 0 18.5 -9.5t4.5 -23.5l-124 -783q-28 -178 -14 -297.5t89.5 -180t222.5 -60.5q110 0 189.5 33t134 102.5t88.5 166t56 234.5l124 785q2 13 13 23t23 10h55z" />
<glyph unicode="&#xdb;" horiz-adv-x="1302" d="M623 1550q-20 -15 -30 -12t-7 22l2 17q4 21 27 41l173 166q25 24 55 24h8q30 0 48 -24l118 -166q17 -22 14 -41l-3 -17q-3 -19 -14 -22t-26 12l-156 160zM1278 1434q12 0 19 -10t5 -23l-131 -830h-1q-17 -108 -45.5 -194.5t-76 -161.5t-112 -125t-154.5 -78t-202 -28 q-115 0 -197.5 27.5t-129.5 79t-71.5 124t-23 162t16.5 194.5v1l1 1l131 828q2 13 12.5 23t22.5 10h56q12 0 18.5 -9.5t4.5 -23.5l-124 -783q-28 -178 -14 -297.5t89.5 -180t222.5 -60.5q110 0 189.5 33t134 102.5t88.5 166t56 234.5l124 785q2 13 13 23t23 10h55z" />
<glyph unicode="&#xdc;" horiz-adv-x="1302" d="M691 1587q-26 0 -43.5 17.5t-17.5 42.5q0 27 17.5 44t43.5 17t44 -17t18 -44q0 -25 -18 -42.5t-44 -17.5zM925 1587q-26 0 -44 17.5t-18 42.5q0 27 18 44t44 17t43.5 -17t17.5 -44q0 -25 -17.5 -42.5t-43.5 -17.5zM1278 1434q12 0 19 -10t5 -23l-131 -830h-1 q-17 -108 -45.5 -194.5t-76 -161.5t-112 -125t-154.5 -78t-202 -28q-115 0 -197.5 27.5t-129.5 79t-71.5 124t-23 162t16.5 194.5v1l1 1l131 828q2 13 12.5 23t22.5 10h56q12 0 18.5 -9.5t4.5 -23.5l-124 -783q-28 -178 -14 -297.5t89.5 -180t222.5 -60.5q110 0 189.5 33 t134 102.5t88.5 166t56 234.5l124 785q2 13 13 23t23 10h55z" />
<glyph unicode="&#xdd;" horiz-adv-x="1200" d="M585 1525l-7 22q-7 19 19 34l288 163q30 15 44 -16l19 -47q14 -28 -16 -42l-302 -127q-34 -14 -45 13zM1278 1434q16 0 22.5 -14.5t-5.5 -33.5l-598 -765l-93 -592q-2 -12 -13 -20.5t-23 -8.5h-53q-12 0 -20 8.5t-6 20.5l93 589l-354 771q-8 17 4.5 31t27.5 14h38 q29 0 46 -31l311 -684l529 684q26 31 54 31h40z" />
<glyph unicode="&#xde;" horiz-adv-x="1214" d="M832 1171q161 -1 250.5 -117.5t57.5 -316.5q-32 -198 -163.5 -313t-294.5 -117h-434l-43 -276q-5 -27 -34 -29l-55 -2q-14 -1 -21 8t-5 21l217 1374q6 29 36 31l55 2q12 1 19 -9t5 -22l-37 -234h447zM1025 737q8 57 8 107t-14.5 92.5t-40.5 73.5t-71 48t-105 17h-432 l-106 -672h436q125 0 213.5 95t111.5 239z" />
<glyph unicode="&#xdf;" horiz-adv-x="870" d="M618 1450q96 0 158 -20.5t89 -58t35 -89.5t-5 -115q-8 -52 -42.5 -98t-78.5 -80t-87.5 -67t-76.5 -73.5t-39 -84.5q-7 -43 7 -80.5t39.5 -65t55 -62t53.5 -71.5t35 -94t0 -130v-2q-11 -68 -37 -120t-56 -80.5t-68 -46t-67.5 -23t-60.5 -5.5q-103 0 -181 55q-13 8 -14 21 t6 20l27 34q19 24 39 11q62 -49 137 -49q66 0 110.5 48.5t58.5 136.5q8 51 -0.5 94t-27.5 72.5t-43.5 59.5t-49 55t-43.5 59t-27 71t0 92q9 57 44 107.5t79 86.5t87 68.5t75.5 68.5t38.5 72q16 103 -21 146.5t-164 43.5q-124 0 -186 -64.5t-84 -205.5l-167 -1056 q-5 -31 -34 -31h-49q-12 0 -19 8t-5 23l169 1065v1q12 70 32.5 125.5t44 92t56 63t61 40t67 21.5t65.5 9.5t64 1.5z" />
<glyph unicode="&#xe0;" d="M437 1154q-25 23 -4 45l31 41q21 25 47 4l233 -235q21 -21 10 -38l-13 -19q-18 -24 -47 0zM874 858q12 0 17 -9.5t3 -23.5l-126 -794q-2 -12 -11 -21.5t-19 -9.5h-18q-15 0 -26 10.5t-13 29.5l-9 69q-107 -125 -282 -125q-95 0 -164.5 35.5t-106 96t-50.5 142.5t3 175 q15 92 51 172t92.5 143t138.5 99t180 36q168 0 236 -113l31 55q8 13 21.5 23t25.5 10h26zM408 76q146 0 220 86.5t103 267.5q29 184 -17.5 272.5t-193.5 88.5q-144 0 -230 -97t-111 -258q-16 -101 1 -180.5t75 -129.5t153 -50z" />
<glyph unicode="&#xe1;" d="M438 952l-13 19q-11 17 10 38l233 235q26 21 47 -4l31 -41q21 -22 -4 -45l-257 -202q-29 -24 -47 0zM874 858q12 0 17 -9.5t3 -23.5l-126 -794q-2 -12 -11 -21.5t-19 -9.5h-18q-15 0 -26 10.5t-13 29.5l-9 69q-107 -125 -282 -125q-95 0 -164.5 35.5t-106 96t-50.5 142.5 t3 175q15 92 51 172t92.5 143t138.5 99t180 36q168 0 236 -113l31 55q8 13 21.5 23t25.5 10h26zM408 76q146 0 220 86.5t103 267.5q29 184 -17.5 272.5t-193.5 88.5q-144 0 -230 -97t-111 -258q-16 -101 1 -180.5t75 -129.5t153 -50z" />
<glyph unicode="&#xe2;" d="M408 983q-20 -16 -30.5 -13t-7.5 22l3 18q4 21 27 41l172 166q25 24 56 24h8q29 0 47 -24l118 -166q17 -22 14 -41l-3 -18q-3 -19 -14 -21.5t-26 12.5l-156 160zM874 858q12 0 17 -9.5t3 -23.5l-126 -794q-2 -12 -11 -21.5t-19 -9.5h-18q-15 0 -26 10.5t-13 29.5l-9 69 q-107 -125 -282 -125q-95 0 -164.5 35.5t-106 96t-50.5 142.5t3 175q15 92 51 172t92.5 143t138.5 99t180 36q168 0 236 -113l31 55q8 13 21.5 23t25.5 10h26zM408 76q146 0 220 86.5t103 267.5q29 184 -17.5 272.5t-193.5 88.5q-144 0 -230 -97t-111 -258 q-16 -101 1 -180.5t75 -129.5t153 -50z" />
<glyph unicode="&#xe3;" d="M310 1006q-15 7 -8 24q47 130 166 131h1h1q49 0 88.5 -13.5t60.5 -29.5t48 -29.5t53 -13.5q27 0 58.5 16t55.5 54q10 15 29 4l14 -8q15 -8 8 -25q-47 -130 -163 -131h-2q-45 0 -82 13.5t-58.5 29t-50.5 29t-60 13.5q-73 0 -116 -69q-10 -15 -29 -4zM874 858q12 0 17 -9.5 t3 -23.5l-126 -794q-2 -12 -11 -21.5t-19 -9.5h-18q-15 0 -26 10.5t-13 29.5l-9 69q-107 -125 -282 -125q-95 0 -164.5 35.5t-106 96t-50.5 142.5t3 175q15 92 51 172t92.5 143t138.5 99t180 36q168 0 236 -113l31 55q8 13 21.5 23t25.5 10h26zM408 76q146 0 220 86.5 t103 267.5q29 184 -17.5 272.5t-193.5 88.5q-144 0 -230 -97t-111 -258q-16 -101 1 -180.5t75 -129.5t153 -50z" />
<glyph unicode="&#xe4;" d="M476 1020q-26 0 -44 17t-18 42q0 27 18 44.5t44 17.5t43.5 -17.5t17.5 -44.5q0 -25 -17.5 -42t-43.5 -17zM709 1020q-26 0 -43.5 17t-17.5 42q0 27 17.5 44.5t43.5 17.5t44 -17.5t18 -44.5q0 -25 -18 -42t-44 -17zM874 858q12 0 17 -9.5t3 -23.5l-126 -794 q-2 -12 -11 -21.5t-19 -9.5h-18q-15 0 -26 10.5t-13 29.5l-9 69q-107 -125 -282 -125q-95 0 -164.5 35.5t-106 96t-50.5 142.5t3 175q15 92 51 172t92.5 143t138.5 99t180 36q168 0 236 -113l31 55q8 13 21.5 23t25.5 10h26zM408 76q146 0 220 86.5t103 267.5 q29 184 -17.5 272.5t-193.5 88.5q-144 0 -230 -97t-111 -258q-16 -101 1 -180.5t75 -129.5t153 -50z" />
<glyph unicode="&#xe5;" d="M593 940q-87 0 -146 56.5t-59 150.5t59 150.5t146 56.5q88 0 147 -56.5t59 -150.5t-59 -150.5t-147 -56.5zM593 1269q-49 0 -78.5 -34.5t-29.5 -87.5t29.5 -88t78.5 -35t79 35t30 88t-30 87.5t-79 34.5zM874 858q12 0 17 -9.5t3 -23.5l-126 -794q-2 -12 -11 -21.5 t-19 -9.5h-18q-15 0 -26 10.5t-13 29.5l-9 69q-107 -125 -282 -125q-95 0 -164.5 35.5t-106 96t-50.5 142.5t3 175q15 92 51 172t92.5 143t138.5 99t180 36q168 0 236 -113l31 55q8 13 21.5 23t25.5 10h26zM408 76q146 0 220 86.5t103 267.5q29 184 -17.5 272.5t-193.5 88.5 q-144 0 -230 -97t-111 -258q-16 -101 1 -180.5t75 -129.5t153 -50z" />
<glyph unicode="&#xe6;" horiz-adv-x="1445" d="M1052 883q76 0 133 -24.5t98 -78t52 -139.5t-6 -209q-2 -13 -13.5 -22t-22.5 -9h-72h-503l-15 -91q8 -108 67 -171t162 -63q80 0 139 32.5t112 90.5q20 21 39 4l31 -29q18 -16 -3 -37q-139 -153 -335 -153q-198 0 -280 157q-56 -74 -143 -115.5t-182 -41.5 q-101 0 -168.5 44.5t-91 114t-10.5 152.5q18 115 119.5 199t244.5 84q137 0 216 -64q11 39 20 60q12 110 -37 163.5t-162 53.5q-23 0 -48 -4t-43.5 -9t-42.5 -14.5t-35 -14.5t-32 -15.5l-23 -11.5q-23 -10 -28 11l-12 47q-3 17 12 27q142 76 268 76q127 0 193 -37.5 t86 -110.5q129 148 316 148zM733 494h498q10 84 -1.5 144t-41.5 92.5t-67.5 46.5t-85.5 14q-102 0 -177.5 -58.5t-115.5 -165.5q-4 -41 -7 -59l-2 -11v-1v-2zM324 76q56 0 101 14.5t73.5 36t49.5 51t31.5 55.5t15.5 54q-4 42 1 100q-25 97 -207 98q-87 1 -158.5 -52 t-84.5 -138q-16 -102 35 -160.5t143 -58.5z" />
<glyph unicode="&#xe7;" horiz-adv-x="948" d="M904 737q10 -21 -8 -39l-38 -33q-10 -9 -22.5 -8.5t-18.5 10.5q-71 124 -234 124q-146 0 -259 -106.5t-136 -254.5q-15 -90 14.5 -171t100.5 -132t167 -51q52 0 101.5 15t84.5 38.5t56.5 41.5t35.5 35q9 11 21 12.5t23 -8.5l24 -28q16 -19 -2 -39q-139 -145 -323 -158 l-40 -72q69 14 117 -25.5t36 -117.5q-13 -80 -64 -124t-128 -44q-50 0 -81 25t-39 52q-4 18 10 23l48 20q10 3 17 -9q15 -30 58 -30q38 0 62 26t30 62q7 43 -25.5 59t-67.5 2q-8 -3 -15.5 -4t-10.5 0l-4 1l-45 16q-13 5 -7 21l68 120q-109 11 -191 72.5t-119 159.5t-19 212 q30 189 181 321t336 132q208 0 306 -146z" />
<glyph unicode="&#xe8;" horiz-adv-x="978" d="M412 1154q-25 23 -4 45l30 41q21 25 47 4l234 -235q21 -21 10 -38l-13 -19q-18 -24 -47 0zM577 883q192 0 272.5 -121.5t47.5 -329.5q-2 -13 -13.5 -22t-22.5 -9h-74h-601q-9 -147 67 -236t209 -89q147 0 269 107q22 20 40 -2l21 -28q15 -21 -8 -42q-52 -50 -144 -88.5 t-205 -38.5q-182 0 -283 127t-70 323q31 197 172.5 323t322.5 126zM200 494h596q15 142 -51.5 219.5t-194.5 77.5q-121 0 -218.5 -82t-131.5 -215z" />
<glyph unicode="&#xe9;" horiz-adv-x="978" d="M413 952l-14 19q-11 16 11 38l233 235q26 21 47 -4l31 -41q21 -22 -4 -45l-257 -202q-29 -24 -47 0zM577 883q192 0 272.5 -121.5t47.5 -329.5q-2 -13 -13.5 -22t-22.5 -9h-74h-601q-9 -147 67 -236t209 -89q147 0 269 107q22 20 40 -2l21 -28q15 -21 -8 -42 q-52 -50 -144 -88.5t-205 -38.5q-182 0 -283 127t-70 323q31 197 172.5 323t322.5 126zM200 494h596q15 142 -51.5 219.5t-194.5 77.5q-121 0 -218.5 -82t-131.5 -215z" />
<glyph unicode="&#xea;" horiz-adv-x="978" d="M382 983q-20 -15 -30 -12.5t-7 21.5l3 18q4 21 27 41l172 166q25 24 55 24h9q29 0 47 -24l118 -166q17 -22 14 -41l-3 -18q-3 -19 -14 -21.5t-26 12.5l-156 160zM577 883q192 0 272.5 -121.5t47.5 -329.5q-2 -13 -13.5 -22t-22.5 -9h-74h-601q-9 -147 67 -236t209 -89 q147 0 269 107q22 20 40 -2l21 -28q15 -21 -8 -42q-52 -50 -144 -88.5t-205 -38.5q-182 0 -283 127t-70 323q31 197 172.5 323t322.5 126zM200 494h596q15 142 -51.5 219.5t-194.5 77.5q-121 0 -218.5 -82t-131.5 -215z" />
<glyph unicode="&#xeb;" horiz-adv-x="978" d="M451 1020q-26 0 -44 17t-18 42q0 27 18 44.5t44 17.5t43.5 -17.5t17.5 -44.5q0 -25 -17.5 -42t-43.5 -17zM684 1020q-26 0 -43.5 17t-17.5 42q0 27 17.5 44.5t43.5 17.5t43.5 -17.5t17.5 -44.5q0 -25 -17.5 -42t-43.5 -17zM577 883q192 0 272.5 -121.5t47.5 -329.5 q-2 -13 -13.5 -22t-22.5 -9h-74h-601q-9 -147 67 -236t209 -89q147 0 269 107q22 20 40 -2l21 -28q15 -21 -8 -42q-52 -50 -144 -88.5t-205 -38.5q-182 0 -283 127t-70 323q31 197 172.5 323t322.5 126zM200 494h596q15 142 -51.5 219.5t-194.5 77.5q-121 0 -218.5 -82 t-131.5 -215z" />
<glyph unicode="&#xec;" horiz-adv-x="393" d="M399 1186l-257 202q-25 23 -4 45l31 41q21 25 47 4l234 -236q21 -21 10 -38l-13 -18q-18 -24 -48 0zM105 0q-12 0 -20 8.5t-6 20.5l127 802q2 15 13.5 25t23.5 10h45q13 0 20 -10t5 -25l-127 -802q-2 -12 -12 -20.5t-23 -8.5h-46z" />
<glyph unicode="&#xed;" horiz-adv-x="393" d="M191 1186q-30 -24 -48 0l-13 18q-11 17 10 38l234 236q26 21 47 -4l31 -41q21 -22 -4 -45zM105 0q-12 0 -20 8.5t-6 20.5l127 802q2 15 13.5 25t23.5 10h45q13 0 20 -10t5 -25l-127 -802q-2 -12 -12 -20.5t-23 -8.5h-46z" />
<glyph unicode="&#xee;" horiz-adv-x="393" d="M507 1284q17 -22 14 -41l-3 -17q-3 -19 -14 -21.5t-26 12.5l-156 159l-209 -159q-20 -15 -30 -12.5t-7 21.5l2 17q4 21 27 41l173 166q26 25 55 25h8q30 0 48 -25zM288 866q13 0 20 -10t5 -25l-127 -802q-2 -12 -12 -20.5t-23 -8.5h-46q-12 0 -20 8.5t-6 20.5l127 802 q2 15 13.5 25t23.5 10h45z" />
<glyph unicode="&#xef;" horiz-adv-x="393" d="M181 1253q-26 0 -43.5 17.5t-17.5 42.5q0 27 17.5 44t43.5 17t44 -17t18 -44q0 -25 -18 -42.5t-44 -17.5zM415 1253q-26 0 -44 17.5t-18 42.5q0 27 18 44t44 17t43.5 -17t17.5 -44q0 -25 -17.5 -42.5t-43.5 -17.5zM105 0q-12 0 -20 8.5t-6 20.5l127 802q2 15 13.5 25 t23.5 10h45q13 0 20 -10t5 -25l-127 -802q-2 -12 -12 -20.5t-23 -8.5h-46z" />
<glyph unicode="&#xf0;" horiz-adv-x="1058" d="M942 386q-12 -48 -28 -85q-3 -6 -21 -43q-66 -124 -184.5 -199t-260.5 -75q-127 0 -218.5 60t-129.5 161.5t-19 224.5q31 191 174 322t335 131q187 0 289 -129q4 234 -188 437l-89 -103q-21 -24 -43 -4l-24 19q-21 21 0 44l92 106q-72 62 -155 108q-27 14 -10 39l20 30 q14 19 27.5 20t28.5 -10q86 -49 158 -108l83 97q17 23 45 2l21 -16q25 -19 3 -43l-86 -99q239 -235 221 -586q-8 -180 -41 -301zM844 430q15 93 -10.5 174.5t-93 134t-164.5 52.5q-148 0 -257 -108t-130 -253q-16 -91 10.5 -171t95.5 -131.5t168 -51.5q145 0 251.5 106 t129.5 248z" />
<glyph unicode="&#xf1;" horiz-adv-x="987" d="M295 1006q-15 7 -8 24q47 130 166 131h1h1q49 0 88.5 -13.5t60.5 -29.5t48 -29.5t53 -13.5q27 0 58.5 16t55.5 54q10 15 29 4l14 -8q15 -8 8 -25q-47 -130 -163 -131h-2q-45 0 -82 13.5t-58.5 29t-50.5 29t-60 13.5q-73 0 -116 -69q-10 -15 -29 -4zM603 883 q72 0 128 -18.5t96 -57.5t55 -105t1 -155l-82 -516q-2 -14 -13.5 -22.5t-21.5 -8.5h-48q-29 0 -24 31l75 469q13 65 10.5 118.5t-21 92t-65.5 59.5t-123 21q-137 0 -220.5 -64t-95.5 -143l-88 -553q-5 -31 -36 -31h-47q-28 0 -23 31l126 800q2 12 11.5 23.5t21.5 11.5h32 q21 0 23 -35l3 -80q56 63 143.5 97.5t182.5 34.5z" />
<glyph unicode="&#xf2;" horiz-adv-x="1034" d="M706 952l-257 202q-25 23 -4 45l31 41q21 25 47 4l233 -235q22 -22 11 -38l-14 -19q-18 -24 -47 0zM448 -16q-127 0 -218.5 60t-129.5 161.5t-19 224.5q31 191 174 322t335 131q190 0 291 -131t70 -322q-30 -188 -171.5 -317t-331.5 -129zM463 76q145 0 251.5 106 t129.5 248q15 93 -10.5 174.5t-93 134t-164.5 52.5q-148 0 -257 -108t-130 -253q-16 -91 10.5 -171t95.5 -131.5t168 -51.5z" />
<glyph unicode="&#xf3;" horiz-adv-x="1034" d="M497 952q-29 -24 -47 0l-13 19q-11 17 10 38l234 235q26 21 47 -4l30 -41q21 -22 -4 -45zM448 -16q-127 0 -218.5 60t-129.5 161.5t-19 224.5q31 191 174 322t335 131q190 0 291 -131t70 -322q-30 -188 -171.5 -317t-331.5 -129zM463 76q145 0 251.5 106t129.5 248 q15 93 -10.5 174.5t-93 134t-164.5 52.5q-148 0 -257 -108t-130 -253q-16 -91 10.5 -171t95.5 -131.5t168 -51.5z" />
<glyph unicode="&#xf4;" horiz-adv-x="1034" d="M420 983q-20 -16 -30.5 -13t-7.5 22l3 18q4 21 27 41l173 166q25 24 55 24h8q29 0 47 -24l118 -166q17 -22 14 -41l-2 -18q-3 -19 -14.5 -22t-26.5 13l-156 160zM590 883q190 0 291 -131t70 -322q-30 -188 -171.5 -317t-331.5 -129q-127 0 -218.5 60t-129.5 161.5 t-19 224.5q31 191 174 322t335 131zM844 430q15 93 -10.5 174.5t-93 134t-164.5 52.5q-148 0 -257 -108t-130 -253q-16 -91 10.5 -171t95.5 -131.5t168 -51.5q145 0 251.5 106t129.5 248z" />
<glyph unicode="&#xf5;" horiz-adv-x="1034" d="M322 1006q-15 7 -8 24q47 130 166 131h1h1q49 0 89 -13.5t61 -29.5t48 -29.5t53 -13.5q68 0 113 70q10 15 29 4l14 -8q16 -8 9 -25q-47 -130 -164 -131h-1h-1q-45 0 -82 13.5t-58.5 29t-50.5 29t-60 13.5q-73 0 -116 -69q-10 -15 -28 -4zM590 883q190 0 291 -131t70 -322 q-30 -188 -171.5 -317t-331.5 -129q-127 0 -218.5 60t-129.5 161.5t-19 224.5q31 191 174 322t335 131zM844 430q15 93 -10.5 174.5t-93 134t-164.5 52.5q-148 0 -257 -108t-130 -253q-16 -91 10.5 -171t95.5 -131.5t168 -51.5q145 0 251.5 106t129.5 248z" />
<glyph unicode="&#xf6;" horiz-adv-x="1034" d="M488 1020q-26 0 -43.5 17t-17.5 42q0 27 17.5 44.5t43.5 17.5t43.5 -17.5t17.5 -44.5q0 -25 -17.5 -42t-43.5 -17zM722 1020q-26 0 -44 17t-18 42q0 27 18 44.5t44 17.5t43.5 -17.5t17.5 -44.5q0 -25 -17.5 -42t-43.5 -17zM448 -16q-127 0 -218.5 60t-129.5 161.5 t-19 224.5q31 191 174 322t335 131q190 0 291 -131t70 -322q-30 -188 -171.5 -317t-331.5 -129zM463 76q145 0 251.5 106t129.5 248q15 93 -10.5 174.5t-93 134t-164.5 52.5q-148 0 -257 -108t-130 -253q-16 -91 10.5 -171t95.5 -131.5t168 -51.5z" />
<glyph unicode="&#xf7;" horiz-adv-x="962" d="M516 897q-41 0 -68.5 28t-27.5 68t27.5 68.5t68.5 28.5q40 0 68 -28.5t28 -68.5t-28 -68t-68 -28zM169 645q-33 0 -30 31l1 35q3 30 35 30h723q33 0 30 -30l-1 -35q-3 -31 -35 -31h-723zM516 289q-41 0 -68.5 28t-27.5 68t27.5 68t68.5 28q40 0 68 -28t28 -68t-28 -68 t-68 -28z" />
<glyph unicode="&#xf8;" horiz-adv-x="1034" d="M822 810q80 -61 114 -161t15 -219q-30 -188 -171.5 -317t-331.5 -129q-87 0 -161 30q-19 -30 -45 -30h-32q-20 0 -24 15t7 30l19 28q-80 60 -115 158.5t-16 214.5q31 191 174 322t335 131q86 0 156 -29q20 29 43 29h46q15 0 18 -11t-7 -26zM189 430q-14 -83 7.5 -158.5 t75.5 -125.5l417 622q-54 23 -113 23q-148 0 -257 -108t-130 -253zM844 430q14 86 -7.5 162.5t-74.5 127.5l-418 -621q52 -23 119 -23q145 0 251.5 106t129.5 248z" />
<glyph unicode="&#xf9;" horiz-adv-x="991" d="M410 1154q-25 23 -4 45l30 41q21 25 47 4l234 -235q21 -21 10 -38l-13 -19q-18 -24 -47 0zM908 866q12 0 18.5 -10t4.5 -25l-127 -802q-5 -29 -29 -29h-17q-24 0 -30 29l-19 78q-109 -123 -299 -123q-93 0 -159.5 28t-99 76t-45.5 111.5t1 134.5l79 497q2 15 11.5 25 t21.5 10h51q12 0 18 -10t4 -25l-76 -483q-20 -128 35.5 -200t192.5 -72q66 0 121.5 20.5t90.5 53t56 68.5t27 71l86 542q6 35 34 35h49z" />
<glyph unicode="&#xfa;" horiz-adv-x="991" d="M411 952l-14 19q-11 16 11 38l233 235q26 21 47 -4l31 -41q21 -22 -4 -45l-257 -202q-29 -24 -47 0zM908 866q12 0 18.5 -10t4.5 -25l-127 -802q-5 -29 -29 -29h-17q-24 0 -30 29l-19 78q-109 -123 -299 -123q-93 0 -159.5 28t-99 76t-45.5 111.5t1 134.5l79 497 q2 15 11.5 25t21.5 10h51q12 0 18 -10t4 -25l-76 -483q-20 -128 35.5 -200t192.5 -72q66 0 121.5 20.5t90.5 53t56 68.5t27 71l86 542q6 35 34 35h49z" />
<glyph unicode="&#xfb;" horiz-adv-x="991" d="M380 983q-20 -15 -30 -12.5t-7 21.5l3 18q4 22 26 41l173 166q25 24 55 24h8q30 0 48 -24l118 -166q17 -22 14 -41l-3 -18q-3 -19 -14 -21.5t-26 12.5l-156 160zM908 866q12 0 18.5 -10t4.5 -25l-127 -802q-5 -29 -29 -29h-17q-24 0 -30 29l-19 78q-109 -123 -299 -123 q-93 0 -159.5 28t-99 76t-45.5 111.5t1 134.5l79 497q2 15 11.5 25t21.5 10h51q12 0 18 -10t4 -25l-76 -483q-20 -128 35.5 -200t192.5 -72q66 0 121.5 20.5t90.5 53t56 68.5t27 71l86 542q6 35 34 35h49z" />
<glyph unicode="&#xfc;" horiz-adv-x="991" d="M449 1020q-26 0 -44 17t-18 42q0 27 18 44.5t44 17.5t43.5 -17.5t17.5 -44.5q0 -25 -17.5 -42t-43.5 -17zM682 1020q-26 0 -43.5 17t-17.5 42q0 27 17.5 44.5t43.5 17.5t43.5 -17.5t17.5 -44.5q0 -25 -17.5 -42t-43.5 -17zM908 866q12 0 18.5 -10t4.5 -25l-127 -802 q-5 -29 -29 -29h-17q-24 0 -30 29l-19 78q-109 -123 -299 -123q-93 0 -159.5 28t-99 76t-45.5 111.5t1 134.5l79 497q2 15 11.5 25t21.5 10h51q12 0 18 -10t4 -25l-76 -483q-20 -128 35.5 -200t192.5 -72q66 0 121.5 20.5t90.5 53t56 68.5t27 71l86 542q6 35 34 35h49z" />
<glyph unicode="&#xfd;" horiz-adv-x="987" d="M402 952l-13 19q-11 17 10 38l234 235q26 21 47 -4l30 -41q21 -22 -4 -45l-257 -202q-29 -24 -47 0zM969 866q14 0 20 -12t-4 -31l-917 -1380q-10 -16 -27 -16h-50q-15 0 -20 12t6 31l380 572l-230 781q-5 13 3 28t25 15h55q22 0 29 -30l191 -683l462 695q11 18 30 18h47 z" />
<glyph unicode="&#xfe;" horiz-adv-x="954" d="M588 883q119 0 195.5 -62.5t102 -164t5.5 -228.5q-31 -195 -150 -319.5t-295 -124.5q-188 0 -265 143l-71 -451q-2 -12 -12 -21t-22 -9h-51q-12 0 -18 9t-4 21l239 1510q2 15 11 25t21 10h53q27 0 22 -35l-70 -442q120 139 309 139zM785 428q25 161 -31.5 262t-192.5 101 q-148 0 -226.5 -94t-105.5 -265q-14 -76 -9.5 -141t26.5 -113t73.5 -75t130.5 -27q135 0 222 94t113 258z" />
<glyph unicode="&#xff;" horiz-adv-x="987" d="M440 1020q-26 0 -43.5 17t-17.5 42q0 27 17.5 44.5t43.5 17.5t43.5 -17.5t17.5 -44.5q0 -25 -17.5 -42t-43.5 -17zM673 1020q-26 0 -43.5 17t-17.5 42q0 27 17.5 44.5t43.5 17.5t44 -17.5t18 -44.5q0 -25 -18 -42t-44 -17zM969 866q14 0 20 -12t-4 -31l-917 -1380 q-10 -16 -27 -16h-50q-15 0 -20 12t6 31l380 572l-230 781q-5 13 3 28t25 15h55q22 0 29 -30l191 -683l462 695q11 18 30 18h47z" />
<glyph unicode="&#x152;" horiz-adv-x="1812" d="M1866 1434q12 0 18.5 -9.5t4.5 -21.5l-5 -35q-2 -12 -12 -21.5t-22 -9.5h-655l-91 -571h453q12 0 20 -8.5t6 -20.5l-6 -39q-2 -12 -12.5 -20t-22.5 -8h-453l-91 -574h658q12 0 20 -9t6 -21l-6 -35q-2 -12 -12.5 -21.5t-22.5 -9.5h-701h-41h-4q-80 -16 -155 -16h-2 q-102 0 -199 30t-179.5 92t-140 147.5t-81 205.5t-1.5 258t83 258t146 205.5t187 147.5t208 92t207 30q74 0 154 -17l2 1h2h55h685zM252 719q-29 -184 27 -330.5t180.5 -227.5t293.5 -81q70 0 130 13l198 1248q-59 13 -128 13q-168 -1 -318.5 -83t-252 -227.5t-130.5 -324.5 z" />
<glyph unicode="&#x153;" horiz-adv-x="1593" d="M1200 883q76 0 133 -24.5t97.5 -78t51.5 -139.5t-6 -209q-2 -13 -13 -22t-22 -9h-73h-516q-15 -147 44.5 -236t182.5 -89q140 0 252 123q20 21 38 4l32 -29q17 -16 -4 -37q-139 -153 -335 -153q-112 0 -188.5 52t-109.5 146q-129 -198 -364 -198q-127 0 -206.5 60.5 t-105.5 159.5t-6 227q32 198 152 325t308 127q118 0 194 -53.5t107 -147.5q63 96 155 148.5t202 52.5zM413 76q138 0 224 95t112 261q26 167 -29.5 263t-192.5 96q-138 0 -225.5 -96.5t-113.5 -262.5q-26 -165 31 -260.5t194 -95.5zM868 494h510q10 84 -1.5 144t-41.5 92.5 t-67.5 46.5t-85.5 14q-118 0 -199.5 -78t-114.5 -219z" />
<glyph unicode="&#x178;" horiz-adv-x="1200" d="M659 1587q-26 0 -44 17.5t-18 42.5q0 27 18 44t44 17t43.5 -17t17.5 -44q0 -25 -17.5 -42.5t-43.5 -17.5zM892 1587q-26 0 -43.5 17.5t-17.5 42.5q0 27 17.5 44t43.5 17t44 -17t18 -44q0 -25 -18 -42.5t-44 -17.5zM1278 1434q16 0 22.5 -14.5t-5.5 -33.5l-598 -765 l-93 -592q-2 -12 -13 -20.5t-23 -8.5h-53q-12 0 -20 8.5t-6 20.5l93 589l-354 771q-8 17 4.5 31t27.5 14h38q29 0 46 -31l311 -684l529 684q26 31 54 31h40z" />
<glyph unicode="&#x2c6;" horiz-adv-x="724" d="M725 1423q17 -22 14 -41l-3 -17q-3 -19 -14 -21.5t-26 12.5l-156 160l-209 -160q-20 -15 -30 -12.5t-7 21.5l2 17q4 21 27 41l173 166q26 25 55 25h8q30 0 48 -25z" />
<glyph unicode="&#x2dc;" horiz-adv-x="817" d="M859 1513q15 -7 8 -24q-47 -130 -163 -131h-2h-1q-45 0 -82 13.5t-58 29t-50 29t-60 13.5q-73 0 -116 -69q-10 -15 -29 -4l-14 8q-15 7 -8 25q47 130 166 131h1h1q49 0 88.5 -13.5t60.5 -29.5t48 -29.5t53 -13.5q27 0 58.5 16t55.5 54q10 15 29 4z" />
<glyph unicode="&#x2000;" horiz-adv-x="960" />
<glyph unicode="&#x2001;" horiz-adv-x="1921" />
<glyph unicode="&#x2002;" horiz-adv-x="960" />
<glyph unicode="&#x2003;" horiz-adv-x="1921" />
<glyph unicode="&#x2004;" horiz-adv-x="640" />
<glyph unicode="&#x2005;" horiz-adv-x="480" />
<glyph unicode="&#x2006;" horiz-adv-x="320" />
<glyph unicode="&#x2007;" horiz-adv-x="320" />
<glyph unicode="&#x2008;" horiz-adv-x="240" />
<glyph unicode="&#x2009;" horiz-adv-x="384" />
<glyph unicode="&#x200a;" horiz-adv-x="106" />
<glyph unicode="&#x2010;" horiz-adv-x="786" d="M169 516q-33 0 -28 31l5 35q4 30 38 30h475q33 0 28 -30l-6 -35q-5 -31 -37 -31h-475z" />
<glyph unicode="&#x2011;" horiz-adv-x="786" d="M169 516q-33 0 -28 31l5 35q4 30 38 30h475q33 0 28 -30l-6 -35q-5 -31 -37 -31h-475z" />
<glyph unicode="&#x2012;" horiz-adv-x="786" d="M169 516q-33 0 -28 31l5 35q4 30 38 30h475q33 0 28 -30l-6 -35q-5 -31 -37 -31h-475z" />
<glyph unicode="&#x2013;" horiz-adv-x="1034" d="M169 516q-33 0 -28 31l5 35q4 30 38 30h723q33 0 28 -30l-6 -35q-5 -31 -37 -31h-723z" />
<glyph unicode="&#x2014;" horiz-adv-x="1576" d="M169 516q-33 0 -28 31l5 35q4 30 38 30h1266q31 0 27 -30l-5 -35q-5 -31 -38 -31h-1265z" />
<glyph unicode="&#x2018;" horiz-adv-x="364" d="M327 1279q15 -9 22.5 -14.5t14 -16t4.5 -23.5l-22 -133q-5 -30 -37 -30h-94q-33 0 -28 30l24 154q2 9 4 12l111 238h27q9 0 13.5 -8t-0.5 -25l-65 -169z" />
<glyph unicode="&#x2019;" horiz-adv-x="364" d="M419 1495q33 0 28 -31l-25 -153q-2 -9 -4 -12l-110 -238h-27q-9 0 -13.5 8.5t0.5 24.5l65 169l-26 15q-16 10 -22.5 14.5t-13.5 15t-5 23.5l21 133q5 31 38 31h94z" />
<glyph unicode="&#x201a;" horiz-adv-x="344" d="M216 215q33 0 28 -31l-25 -153q-2 -9 -4 -12l-111 -238h-26q-9 0 -14 9t0 24l66 169l-27 15q-16 10 -22.5 14.5t-13 15t-4.5 23.5l21 133q5 31 37 31h95z" />
<glyph unicode="&#x201c;" horiz-adv-x="612" d="M352 1496q9 0 14 -9t0 -24l-66 -169l27 -15q16 -10 22.5 -14.5t13 -15t4.5 -23.5l-21 -133q-5 -31 -37 -31h-95q-33 0 -28 31l25 153q2 10 4 13l111 237h26zM573 1279q16 -10 22.5 -14.5t13.5 -15t5 -23.5l-21 -133q-5 -31 -38 -31h-94q-33 0 -28 31l24 153q1 6 5 12 l110 238h27q9 0 13.5 -8t-0.5 -25l-65 -169z" />
<glyph unicode="&#x201d;" horiz-adv-x="612" d="M418 1495q33 0 28 -31l-25 -153q-2 -9 -4 -12l-110 -238h-27q-9 0 -13.5 8.5t0.5 24.5l65 169l-26 15q-16 10 -22.5 14.5t-13.5 15t-5 23.5l21 133q5 31 38 31h94zM664 1495q33 0 28 -31l-24 -153q-2 -9 -4 -12l-111 -238h-26q-9 0 -14 9t0 24l65 169l-26 15 q-16 10 -22.5 14.5t-13 15t-4.5 23.5l21 133q5 31 37 31h94z" />
<glyph unicode="&#x201e;" horiz-adv-x="591" d="M216 215q33 0 28 -31l-25 -153q-2 -9 -4 -12l-111 -238h-26q-9 0 -14 9t0 24l66 169l-27 15q-16 10 -22.5 14.5t-13 15t-4.5 23.5l21 133q5 31 37 31h95zM462 215q33 0 28 -31l-24 -153q-1 -6 -5 -12l-110 -238h-27q-9 0 -13.5 8.5t0.5 24.5l65 169l-26 15 q-16 10 -22.5 14.5t-13.5 15t-5 23.5l21 133q5 31 38 31h94z" />
<glyph unicode="&#x2022;" horiz-adv-x="440" d="M272 668q-41 0 -68.5 28t-27.5 68t27.5 68t68.5 28q40 0 68.5 -28t28.5 -68t-28.5 -68t-68.5 -28z" />
<glyph unicode="&#x2026;" horiz-adv-x="1421" d="M47 0q-33 0 -28 31l16 102q5 31 38 31h98q33 0 28 -31l-16 -102q-2 -15 -13.5 -23t-24.5 -8h-98zM563 0q-33 0 -28 31l16 102q5 31 38 31h98q33 0 28 -31l-16 -102q-2 -15 -13.5 -23t-24.5 -8h-98zM1079 0q-33 0 -28 31l17 102q5 31 37 31h98q33 0 28 -31l-16 -102 q-2 -15 -13.5 -23t-24.5 -8h-98z" />
<glyph unicode="&#x202f;" horiz-adv-x="384" />
<glyph unicode="&#x2039;" horiz-adv-x="624" d="M548 883q19 0 21.5 -11t-11.5 -28l-309 -411l179 -410q8 -17 2.5 -28t-24.5 -11h-19q-30 0 -41 20l-204 371q-23 37 -20 51v4l2 10q3 16 37 52l321 370q20 21 47 21h19z" />
<glyph unicode="&#x203a;" horiz-adv-x="645" d="M503 492q23 -37 20 -52v-4l-2 -10q-3 -15 -37 -51l-321 -371q-19 -20 -47 -20h-19q-18 0 -20.5 11t11.5 28l309 410l-179 411q-9 17 -3 28t24 11h20q28 0 40 -21z" />
<glyph unicode="&#x205f;" horiz-adv-x="480" />
<glyph unicode="&#x20ac;" horiz-adv-x="1269" d="M1242 1380q20 -16 -1 -41l-30 -36q-21 -26 -44 -10q-48 31 -96 46t-117 15q-194 0 -326 -121.5t-199 -327.5h359q12 0 20 -8t6 -20l-6 -35q-2 -12 -12.5 -20.5t-22.5 -8.5h-370q-7 -29 -17 -89q-9 -53 -12 -103h368q12 0 20.5 -8.5t6.5 -20.5l-6 -35q-2 -12 -12.5 -20.5 t-22.5 -8.5h-357q2 -98 24 -177t67.5 -141t120.5 -96t176 -34q145 0 273 84q28 18 39 -4l19 -37q13 -24 -15 -43q-59 -40 -152.5 -68t-187.5 -28q-232 0 -357.5 140t-123.5 404h-85q-12 0 -20 8.5t-6 20.5l5 35q2 12 12.5 20.5t22.5 8.5h75q2 26 13 98q8 51 18 94h-75 q-12 0 -20 8.5t-6 20.5l5 35q2 12 12.5 20t22.5 8h85q81 264 251 404.5t401 140.5q87 0 164.5 -22t112.5 -48z" />
<glyph unicode="&#x2122;" horiz-adv-x="1292" d="M694 1372q-2 -12 -12 -12h-154l-74 -465q-2 -12 -14 -12h-62q-12 0 -11 12l74 465h-159q-12 0 -10 12l8 49q2 13 14 13h188h45h166q11 0 9 -13zM1315 1434q12 0 10 -13l-83 -526q-2 -12 -14 -12h-61q-13 0 -12 12l61 384l-240 -394q-9 -13 -20 -13h-13h-4q-11 0 -14 13 l-93 381l-59 -371q-1 -12 -16 -12h-61q-12 0 -10 12l83 526q2 13 12 13h55h20q12 0 17 -13l101 -402l248 402q8 13 20 13h48h25z" />
<glyph unicode="&#x25fc;" horiz-adv-x="870" d="M0 870h870v-870h-870v870z" />
<glyph unicode="&#xfb03;" horiz-adv-x="1343" d="M1323 1397q13 -8 14 -21t-6 -20l-25 -33q-19 -24 -41 -10q-27 19 -71 32t-86 13q-70 0 -112.5 -12.5t-69.5 -48t-40.5 -81t-26.5 -129.5l-36 -221h404q12 0 20 -9t6 -21l-3 -20l-125 -787q-2 -13 -11 -21t-22 -8h-49q-12 0 -19 8.5t-5 20.5l118 745h-329l-170 -1064 q-5 -30 -33 -30h-50q-27 0 -23 30l170 1064h-106h-239l-168 -1064q-5 -30 -34 -30h-49q-28 0 -23 30l168 1064h-107q-12 0 -19 9.5t-5 21.5l5 31q2 12 12 21t22 9h106l30 191q31 195 108.5 277.5t238.5 82.5q59 0 93.5 -13t86.5 -47q14 -10 19 -14q46 62 113 84.5t169 22.5 q125 0 200 -53zM717 866l36 230l1 1q0 4 1 11.5t2 10.5q12 76 7.5 116t-32.5 59l1 1q-49 30 -105 30q-105 0 -154 -63t-72 -205l-30 -191h345z" />
<glyph unicode="&#xfb04;" horiz-adv-x="1417" d="M1407 1450q12 0 18 -9.5t4 -23.5l-219 -1386q-2 -13 -11.5 -22t-21.5 -9h-52q-12 0 -18 8.5t-4 22.5l183 1153q3 41 -12 73.5t-64 64.5q-50 36 -112 36q-114 0 -165.5 -63.5t-74.5 -207.5l-35 -221h199q12 0 20 -9t6 -21l-5 -31q-2 -12 -13 -21.5t-23 -9.5h-199 l-170 -1063q-5 -31 -33 -31h-49q-12 0 -19 8t-5 23l170 1063h-106h-239l-168 -1064q-5 -30 -33 -30h-50q-28 0 -23 30l168 1064h-107q-12 0 -19 9.5t-5 21.5l5 31q2 12 12 21t22 9h106l30 189v1v1q31 195 108 277.5t239 82.5q59 0 93.5 -13t86.5 -47q18 -13 21 -16 q51 68 116 88.5t153 20.5q57 0 103 -18q38 -14 52 -17.5t29.5 0.5t33.5 21q10 14 24 14h53zM716 866l37 230v1q1 11 5 26q12 73 7 112.5t-33 58.5l1 1q-49 30 -105 30q-105 0 -154 -63t-72 -204l-30 -192h344z" />
</font>
</defs>
</svg>
