<svg xmlns="http://www.w3.org/2000/svg" xmlns:xlink="http://www.w3.org/1999/xlink" x="0px" y="0px" width="64px" height="64px" viewBox="0 0 64 64"><g >
<path fill="#444444" d="M52,23H33v19c0,0.553-0.447,1-1,1s-1-0.447-1-1V23H12c-1.105,0-2,0.895-2,2v36c0,1.105,0.895,2,2,2h40
c1.105,0,2-0.895,2-2V25C54,23.895,53.105,23,52,23z"/>
<path data-color="color-2" fill="#444444" d="M22.707,12.707L31,4.414V23h2V4.414l8.293,8.293C41.488,12.902,41.744,13,42,13
s0.512-0.098,0.707-0.293c0.391-0.391,0.391-1.023,0-1.414l-9.999-9.999c-0.092-0.093-0.203-0.166-0.327-0.217
c-0.244-0.101-0.519-0.101-0.764,0c-0.123,0.051-0.234,0.125-0.326,0.217l-9.999,9.999c-0.391,0.391-0.391,1.023,0,1.414
S22.316,13.098,22.707,12.707z"/>
</g></svg>