<svg xmlns="http://www.w3.org/2000/svg" xmlns:xlink="http://www.w3.org/1999/xlink" x="0px" y="0px" width="64px" height="64px" viewBox="0 0 64 64"><g >
<path fill="#444444" d="M42,59h-5v-5H27v5h-5c-0.553,0-1,0.447-1,1s0.447,1,1,1h20c0.553,0,1-0.447,1-1S42.553,59,42,59z"/>
<path data-color="color-2" fill="#444444" d="M5,50H2c-0.553,0-1-0.447-1-1V9c0-0.553,0.447-1,1-1h29v2H3v38h2V50z"/>
<path data-color="color-2" fill="#444444" d="M62,50H25v-2h36V10h-2V8h3c0.553,0,1,0.447,1,1v40C63,49.553,62.553,50,62,50z"/>
<path fill="#444444" d="M21,30H9c-1.103,0-2,0.897-2,2v22c0,1.103,0.897,2,2,2h12c1.103,0,2-0.897,2-2V32C23,30.897,22.103,30,21,30
z M15,53c-1.105,0-2-0.895-2-2c0-1.105,0.895-2,2-2s2,0.895,2,2C17,52.105,16.105,53,15,53z"/>
<path fill="#444444" d="M55,2H35c-1.103,0-2,0.897-2,2v28c0,1.103,0.897,2,2,2h20c1.103,0,2-0.897,2-2V4C57,2.897,56.103,2,55,2z
 M45,30c-1.105,0-2-0.895-2-2c0-1.105,0.895-2,2-2s2,0.895,2,2C47,29.105,46.105,30,45,30z"/>
</g></svg>