<svg xmlns="http://www.w3.org/2000/svg" xmlns:xlink="http://www.w3.org/1999/xlink" x="0px" y="0px" width="64px" height="64px" viewBox="0 0 64 64"><g >
<path fill="#444444" d="M60.894,60.552L52.092,43H58c0.552,0,1-0.448,1-1s-0.448-1-1-1h-6.91l-8.885-17.718
c-1.819,2.943-4.866,5.039-8.427,5.571L39.851,41H33v-4c0-0.552-0.448-1-1-1s-1,0.448-1,1v4h-6.851l6.073-12.147
c-3.56-0.533-6.608-2.628-8.427-5.571L12.91,41H6c-0.552,0-1,0.448-1,1s0.448,1,1,1h5.908L3.106,60.552
c-0.155,0.31-0.139,0.678,0.043,0.974C3.331,61.82,3.653,62,4,62c5.012,0,10.004-0.711,12.583-5.867L23.149,43H31v4
c0,0.552,0.448,1,1,1s1-0.448,1-1v-4h7.851l6.566,13.133C49.996,61.289,54.988,62,60,62c0.347,0,0.669-0.18,0.851-0.475
C61.033,61.23,61.049,60.862,60.894,60.552z"/>
<path data-color="color-2" fill="#444444" d="M33,7.051V3c0-0.552-0.448-1-1-1s-1,0.448-1,1v4.051c-5.046,0.503-9,4.773-9,9.949
c0,5.514,4.486,10,10,10s10-4.486,10-10C42,11.823,38.046,7.554,33,7.051z"/>
</g></svg>