<svg xmlns="http://www.w3.org/2000/svg" xmlns:xlink="http://www.w3.org/1999/xlink" x="0px" y="0px" width="64px" height="64px" viewBox="0 0 64 64"><g >
<path data-color="color-2" fill="#3d3b37" d="M40,27H24c-0.6,0-1-0.4-1-1s0.4-1,1-1h16c0.6,0,1,0.4,1,1S40.6,27,40,27z"/>
<path data-color="color-2" fill="#3d3b37" d="M40,35H24c-0.6,0-1-0.4-1-1s0.4-1,1-1h16c0.6,0,1,0.4,1,1S40.6,35,40,35z"/>
<path data-color="color-2" fill="#3d3b37" d="M34,43H24c-0.6,0-1-0.4-1-1s0.4-1,1-1h10c0.6,0,1,0.4,1,1S34.6,43,34,43z"/>
<path fill="#3d3b37" d="M56,1H46v8h2c0.6,0,1,0.4,1,1v44c0,0.6-0.4,1-1,1H16c-0.6,0-1-0.4-1-1V10c0-0.6,0.4-1,1-1h2V1H8
C7.4,1,7,1.4,7,2v60c0,0.6,0.4,1,1,1h48c0.6,0,1-0.4,1-1V2C57,1.4,56.6,1,56,1z"/>
<path data-color="color-2" fill="#3d3b37" d="M43,1H21c-0.6,0-1,0.4-1,1v10c0,0.6,0.4,1,1,1h4.3c0.4,0,0.8-0.3,1-0.7C27,9.8,29.4,8,32,8
s5,1.8,5.7,4.3c0.1,0.4,0.5,0.7,1,0.7H43c0.6,0,1-0.4,1-1V2C44,1.4,43.6,1,43,1z"/>
</g></svg>