<svg xmlns="http://www.w3.org/2000/svg" xmlns:xlink="http://www.w3.org/1999/xlink" x="0px" y="0px" width="64px" height="64px" viewBox="0 0 64 64"><g >
<path fill="#444444" d="M32,1C14.907,1,1,14.907,1,32s13.907,31,31,31s31-13.907,31-31S49.093,1,32,1z M31,6c0-0.552,0.448-1,1-1
s1,0.448,1,1v5c0,0.552-0.448,1-1,1s-1-0.448-1-1V6z M11,33H6c-0.552,0-1-0.448-1-1s0.448-1,1-1h5c0.552,0,1,0.448,1,1
S11.552,33,11,33z M33,58c0,0.552-0.448,1-1,1s-1-0.448-1-1v-5c0-0.552,0.448-1,1-1s1,0.448,1,1V58z M45,33h-9.141
c-0.446,1.722-1.997,3-3.859,3c-2.209,0-4-1.791-4-4c0-0.944,0.341-1.8,0.887-2.484L19.2,16.6c-0.332-0.442-0.242-1.069,0.2-1.4
c0.443-0.332,1.069-0.241,1.4,0.2l9.678,12.904C30.947,28.11,31.46,28,32,28c1.862,0,3.413,1.278,3.859,3H45c0.552,0,1,0.448,1,1
S45.552,33,45,33z M58,33h-5c-0.552,0-1-0.448-1-1s0.448-1,1-1h5c0.552,0,1,0.448,1,1S58.552,33,58,33z"/>
</g></svg>