<?xml version="1.0" encoding="UTF-8"?>
<svg width="100px" height="64px" viewBox="0 0 100 64" version="1.1" xmlns="http://www.w3.org/2000/svg" xmlns:xlink="http://www.w3.org/1999/xlink">
    <!-- Generator: Sketch 46.2 (44496) - http://www.bohemiancoding.com/sketch -->
    <title>cedc-icon</title>
    <desc>Created with Sketch.</desc>
    <defs>
        <polygon id="path-1" points="0 7.71661608e-15 3.39403246e-15 29.8666667 30.72 29.8666667 30.72 0"></polygon>
        <polygon id="path-3" points="0 3.9685418e-15 0 30.72 30.72 30.72 30.72 0"></polygon>
    </defs>
    <g id="Page-1" stroke="none" stroke-width="1" fill="none" fill-rule="evenodd">
        <g id="cedc-icon">
            <g id="cedc-logo" transform="translate(18.000000, 0.000000)">
                <path d="M23.6835838,17.92 L20.48,23.04 C22.4423717,22.5946185 23.8933333,21.0146527 23.8933333,19.1336251 C23.8933333,18.7106527 23.8196672,18.3031475 23.6835838,17.92 Z" id="Fill-1" fill="#3D3B37"></path>
                <g id="Group-5">
                    <mask id="mask-2" fill="white">
                        <use xlink:href="#path-1"></use>
                    </mask>
                    <g id="Clip-4"></g>
                    <path d="M14.3341789,16.7281522 L19.217234,7.68 L24.0658211,16.7281522 L24.0654091,16.7281522 C24.4993486,17.5004475 24.7466667,18.3868638 24.7466667,19.3300055 C24.7466667,22.3215602 22.2633244,24.7466667 19.1999313,24.7466667 C16.1365383,24.7466667 13.6533333,22.3215602 13.6533333,19.3300055 C13.6533333,18.3868638 13.9005141,17.5004475 14.3344535,16.7281522 L14.3341789,16.7281522 Z M30.72,29.8666667 L30.72,0 C14.1705563,0.887818226 0.913184461,13.7769297 0,29.8666667 L30.72,29.8666667 Z" id="Fill-3" fill="#3D3B37" mask="url(#mask-2)"></path>
                </g>
                <g id="Group-8" transform="translate(33.280000, 33.280000)" fill="#3D3B37">
                    <path d="M21.878758,15.4106529 L16.2639862,15.4106529 L16.2639862,21.0254247 C16.2639862,21.1953446 16.1262826,21.3333333 15.9562201,21.3333333 L10.4972558,21.3333333 C10.3271933,21.3333333 10.1893471,21.1953446 10.1893471,21.0254247 L10.1893471,15.4106529 L4.57457535,15.4106529 C4.40451282,15.4106529 4.26666667,15.2728067 4.26666667,15.1027442 L4.26666667,9.64377992 C4.26666667,9.47385994 4.40451282,9.33587124 4.57457535,9.33587124 L10.1893471,9.33587124 L10.1893471,3.72124201 C10.1893471,3.55117949 10.3271933,3.41333333 10.4972558,3.41333333 L15.9562201,3.41333333 C16.1262826,3.41333333 16.2639862,3.55117949 16.2639862,3.72124201 L16.2639862,9.33587124 L21.878758,9.33587124 C22.0488205,9.33587124 22.1866667,9.47385994 22.1866667,9.64377992 L22.1866667,15.1027442 C22.1866667,15.2728067 22.0488205,15.4106529 21.878758,15.4106529 L21.878758,15.4106529 Z M0,0 L0,30.72 C16.5494437,29.8068155 29.8066759,16.5495833 30.72,0 L0,0 Z" id="Fill-6"></path>
                </g>
                <path d="M43.9837294,12.1523233 C43.9837294,12.1523233 44.1882539,11.5628688 44.9477356,11.7102324 C45.7072172,11.8575961 45.5184362,11.9212787 45.3982517,12.3018145 L45.0421964,13.4295221 C45.359877,13.5723472 45.7104503,13.6533333 46.08,13.6533333 C46.4488469,13.6533333 46.7988579,13.5726308 47.1159763,13.4303731 L46.7596398,12.3018145 C46.6394553,11.9212787 46.4506743,11.8575961 47.2102965,11.7102324 C47.9697782,11.5628688 48.1743027,12.1523233 48.1743027,12.1523233 C48.1743027,12.1523233 48.2049462,12.2469254 48.2601889,12.417124 C48.4994333,12.0245325 48.64,11.5641453 48.64,11.0702856 C48.64,9.80953932 47.73953,8.75856284 46.5538502,8.53333333 C46.5281265,8.65474168 46.4214364,8.74579794 46.2935208,8.74579794 L45.8615594,8.74579794 C45.7337843,8.74579794 45.6273754,8.65516718 45.6013705,8.53418433 C44.4179398,8.76125765 43.52,9.81124131 43.52,11.0702856 C43.52,11.5632943 43.6600044,12.0226887 43.898546,12.4151384 C43.953367,12.2460744 43.9837294,12.1523233 43.9837294,12.1523233" id="Fill-9" fill="#3D3B37"></path>
                <path d="M39.9721816,15.6946292 C39.920655,15.7933219 39.815513,15.8618325 39.6925455,15.8618325 C39.5194441,15.8618325 39.3789298,15.7270816 39.3789298,15.5610802 C39.3789298,15.3949453 39.5194441,15.260328 39.6925455,15.260328 C39.815513,15.260328 39.9207943,15.3288386 39.9721816,15.4275313 L42.3398968,15.4275313 C42.7349802,14.2640527 43.0793726,13.2534877 43.3037221,12.5952249 C42.8832931,12.0972209 42.6306737,11.4633975 42.6306737,10.7741513 C42.6306737,9.33208966 43.7341777,8.1330871 45.1738578,7.91166293 L45.1738578,6.22654216 C45.1738578,6.0867164 45.2920903,5.97333333 45.4378966,5.97333333 L45.8658456,5.97333333 C46.0116518,5.97333333 46.1298844,6.0867164 46.1298844,6.22654216 L46.1298844,7.91072809 C47.5719319,8.13014903 48.6779426,9.33062062 48.6779426,10.7741513 C48.6779426,11.4641988 48.4247661,12.0985563 48.0035017,12.5969611 C48.2279904,13.2550903 48.571965,14.2651211 48.9667699,15.4275313 L51.3369918,15.4275313 C51.3885183,15.3288386 51.4936604,15.260328 51.6166278,15.260328 C51.7898685,15.260328 51.9302436,15.3949453 51.9302436,15.5610802 C51.9302436,15.7270816 51.7898685,15.8618325 51.6166278,15.8618325 C51.4937996,15.8618325 51.3885183,15.7933219 51.3369918,15.6946292 L49.0574288,15.6946292 C50.3159303,19.4014141 52.0190921,24.450366 52.0514006,24.7185324 C52.1029272,25.1448206 51.1070719,26.4533333 51.1070719,26.4533333 C50.7930384,26.0765917 50.6665894,25.987381 50.7066966,25.4820318 C50.7468037,24.976816 50.4290102,24.2766188 50.4290102,24.2766188 L47.5773631,15.6946292 L43.7293036,15.6946292 L40.8775172,24.2766188 C40.8775172,24.2766188 40.5598629,24.976816 40.5999701,25.4820318 C40.6400773,25.987381 40.5136283,26.0765917 40.1995948,26.4533333 C40.1995948,26.4533333 39.2037395,25.1448206 39.2552661,24.7185324 C39.2875746,24.450366 40.9907364,19.4014141 42.2492379,15.6946292 L39.9721816,15.6946292 Z M33.28,29.8666667 L63.1466667,29.8666667 C62.2588484,13.7769297 49.3697369,0.887818226 33.28,0 L33.28,29.8666667 Z" id="Fill-11" fill="#3D3B37"></path>
                <path d="M46.0809713,13.850473 C45.6927187,13.850473 45.3227262,13.7802384 44.9860161,13.6533333 L44.3733333,15.36 L47.7866667,15.36 L47.1742429,13.654023 C46.8380509,13.7805833 46.4685763,13.850473 46.0809713,13.850473" id="Fill-13" fill="#3D3B37"></path>
                <g id="Group-17" transform="translate(0.000000, 33.280000)">
                    <mask id="mask-4" fill="white">
                        <use xlink:href="#path-3"></use>
                    </mask>
                    <g id="Clip-16"></g>
                    <path d="M27.0093577,17.92 L23.0168592,17.92 C22.8525885,17.92 22.7195502,17.7970223 22.7195502,17.6456224 L22.7195502,15.0805598 L22.7094898,15.0823621 C22.7228537,11.6855708 22.7419235,11.2706077 22.379597,10.7523544 C22.0174206,10.2341011 22.2762896,9.98994806 22.2762896,9.98994806 C22.2762896,9.98994806 22.6034796,9.60021825 23.1230195,9.4948484 C23.6424092,9.38961719 24.7296889,9.22185729 25.8205725,9.78031751 C26.9116062,10.3387777 27.2957053,11.2423242 27.2966062,11.8649769 C27.2972068,12.3089167 27.2969065,13.3490281 27.2967564,13.8920987 C27.3026125,13.9137273 27.3066667,13.9357718 27.3066667,13.959064 L27.3066667,17.6456224 C27.3066667,17.7970223 27.1734783,17.92 27.0093577,17.92 L27.0093577,17.92 Z M22.1866667,20.1754937 C22.1866667,20.343677 22.0586733,20.48 21.9007662,20.48 L15.6460328,20.48 C15.4881257,20.48 15.36,20.343677 15.36,20.1754937 L15.36,13.0143798 L15.3745597,13.0143798 C15.3745597,11.0108412 16.8994943,9.38666667 18.7806132,9.38666667 C20.6617321,9.38666667 22.1866667,11.0108412 22.1866667,13.0143798 L22.1866667,20.1754937 Z M14.8372044,15.0823621 L14.8271438,15.0805598 L14.8271438,17.6456224 C14.8271438,17.7970223 14.6939547,17.92 14.5298331,17.92 L10.5373107,17.92 C10.3731892,17.92 10.24,17.7970223 10.24,17.6456224 L10.24,13.959064 C10.24,13.9357718 10.2440542,13.9137273 10.2499104,13.8920987 C10.2497602,13.3490281 10.2494599,12.3089167 10.2500605,11.8649769 C10.2509615,11.2423242 10.6350629,10.3387777 11.7259529,9.78031751 C12.8169931,9.22185729 13.9042794,9.38961719 14.4238223,9.4948484 C14.9432151,9.60021825 15.2704071,9.98994806 15.2704071,9.98994806 C15.2704071,9.98994806 15.5292776,10.2341011 15.166949,10.7523544 C14.8047705,11.2706077 14.8239905,11.6855708 14.8372044,15.0823621 L14.8372044,15.0823621 Z M13.2266667,4.26666667 C14.4048395,4.26666667 15.36,5.22179319 15.36,6.40007585 C15.36,7.57820681 14.4048395,8.53333333 13.2266667,8.53333333 C12.0484938,8.53333333 11.0933333,7.57820681 11.0933333,6.40007585 C11.0933333,5.22179319 12.0484938,4.26666667 13.2266667,4.26666667 L13.2266667,4.26666667 Z M18.7734085,3.41333333 C20.1872217,3.41333333 21.3333333,4.55944495 21.3333333,5.97340849 C21.3333333,7.38722172 20.1872217,8.53333333 18.7734085,8.53333333 C17.3595953,8.53333333 16.2133333,7.38722172 16.2133333,5.97340849 C16.2133333,4.55944495 17.3595953,3.41333333 18.7734085,3.41333333 L18.7734085,3.41333333 Z M24.3199241,4.26666667 C25.4982068,4.26666667 26.4533333,5.22179319 26.4533333,6.40007585 C26.4533333,7.57820681 25.4982068,8.53333333 24.3199241,8.53333333 C23.1417932,8.53333333 22.1866667,7.57820681 22.1866667,6.40007585 C22.1866667,5.22179319 23.1417932,4.26666667 24.3199241,4.26666667 L24.3199241,4.26666667 Z M30.72,0 L0,0 C0.913184461,16.5494437 14.1705563,29.8068155 30.72,30.72 L30.72,0 Z" id="Fill-15" fill="#3D3B37" mask="url(#mask-4)"></path>
                </g>
            </g>
        </g>
    </g>
</svg>