<?xml version="1.0" encoding="UTF-8"?>
<svg width="100px" height="64px" viewBox="0 0 100 64" version="1.1" xmlns="http://www.w3.org/2000/svg" xmlns:xlink="http://www.w3.org/1999/xlink">
    <!-- Generator: Sketch 46.2 (44496) - http://www.bohemiancoding.com/sketch -->
    <title>chronicle-icon</title>
    <desc>Created with Sketch.</desc>
    <defs>
        <polygon id="path-1" points="60.9070476 0.501390619 60.9070476 62.9419137 0.222795238 62.9419137 0.222795238 0.501390619"></polygon>
        <polygon id="path-3" points="0 64 61 64 61 1 0 1"></polygon>
    </defs>
    <g id="Page-1" stroke="none" stroke-width="1" fill="none" fill-rule="evenodd">
        <g id="chronicle-icon">
            <g id="chronicle-logo" transform="translate(20.000000, 0.000000)">
                <path d="M32.9632133,47.7721212 C21.9228541,47.7721212 10.9042194,47.6915152 0,47.530303 L0.00434488752,47 C19.8097905,47.2927273 39.9946896,47.320303 59.9985517,47.0806061 L60,47.6109091 C51.0075311,47.7190909 41.9788549,47.7721212 32.9632133,47.7721212 Z" id="Fill-1" fill="#3D3B37"></path>
                <path d="M30.757634,34.6406061 C20.5915114,34.6406061 10.3144805,34.6045455 0,34.530303 L0,34 C20.3365662,34.1484848 40.5204532,34.1506061 59.9971193,34.0063636 L60,34.5366667 C50.4028231,34.6066667 40.6313616,34.6406061 30.757634,34.6406061" id="Fill-3" fill="#3D3B37"></path>
                <path d="M33.4992632,6.35651471 C25.1557732,6.35651471 18.3683985,12.9249418 18.3683985,20.999287 C18.3683985,29.0736322 25.1557732,35.6434853 33.4992632,35.6434853 C41.8427532,35.6434853 48.6316015,29.0736322 48.6316015,20.999287 C48.6316015,12.9249418 41.8427532,6.35651471 33.4992632,6.35651471 M33.4992632,36 C24.9524172,36 18,29.2704283 18,20.999287 C18,12.7281456 24.9524172,6 33.4992632,6 C42.0461092,6 49,12.7281456 49,20.999287 C49,29.2704283 42.0461092,36 33.4992632,36" id="Fill-5" fill="#3D3B37"></path>
                <path d="M33.4992632,31.3565147 C25.1557732,31.3565147 18.3683985,37.9249418 18.3683985,45.999287 C18.3683985,54.0750582 25.1557732,60.6434853 33.4992632,60.6434853 C41.8427532,60.6434853 48.6316015,54.0750582 48.6316015,45.999287 C48.6316015,37.9249418 41.8427532,31.3565147 33.4992632,31.3565147 M33.4992632,61 C24.9524172,61 18,54.2704283 18,45.999287 C18,37.7281456 24.9524172,31 33.4992632,31 C42.0461092,31 49,37.7281456 49,45.999287 C49,54.2704283 42.0461092,61 33.4992632,61" id="Fill-7" fill="#3D3B37"></path>
                <g id="Group-11">
                    <mask id="mask-2" fill="white">
                        <use xlink:href="#path-1"></use>
                    </mask>
                    <g id="Clip-10"></g>
                    <path d="M4.45358095,58.3486467 C4.25315238,58.5764591 4.05272381,58.8042715 3.85374762,59.0320839 C4.05272381,58.808543 4.25315238,58.5807306 4.45358095,58.3486467 M0.474057143,62.9419137 L0.222795238,62.6884724 C9.22755714,51.898709 18.7304857,41.2200042 27.9211524,30.8929846 C36.7124143,21.0130469 45.804319,10.7985098 54.443081,0.501390619 L54.7248429,0.727779161 C46.0802714,11.027746 36.9883667,21.2451308 28.1942,31.1264923 C21.4449857,38.7112204 14.5258429,46.4867414 7.7592,54.3548111 L7.96689048,54.5256704 C6.11800952,57.0002823 4.40129524,59.047746 2.70055714,60.803325 C12.8904619,53.1146575 23.4318429,45.6438356 33.6522476,38.4022499 C42.5640571,32.0875758 51.7779619,25.5579037 60.688319,18.934259 L60.9076286,19.2190245 C51.9943667,25.844093 42.7790095,32.3751889 33.8657476,38.689863 C22.8262,46.5123703 11.4104857,54.6025571 0.474057143,62.9419137" id="Fill-9" fill="#3D3B37" mask="url(#mask-2)"></path>
                </g>
                <path d="M5,54.371471 C2.44725111,54.371471 0.371471025,56.4472511 0.371471025,59 C0.371471025,61.5527489 2.44725111,63.628529 5,63.628529 C7.551263,63.628529 9.62852897,61.5527489 9.62852897,59 C9.62852897,56.4472511 7.551263,54.371471 5,54.371471 M5,64 C2.24368499,64 0,61.7578009 0,59 C0,56.243685 2.24368499,54 5,54 C7.75631501,54 10,56.243685 10,59 C10,61.7578009 7.75631501,64 5,64" id="Fill-12" fill="#3D3B37"></path>
                <path d="M10.594934,12.3397198 C17.0016496,7.41777311 25.1615049,5 34.2886601,5 C39.028576,5 45.6972382,5.95040515 49.8225309,7.07217124 C50.8761707,7.33137264 51.4893306,7.50417358 52.2795605,7.41777311 C52.3659004,9.40354388 52.804917,14.8438934 53.5088069,20.111442 C53.0697903,20.7162452 51.7527405,20.8012057 51.1395807,20.2842429 C49.8225309,14.411891 45.8713814,7.67697452 33.1472169,7.67697452 C19.7206258,7.67697452 8.31204768,16.0535 8.31204768,33.9268769 C8.31204768,52.0623353 19.9854991,62.0790296 34.3764634,62.0790296 C45.6972382,62.0790296 50.7005641,54.8257102 52.7185771,49.7309626 C53.3332003,49.2989603 54.6487867,49.4717612 55,50.0765645 C54.3853768,54.5650688 52.1039538,60.2660597 50.786904,61.9062286 C49.7347275,62.0790296 48.6796243,62.4231914 47.7152512,62.7702333 C45.7850415,63.4614371 39.2495477,64 33.6330619,64 C25.7351533,64 18.4050394,63.2007957 11.9997871,58.9700527 C4.97844828,54.220907 0,46.3123841 0,35.1724836 C0,25.5877917 3.92480843,17.4344674 10.594934,12.3397198" id="Fill-14" fill="#3D3B37"></path>
                <mask id="mask-4" fill="white">
                    <use xlink:href="#path-3"></use>
                </mask>
                <g id="Clip-17"></g>
                <path d="M0.727472213,63.2869431 L60.2725278,63.2869431 L60.2725278,1.71305686 L0.727472213,1.71305686 L0.727472213,63.2869431 Z M0,64 L61,64 L61,1 L0,1 L0,64 Z" id="Fill-16" fill="#3D3B37" mask="url(#mask-4)"></path>
            </g>
        </g>
    </g>
</svg>