<?xml version="1.0" encoding="UTF-8"?>
<svg width="100px" height="64px" viewBox="0 0 100 64" version="1.1" xmlns="http://www.w3.org/2000/svg" xmlns:xlink="http://www.w3.org/1999/xlink">
    <!-- Generator: Sketch 46.2 (44496) - http://www.bohemiancoding.com/sketch -->
    <title>inscape-icon</title>
    <desc>Created with Sketch.</desc>
    <defs></defs>
    <g id="Page-1" stroke="none" stroke-width="1" fill="none" fill-rule="evenodd">
        <g id="inscape-icon" fill="#3D3B37">
            <g id="inscape-logo" transform="translate(0.000000, 19.000000)">
                <path d="M7,2.50803859 C7,3.19400129 6.75570277,3.78081214 6.26710098,4.26848875 C5.77849919,4.75616535 5.19218583,5 4.50814332,5 C3.813243,5 3.22150081,4.75616535 2.73289902,4.26848875 C2.24429723,3.78081214 2,3.19400129 2,2.50803859 C2,1.80063955 2.24701164,1.20579019 2.74104235,0.723472669 C3.23507305,0.241155145 3.82410081,0 4.50814332,0 C5.18132801,0 5.76492695,0.241155145 6.25895765,0.723472669 C6.75298836,1.20579019 7,1.80063955 7,2.50803859 Z M10,24.8275862 L9.82363316,25 C8.70663757,24.9195398 7.09583651,24.8793103 4.99118166,24.8793103 C2.88652681,24.8793103 1.28160459,24.9195398 0.176366843,25 L0,24.8275862 L0,23.7758621 L0.176366843,23.6034483 C1.30512028,23.5689653 2.00470176,23.4827593 2.27513228,23.3448276 C2.51028924,23.2413788 2.63962363,22.9655195 2.66313933,22.5172414 C2.74544427,21.022981 2.78659612,19.4195488 2.78659612,17.7068966 L2.78659612,15.2413793 C2.78659612,13.0114831 2.69841358,11.6896572 2.52204586,11.2758621 C2.42798307,11.0459759 2.17519312,10.9022991 1.76366843,10.8448276 C1.62257425,10.821839 1.11111552,10.7931036 0.229276896,10.7586207 L0.0529100529,10.5862069 L0.0529100529,9.62068966 L0.229276896,9.43103448 C2.48678377,9.23563121 4.7618933,8.75862448 7.05467372,8 L7.42504409,8.22413793 C7.27219206,10.3161024 7.1957672,12.0804526 7.1957672,13.5172414 L7.1957672,19.0172414 C7.1957672,19.856326 7.23691905,21.022981 7.31922399,22.5172414 C7.34273968,22.9655195 7.47207407,23.2413788 7.70723104,23.3448276 C7.97766155,23.4827593 8.67724303,23.5689653 9.80599647,23.6034483 L10,23.7758621 L10,24.8275862 Z" id="i"></path>
                <path d="M24.7356322,24.986757 C25.3103448,24.986757 26,25.4202081 26,16.8652513 C26,5.59552164 24.9195402,6.00615957 24.4137931,6.00615957 L22.6666667,6.00615957 C22.2298851,6.00615957 21.7241379,5.93771991 21.7241379,6.25710497 C21.7241379,6.78180898 22.8965517,10.5688032 22.8965517,14.8348749 C22.8965517,15.15426 22.9425287,16.1352284 22.7126437,16.1352284 C22.5057471,16.1352284 22.3908046,15.8386565 22.3218391,15.7245904 C18.0229885,7.83121701 16.2758621,6.00615957 15.4022989,6.00615957 L13.5862069,6.00615957 C13.1954023,6.00615957 12,5.59552164 12,16.8652513 C12,25.4202081 12.6896552,24.986757 13.2643678,24.986757 L15.4022989,24.986757 C15.6091954,24.986757 16.045977,25.0780098 16.045977,24.781438 C16.045977,23.6179639 15.1034483,21.2910156 15.1034483,14.8576882 C15.1034483,14.4014238 14.9425287,11.914783 15.5172414,11.914783 C16.2528736,11.914783 18.2758621,15.7474037 18.5747126,16.3633605 C22.1609195,23.5723374 20.7356322,24.986757 22.3218391,24.986757 L24.7356322,24.986757 Z M38.1982759,11.2204176 C38.8258621,11.2204176 39.9913793,9.10904872 39.9913793,8.45939675 C39.9913793,7.78654292 37.6827586,6 34.4327586,6 C29.8827586,6 28.6051724,9.31786543 28.6051724,11.2668213 C28.6051724,13.2389791 29.1431034,15.5359629 34.0517241,17.1136891 C35.3517241,17.5313225 37.3689655,18.2273782 37.3689655,19.9211137 C37.3689655,21.3596288 35.8896552,22.12529 34.1862069,22.12529 C29.3672414,22.12529 29.7482759,17.4153132 29.3672414,17.4153132 C29.1431034,17.4153132 28,18.575406 28,20.5475638 C28,24.2366589 31.2275862,26 34.4103448,26 C39.1396552,26 41,22.6821346 41,19.9907193 C41,17.7865429 40.0362069,15.4431555 35.3293103,13.8190255 C34.0965517,13.3781903 31.8775862,12.7285383 31.8775862,11.0580046 C31.8775862,9.71229698 33.312069,9.13225058 34.4327586,9.13225058 C36.7637931,9.13225058 37.637931,11.2204176 38.1982759,11.2204176 Z M49.3747871,26 C52.4752981,26 55,24.0046404 55,20.5707657 C55,20.3387471 54.8228279,18.4825986 54.5127768,18.4825986 C54.3134583,18.4825986 54.0034072,21.8700696 50.3935264,21.8700696 C48.4667802,21.8700696 45.5877342,20.0835267 45.5877342,15.6519722 C45.5877342,12.7517401 46.9608177,9.29466357 50.1942078,9.29466357 C53.0068143,9.29466357 51.7887564,11.4756381 52.6967632,11.4756381 C54.0919932,11.4756381 54.9778535,10.7099768 54.9778535,9.36426914 C54.9778535,6.85846868 52.0102215,6 50.0834753,6 C44.7018739,6 42,11.4988399 42,16.5336427 C42,21.2204176 44.3475298,26 49.3747871,26 Z M69.3829114,25.9819741 L66.9018987,25.9819741 C66.7025316,25.9819741 66.0601266,26.0527485 66.0601266,25.6988765 C66.0601266,25.0383154 67.7658228,22.6791685 67.7658228,19.989741 C67.7658228,18.9281249 66.8132911,18.52707 65.8164557,18.52707 C63.8006329,18.52707 60.5886076,18.9045335 60.5886076,21.5939609 C60.5886076,23.457687 62.028481,25.4629618 62.028481,25.8168338 C62.028481,25.9583827 61.8955696,25.9819741 61.6075949,25.9819741 L58.4398734,25.9819741 C57.3101266,25.9819741 57,23.8587419 57,20.791851 C57,10.6947023 63.5791139,6 64.5537975,6 C65.2848101,6 71,9.37358005 71,20.3200216 C71,26.6189438 70.0474684,25.9819741 69.3829114,25.9819741 Z M64.5384615,10 C63.3516484,10 61,13.8007968 61,15.5458167 C61,15.8326693 61.1538462,16 61.4175824,16 C61.8131868,16 63.9450549,15.3784861 65.8791209,15.3784861 C66.6483516,15.3784861 67,15.2589641 67,14.5896414 C67,13.1075697 65.3736264,10 64.5384615,10 Z M77.7442634,16 C78.9922008,16 83,13 83,11.2439024 C83,9.56097561 81.5600722,9 80.1201443,9 C78.3922309,9 76.9763018,9.26829268 77.0003006,14.8780488 C77.0003006,15.4634146 77.0482982,16 77.7442634,16 Z M75.5627178,6.00189557 L82.5156794,6.00189557 C86.2299652,6.00189557 87,8.71808431 87,10.0647661 C87,16.1818971 78.1445993,17.0720766 78.1445993,19.9480411 C78.1445993,21.8653508 78.9372822,24.6500149 78.9372822,24.7869656 C78.9372822,25.060867 78.4163763,24.9923916 78.2578397,24.9923916 L75.2456446,24.9923916 C74.6794425,24.9923916 74,25.4260688 74,16.8666505 C74,5.59104349 75.1777003,6.00189557 75.5627178,6.00189557 Z M99.1747212,24.9919855 C99.4423792,24.9919855 100,25.0832756 100,24.6496477 C100,24.4214224 98.5055762,20.564416 98.1710037,20.564416 C97.6356877,20.564416 96.2750929,22.0707025 94.0669145,22.0707025 C92.1933086,22.0707025 91.2565056,20.7469962 91.2565056,18.9211943 C91.2565056,16.6617645 92.9070632,15.8173312 94.0446097,15.8173312 C94.9144981,15.8173312 95.7620818,16.2737816 95.9851301,16.2737816 C96.2527881,16.2737816 97.5018587,12.5537104 97.5018587,12.5308878 C97.5018587,12.1429049 96.7657993,12.0516149 96.4981413,12.0516149 C94.6245353,12.0516149 93.0408922,13.1242734 92.3271375,13.1242734 C91.7026022,13.1242734 91.6133829,12.3026626 91.6133829,11.8233896 C91.6133829,9.63242739 93.2416357,8.69670394 94.7806691,8.69670394 C96.9665428,8.69670394 97.6356877,9.76936253 98.0148699,9.76936253 C98.3048327,9.76936253 99.732342,6.57420928 99.732342,6.3916291 C99.732342,5.93517863 98.929368,6.0036462 98.66171,6.0036462 L89.8736059,6.0036462 C89.2267658,6.0036462 88,16.5476519 88,19.60587 C88.1115242,24.2388422 87.7546468,25.0376306 88.936803,24.9919855 L99.1747212,24.9919855 Z" id="NSCAPE"></path>
            </g>
        </g>
    </g>
</svg>