<?xml version="1.0" encoding="UTF-8"?>
<svg width="100px" height="64px" viewBox="0 0 100 64" version="1.1" xmlns="http://www.w3.org/2000/svg" xmlns:xlink="http://www.w3.org/1999/xlink">
    <!-- Generator: Sketch 46.2 (44496) - http://www.bohemiancoding.com/sketch -->
    <title>iron-yard-icon</title>
    <desc>Created with Sketch.</desc>
    <defs>
        <polygon id="path-1" points="0 64 0 0 75.2941176 0 75.2941176 64"></polygon>
    </defs>
    <g id="Page-1" stroke="none" stroke-width="1" fill="none" fill-rule="evenodd">
        <g id="iron-yard-icon">
            <g id="tiy-logo" transform="translate(12.000000, 0.000000)">
                <path d="M43.79739,17.0149653 C43.8635516,16.9843429 43.9844512,16.9411765 44.0763159,16.9411765 C44.1700845,16.9411765 44.2352941,16.9717988 44.2352941,17.0537044 C44.2352941,17.3739479 42.4855817,18.8231605 41.7292452,18.8235294 C41.6630836,18.8235294 41.5174329,18.813199 41.4117647,18.6899716 C42.0219745,18.1136809 42.9096823,17.4861069 43.79739,17.0149653 Z M45.5308473,12.0671351 C44.433882,11.1537819 44.3966596,11.3031983 44.2390119,11.3031983 C43.9937822,11.3031983 38.4559687,11.662162 32.7714553,11.662162 C30.356818,11.662162 28.4632939,11.426649 27.203426,11.9915158 C24.0395242,13.4123381 23.5315483,17.7449578 26.15901,17.6524836 C28.9261651,17.5531764 30.3559422,16.1150437 31.2856257,14.6022028 C31.5742086,14.1316323 31.4034236,13.9585279 31.1358604,14.3056477 C30.4444,15.1971351 29.2909443,16.2216395 28.0266973,16.6926656 C25.0366459,17.8082775 26.1217876,13.1891246 28.1878483,12.5941923 C29.8286982,12.1213441 32.5660754,12.9413121 35.149746,13.4123381 C35.149746,13.4123381 34.954876,13.5544659 34.8559082,13.6300852 C34.6365152,13.8072894 33.5631971,14.7844179 31.6968234,16.6603224 C30.586283,17.7791231 28.3779014,19.9862036 28.3779014,20.7861279 C28.3779014,21.0772165 29.2200029,22.5882353 29.7087108,22.5882353 C29.8917572,22.5882353 29.7691424,22.1809845 30.7220352,20.9018345 C32.3204077,18.743041 34.7827772,16.2416832 35.7588793,15.2549884 C36.5904709,14.4167989 37.6992597,13.4779356 38.0776142,13.4779356 C38.3894063,13.4779356 38.8246892,13.465636 39.318652,13.4428592 C37.3747682,15.2595438 34.1951016,18.3121023 32.6764288,20.6212232 C32.6037356,20.7346521 32.5669512,20.8489921 32.5669512,20.9118563 C32.5669512,21.3796936 33.3727061,22.053434 33.6039227,22.053434 C33.7383612,22.053434 33.9459307,21.5473315 34.0435847,21.4329915 C35.740487,19.2764758 36.8138051,18.3248574 37.7645084,17.9039405 C36.9368579,18.7553406 35.9962266,19.6946594 35.9962266,20.4936727 C35.9962266,21.1264146 36.3513719,22.0147132 37.0450218,22.0147132 C37.6178084,22.0147132 38.8557808,21.0808608 39.5976008,20.3702219 C39.6619736,20.9068454 40.7606905,22.1313309 41.2813659,22.1313309 C42.4768609,22.1313309 43.6828659,21.2407546 44.5740133,20.3929988 C45.0745448,19.9219728 45.5610631,19.3379734 45.5610631,19.1981233 C45.5610631,19.1502918 45.5501153,19.0714838 45.4546509,19.0714838 C45.34167,19.0714838 44.1711358,20.2007619 41.9399829,21.053073 C41.7915313,21.1009045 41.524844,21.1797125 41.3054509,21.1797125 C40.9284102,21.1797125 40.8281287,20.9118563 40.8281287,20.709142 C40.8281287,20.4813731 40.9643188,20.1629522 41.1955354,19.7953333 C41.4635365,20.0896107 41.8296295,20.2417603 42.086245,20.2417603 C43.0001637,20.2417603 45.0127994,18.5152722 45.0127994,17.295342 C45.0127994,17.132715 44.9760149,16.9154235 44.5389805,16.4972399 C44.2311295,16.1410093 43.8913112,15.8745197 43.6351337,15.8745197 C43.1705108,15.8745197 42.4256254,16.2794928 41.4508371,17.1933016 C40.9533711,17.6593167 40.4756109,18.1626859 40.1265964,18.706598 C40.0022299,18.9043014 39.5778949,19.5292992 39.1666971,19.858653 C38.4599099,20.4289863 37.7032009,20.949666 37.4597228,20.949666 C37.3730166,20.949666 37.3003235,20.9018345 37.3003235,20.7733728 C37.3003235,20.1251426 39.1666971,18.604102 39.7517452,18.0825113 C39.9597526,17.892552 40.0092365,17.8292323 40.0092365,17.6770827 C40.0092365,17.1554919 39.3015735,16.7505189 38.9227811,16.7505189 C38.2869353,16.7505189 37.82494,17.053907 37.0310086,17.4588801 C37.3410491,17.0516293 38.4988839,16.1988626 40.1576881,14.5580156 C40.6748601,14.0496355 41.3159608,13.5180229 42.1620034,13.272488 C43.2725439,13.1891246 44.3957838,13.0898174 45.288245,12.9818549 C45.605292,12.9431342 46.1176471,12.8297053 46.1176471,12.6775557 C46.1176471,12.4725637 45.6893708,12.2065297 45.5308473,12.0671351 L45.5308473,12.0671351 Z" id="Fill-1" fill="#FFFFFE"></path>
                <path d="M39.5294118,40.4705882 L42.288973,40.4705882 C42.8002354,40.4705882 42.9938295,40.4982479 43.0981096,40.5789843 C43.2564609,40.7161613 43.2941176,40.9209924 43.2941176,41.4117647 C43.2941176,41.9021632 43.2564609,42.1081157 43.0981096,42.2423025 C42.9933467,42.3241602 42.8002354,42.3529412 42.288973,42.3529412 L39.5294118,42.3529412 L39.5294118,40.4705882 Z M28.2352941,43.2941176 L29.2017646,40.4705882 L30.1179889,40.4705882 L31.0588235,43.2941176 L28.2352941,43.2941176 Z M54.2280876,40.4705882 C54.9027117,40.4705882 55.156259,40.5208694 55.3057659,40.6903357 C55.4700186,40.8798214 55.5294118,41.3709944 55.5294118,43.7663354 C55.5294118,46.1430537 55.4700186,46.6505215 55.3057659,46.8395416 C55.1566686,47.0071456 54.9031213,47.0588235 54.2280876,47.0588235 L51.793788,47.0588235 L51.7647059,40.4705882 L54.2280876,40.4705882 Z M40.8642802,46.4349941 L39.6557234,46.4349941 L39.6557234,44.6991654 L41.5230177,44.6991654 L43.9876196,48.9411765 L55.004046,48.9411765 C56.6077582,48.9411765 57.4673409,48.7315204 58.1343562,48.0558642 C58.8950412,47.2868318 59.2941176,46.1293191 59.2941176,43.3214258 C59.2941176,40.5095684 58.8950412,39.3520557 58.1343562,38.580821 C57.4673409,37.9047243 56.6077582,37.6963897 55.004046,37.6963897 L47.4224652,37.6963897 L47.4224652,40.2030125 L48.5979109,40.2030125 L48.5979109,46.435875 L46.3576805,46.435875 L44.6729332,43.5451763 C45.9599111,43.2883917 46.4840257,42.8038925 46.4840257,40.8143625 C46.4840257,39.4141597 46.3267477,38.7895961 45.8340016,38.2905619 C45.4044281,37.8567149 44.7835941,37.6955087 43.8320844,37.6955087 L35.2231867,37.6955087 L35.2231867,40.2021316 L36.3981967,40.2021316 L36.3981967,46.4349941 L34.7435108,46.4349941 L31.8083821,37.6470588 L26.8055495,37.6470588 L23.8586576,46.4349941 L22.5882353,46.4349941 L22.5882353,48.9402956 L28.131738,48.9402956 L28.131738,46.483444 L27.1144417,46.483444 L27.3693103,45.519731 L30.9775538,45.519731 L31.2472353,46.483444 L30.2308103,46.483444 L30.2308103,48.9402956 L40.8642802,48.9402956 L40.8642802,46.4349941 L40.8642802,46.4349941 Z" id="Fill-2" fill="#FFFFFE"></path>
                <path d="M43.0857602,33.7421474 C42.9792029,33.8481333 42.8074745,33.8823529 42.2870564,33.8823529 L40.536473,33.8823529 C40.0165306,33.8823529 39.8452779,33.8481333 39.7387207,33.7421474 C39.6164652,33.621428 39.5294118,33.2564183 39.5294118,30.5868095 C39.5294118,27.9357363 39.6174166,27.5550426 39.7387207,27.4333727 C39.8452779,27.3311889 40.0160549,27.2941176 40.536473,27.2941176 L42.2870564,27.2941176 C42.8069988,27.2941176 42.9792029,27.3311889 43.0857602,27.4333727 C43.2070642,27.5550426 43.2941176,27.9357363 43.2941176,30.5868095 C43.2941176,33.2397838 43.2061128,33.6204775 43.0857602,33.7421474 Z M43.0217838,24.4705882 L38.8583815,24.4705882 C37.6950265,24.4705882 37.216384,24.6475219 36.7863057,25.0854327 C36.1291567,25.7299135 35.7647059,27.0025089 35.7647059,30.1169836 C35.7647059,33.2319006 36.1291567,34.5071499 36.7863057,35.1507461 C37.2155089,35.5882146 37.6950265,35.7647059 38.8583815,35.7647059 L43.0217838,35.7647059 C44.1851389,35.7647059 44.6664065,35.5882146 45.0947346,35.1507461 C45.7518837,34.5071499 46.1176471,33.2319006 46.1176471,30.1169836 C46.1176471,27.0020665 45.7518837,25.7290289 45.0947346,25.0854327 C44.6664065,24.6475219 44.1851389,24.4705882 43.0217838,24.4705882 L43.0217838,24.4705882 Z" id="Fill-3" fill="#FFFFFE"></path>
                <polyline id="Fill-4" fill="#FFFFFE" points="24.2617225 40.164481 25.4117647 40.164481 25.4117647 37.6470588 19.7423677 37.6470588 19.7423677 40.131747 20.7307823 40.131747 19.3853662 42.0696888 19.3205375 42.0696888 18.0750286 40.131747 19.061667 40.131747 19.061667 37.6470588 13.1764706 37.6470588 13.1764706 40.164481 14.3003149 40.164481 17.5888138 44.667619 17.5888138 46.4250813 16.3095584 46.4250813 16.3095584 48.9411765 22.1885384 48.9411765 22.1885384 46.4241966 20.908395 46.4241966 20.908395 44.6185179 24.2617225 40.164481"></polyline>
                <polyline id="Fill-5" fill="#FFFFFE" points="22.5882353 33.2481684 19.6662141 33.2481684 19.6662141 26.9875681 22.5882353 26.9875681 22.5882353 24.4705882 13.1764706 24.4705882 13.1764706 26.9875681 16.1010423 26.9875681 16.1010423 33.2481684 13.1764706 33.2481684 13.1764706 35.7647059 22.5882353 35.7647059 22.5882353 33.2481684"></polyline>
                <polyline id="Fill-6" fill="#FFFFFE" points="54.9176726 26.9868301 56.0425369 26.9868301 56.0425369 30.2465774 52.2481318 24.4710305 47.0588235 24.4710305 47.0588235 26.9877147 48.2646101 26.9877147 48.2646101 33.2475794 47.0588235 33.2475794 47.0588235 35.7638213 52.5025228 35.7638213 52.4868749 33.2475794 51.2819825 33.2475794 51.2819825 29.3283636 55.3021652 35.7647059 59.0567797 35.7647059 59.0567797 26.9885993 60.2352941 26.9885993 60.2352941 24.4705882 54.9176726 24.4705882 54.9176726 26.9868301"></polyline>
                <path d="M28.2352941,27.2941176 L30.9945646,27.2941176 C31.5062206,27.2941176 31.7009301,27.3206665 31.8057736,27.4044264 C31.9637637,27.5390404 32,27.7424572 32,28.2352941 C32,28.7255136 31.9637637,28.9315478 31.8057736,29.0665358 C31.7009301,29.1495478 31.5067037,29.1760967 30.9955309,29.1764706 L28.2352941,29.1764706 L28.2352941,27.2941176 Z M29.8498441,31.5053036 L32.3186674,35.7647059 L35.7647059,35.7647059 L35.7647059,33.2481684 L34.697898,33.2481684 L33.0087491,30.3432463 C34.298883,30.0844707 34.8246388,29.6036347 34.8246388,27.5997825 C34.8246388,26.1962013 34.6668684,25.5667352 34.1708311,25.065551 C33.7416606,24.6333736 33.1188825,24.4705882 32.1630821,24.4705882 L23.5294118,24.4705882 L23.5294118,26.9875681 L24.7072271,26.9875681 L24.7072271,33.2481684 L23.5294118,33.2481684 L23.5294118,35.7647059 L29.1868586,35.7647059 L29.1868586,33.2481684 L27.9762655,33.2481684 L27.9762655,31.5053036 L29.8498441,31.5053036 L29.8498441,31.5053036 Z" id="Fill-7" fill="#FFFFFE"></path>
                <polyline id="Fill-8" fill="#232F38" points="29.2017646 40.4705882 28.2352941 43.2941176 31.0588235 43.2941176 30.1179889 40.4705882 29.2017646 40.4705882"></polyline>
                <path d="M31.8057736,29.0665358 C31.9637637,28.9315478 32,28.7255136 32,28.2352941 C32,27.7424572 31.9637637,27.5390404 31.8057736,27.4044264 C31.7009301,27.3206665 31.5062206,27.2941176 30.9945646,27.2941176 L28.2352941,27.2941176 L28.2352941,29.1764706 L30.9955309,29.1764706 C31.5067037,29.1760967 31.7009301,29.1495478 31.8057736,29.0665358" id="Fill-9" fill="#232F38"></path>
                <path d="M41.7292452,18.8235294 C42.4855817,18.8231605 44.2352941,17.3739479 44.2352941,17.0537044 C44.2352941,16.9717988 44.1700845,16.9411765 44.0763159,16.9411765 C43.9844512,16.9411765 43.8635516,16.9843429 43.79739,17.0149653 C42.9096823,17.4861069 42.0219745,18.1136809 41.4117647,18.6899716 C41.5174329,18.813199 41.6630836,18.8235294 41.7292452,18.8235294" id="Fill-10" fill="#232F38"></path>
                <path d="M42.2870564,27.2941176 L40.536473,27.2941176 C40.0160549,27.2941176 39.8452779,27.325893 39.7387207,27.4134791 C39.6174166,27.5177676 39.5294118,27.8440765 39.5294118,30.1164249 C39.5294118,32.4046611 39.6164652,32.7175265 39.7387207,32.8210003 C39.8452779,32.9118453 40.0165306,32.9411765 40.536473,32.9411765 L42.2870564,32.9411765 C42.8074745,32.9411765 42.9792029,32.9118453 43.0857602,32.8210003 C43.2061128,32.7167118 43.2941176,32.3904029 43.2941176,30.1164249 C43.2941176,27.8440765 43.2070642,27.5177676 43.0857602,27.4134791 C42.9792029,27.325893 42.8069988,27.2941176 42.2870564,27.2941176" id="Fill-11" fill="#232F38"></path>
                <path d="M43.0981096,41.301126 C43.2564609,41.1669392 43.2941176,40.9609868 43.2941176,40.4705882 C43.2941176,39.9798159 43.2564609,39.7749848 43.0981096,39.6378078 C42.9938295,39.5570714 42.8002354,39.5294118 42.288973,39.5294118 L39.5294118,39.5294118 L39.5294118,41.4117647 L42.288973,41.4117647 C42.8002354,41.4117647 42.9933467,41.3829837 43.0981096,41.301126" id="Fill-12" fill="#232F38"></path>
                <g id="Group-17">
                    <mask id="mask-2" fill="white">
                        <use xlink:href="#path-1"></use>
                    </mask>
                    <g id="Clip-14"></g>
                    <path d="M54.2280876,47.0588235 C54.9031213,47.0588235 55.1566686,47.0071456 55.3057659,46.8395416 C55.4700186,46.6505215 55.5294118,46.1430537 55.5294118,43.7663354 C55.5294118,41.3709944 55.4700186,40.8798214 55.3057659,40.6903357 C55.156259,40.5208694 54.9027117,40.4705882 54.2280876,40.4705882 L51.7647059,40.4705882 L51.793788,47.0588235 L54.2280876,47.0588235" id="Fill-13" fill="#232F38" mask="url(#mask-2)"></path>
                    <path d="M60.2352941,26.9885993 L59.0567797,26.9885993 L59.0567797,35.7647059 L55.3021652,35.7647059 L51.2819825,29.3283636 L51.2819825,33.2475794 L52.4868749,33.2475794 L52.5025228,35.7638213 L47.0588235,35.7638213 L47.0588235,33.2475794 L48.2646101,33.2475794 L48.2646101,26.9877147 L47.0588235,26.9877147 L47.0588235,24.4710305 L52.2481318,24.4710305 L56.0425369,30.2465774 L56.0425369,26.9868301 L54.9176726,26.9868301 L54.9176726,24.4705882 L60.2352941,24.4705882 L60.2352941,26.9885993 Z M13.1764706,33.2481684 L16.1010423,33.2481684 L16.1010423,26.9875681 L13.1764706,26.9875681 L13.1764706,24.4705882 L22.5882353,24.4705882 L22.5882353,26.9875681 L19.6662141,26.9875681 L19.6662141,33.2481684 L22.5882353,33.2481684 L22.5882353,35.7647059 L13.1764706,35.7647059 L13.1764706,33.2481684 Z M22.1885384,46.4241966 L22.1885384,48.9411765 L16.3095584,48.9411765 L16.3095584,46.4250813 L17.5888138,46.4250813 L17.5888138,44.667619 L14.3003149,40.164481 L13.1764706,40.164481 L13.1764706,37.6470588 L19.061667,37.6470588 L19.061667,40.131747 L18.0750286,40.131747 L19.3205375,42.0696888 L19.3853662,42.0696888 L20.7307823,40.131747 L19.7423677,40.131747 L19.7423677,37.6470588 L25.4117647,37.6470588 L25.4117647,40.164481 L24.2617225,40.164481 L20.908395,44.6185179 L20.908395,46.4241966 L22.1885384,46.4241966 Z M29.1868586,33.2481684 L29.1868586,35.7647059 L23.5294118,35.7647059 L23.5294118,33.2481684 L24.7072271,33.2481684 L24.7072271,26.9875681 L23.5294118,26.9875681 L23.5294118,24.4705882 L32.1630821,24.4705882 C33.1188825,24.4705882 33.7416606,24.6333736 34.1708311,25.065551 C34.6668684,25.5667352 34.8246388,26.1962013 34.8246388,27.5997825 C34.8246388,29.6036347 34.298883,30.0844707 33.0087491,30.3432463 L34.697898,33.2481684 L35.7647059,33.2481684 L35.7647059,35.7647059 L32.3186674,35.7647059 L29.8498441,31.5053036 L27.9762655,31.5053036 L27.9762655,33.2481684 L29.1868586,33.2481684 Z M47.0588235,30.1169836 C47.0588235,33.2319006 46.6930602,34.5071499 46.0359111,35.1507461 C45.6075829,35.5882146 45.1263153,35.7647059 43.9629603,35.7647059 L39.799558,35.7647059 C38.636203,35.7647059 38.1566854,35.5882146 37.7274822,35.1507461 C37.0703332,34.5071499 36.7058824,33.2319006 36.7058824,30.1169836 C36.7058824,27.0025089 37.0703332,25.7299135 37.7274822,25.0854327 C38.1575605,24.6475219 38.636203,24.4705882 39.799558,24.4705882 L43.9629603,24.4705882 C45.1263153,24.4705882 45.6075829,24.6475219 46.0359111,25.0854327 C46.6930602,25.7290289 47.0588235,27.0020665 47.0588235,30.1169836 Z M45.288245,12.9818549 C44.3957838,13.0898174 43.2725439,13.1891246 42.1620034,13.272488 C41.3159608,13.5180229 40.6748601,14.0496355 40.1576881,14.5580156 C38.4988839,16.1988626 37.3410491,17.0516293 37.0310086,17.4588801 C37.82494,17.053907 38.2869353,16.7505189 38.9227811,16.7505189 C39.3015735,16.7505189 40.0092365,17.1554919 40.0092365,17.6770827 C40.0092365,17.8292323 39.9597526,17.892552 39.7517452,18.0825113 C39.1666971,18.604102 37.3003235,20.1251426 37.3003235,20.7733728 C37.3003235,20.9018345 37.3730166,20.949666 37.4597228,20.949666 C37.7032009,20.949666 38.4599099,20.4289863 39.1666971,19.858653 C39.5778949,19.5292992 40.0022299,18.9043014 40.1265964,18.706598 C40.4756109,18.1626859 40.9533711,17.6593167 41.4508371,17.1933016 C42.4256254,16.2794928 43.1705108,15.8745197 43.6351337,15.8745197 C43.8913112,15.8745197 44.2311295,16.1410093 44.5389805,16.4972399 C44.9760149,16.9154235 45.0127994,17.132715 45.0127994,17.295342 C45.0127994,18.5152722 43.0001637,20.2417603 42.086245,20.2417603 C41.8296295,20.2417603 41.4635365,20.0896107 41.1955354,19.7953333 C40.9643188,20.1629522 40.8281287,20.4813731 40.8281287,20.709142 C40.8281287,20.9118563 40.9284102,21.1797125 41.3054509,21.1797125 C41.524844,21.1797125 41.7915313,21.1009045 41.9399829,21.053073 C44.1711358,20.2007619 45.34167,19.0714838 45.4546509,19.0714838 C45.5501153,19.0714838 45.5610631,19.1502918 45.5610631,19.1981233 C45.5610631,19.3379734 45.0745448,19.9219728 44.5740133,20.3929988 C43.6828659,21.2407546 42.4768609,22.1313309 41.2813659,22.1313309 C40.7606905,22.1313309 39.6619736,20.9068454 39.5976008,20.3702219 C38.8557808,21.0808608 37.6178084,22.0147132 37.0450218,22.0147132 C36.3513719,22.0147132 35.9962266,21.1264146 35.9962266,20.4936727 C35.9962266,19.6946594 36.9368579,18.7553406 37.7645084,17.9039405 C36.8138051,18.3248574 35.740487,19.2764758 34.0435847,21.4329915 C33.9459307,21.5473315 33.7383612,22.053434 33.6039227,22.053434 C33.3727061,22.053434 32.5669512,21.3796936 32.5669512,20.9118563 C32.5669512,20.8489921 32.6037356,20.7346521 32.6764288,20.6212232 C34.1951016,18.3121023 37.3747682,15.2595438 39.318652,13.4428592 C38.8246892,13.465636 38.3894063,13.4779356 38.0776142,13.4779356 C37.6992597,13.4779356 36.5904709,14.4167989 35.7588793,15.2549884 C34.7827772,16.2416832 32.3204077,18.743041 30.7220352,20.9018345 C29.7691424,22.1809845 29.8917572,22.5882353 29.7087108,22.5882353 C29.2200029,22.5882353 28.3779014,21.0772165 28.3779014,20.7861279 C28.3779014,19.9862036 30.586283,17.7791231 31.6968234,16.6603224 C33.5631971,14.7844179 34.6365152,13.8072894 34.8559082,13.6300852 C34.954876,13.5544659 35.149746,13.4123381 35.149746,13.4123381 C32.5660754,12.9413121 29.8286982,12.1213441 28.1878483,12.5941923 C26.1217876,13.1891246 25.0366459,17.8082775 28.0266973,16.6926656 C29.2909443,16.2216395 30.4444,15.1971351 31.1358604,14.3056477 C31.4034236,13.9585279 31.5742086,14.1316323 31.2856257,14.6022028 C30.3559422,16.1150437 28.9261651,17.5531764 26.15901,17.6524836 C23.5315483,17.7449578 24.0395242,13.4123381 27.203426,11.9915158 C28.4632939,11.426649 30.356818,11.662162 32.7714553,11.662162 C38.4559687,11.662162 43.9937822,11.3031983 44.2390119,11.3031983 C44.3966596,11.3031983 44.433882,11.1537819 45.5308473,12.0671351 C45.6893708,12.2065297 46.1176471,12.4725637 46.1176471,12.6775557 C46.1176471,12.8297053 45.605292,12.9431342 45.288245,12.9818549 Z M35.546713,48.9402956 L30.4267738,48.9402956 L30.4267738,46.483444 L31.469261,46.483444 L31.1926645,45.519731 L27.491902,45.519731 L27.2304982,46.483444 L28.2738791,46.483444 L28.2738791,48.9402956 L22.5882353,48.9402956 L22.5882353,46.4349941 L23.8912326,46.4349941 L26.9136858,37.6470588 L32.0447961,37.6470588 L35.0551845,46.4349941 L36.7522983,46.4349941 L36.7522983,40.2021316 L35.5471599,40.2021316 L35.5471599,37.6955087 L44.3767985,37.6955087 C45.3527059,37.6955087 45.9894587,37.8567149 46.4300469,38.2905619 C46.9354275,38.7895961 47.0967382,39.4141597 47.0967382,40.8143625 C47.0967382,42.8038925 46.5591848,43.2883917 45.2392075,43.5451763 L46.9671535,46.435875 L49.2648256,46.435875 L49.2648256,40.2030125 L48.0592404,40.2030125 L48.0592404,37.6963897 L55.8352207,37.6963897 C57.4800536,37.6963897 58.361677,37.9047243 59.0457952,38.580821 C59.825985,39.3520557 60.2352941,40.5095684 60.2352941,43.3214258 C60.2352941,46.1293191 59.825985,47.2868318 59.0457952,48.0558642 C58.361677,48.7315204 57.4800536,48.9411765 55.8352207,48.9411765 L44.5363218,48.9411765 L42.0085249,44.6991654 L40.0933513,44.6991654 L40.0933513,46.4349941 L41.3328967,46.4349941 L41.3328967,48.9402956 L35.546713,48.9402956 Z M38.3684426,0.406224249 C37.4531501,-0.135408083 35.9586146,-0.135408083 35.0433221,0.406224249 L1.66211812,19.1168803 C0.748152132,19.6607054 0,20.9672016 0,22.0250293 L0,49.3737342 C0,50.4311233 0.834375339,51.5415792 1.85534654,51.8437531 L34.8500936,63.7710671 C35.8710648,64.076311 37.5402577,64.076311 38.5603446,63.7710671 L71.5568603,51.8437531 C72.5756207,51.5415792 73.4117647,50.4311233 73.4117647,49.3737342 L73.4117647,22.0250293 C73.4113225,20.9676401 72.6614017,19.6607054 71.7487622,19.1168803 L38.3684426,0.406224249 Z" id="Fill-15" fill="#3D3B37" mask="url(#mask-2)"></path>
                    <path d="M73.4117647,50.0746055 C73.4351978,50.0793879 73.465051,50.0816196 73.4971511,50.0816196 C73.5713025,50.0816196 73.6216997,50.0542005 73.6216997,49.9783198 C73.6216997,49.909772 73.5664874,49.8823529 73.4881631,49.8823529 C73.4605569,49.8823529 73.4374448,49.8845847 73.4117647,49.8890483 L73.4117647,50.0746055 Z M73.5985876,50.4836768 C73.5847845,50.4884634 73.5709815,50.4884634 73.5594254,50.4884634 C73.5292513,50.4884634 73.4993981,50.4836768 73.483027,50.4753001 L73.483027,50.8103661 C73.476286,50.8193411 73.466977,50.8235294 73.4486799,50.8235294 C73.4300618,50.8235294 73.4207527,50.8193411 73.4117647,50.8103661 L73.4117647,49.9122695 C73.4602359,49.8907296 73.5106332,49.8823529 73.5639194,49.8823529 C73.690715,49.8823529 73.7667924,49.9852661 73.7667924,50.174339 C73.7667924,50.3161437 73.7346922,50.4064919 73.6720969,50.4537601 L73.7943985,50.8061778 C73.7876575,50.8145544 73.7738544,50.8235294 73.7552363,50.8235294 C73.7324452,50.8235294 73.7208892,50.8193411 73.7093331,50.8103661 L73.5985876,50.4836768 Z M73.8849882,49.8823529 C73.5981176,49.8823529 73.4117647,50.0838754 73.4117647,50.3514648 C73.4117647,50.6194233 73.5954824,50.8235294 73.8849882,50.8235294 C74.1688471,50.8235294 74.3529412,50.6249596 74.3529412,50.3514648 C74.3529412,50.0809227 74.1714824,49.8823529 73.8849882,49.8823529 Z M73.8823529,50.8235294 C73.6011556,50.8235294 73.4117647,50.6268133 73.4117647,50.3516659 C73.4117647,50.079069 73.6053286,49.8823529 73.8846,49.8823529 C74.1661183,49.8823529 74.3529412,50.0768372 74.3529412,50.3516659 C74.3529412,50.6220309 74.1564882,50.8235294 73.8823529,50.8235294 L73.8823529,50.8235294 Z" id="Fill-16" fill="#232F38" mask="url(#mask-2)"></path>
                </g>
            </g>
        </g>
    </g>
</svg>