<?xml version="1.0" standalone="no"?>
<!DOCTYPE svg PUBLIC "-//W3C//DTD SVG 1.1//EN" "http://www.w3.org/Graphics/SVG/1.1/DTD/svg11.dtd" >
<svg xmlns="http://www.w3.org/2000/svg">
<metadata></metadata>
<defs>
<font id="woodford_bournebold_italic" horiz-adv-x="1085" >
<font-face units-per-em="2048" ascent="1638" descent="-410" />
<missing-glyph horiz-adv-x="405" />
<glyph unicode="&#xfb01;" horiz-adv-x="1179" d="M1123 866q12 0 19.5 -9t5.5 -21l-127 -807q-2 -12 -12.5 -20.5t-23.5 -8.5h-245q-12 0 -20.5 8.5t-6.5 20.5l96 603h-283l-144 -914q-5 -30 -36 -30h-246q-13 0 -20.5 8t-5.5 22l145 914h-80q-12 0 -19 9t-5 21l27 174q2 12 12 21t22 9h80l23 146h1q71 438 489 438 q216 0 356 -100q26 -19 4 -43l-126 -141q-20 -23 -41 -11q-80 62 -175 62q-169 0 -202 -213l-21 -138h559z" />
<glyph unicode="&#xfb02;" horiz-adv-x="1212" d="M1256 1450q12 0 19.5 -10t5.5 -23l-219 -1386q-2 -13 -13 -22t-23 -9h-248q-12 0 -19 9t-5 22l158 994l-8 -5q11 68 -3.5 113t-73.5 71v1q-32 12 -66 12q-76 0 -117 -52t-59 -161l-21 -138h127q12 0 20 -9t6 -21l-27 -174q-2 -12 -13 -21t-23 -9h-128l-144 -914 q-5 -31 -36 -31h-246q-13 0 -20.5 8.5t-5.5 22.5l145 914h-80q-12 0 -19 9t-5 21l27 174q2 12 12 21t22 9h80l23 146h1q72 438 485 438q88 0 161 -21q36 -5 51 10l3 -6q10 17 28 17h248z" />
<glyph horiz-adv-x="0" />
<glyph horiz-adv-x="682" />
<glyph unicode=" "  horiz-adv-x="405" />
<glyph unicode="&#x09;" horiz-adv-x="405" />
<glyph unicode="&#xa0;" horiz-adv-x="405" />
<glyph unicode="!" horiz-adv-x="518" d="M180 400q-31 0 -28 31l95 988q3 31 37 31h271q14 0 23 -8.5t5 -22.5l-218 -988q-8 -31 -38 -31h-147zM68 -16q-32 0 -28 30l30 189q4 30 38 30h239q31 0 27 -30l-29 -189q-5 -30 -38 -30h-239z" />
<glyph unicode="&#x22;" horiz-adv-x="696" d="M168 936q-30 0 -28 30l24 489q2 30 37 30h191q16 0 24 -8t4 -22l-132 -489q-9 -30 -37 -30h-83zM469 936q-29 0 -28 30l24 489q1 14 11 22t26 8h191q16 0 24 -8t4 -22l-132 -489q-9 -30 -37 -30h-83z" />
<glyph unicode="#" horiz-adv-x="1300" d="M1257 1140q11 0 22 -8t11 -22v-175q0 -14 -11 -22.5t-22 -8.5h-134l-66 -300h82q11 0 22 -8.5t11 -22.5v-175q0 -14 -11 -22t-22 -8h-134l-74 -337q-3 -14 -15 -22.5t-28 -8.5h-193q-20 0 -27 14t-4 31l71 323h-236l-74 -337q-3 -14 -15 -22.5t-28 -8.5h-193 q-20 0 -27 14t-4 31l71 323h-82q-33 0 -33 30v175q0 31 33 31h134l66 300h-84q-33 0 -33 31v175q0 30 33 30h135l61 279q6 31 41 31h207q30 0 23 -37l-60 -273h234l61 279q6 31 41 31h207q30 0 23 -37l-60 -273h81zM786 604l66 300h-234l-67 -300h235z" />
<glyph unicode="$" horiz-adv-x="1302" d="M1216 421q-10 -63 -43.5 -127t-89.5 -124.5t-145 -107t-197 -64.5l-20 -125q-2 -12 -12 -20.5t-23 -8.5h-252q-12 0 -20 8.5t-6 20.5l19 122q-230 32 -356 183q-7 8 -5 20t10 20l188 165q18 18 39 3q116 -110 329 -110q56 0 112.5 15t102.5 49.5t54 80.5q10 60 -42 90.5 t-204 62.5q-144 29 -242 72.5t-149 100t-67.5 120.5t-4.5 142q10 64 44.5 129t90.5 124.5t141 106t187 66.5l19 119q2 15 13 25t23 10h252q13 0 20.5 -10t5.5 -25l-19 -117q207 -34 351 -166q8 -7 6.5 -20.5t-11.5 -23.5l-188 -167q-21 -17 -39 -4q-122 102 -314 102 q-115 0 -184.5 -34.5t-78.5 -91.5q-10 -62 49 -99.5t200 -65.5q149 -29 246.5 -71t146 -97t63.5 -124.5t0 -153.5z" />
<glyph unicode="%" horiz-adv-x="1996" d="M443 516q-175 0 -244 109.5t-30 357.5t143.5 358.5t279.5 110.5q174 0 242 -110t29 -359q-39 -248 -142.5 -357.5t-277.5 -109.5zM606 0q-21 0 -30 14.5t-1 30.5l685 1358q14 31 41 31h170q16 0 23.5 -10t-0.5 -27l-688 -1366q-16 -31 -43 -31h-157zM480 749q72 0 108 58 t55 176q11 72 10.5 124.5t-24.5 82t-74 29.5q-72 0 -109 -59.5t-56 -176.5q-11 -72 -9.5 -124t26 -81t73.5 -29zM1505 31q-175 0 -244.5 109.5t-30.5 357.5t143.5 358t279.5 110q174 0 242 -110t29 -358t-142 -357.5t-277 -109.5zM1541 264q73 0 108.5 58t54.5 176 q11 72 10.5 124.5t-24.5 81.5t-74 29q-72 0 -109 -59t-56 -176q-11 -72 -9.5 -124t26 -81t73.5 -29z" />
<glyph unicode="&#x26;" horiz-adv-x="1337" d="M1051 396q92 -96 196 -196q8 -12 5.5 -23t-10.5 -18l-165 -147q-28 -24 -45 -4q-120 124 -177 186q-52 -52 -109 -94.5t-144 -79t-171 -36.5q-196 0 -298 117.5t-74 291.5q17 110 100 207t228 194q-100 181 -81 303q26 165 141.5 259t260.5 94q152 0 232 -89t56 -240 q-30 -188 -269 -351q70 -93 158 -193q114 99 230 169q24 16 43 -5l97 -150q13 -23 -11 -41q-86 -54 -193 -154zM569 1121q-11 -65 47 -179q109 90 123 179q7 43 -11.5 74.5t-55.5 31.5q-39 0 -68 -32t-35 -74zM473 242q56 0 106 33.5t113 101.5q-112 130 -196 247 q-134 -105 -154 -231q-11 -68 22 -109.5t109 -41.5z" />
<glyph unicode="'" horiz-adv-x="395" d="M237 936q-29 0 -28 30l23 489q2 30 38 30h190q16 0 24 -8t4 -22l-131 -489q-9 -30 -38 -30h-82z" />
<glyph unicode="(" horiz-adv-x="706" d="M341 -213q-25 -11 -40 6q-105 148 -155.5 405.5t-10.5 512.5q41 255 165 498.5t277 394.5q25 24 51 10l140 -82q13 -6 16 -17.5t-6 -25.5q-119 -143 -210.5 -359t-119.5 -421q-73 -441 85 -786q3 -9 -3 -21t-17 -16z" />
<glyph unicode=")" horiz-adv-x="708" d="M452 1615q25 11 40 -6q105 -148 155.5 -405.5t10.5 -512.5q-41 -255 -165 -498.5t-278 -394.5q-25 -23 -50 -10l-140 82q-13 6 -16 17.5t6 25.5q119 143 210 359t119 421q73 441 -85 786q-3 9 3.5 21t17.5 16z" />
<glyph unicode="*" horiz-adv-x="749" d="M745 1207q5 -10 1 -21t-17 -14l-182 -27l129 -133q16 -23 -8 -39l-87 -60q-9 -6 -20.5 -4t-17.5 12l-77 158l-76 -158q-6 -10 -18 -12.5t-21 3.5l-87 61q-23 15 -8 39l129 133l-184 27q-24 5 -16 35l32 99q3 11 13.5 16.5t20.5 2.5l164 -82l-31 178q0 13 8.5 21t20.5 8 h105q12 0 20.5 -7t8.5 -20l-30 -180l161 81q26 8 37 -18z" />
<glyph unicode="+" d="M993 805q32 0 32 -30v-150q0 -31 -32 -31h-288v-301q0 -33 -30 -33h-178q-31 0 -31 33v301h-287q-33 0 -33 31v150q0 30 33 30h287v304q0 32 31 32h178q30 0 30 -32v-304h288z" />
<glyph unicode="," horiz-adv-x="434" d="M281 244q33 0 28 -31l-29 -182q-2 -10 -8 -17l-130 -184h-59q-9 0 -13.5 9t0.5 24l47 137h-71q-33 0 -28 31l29 182q5 31 38 31h196z" />
<glyph unicode="-" horiz-adv-x="770" d="M127 454q-33 0 -28 30l23 150q5 31 38 31h524q33 0 28 -31l-24 -150q-4 -30 -38 -30h-523z" />
<glyph unicode="." horiz-adv-x="434" d="M46 0q-33 0 -28 31l29 182q5 31 38 31h196q33 0 28 -31l-29 -182q-4 -31 -38 -31h-196z" />
<glyph unicode="/" horiz-adv-x="1015" d="M240 0h-186q-21 0 -27.5 15t4.5 30l803 1358q17 31 46 31h200q15 0 19.5 -11t-3.5 -26l-809 -1366q-20 -31 -47 -31z" />
<glyph unicode="0" horiz-adv-x="1267" d="M564 -16q-135 0 -228 39.5t-151 127.5t-68.5 227.5t18.5 338.5q61 389 224 561t437 172q136 0 228.5 -39.5t149.5 -127.5t67.5 -227.5t-18.5 -338.5q-61 -389 -223 -561t-436 -172zM607 259q61 0 107 19t78 53t56 93.5t39.5 126.5t31.5 166q24 152 24 253t-45.5 152 t-145.5 51q-60 0 -105.5 -19t-78 -53.5t-56.5 -93t-40.5 -126t-31.5 -164.5q-24 -153 -23 -255t46 -152.5t144 -50.5z" />
<glyph unicode="1" horiz-adv-x="1075" d="M936 258q12 0 20 -9.5t6 -21.5l-32 -198q-2 -12 -12.5 -20.5t-22.5 -8.5h-548h-294q-12 0 -20 8.5t-6 20.5l31 198q2 12 13 21.5t23 9.5h263l134 845l-240 -76q-14 -6 -23.5 3t-7.5 23l31 196q3 17 35 33l273 143q22 9 35 9h236q12 0 19 -9.5t5 -21.5l-182 -1145h264z " />
<glyph unicode="2" horiz-adv-x="1204" d="M1179 1024q-9 -57 -33 -112.5t-52 -94.5t-54.5 -69t-43.5 -45l-18 -15l-439 -409h519q12 0 20 -9.5t6 -21.5l-35 -219q-2 -12 -12.5 -20.5t-22.5 -8.5h-945q-12 0 -20 8.5t-6 20.5l28 178q1 11 12 20l-1 1l493 460q112 99 193 190.5t89 143.5q12 76 -21 112.5t-117 37.5 q-106 -1 -164 -46t-72 -114q-5 -24 -33 -24h-241q-31 0 -25 32q12 60 35 116t68.5 114.5t107.5 101.5t157.5 70.5t211.5 27.5h1h1q104 0 183 -23.5t126 -63.5t76 -94t32.5 -116t-4.5 -129z" />
<glyph unicode="3" horiz-adv-x="1204" d="M1185 1035q-11 -71 -36.5 -127t-58.5 -91t-62.5 -56t-62.5 -34q25 -10 46.5 -24.5t45.5 -40.5t36.5 -60.5t20 -83.5t-4.5 -110q-10 -65 -33.5 -122.5t-69 -114t-108 -97t-157 -65.5t-209.5 -25h-1h-1q-91 0 -166 17.5t-124 47t-85.5 68.5t-52 83.5t-22.5 91t3 90.5 q5 35 36 35h241q10 0 18.5 -6.5t6.5 -18.5q-8 -62 40.5 -96t148.5 -35q98 1 160 40.5t75 120.5q15 99 -30.5 128t-205.5 29h-57q-12 0 -20 8.5t-6 20.5l35 220q2 12 12.5 20.5t22.5 8.5h57q104 0 156.5 15t74 47.5t32.5 100.5q12 80 -29 116.5t-132 36.5q-99 -1 -160 -36 t-72 -96q-2 -12 -12 -18t-20 -6h-241q-31 0 -26 34q9 56 34 110t72.5 107t111 92.5t156 64.5t201.5 25h1h1q79 0 144 -13t110.5 -35.5t80 -53.5t52.5 -67.5t29.5 -77.5t10 -83t-6.5 -85z" />
<glyph unicode="4" horiz-adv-x="1269" d="M1173 1434q12 0 19 -9.5t5 -21.5l-134 -847h105q12 0 20 -8.5t6 -20.5l-35 -220q-2 -12 -12.5 -20t-22.5 -8h-105l-40 -248q-2 -12 -11.5 -21.5t-21.5 -9.5h-256q-12 0 -20 9.5t-6 21.5l39 248h-606q-12 0 -20 8t-6 20l29 183q1 7 4 11v0l1 2l720 913q11 18 35 18h313z M422 556h325l83 520z" />
<glyph unicode="5" horiz-adv-x="1204" d="M1160 1434q12 0 20 -8.5t6 -20.5l-35 -220q-2 -12 -12.5 -20.5t-22.5 -8.5l-556 -1l-80 -256q107 41 211 48.5t189 -21t146 -86.5t86.5 -153.5t6.5 -215.5q-12 -73 -37 -139.5t-72 -131t-111 -111.5t-159.5 -76t-210.5 -29h-1h-1q-106 0 -189.5 25.5t-134 65.5t-81 93 t-39 106.5t-0.5 107.5q5 35 36 35h237q10 0 18 -6.5t7 -18.5q-5 -53 45.5 -92t144.5 -40q98 1 164.5 58.5t82.5 159.5q18 110 -34 169.5t-152.5 52.5t-217.5 -80q-8 -4 -18 -5.5t-16 -0.5h-6l-220 46q-25 6 -17 31l226 714q9 29 35 29h762z" />
<glyph unicode="6" horiz-adv-x="1204" d="M794 1450q82 0 149.5 -23t111.5 -60.5t72.5 -85.5t38 -97t3.5 -96q-2 -18 -8 -25.5t-20 -7.5h-245q-21 0 -29 25q-5 18 -11.5 31t-20.5 29t-40 24.5t-62 8.5q-104 0 -175.5 -79t-101.5 -234q113 99 280 99q136 0 232.5 -64.5t135.5 -171.5t18 -237q-23 -144 -110 -260.5 t-209 -179t-252 -62.5q-134 0 -232.5 62t-147.5 168q-8 15 -16.5 34.5t-19.5 62t-16.5 91.5t-3.5 123t15 156q56 351 235 560t429 209zM669 709q-82 0 -151.5 -64t-84.5 -158q-15 -93 30 -159.5t136 -66.5q80 0 146.5 64.5t82.5 157.5q14 96 -33.5 161t-125.5 65z" />
<glyph unicode="7" horiz-adv-x="1159" d="M1249 1432q13 -4 16.5 -16.5t-4.5 -26.5l-861 -1360q-24 -29 -54 -29h-257q-17 0 -23.5 15t3.5 28l704 1112h-539q-12 0 -19.5 8t-5.5 20l35 218q2 14 12 23.5t22 9.5h963q4 0 8 -2z" />
<glyph unicode="8" horiz-adv-x="1204" d="M1172 1046q-15 -94 -69.5 -180.5t-141.5 -144.5q86 -49 124.5 -134t21.5 -194q-28 -178 -180 -293.5t-396 -115.5q-243 0 -359 115.5t-88 293.5q17 107 83 191t168 135q-69 58 -98 145t-14 182q13 80 54.5 151.5t107.5 128.5t163.5 90.5t212.5 33.5q116 0 203 -33.5 t135 -90t67 -128.5t6 -152zM522 1027q-9 -59 30 -107t118 -73q83 23 134 68.5t61 104.5q10 67 -27.5 110t-117.5 43q-77 0 -132.5 -42t-65.5 -104zM807 411q11 72 -36.5 127.5t-135.5 82.5q-100 -26 -166.5 -81.5t-78.5 -127.5q-12 -75 42 -114t142 -39t154.5 39t78.5 113z " />
<glyph unicode="9" horiz-adv-x="1204" d="M1139 1229q9 -21 17.5 -54t17 -95t5 -160t-21.5 -213q-30 -188 -91.5 -329t-147.5 -226t-188.5 -126.5t-222.5 -41.5q-91 0 -165 24t-120.5 62t-76 86.5t-38.5 97t-2 92.5q3 19 9.5 27t19.5 8h245q23 0 29 -25q6 -35 42.5 -65t98.5 -30q108 0 174.5 64t98.5 205 q-76 -55 -218 -55q-120 0 -211 38.5t-143 105t-72 154.5t-4 188q18 115 73 208.5t135 154.5t178.5 93.5t205.5 32.5q146 0 239.5 -58.5t133.5 -162.5zM649 738q82 0 149.5 62t82.5 161q16 98 -29.5 161t-136.5 63q-82 0 -153.5 -57.5t-86.5 -166.5q-14 -104 41.5 -163.5 t132.5 -59.5z" />
<glyph unicode=":" horiz-adv-x="475" d="M171 635q-33 0 -28 31l29 183q4 30 38 30h196q32 0 28 -30l-29 -183q-4 -31 -38 -31h-196zM70 0q-33 0 -28 31l29 182q5 31 38 31h196q33 0 28 -31l-29 -182q-4 -31 -37 -31h-197z" />
<glyph unicode=";" horiz-adv-x="466" d="M399 890q33 0 28 -31l-29 -182q-4 -31 -38 -31h-196q-33 0 -28 31l29 182q5 31 38 31h196zM297 244q32 0 27 -31l-28 -182q-2 -10 -8 -17l-130 -184h-59q-9 0 -14 9t0 24l48 137h-71q-33 0 -28 31l29 182q5 31 37 31h197z" />
<glyph unicode="&#x3c;" horiz-adv-x="1134" d="M1022 484q29 -11 19 -41l-57 -138q-11 -29 -43 -16l-829 337q-25 9 -21 33v114q-4 23 21 33l829 338q32 13 43 -17l56 -137q10 -30 -18 -41l-570 -233z" />
<glyph unicode="=" horiz-adv-x="1200" d="M211 803q-33 0 -33 31v150q0 30 33 30h863q33 0 33 -30v-150q0 -31 -33 -31h-863zM211 389q-33 0 -33 31v149q0 31 33 31h863q33 0 33 -31v-149q0 -31 -33 -31h-863z" />
<glyph unicode="&#x3e;" horiz-adv-x="1134" d="M1043 659q4 -23 -21 -33l-829 -337q-32 -13 -43 16l-57 138q-10 30 18 41l571 232l-570 233q-29 11 -19 41l57 137q11 30 43 17l829 -338q25 -10 21 -33v-114z" />
<glyph unicode="?" horiz-adv-x="1062" d="M707 1450q81 0 146 -18t106 -48t70 -71t39.5 -87.5t14 -96.5t-6.5 -99q-36 -226 -219 -356q-137 -101 -193 -167t-67 -132q-4 -28 -31 -28h-231q-29 0 -24 28q21 130 64.5 207t168.5 179q127 103 173.5 153.5t56.5 112.5q11 70 -19.5 107t-93.5 38q-80 -1 -129.5 -59 t-65.5 -157q-2 -12 -12.5 -18.5t-19.5 -6.5h-242q-31 0 -26 35q36 226 169.5 354.5t368.5 129.5h1h2zM556 233q32 0 28 -30l-30 -189q-4 -30 -38 -30h-238q-32 0 -28 30l29 189q5 30 38 30h239z" />
<glyph unicode="@" horiz-adv-x="2054" d="M1589 1262q239 0 338.5 -95.5t66.5 -300.5l-92 -579q-23 -148 -134 -232t-310 -84t-269 145q-119 -132 -301 -132q-85 0 -151 24t-106 65.5t-64.5 98.5t-26.5 123t7 138q31 200 157.5 325t325.5 125q139 0 219 -78l25 29q30 32 55 32h162q12 0 19 -9.5t5 -22.5l-85 -537 q-8 -48 10.5 -73t53.5 -25q97 0 119 143l83 524q12 77 -24 122.5t-119 45.5h-519q-148 0 -277 -66t-224.5 -205t-126.5 -333q-35 -219 44 -387q9 -12 -1 -27.5t-28 -15.5h-238q-39 0 -61 43q-49 170 -14 387q37 240 175.5 431t345 296t441.5 105h519zM963 207q92 0 138.5 58 t63.5 165q17 108 -11 166.5t-120 58.5q-80 0 -135 -61t-71 -163q-16 -100 19 -162t116 -62z" />
<glyph unicode="A" horiz-adv-x="1515" d="M1383 41q4 -15 -8 -28t-27 -13h-252q-20 0 -23 20l-45 166h-620l-99 -168q-11 -18 -29 -18h-252q-14 0 -21.5 12t1.5 31l819 1389q12 18 30 18h81h38q22 0 25 -18zM571 463h380l-120 441z" />
<glyph unicode="B" horiz-adv-x="1263" d="M1209 1031q-28 -180 -181 -297q73 -54 107.5 -139.5t18.5 -186.5q-27 -168 -155.5 -287.5t-283.5 -120.5h-414h-226q-12 0 -20 9.5t-6 21.5l218 1372q2 12 12.5 21.5t22.5 9.5h256h343q156 -1 245.5 -116.5t62.5 -286.5zM768 1154h-225l-49 -306h230q11 0 26 3t38 13 t43 25.5t37 45t23 67.5q5 15 0 40.5t-14 50t-38 43t-71 18.5zM843 437q6 40 -2.5 70t-23.5 44.5t-37 23t-34 10t-22 1.5h-95h-176l-49 -307h267q41 0 75 18.5t53.5 46t30 51.5t13.5 42z" />
<glyph unicode="C" horiz-adv-x="1441" d="M730 -16q-200 0 -353 98.5t-224 267t-40 367.5q32 199 156.5 367.5t308.5 267t384 98.5q163 0 297 -66.5t213 -185.5q15 -21 -6 -42l-194 -168q-12 -10 -25 -8.5t-19 12.5q-41 79 -123 130t-187 51q-178 0 -319 -133t-171 -323q-19 -123 18.5 -228t124 -167.5 t203.5 -62.5q219 0 391 190q9 10 21.5 11t24.5 -9l131 -154q18 -21 -6 -44q-123 -127 -281 -198t-325 -71z" />
<glyph unicode="D" horiz-adv-x="1390" d="M846 1433q131 -3 234 -47.5t175.5 -133.5t97 -222.5t-1.5 -314.5q-27 -170 -97.5 -306.5t-170 -224.5t-220 -135t-252.5 -49h-365h-171q-12 0 -20 9.5t-6 21.5l218 1372q2 12 12.5 21.5t22.5 9.5h256h288v-1zM1036 715q34 214 -33 327t-219 113h-241l-139 -876h241 q151 0 254.5 114t136.5 322z" />
<glyph unicode="E" horiz-adv-x="1126" d="M1179 1434q12 0 19 -9.5t5 -21.5l-35 -218q-2 -12 -11.5 -21t-21.5 -9h-592l-49 -307h389q12 0 20 -8.5t6 -20.5l-34 -220q-2 -12 -13 -20.5t-23 -8.5h-389l-46 -291h594q12 0 20 -9.5t6 -21.5l-35 -217q-2 -12 -12.5 -21.5t-22.5 -9.5h-729h-150q-12 0 -20 9.5t-6 21.5 l218 1372q2 12 12.5 21.5t22.5 9.5h256h621z" />
<glyph unicode="F" horiz-adv-x="1114" d="M1175 1434q12 0 20 -9.5t6 -21.5l-35 -218q-2 -12 -12.5 -21t-22.5 -9h-588l-50 -318h403q12 0 20.5 -8.5t6.5 -20.5l-35 -220q-2 -12 -13 -20.5t-23 -8.5h-403l-84 -528q-2 -12 -12 -21.5t-22 -9.5h-256q-12 0 -20 9.5t-6 21.5l218 1372q2 12 12.5 21.5t22.5 9.5h256 h617z" />
<glyph unicode="G" horiz-adv-x="1474" d="M1475 1202q6 -9 3.5 -21t-12.5 -21l-193 -167q-10 -8 -22 -8.5t-19 10.5q-43 75 -126.5 126.5t-191.5 51.5q-173 0 -314.5 -134.5t-171.5 -321.5q-19 -120 18.5 -225t122.5 -169t197 -64q126 0 244 56l28 182h-151q-13 0 -20.5 8.5t-5.5 20.5l25 162q2 12 12.5 20.5 t23.5 8.5h450q12 0 19 -8.5t5 -20.5l-17 -110l-67 -419q-2 -13 -11 -21q-1 0 -1 -1l-2 -1q-69 -53 -185 -89.5t-214 -49.5t-177 -13q-106 0 -205.5 32.5t-181.5 96.5t-139.5 151.5t-80.5 204.5t-2 248q21 132 82.5 250.5t148 205t190 150t212.5 95.5t212 32q165 0 300.5 -64 t216.5 -184z" />
<glyph unicode="H" horiz-adv-x="1462" d="M1462 1434q12 0 19 -9.5t5 -21.5l-218 -1372q-2 -12 -11.5 -21.5t-21.5 -9.5h-256q-13 0 -20.5 9.5t-5.5 21.5l85 539h-572l-85 -539q-2 -12 -12 -21.5t-22 -9.5h-256q-12 0 -19.5 9.5t-5.5 21.5l217 1372q2 12 12.5 21.5t23.5 9.5h256q12 0 18.5 -9.5t4.5 -21.5 l-88 -555h572l88 555q2 12 12.5 21.5t23.5 9.5h256z" />
<glyph unicode="I" horiz-adv-x="610" d="M108 0q-12 0 -20 9.5t-6 21.5l217 1372q2 12 13 21.5t23 9.5h256q12 0 19 -9.5t5 -21.5l-218 -1372q-2 -12 -11.5 -21.5t-21.5 -9.5h-256z" />
<glyph unicode="J" horiz-adv-x="1042" d="M1057 1434q12 0 20 -10t6 -23l-149 -942q0 -1 -0.5 -1t-0.5 -1q-20 -109 -75 -201t-129 -150t-158.5 -90t-166.5 -32q-139 0 -245 73.5t-141 204.5q-3 11 3 22t17 15l201 100q13 5 24.5 0.5t14.5 -16.5q14 -42 48 -75t95 -34q17 0 42 7.5t58.5 25.5t61 59.5t36.5 99.5 l148 935q2 14 12 23.5t22 9.5h256z" />
<glyph unicode="K" horiz-adv-x="1361" d="M1425 1434q20 0 25.5 -18t-8.5 -32l-678 -667l465 -668q10 -12 0.5 -30.5t-31.5 -18.5h-265q-13 0 -29.5 9t-25.5 22l-418 599l-95 -599q-2 -12 -12 -21.5t-22 -9.5h-256q-12 0 -20 9.5t-6 21.5l218 1372q2 12 12.5 21.5t22.5 9.5h256q12 0 19 -9.5t5 -21.5l-95 -600 l608 600q30 31 65 31h265z" />
<glyph unicode="L" horiz-adv-x="1136" d="M1005 279q12 0 19 -9.5t5 -21.5l-35 -217q-2 -12 -11.5 -21.5t-21.5 -9.5h-688h-198q-12 0 -20 9.5t-6 21.5l217 1370q2 13 13 23t23 10h256q12 0 19 -10t5 -23l-178 -1122h601z" />
<glyph unicode="M" horiz-adv-x="1730" d="M1730 1434q12 0 19 -9.5t5 -21.5l-218 -1374q-2 -12 -11.5 -20.5t-21.5 -8.5h-256q-12 0 -20 8.5t-6 20.5l109 688l-472 -703q-22 -30 -48 -30h-26h-5q-26 0 -39 30l-250 706l-109 -691q-2 -12 -13 -20.5t-23 -8.5h-256q-12 0 -19 8.5t-5 20.5l218 1374q2 12 11.5 21.5 t21.5 9.5h188h65q12 0 23.5 -9.5t16.5 -21.5l274 -864l547 864q8 12 23 21.5t27 9.5h150h100z" />
<glyph unicode="N" horiz-adv-x="1443" d="M1442 1434q12 0 19.5 -9.5t5.5 -21.5l-217 -1374q-2 -12 -12.5 -20.5t-22.5 -8.5h-183h-31q-29 0 -46 29l-441 842l-133 -842q-2 -12 -12 -20.5t-22 -8.5h-256q-12 0 -20 8.5t-6 20.5l218 1374q2 12 13 21.5t23 9.5h183h43q12 0 25 -9t19 -22l432 -825l131 825 q2 12 12 21.5t22 9.5h256z" />
<glyph unicode="O" horiz-adv-x="1599" d="M730 -16q-200 0 -353 98t-224 266.5t-40 366.5q31 200 156 369t309 267.5t384 98.5q198 0 351 -98.5t224 -267.5t40 -369q-31 -198 -156 -366.5t-309 -266.5t-382 -98zM774 263q177 0 317 131t170 321t-68.5 322t-274.5 132q-177 0 -318.5 -132t-171.5 -322 q-30 -189 69.5 -320.5t276.5 -131.5z" />
<glyph unicode="P" horiz-adv-x="1193" d="M911 1434q158 -1 245.5 -132t55.5 -334q-36 -223 -166.5 -342t-296.5 -120h-309l-75 -477q-2 -12 -12 -20.5t-22 -8.5h-256q-13 0 -20.5 8.5t-5.5 20.5l218 1374q2 13 12 22t23 9h256h353zM896 968q30 186 -128 186h-225l-59 -369h230q154 0 182 183z" />
<glyph unicode="Q" horiz-adv-x="1642" d="M961 1450q198 0 351 -98.5t224 -267.5t40 -369q-36 -221 -184 -402l161 -192q7 -7 5 -19.5t-12 -21.5l-185 -160q-9 -8 -21.5 -8t-19.5 8l-160 190q-205 -126 -431 -126q-200 0 -353 98t-224 266.5t-40 366.5q31 200 156 369t309 267.5t384 98.5zM427 715 q-30 -189 69.5 -320.5t276.5 -131.5t317 131t170 321t-68.5 322t-274.5 132q-177 0 -318.5 -132t-171.5 -322z" />
<glyph unicode="R" horiz-adv-x="1349" d="M1312 980q-27 -173 -116.5 -286t-212.5 -156l188 -495q7 -18 -5.5 -30.5t-27.5 -12.5h-248q-12 0 -22.5 9t-15.5 22l-173 484h-237l-77 -486q-2 -12 -12 -20.5t-22 -8.5h-256q-13 0 -20.5 8.5t-5.5 20.5l218 1374q2 13 12 22t23 9h256h450q155 -1 245.5 -126.5 t58.5 -327.5zM996 980q2 14 3.5 28t-2.5 43t-15.5 49.5t-40 37t-71.5 16.5h-327l-57 -360h331q23 0 47 8t52 26.5t49.5 57.5t30.5 94z" />
<glyph unicode="S" horiz-adv-x="1314" d="M585 -16q-171 0 -298.5 45t-215.5 149q-7 8 -4.5 20.5t10.5 20.5l186 163q20 19 41 4q117 -110 328 -110q36 0 76.5 7.5t82.5 23.5t72.5 46t36.5 68q9 60 -43 91t-201 62q-145 29 -243.5 73t-149.5 100.5t-67.5 120t-3.5 141.5q9 56 36 114.5t78.5 117.5t119.5 105 t167 75t213 29q99 0 182 -15t144.5 -43t104 -56t82.5 -65q8 -8 6.5 -21.5t-11.5 -23.5l-187 -166q-21 -18 -39 -4q-122 102 -314 102q-112 0 -182.5 -33t-80.5 -93q-10 -62 47 -99t202 -66q269 -51 377 -156.5t79 -289.5q-9 -57 -35.5 -114.5t-78.5 -116.5t-121.5 -104 t-172.5 -73.5t-223 -28.5z" />
<glyph unicode="T" horiz-adv-x="1251" d="M1321 1434q12 0 19 -10.5t5 -22.5l-34 -216q-2 -12 -12 -21t-22 -9h-375l-177 -1124q-2 -12 -13 -21.5t-23 -9.5h-256q-12 0 -19 9.5t-5 21.5l178 1124h-374q-12 0 -20 9t-6 21l34 216q2 12 13 22.5t23 10.5h465h194h405z" />
<glyph unicode="U" horiz-adv-x="1349" d="M1367 1434q12 0 18.5 -9.5t4.5 -23.5l-121 -762q-13 -83 -28.5 -148.5t-41.5 -135.5t-59.5 -122.5t-84 -101.5t-113 -79.5t-148.5 -49t-189 -18.5q-99 0 -177 18t-131 49.5t-89 79.5t-54.5 101.5t-24 122.5t-1 136t17.5 148v1v1l120 760q2 13 13 23t23 10h256 q12 0 19 -10t5 -23l-119 -752q-12 -75 -16 -126.5t2.5 -104.5t28 -84.5t64 -51t107.5 -19.5q64 0 112.5 20t79.5 51.5t54.5 84.5t36 105t24.5 127l119 750q2 13 13 23t23 10h256z" />
<glyph unicode="V" horiz-adv-x="1449" d="M1557 1434q14 0 21.5 -12t-1.5 -31l-814 -1371q-13 -20 -32 -20h-84h-38q-11 0 -16.5 5t-8.5 18l-381 1368q-5 18 7 30.5t26 12.5h246q12 0 23.5 -9.5t14.5 -21.5l235 -866l507 866q8 12 22 21.5t26 9.5h247z" />
<glyph unicode="W" horiz-adv-x="2004" d="M2111 1434q13 0 20 -12t0 -29l-732 -1373q-10 -20 -30 -20h-114q-17 0 -24 18l-158 784l-402 -782q-11 -20 -32 -20h-112q-20 0 -26 20l-300 1373q-1 17 11 29t25 12h246q9 0 15.5 -6.5t7.5 -14.5l180 -806l380 805q9 20 32 20h143h6q21 0 25 -20l127 -805l434 806 q12 21 32 21h246z" />
<glyph unicode="X" horiz-adv-x="1382" d="M1427 1434q16 0 23.5 -15.5t-6.5 -32.5l-525 -642l351 -699q7 -13 -3 -29t-30 -16h-265q-27 0 -45 29l-225 450l-368 -450q-27 -29 -56 -29h-265q-15 0 -22.5 14t5.5 33l573 698l-322 641q-8 18 4 33t28 15h265q12 0 25 -9.5t19 -21.5l198 -393l322 393q10 12 26 21.5 t28 9.5h265z" />
<glyph unicode="Y" horiz-adv-x="1329" d="M1427 1434q16 0 23.5 -14.5t-4.5 -33.5l-581 -778l-91 -579q-2 -12 -13 -20.5t-23 -8.5h-254q-12 0 -20 8.5t-6 20.5l92 580l-331 780q-6 17 6.5 31t27.5 14h256q28 0 47 -31l200 -489l358 489q29 31 54 31h259z" />
<glyph unicode="Z" horiz-adv-x="1318" d="M1351 1434q16 0 23 -14t-4 -31l-809 -1110h591q11 0 18.5 -9.5t5.5 -21.5l-35 -217q-2 -13 -11.5 -22t-21.5 -9h-1031h-10q-17 0 -23.5 15t3.5 28l811 1112h-557q-12 0 -19 8t-5 20l34 218q2 14 12 23.5t22 9.5h997h9z" />
<glyph unicode="[" horiz-adv-x="698" d="M772 1669q33 0 28 -31l-35 -217q-5 -31 -37 -31h-177l-231 -1459h176q33 0 28 -31l-34 -217q-5 -31 -38 -31h-238h-216q-12 0 -20 9.5t-6 21.5l309 1955q2 12 13 21.5t23 9.5h250h205z" />
<glyph unicode="\" horiz-adv-x="1011" d="M737 0q-28 0 -42 31l-548 1366q-5 15 2 26t22 11h200q29 0 40 -31l543 -1358q7 -16 -2 -30.5t-30 -14.5h-185z" />
<glyph unicode="]" horiz-adv-x="698" d="M774 1669q12 0 19.5 -9.5t5.5 -21.5l-309 -1955q-2 -12 -13 -21.5t-23 -9.5h-250h-205q-33 0 -28 31l35 217q5 31 37 31h177l231 1459h-176q-33 0 -28 31l34 217q5 31 38 31h238h217z" />
<glyph unicode="^" horiz-adv-x="825" d="M851 1190q7 -15 -5 -30t-33 -15h-89q-14 0 -21 7t-17 24l-120 226l-191 -226q-12 -13 -16.5 -17.5t-12.5 -9t-18 -4.5h-90q-21 0 -28 15t5 30l291 418q20 30 46 30h104q15 0 22 -6t14 -24z" />
<glyph unicode="_" horiz-adv-x="1204" d="M13 -266q-33 0 -28 31l13 84q5 31 38 31h958q33 0 28 -31l-13 -84q-5 -31 -38 -31h-958z" />
<glyph unicode="`" horiz-adv-x="630" d="M606 1301l-325 218q-25 20 -6 46l78 118q24 28 47 4l273 -291q22 -24 9 -43l-31 -46q-20 -23 -45 -6z" />
<glyph unicode="a" d="M1015 866q12 0 18.5 -9t4.5 -23l-127 -803q-2 -12 -12.5 -21.5t-21.5 -9.5h-179q-39 0 -51 39l-13 40q-110 -95 -244 -95q-84 0 -150 23.5t-106 65t-64.5 98t-27 122.5t6.5 139q31 199 157.5 325t325.5 126q137 0 216 -81l29 32q30 32 54 32h184zM465 207q169 0 204 221 q36 227 -133 227q-80 0 -134.5 -62t-70.5 -162q-15 -97 20.5 -160.5t113.5 -63.5z" />
<glyph unicode="b" horiz-adv-x="1073" d="M664 883q84 0 150 -23.5t107.5 -64.5t67.5 -98t29.5 -124.5t-6.5 -142.5q-15 -92 -52.5 -171t-97 -141.5t-147 -98t-192.5 -35.5q-145 0 -224 92l-24 -37q-10 -16 -28 -27.5t-33 -11.5h-153q-12 0 -20 9.5t-6 21.5l220 1386q2 13 12.5 23t22.5 10h246q13 0 20.5 -9.5 t5.5 -23.5l-93 -588q89 54 195 54zM731 432q16 99 -18 161t-119 62q-167 0 -202 -224q-36 -224 132 -224q80 0 135.5 64t71.5 161z" />
<glyph unicode="c" horiz-adv-x="962" d="M453 -16q-91 0 -169.5 35t-131.5 94.5t-77 142.5t-10 174q30 187 187.5 320t343.5 133q106 0 192 -38.5t135 -110.5q10 -19 -8 -39l-133 -119q-10 -8 -22.5 -8t-18.5 10q-53 77 -160 77q-91 0 -155 -63.5t-79 -161.5q-15 -97 28 -161t134 -64q61 0 115 28t86 66 q7 9 19.5 11.5t23.5 -7.5l97 -111q6 -7 5.5 -18.5t-7.5 -20.5q-71 -79 -176.5 -124t-218.5 -45z" />
<glyph unicode="d" horiz-adv-x="1079" d="M1112 1450q12 0 19 -10t5 -23l-220 -1386q-2 -12 -12 -21.5t-22 -9.5h-154q-38 0 -50 39l-12 39q-110 -94 -263 -94q-84 0 -148.5 23.5t-104.5 65t-64.5 98t-26.5 122.5t7 139q31 199 157 325t325 126q110 0 187 -56l93 590q2 13 13 23t23 10h248zM481 207q93 0 140 59.5 t64 163.5q8 63 4.5 113t-37.5 81t-100 31q-81 0 -135 -63t-70 -161q-15 -98 21 -161t113 -63z" />
<glyph unicode="e" horiz-adv-x="1026" d="M573 883q222 0 312 -129.5t52 -365.5q-2 -13 -13.5 -22t-22.5 -9h-250h-323q8 -73 51 -116.5t107 -43.5q138 0 239 72q9 8 22.5 6.5t19.5 -12.5l73 -109q14 -23 -7 -43q-72 -59 -181 -93t-217 -34q-188 0 -302 127.5t-84 319.5q16 98 68.5 183.5t125.5 143.5t159.5 91.5 t170.5 33.5zM353 519h318q-2 67 -35.5 112t-96.5 45q-64 0 -111.5 -42t-74.5 -115z" />
<glyph unicode="f" horiz-adv-x="892" d="M1009 1392q10 -6 11 -16.5t-2 -17.5t-5 -9l-126 -141q-7 -9 -16 -12t-14.5 -2.5t-7.5 2.5q-44 21 -89 21q-76 0 -117.5 -52t-58.5 -161l-21 -138h189q12 0 20 -9t6 -21l-28 -174q-2 -12 -12.5 -21t-22.5 -9h-189l-145 -915q-5 -30 -36 -30h-246q-29 0 -25 30l144 915h-80 q-12 0 -19 9t-5 21l27 174q2 12 12 21t22 9h81l23 146q72 438 486 438q154 0 244 -58z" />
<glyph unicode="g" horiz-adv-x="1060" d="M1010 866q12 0 18.5 -9t4.5 -23l-127 -801l-20 -127q-32 -201 -189 -323t-373 -122q-120 0 -213.5 48.5t-140.5 131.5q-4 9 -0.5 20t10.5 17l133 110q14 9 24 7t15 -10q35 -56 82 -77.5t125 -21.5q83 0 155.5 53.5t89.5 159.5l25 162q-105 -77 -250 -77q-100 0 -172.5 37 t-109 99t-50.5 143.5t3 170.5q31 198 156 323.5t315 125.5q144 0 226 -79l26 30q30 32 55 32h182zM465 207q93 0 140 59t64 164q8 63 4.5 113t-38 81t-99.5 31q-81 0 -135 -62t-70 -160q-15 -98 20 -162t114 -64z" />
<glyph unicode="h" horiz-adv-x="1103" d="M705 883q170 0 257.5 -109.5t54.5 -320.5l-67 -422q-2 -13 -12 -22t-22 -9h-247q-12 0 -20 9t-6 22l71 450q12 78 -19 126t-102 48q-70 0 -118 -45.5t-58 -106.5l-75 -472q-2 -13 -11.5 -22t-21.5 -9h-248q-12 0 -20 9t-6 22l220 1386q2 15 12.5 24t22.5 9h248 q12 0 19 -9t5 -24l-97 -609q116 75 240 75z" />
<glyph unicode="i" horiz-adv-x="538" d="M377 1110q-68 0 -109.5 48t-31.5 116q11 69 67.5 118t125.5 49t110.5 -49t30.5 -118q-10 -68 -67 -116t-126 -48zM78 0q-12 0 -20 8.5t-6 20.5l127 802q2 15 13 25t23 10h246q13 0 20 -10t5 -25l-127 -802q-2 -12 -12 -20.5t-23 -8.5h-246z" />
<glyph unicode="j" horiz-adv-x="565" d="M414 1106q-69 0 -110.5 48.5t-30.5 116.5q11 70 68 119.5t126 49.5t110 -49.5t30 -119.5q-10 -68 -67 -116.5t-126 -48.5zM-111 -573q-88 0 -154 21.5t-103.5 58.5t-56.5 74t-28 79q-5 24 19 35l194 74q29 12 38 -11q22 -54 48.5 -80.5t72.5 -26.5q110 0 140 182 l158 1003q2 12 11.5 21t22.5 9h247q13 0 20.5 -9t5.5 -21l-153 -969q-31 -209 -163 -324.5t-319 -115.5z" />
<glyph unicode="k" horiz-adv-x="1095" d="M1054 866q17 0 23.5 -16t-10.5 -34l-366 -353l286 -416q9 -13 -2 -30t-30 -17h-245q-29 0 -52 29l-256 381l-60 -379q-2 -13 -12.5 -22t-22.5 -9h-248q-12 0 -19 9t-5 22l220 1386q2 14 11.5 23.5t21.5 9.5h248q12 0 20 -10t6 -23l-145 -910l336 329q34 30 54 30h247z " />
<glyph unicode="l" horiz-adv-x="514" d="M63 0q-12 0 -19 9t-5 22l220 1386q2 14 12 23.5t22 9.5h248q12 0 19.5 -10t5.5 -23l-220 -1386q-2 -13 -12.5 -22t-22.5 -9h-248z" />
<glyph unicode="m" horiz-adv-x="1681" d="M1269 883q201 0 281 -101.5t45 -322.5l-68 -428q-2 -12 -13 -21.5t-23 -9.5h-248q-12 0 -18.5 9.5t-4.5 21.5l72 457v-1q12 76 -19.5 122t-96.5 46q-66 0 -112.5 -43.5t-58.5 -108.5l-75 -472q-2 -14 -12 -22.5t-23 -8.5h-248q-13 0 -19.5 8.5t-4.5 22.5l72 450 q13 82 -15 128t-96 46t-117 -42.5t-61 -105.5l-72 -476q-5 -31 -33 -31h-248q-14 0 -21 9t-5 22l127 800q2 14 13 24.5t23 10.5h214q27 0 32 -35l10 -60v-1q127 113 273 113q181 0 254 -121q153 121 296 121z" />
<glyph unicode="n" horiz-adv-x="1130" d="M719 883q203 0 281.5 -103t49.5 -282l-74 -467q-2 -14 -14.5 -22.5t-23.5 -8.5h-243q-31 0 -26 31l72 454q12 76 -22 123t-112 47q-77 0 -133 -45.5t-65 -106.5l-75 -472q-5 -31 -36 -31h-247q-29 0 -24 31l127 801q2 12 11 23t23 11h226q21 0 26 -34l11 -63 q131 114 268 114z" />
<glyph unicode="o" horiz-adv-x="1058" d="M459 -16q-194 0 -308.5 130.5t-85.5 315.5q30 188 186.5 320.5t350.5 132.5q127 0 224 -60.5t142 -165t25 -227.5q-19 -121 -97 -223.5t-194 -162.5t-243 -60zM495 207q77 0 138.5 58.5t77.5 164.5q17 107 -26 166t-120 59t-139.5 -59t-78.5 -166q-17 -106 27 -164.5 t121 -58.5z" />
<glyph unicode="p" horiz-adv-x="1064" d="M666 883q99 0 173 -37.5t112.5 -100t54 -144.5t-1.5 -171q-30 -193 -158.5 -319.5t-321.5 -126.5q-114 0 -189 55l-92 -582q-2 -12 -12.5 -21t-22.5 -9h-248q-12 0 -19 9t-5 21l218 1374q2 15 12 25t22 10h152q19 0 51 -41l24 -30q110 88 251 88zM723 430 q15 98 -22.5 161.5t-113.5 63.5q-92 0 -139 -58.5t-64 -165.5q-35 -224 133 -224q74 0 132.5 63t73.5 160z" />
<glyph unicode="q" horiz-adv-x="1054" d="M1003 866q12 0 19 -10t5 -25l-218 -1374q-2 -12 -12 -21t-22 -9h-247q-12 0 -20 9t-6 21l92 581q-92 -54 -202 -54q-83 0 -148.5 23t-106 64.5t-66 98t-28.5 123.5t7 142q15 93 51.5 172t95 141.5t145.5 98.5t193 36q139 0 220 -87l32 29q43 41 64 41h152zM331 434 q-15 -96 21 -161.5t117 -65.5q165 0 200 223q17 107 -11 166t-118 59q-81 0 -137 -62.5t-72 -158.5z" />
<glyph unicode="r" horiz-adv-x="786" d="M812 847q21 -14 8 -34l-120 -174q-19 -23 -40 -10q-47 34 -97 34q-57 0 -99.5 -41t-53.5 -110l-76 -481q-2 -13 -13 -22t-23 -9h-245q-14 0 -21 9t-5 22l127 800q2 15 12.5 25t23.5 10h155q22 0 47 -38l21 -30q97 85 243 85q101 0 156 -36z" />
<glyph unicode="s" horiz-adv-x="870" d="M344 -16q-110 0 -198 27t-131 77q-14 17 2 39l87 120q7 11 19 15t23 -2q37 -21 100 -39.5t132 -18.5q113 0 123 62q4 23 -21.5 37.5t-92.5 29.5q-167 39 -230.5 99t-45.5 173q19 118 127.5 199t274.5 81q178 0 305 -78q23 -14 6 -38l-95 -134l-3 -3l-3 -3l-3 -3t-3.5 -3 t-3.5 -2t-4 -1.5t-4.5 -0.5h-5t-6 1t-6.5 3q-95 43 -178 43q-108 0 -116 -58q-3 -18 23.5 -33.5t86.5 -31.5q34 -9 55 -15t49.5 -15t45.5 -17t38.5 -18.5t34 -21.5t26.5 -25.5t20 -31.5t11 -37t4.5 -44t-4.5 -52q-6 -36 -21.5 -71.5t-49 -74t-80.5 -67.5t-121.5 -48 t-166.5 -19z" />
<glyph unicode="t" horiz-adv-x="792" d="M734 866q12 0 19.5 -10t5.5 -25l-26 -165q-2 -14 -12.5 -23.5t-23.5 -9.5h-185l-50 -312q-9 -55 5.5 -80.5t61.5 -25.5q58 0 107 34q2 2 9 4t16 -1t14 -14l36 -149q0 -3 1 -9t-4 -16t-16 -15q-123 -65 -303 -65q-275 0 -239 303l55 346h-79q-12 0 -18.5 9t-4.5 24l26 165 q2 15 12 25t22 10h79l34 215q2 14 12 22.5t23 8.5h246q12 0 20 -9t6 -22l-34 -215h185z" />
<glyph unicode="u" horiz-adv-x="1105" d="M1053 866q12 0 20 -10t6 -25l-127 -802q-2 -12 -13 -20.5t-23 -8.5h-186q-28 0 -41 29l-35 72q-126 -117 -262 -117q-183 0 -262 99.5t-51 274.5l75 473q2 15 12 25t22 10h248q12 0 19.5 -10t5.5 -25l-73 -459q-12 -72 21.5 -119.5t106.5 -47.5q71 0 120 44.5t60 106.5 l75 475q6 35 37 35h245z" />
<glyph unicode="v" horiz-adv-x="1007" d="M1020 866q18 0 24.5 -14t-4.5 -31l-518 -792q-18 -29 -37 -29h-52h-46q-19 0 -30 29l-268 794q-4 13 6.5 28t28.5 15h245q19 0 26 -30l107 -408l238 408q17 30 36 30h244z" />
<glyph unicode="w" horiz-adv-x="1376" d="M1371 866q17 0 22.5 -15t-2.5 -28l-427 -803q-11 -20 -32 -20h-53h-66q-18 0 -25 20l-89 476l-241 -478q-10 -18 -29 -18h-80h-42q-19 0 -25 18l-171 805q-4 14 6 28.5t28 14.5h242q24 0 27 -20l34 -434l233 434q12 20 29 20h90h6q20 0 23 -20l96 -432l169 430 q10 22 35 22h242z" />
<glyph unicode="x" horiz-adv-x="1001" d="M954 866q16 0 23 -15t-6 -32l-319 -393l191 -381q7 -13 -3.5 -29t-30.5 -16h-217q-12 0 -25 8t-20 21l-83 167l-135 -167q-10 -12 -26.5 -20.5t-29.5 -8.5h-217q-15 0 -22.5 14t5.5 33l310 379l-196 393q-8 18 3.5 32.5t28.5 14.5h217q12 0 25.5 -9t19.5 -21l90 -180 l147 180q10 12 26 21t28 9h216z" />
<glyph unicode="y" horiz-adv-x="1091" d="M1100 866q15 0 23 -12t-1 -31l-917 -1380q-10 -16 -29 -16h-233q-15 0 -22.5 12t2.5 31l416 626l-245 727q-5 13 5 28t28 15h235q22 0 30 -30l145 -441l301 453q11 18 31 18h231z" />
<glyph unicode="z" horiz-adv-x="905" d="M765 658q-3 -10 -11 -16l-286 -409h272q12 0 20 -9.5t6 -21.5l-28 -173q-2 -12 -12.5 -20.5t-22.5 -8.5h-563h-96q-16 0 -23 13t4 32l413 588h-271q-12 0 -20.5 8.5t-6.5 20.5l28 174q2 12 13 21t23 9h564h94q16 0 22.5 -12.5t-4.5 -31.5z" />
<glyph unicode="{" horiz-adv-x="854" d="M926 1669q33 0 28 -31l-34 -217q-5 -31 -38 -31h-45q-4 0 -10.5 -0.5t-23.5 -5.5t-31 -14t-27 -28t-17 -45l-69 -436q-7 -41 -19.5 -71t-38 -58t-69 -46t-105.5 -26q114 -15 148.5 -65.5t20.5 -135.5l-69 -436q-4 -26 3 -45t18 -28t26 -14t21.5 -5.5t10.5 -0.5h45 q33 0 28 -31l-35 -217q-5 -31 -37 -31h-84h-51q-313 0 -254 372l66 421q5 33 -15 52t-43 22l-22 2h-67q-33 0 -28 31l35 218q5 31 37 31h68q4 0 10 0.5t22.5 5t30 11.5t26 22.5t15.5 36.5l67 421q32 201 126.5 286.5t244.5 85.5h97h38z" />
<glyph unicode="|" horiz-adv-x="495" d="M54 -238q-12 0 -20 8.5t-6 20.5l292 1843q2 15 13 25t23 10h176q13 0 20.5 -10t5.5 -25l-292 -1843q-2 -12 -12.5 -20.5t-23.5 -8.5h-176z" />
<glyph unicode="}" horiz-adv-x="854" d="M788 800q33 0 28 -31l-34 -218q-4 -30 -38 -30h-67q-4 0 -10 -0.5t-22.5 -5t-30 -12t-26 -23t-15.5 -36.5l-67 -421q-32 -201 -126.5 -286.5t-245.5 -85.5h-96h-39q-33 0 -28 31l35 217q5 31 37 31h46q4 0 10.5 0.5t23.5 5.5t30.5 14t26.5 28t17 45l69 436 q14 85 64 135.5t169 65.5q-114 15 -148.5 65.5t-20.5 135.5l69 436q4 26 -3 45t-18 28t-26 14t-21.5 5.5t-10.5 0.5h-45q-33 0 -28 31l34 217q5 31 38 31h84h51q313 0 254 -372l-67 -421q-5 -33 15 -52t42 -22l23 -2h67z" />
<glyph unicode="~" horiz-adv-x="1050" d="M1005 784q12 -12 6 -27q-7 -20 -26.5 -47.5t-51.5 -59.5t-81.5 -54t-104.5 -22h-1h-1q-77 0 -135 18t-104.5 35.5t-95.5 17.5q-67 0 -123.5 -20.5t-80.5 -40.5q-19 -15 -31 0l-40 59q-12 12 -8 25q10 47 93 115.5t189 69.5h1h1q73 0 130 -18t105 -35.5t100 -17.5 q125 0 188 61q18 16 29 4z" />
<glyph unicode="&#xa1;" horiz-adv-x="518" d="M450 883q32 0 27 -31l-29 -188q-5 -31 -38 -31h-239q-33 0 -28 31l30 188q5 31 38 31h239zM338 467q31 0 28 -31l-95 -989q-3 -30 -38 -30h-271q-14 0 -22.5 8t-4.5 22l218 989q8 31 38 31h147z" />
<glyph unicode="&#xa2;" horiz-adv-x="962" d="M850 192q6 -6 5.5 -18t-7.5 -21q-98 -111 -249 -149l-21 -131q-2 -12 -12 -20.5t-23 -8.5h-236q-12 0 -20 8.5t-6 20.5l22 140q-123 46 -192 159.5t-46 257.5q23 146 128.5 261t242.5 161l21 135q2 15 13 25t23 10h236q13 0 20.5 -10t5.5 -25l-20 -124q121 -31 188 -129 q10 -21 -8 -39l-133 -119q-10 -8 -22.5 -7.5t-18.5 9.5q-56 77 -160 77q-92 0 -155 -64t-79 -161q-15 -97 28.5 -161t133.5 -64q60 0 114 27t87 67q7 9 19.5 11t23.5 -7z" />
<glyph unicode="&#xa3;" horiz-adv-x="1167" d="M1205 1176q6 -26 -20 -38l-221 -62q-12 -5 -23 -1.5t-13 13.5q-21 87 -127 87q-140 0 -174 -214l-17 -105h261q12 0 19.5 -9.5t5.5 -21.5l-34 -216q-2 -12 -12.5 -21t-22.5 -9h-261l-25 -160q-14 -93 -55 -142h565q12 0 20 -9t6 -21l-34 -216q-2 -12 -13 -21.5t-23 -9.5 h-948q-12 0 -20 9.5t-6 21.5l28 174q5 26 35 30l5 1q40 7 78 66t47 119l25 158h-107q-12 0 -20 9t-6 21l35 216q2 12 12.5 21.5t22.5 9.5h107l17 107q13 82 37.5 151t67 132.5t100 108t141 71t186.5 26.5q77 0 137 -16.5t97.5 -42t64.5 -63.5t40.5 -74t21.5 -80z" />
<glyph unicode="&#xa4;" horiz-adv-x="1048" d="M869 556l78 -95q7 -9 7 -22t-7 -21l-144 -116q-9 -7 -22 -6t-19 8l-64 72q-81 -42 -174 -42q-94 0 -175 42l-65 -72q-6 -7 -19 -8t-22 6l-144 115q-7 7 -7 20.5t7 22.5l80 97q-34 78 -34 156q0 81 33 155l-79 95q-8 9 -8 22t8 21l144 115q9 7 22 6t19 -8l63 -71 q83 44 177 44q91 0 174 -43l64 73q8 8 21 8.5t22 -6.5l142 -115q10 -8 9.5 -20.5t-9.5 -22.5l-78 -96q34 -74 34 -157t-34 -157zM358 713q0 -67 49 -116.5t117 -49.5t117 49.5t49 116.5t-49 116.5t-117 49.5t-117 -49.5t-49 -116.5z" />
<glyph unicode="&#xa5;" horiz-adv-x="1361" d="M1427 1434q16 0 23.5 -14.5t-4.5 -33.5l-480 -644h36q12 0 21 -9t9 -21v-115q0 -12 -9 -21.5t-21 -9.5h-143l-19 -121h162q12 0 21 -9t9 -21v-115q0 -12 -9 -21.5t-21 -9.5h-190l-38 -240q-2 -12 -12.5 -20.5t-22.5 -8.5h-254q-12 0 -20 8.5t-6 20.5l38 240h-142 q-12 0 -21.5 9.5t-9.5 21.5v115q0 12 9.5 21t21.5 9h170l19 121h-189q-12 0 -21.5 9.5t-9.5 21.5v115q0 12 9.5 21t21.5 9h139l-274 647q-6 17 6.5 31t27.5 14h256q27 0 46 -31l200 -489l359 489q29 31 54 31h258z" />
<glyph unicode="&#xa6;" horiz-adv-x="495" d="M234 897q-12 0 -20.5 8.5t-6.5 20.5l113 708q2 15 13 25t23 10h176q13 0 20.5 -10t5.5 -25l-113 -708q-2 -12 -12 -20.5t-23 -8.5h-176zM54 -238q-12 0 -20 8.5t-6 20.5l112 709q2 15 13 25t23 10h177q13 0 20 -10t5 -25l-112 -709q-2 -12 -12.5 -20.5t-23.5 -8.5h-176z " />
<glyph unicode="&#xa7;" horiz-adv-x="1081" d="M670 1195q-183 0 -197 -90q-8 -52 32 -81t157 -52q224 -43 319 -131.5t71 -237.5q-11 -65 -54 -133.5t-115 -121.5q98 -92 74 -240q-7 -46 -31 -94t-68.5 -96t-104.5 -86t-146.5 -61.5t-185.5 -23.5q-288 0 -421 162q-15 11 5 33l158 146q16 16 35 2q88 -88 264 -88 q32 0 61.5 4t61.5 14.5t53.5 33t26.5 54.5q8 51 -28.5 75.5t-155.5 47.5q-234 47 -327 138.5t-72 221.5q10 65 56 136.5t121 126.5q-105 90 -83 233q7 46 31.5 94t69 96.5t103.5 86.5t142.5 62t177.5 24q258 0 422 -147q6 -6 5.5 -18t-9.5 -21l-160 -147q-19 -17 -35 -2 q-92 80 -253 80zM569 479q54 -11 83 -19q89 44 105 143q8 51 -27.5 75.5t-154.5 47.5q-54 10 -99 24q-82 -40 -98 -140q-8 -51 33.5 -80.5t157.5 -50.5z" />
<glyph unicode="&#xa8;" horiz-adv-x="665" d="M350 1357q-41 0 -69.5 27.5t-28.5 67.5q0 42 28.5 69.5t69.5 27.5t69 -27.5t28 -69.5q0 -40 -28 -67.5t-69 -27.5zM638 1357q-41 0 -69 27.5t-28 67.5q0 42 28 69.5t69 27.5t69 -27.5t28 -69.5q0 -40 -28 -67.5t-69 -27.5z" />
<glyph unicode="&#xa9;" horiz-adv-x="1644" d="M753 -16q-150 0 -276.5 58t-209 156t-119.5 233.5t-13 283.5q31 200 156 369t309.5 267.5t384.5 98.5q198 0 351 -98.5t224 -267.5t40 -369q-31 -198 -156 -366.5t-309 -266.5t-382 -98zM780 157q156 0 291 75.5t221.5 202t110.5 280.5t-21.5 282t-157 204t-267.5 76 q-117 0 -225 -44.5t-189 -120.5t-136.5 -179t-73.5 -218q-24 -154 22 -281t157.5 -202t267.5 -75zM801 297q-158 0 -236.5 115.5t-48.5 304.5q30 188 145 304t273 116q121 0 194.5 -65t89.5 -182q2 -15 -8.5 -28.5t-26.5 -17.5l-128 -22q-15 -4 -26 5t-13 25 q-2 42 -33.5 69.5t-78.5 27.5q-67 0 -116.5 -61.5t-66.5 -170.5q-18 -112 13 -173t96 -61q45 0 85.5 29.5t58.5 72.5q12 30 46 28l127 -25q12 -3 18 -15.5t0 -27.5q-52 -115 -148 -181.5t-216 -66.5z" />
<glyph unicode="&#xaa;" horiz-adv-x="839" d="M866 1113l-2 -9v-2l-62 -393q-1 -10 -10 -18t-19 -8h-110q-14 0 -24.5 9.5t-11.5 24.5l-6 39q-106 -90 -225 -90q-133 0 -193.5 71.5t-43.5 181.5q16 98 105 164.5t227 66.5q96 0 153 -31l5 30q8 50 -16.5 78t-92.5 28q-77 0 -195 -32q-10 -3 -17.5 2.5t-8.5 14.5l-5 122 q-3 22 22 31q9 4 38 12.5t96 18.5t138 10q72 0 123.5 -16.5t80.5 -45.5t45 -69.5t15.5 -88t-6.5 -101.5zM479 806q49 0 88 32.5t46 80.5q7 46 -22 78t-77 32q-46 0 -86 -32.5t-47 -77.5q-7 -48 22.5 -80.5t75.5 -32.5zM578 372q12 0 20 -9.5t6 -21.5l-35 -217 q-2 -12 -12.5 -21.5t-22.5 -9.5h-315q-12 0 -19.5 9.5t-5.5 21.5l34 217q2 12 13 21.5t23 9.5h314z" />
<glyph unicode="&#xab;" horiz-adv-x="1150" d="M341 433l197 -406q8 -17 1.5 -30t-25.5 -13h-120q-32 0 -46 20l-239 371q-24 34 -21 51l1 4l2 10q4 22 36 52l357 370q21 21 52 21h120q19 0 22 -13.5t-11 -30.5zM1106 883q18 0 21 -13.5t-11 -30.5l-326 -406l198 -406q8 -17 1.5 -30t-25.5 -13h-120q-32 0 -46 20 l-239 371q-24 34 -21 51l1 4l1 10q4 21 37 52l357 370q21 21 52 21h120z" />
<glyph unicode="&#xac;" horiz-adv-x="1122" d="M1000 818q32 0 32 -31v-150v-295q0 -32 -30 -32h-185q-30 0 -30 32v264h-664q-32 0 -32 31v150q0 31 32 31h877z" />
<glyph unicode="&#xad;" horiz-adv-x="770" d="M127 454q-33 0 -28 30l23 150q5 31 38 31h524q33 0 28 -31l-24 -150q-4 -30 -38 -30h-523z" />
<glyph unicode="&#xae;" horiz-adv-x="1644" d="M985 1450q198 0 351 -98.5t224 -267.5t40 -369q-31 -198 -156 -366.5t-309 -266.5t-382 -98q-150 0 -276.5 58t-209 156t-119.5 233.5t-13 283.5q31 200 156 369t309.5 267.5t384.5 98.5zM1402 715q24 154 -21.5 282t-156.5 204t-267 76t-291 -76t-221.5 -204 t-110.5 -282q-24 -153 21.5 -280t157 -202.5t267.5 -75.5q235 0 409.5 161.5t212.5 396.5zM1056 1108q90 0 137 -67t31 -173q-11 -70 -48 -125t-90 -85q34 -65 48 -160t5 -154q-1 -6 -6.5 -10.5t-11.5 -4.5h-142q-6 0 -10.5 4.5t-3.5 10.5q9 59 -5.5 138.5t-60.5 146.5h-173 l-45 -285q-1 -6 -6.5 -10.5t-11.5 -4.5h-143q-14 0 -12 15l119 747q1 6 6 11.5t11 5.5h142h270zM778 954l-27 -172h216q25 0 55 21.5t37 64.5q3 6 1.5 20.5t-5 29t-20 25.5t-42.5 11h-215z" />
<glyph unicode="&#xaf;" horiz-adv-x="659" d="M292 1358q-33 0 -33 31v106q0 31 33 31h394q32 0 32 -31v-106q0 -31 -32 -31h-394z" />
<glyph unicode="&#xb0;" horiz-adv-x="763" d="M452 866q-122 0 -194 85t-53 206q20 122 119.5 207.5t220.5 85.5q120 0 191.5 -86t52.5 -207t-118 -206t-219 -85zM476 1017q59 0 102.5 40t52.5 100t-21 101t-89 41t-104 -41.5t-54 -100.5t22.5 -99.5t90.5 -40.5z" />
<glyph unicode="&#xb1;" horiz-adv-x="1179" d="M990 804q33 0 33 -31v-150q0 -30 -33 -30h-287v-276q0 -33 -31 -33h-178q-30 0 -30 33v276h-288q-32 0 -32 30v150q0 31 32 31h288v277q0 33 30 33h178q31 0 31 -33v-277h287zM990 166q33 0 33 -31v-117q0 -31 -33 -31h-814q-32 0 -32 31v117q0 31 32 31h814z" />
<glyph unicode="&#xb2;" horiz-adv-x="813" d="M833 1380q-10 -64 -38.5 -116.5t-51.5 -73.5l-23 -21l-268 -240h306q8 0 13 -6t4 -13l-25 -158q-1 -7 -8 -13t-15 -6h-598q-9 0 -14 5.5t-3 13.5l21 132q1 10 11 16l307 273q64 58 111.5 116.5t52.5 89.5q13 78 -78 78q-111 -1 -129 -84q-3 -14 -21 -14h-170 q-20 0 -17 18q10 50 32.5 94t63.5 86.5t111.5 68t161.5 25.5v0q158 0 220 -77t44 -194z" />
<glyph unicode="&#xb3;" horiz-adv-x="815" d="M837 1387q-23 -148 -139 -196q47 -19 76.5 -67t15.5 -136q-8 -52 -31 -97t-64.5 -85.5t-111.5 -64.5t-161 -24h-1h-1q-85 0 -147 26t-91.5 67t-40.5 85.5t-4 88.5q3 22 23 22h174q19 0 16 -16q-4 -34 24 -55.5t78 -21.5q51 0 86.5 22.5t41.5 60.5q7 47 -21 68.5 t-114 21.5h-29q-8 0 -13 6t-4 13l25 161q4 18 23 18h30q81 0 110.5 24t36.5 70q6 36 -18 56.5t-68 20.5q-51 0 -85.5 -20.5t-41.5 -56.5q-3 -16 -21 -16h-174q-19 0 -15 22q7 46 32 90.5t68 85t112.5 66t154.5 25.5h2q70 0 122.5 -16t81.5 -42t47 -60t19 -71t-3 -75z" />
<glyph unicode="&#xb4;" horiz-adv-x="575" d="M322 1301q-25 -17 -45 6l-31 46q-13 19 9 43l273 291q23 24 47 -4l78 -118q19 -26 -6 -46z" />
<glyph unicode="&#xb6;" horiz-adv-x="1234" d="M1273 1434q12 0 19 -9.5t5 -21.5l-255 -1610q-2 -12 -12 -21.5t-22 -9.5h-178q-12 0 -20 9.5t-6 21.5l227 1429h-160l-227 -1429q-2 -12 -11.5 -21.5t-21.5 -9.5h-179q-12 0 -19.5 9.5t-5.5 21.5l125 791q-110 0 -197 56.5t-129 155.5t-24 214q28 174 172 299t312 125h2 h208h239h158z" />
<glyph unicode="&#xb7;" horiz-adv-x="460" d="M163 635q-33 0 -28 31l29 182q5 31 38 31h196q33 0 28 -31l-29 -182q-4 -31 -37 -31h-197z" />
<glyph unicode="&#xb8;" horiz-adv-x="550" d="M211 -80q69 4 112.5 -37.5t30.5 -120.5q-14 -87 -73.5 -135t-167.5 -48q-51 0 -93.5 26.5t-49.5 51.5q-3 14 6 20l70 54q14 10 23 -2q21 -28 63 -28q25 0 45.5 16.5t25.5 46.5q5 34 -15 48.5t-45 -2.5q-11 -8 -23 -10.5t-18 -1.5l-6 2l-74 23q-14 3 -7 20l101 173h150z " />
<glyph unicode="&#xb9;" horiz-adv-x="743" d="M689 923q8 0 13 -6t4 -13l-25 -156q-3 -19 -23 -19h-360h-181q-19 0 -16 19l24 156q4 19 22 19h163l76 479l-147 -48q-9 -3 -16 2.5t-5 14.5l23 143q2 10 23 21l165 88q1 1 3 1q9 6 21 6h168q7 0 12 -6t3 -14l-109 -687h162z" />
<glyph unicode="&#xba;" horiz-adv-x="843" d="M459 666q-147 0 -227.5 100.5t-51.5 284.5q29 183 141 283t259 100t228 -100t52 -283q-30 -184 -142 -284.5t-259 -100.5zM491 872q60 0 97.5 49.5t50.5 129.5q12 78 -9.5 127t-81.5 49t-98 -49t-50 -127q-13 -79 9 -129t82 -50zM213 93q-12 0 -20 9t-6 21l34 218 q2 12 13 21.5t23 9.5h314q12 0 20 -9.5t6 -21.5l-34 -218q-2 -12 -13 -21t-23 -9h-314z" />
<glyph unicode="&#xbb;" horiz-adv-x="1150" d="M547 426q-4 -21 -36 -51l-357 -371q-20 -20 -52 -20h-120q-19 0 -22 13t11 30l326 406l-197 406q-8 17 -1.5 30.5t25.5 13.5h120q31 0 46 -21l239 -370q24 -34 21 -52l-1 -4zM979 492q24 -33 20 -52v-4l-2 -10q-4 -19 -37 -51l-356 -371q-20 -20 -53 -20h-120 q-18 0 -21 13t11 30l326 406l-197 406q-8 17 -1.5 30.5t25.5 13.5h120q31 0 46 -21z" />
<glyph unicode="&#xbc;" horiz-adv-x="2000" d="M681 551q-3 -19 -23 -19h-360h-181q-19 0 -16 19l24 157q4 19 22 19h163l76 478l-147 -48q-9 -3 -16 2.5t-5 14.5l23 143q2 11 23 22l165 87q1 1 3 1q10 7 21 7h168q7 0 12 -6.5t3 -14.5l-109 -686h162q8 0 13 -6t4 -13zM1501 1434q16 0 23 -10t-1 -27l-687 -1366 q-16 -31 -43 -31h-157q-21 0 -30 14.5t-1 30.5l685 1358q14 31 41 31h170zM1896 419q8 0 13.5 -5.5t4.5 -12.5l-25 -159q-1 -7 -8.5 -12t-15.5 -5h-79l-24 -153q-4 -19 -21 -19h-180q-8 0 -12.5 6t-3.5 13l24 153h-365q-18 0 -15 17l19 123q0 1 3 7h-1l455 572q5 10 20 10 h199q8 0 12 -5.5t3 -12.5l-82 -517h79zM1439 419h161l40 252z" />
<glyph unicode="&#xbd;" horiz-adv-x="1988" d="M681 551q-3 -19 -23 -19h-360h-181q-19 0 -16 19l24 157q4 19 22 19h163l76 478l-147 -48q-9 -3 -16 2.5t-5 14.5l23 143q2 11 23 22l165 87q1 1 3 1q10 7 21 7h168q7 0 12 -6.5t3 -14.5l-109 -686h162q8 0 13 -6t4 -13zM1460 1434q16 0 23.5 -10t-0.5 -27l-688 -1366 q-15 -31 -43 -31h-157q-21 0 -30 14.5t-1 30.5l686 1358q8 17 16 24t24 7h170zM1933 696q-10 -64 -38.5 -117t-51.5 -74l-23 -21l-268 -239h306q8 0 13 -6t4 -13l-25 -158q-1 -7 -8 -13t-15 -6h-598q-9 0 -14 5.5t-3 13.5l21 132q1 10 11 16l307 273q64 58 111.5 116 t52.5 89q13 79 -78 79q-111 -1 -129 -84q-3 -15 -21 -15h-170q-20 0 -17 19q10 50 32.5 94t63.5 86.5t111.5 68t161.5 25.5v0q158 0 220 -77t44 -194z" />
<glyph unicode="&#xbe;" horiz-adv-x="2019" d="M422 516h-1h-1q-85 0 -147 26t-91.5 67t-40.5 85.5t-4 88.5q3 22 23 22h174q19 0 16 -16q-4 -34 24 -55t78 -21q52 0 87 22t41 60q7 47 -21 69t-114 22h-29q-8 0 -13 5.5t-4 12.5l25 161q4 18 23 18h30q81 0 110.5 24t36.5 70q6 36 -18 57t-68 21q-51 0 -85.5 -21 t-41.5 -57q-3 -16 -21 -16h-174q-19 0 -15 22q7 46 32 90.5t68 85t112.5 66t154.5 25.5h2q70 0 122.5 -15.5t81.5 -41.5t47 -60t19 -71t-3 -75q-23 -149 -139 -197q47 -19 76.5 -66.5t15.5 -135.5q-8 -52 -31 -97.5t-64.5 -86t-111.5 -64.5t-161 -24zM1523 1434 q16 0 23.5 -10t-0.5 -27l-688 -1366q-16 -31 -43 -31h-157q-21 0 -29.5 14.5t-0.5 30.5l685 1358q8 17 16 24t24 7h170zM1915 419q8 0 13 -5.5t4 -12.5l-25 -159q-1 -7 -8 -12t-15 -5h-79l-24 -153q-4 -19 -22 -19h-180q-8 0 -12.5 6t-3.5 13l25 153h-365q-8 0 -12.5 5 t-3.5 12l20 123q0 3 2 7h-1l456 572q5 10 20 10h198q8 0 12.5 -5.5t3.5 -12.5l-82 -517h79zM1458 419h160l40 252z" />
<glyph unicode="&#xbf;" horiz-adv-x="1062" d="M508 628q-33 0 -28 31l30 188q5 31 38 31h238q33 0 28 -31l-30 -188q-5 -31 -37 -31h-239zM872 -70q30 0 25 -35q-36 -226 -169.5 -354.5t-368.5 -129.5h-1h-1q-81 0 -146 18t-106 48t-70.5 71t-40 87.5t-14 96.5t6.5 99q36 227 220 357q137 101 193 166.5t67 131.5 q4 29 31 29h230q29 0 24 -29q-11 -67 -23 -110t-37.5 -89.5t-66 -89.5t-105.5 -97q-127 -103 -173.5 -153.5t-56.5 -112.5q-11 -70 19.5 -107t93.5 -38q80 1 129 59t65 157q2 12 12.5 18.5t20.5 6.5h242z" />
<glyph unicode="&#xc0;" horiz-adv-x="1515" d="M708 1626q-28 11 -18 41l43 134q5 15 16.5 20.5t26.5 -2.5l343 -205q29 -17 20 -39l-17 -52q-11 -28 -41 -18zM1383 41q4 -15 -8 -28t-27 -13h-252q-20 0 -23 20l-45 166h-620l-99 -168q-11 -18 -29 -18h-252q-14 0 -21.5 12t1.5 31l819 1389q12 18 30 18h81h38 q22 0 25 -18zM571 463h380l-120 441z" />
<glyph unicode="&#xc1;" horiz-adv-x="1515" d="M708 1521l-18 52q-5 13 0 21t21 18l342 205q15 8 26.5 2.5t16.5 -20.5l44 -134q10 -30 -19 -41l-373 -121q-29 -10 -40 18zM1383 41q4 -15 -8 -28t-27 -13h-252q-20 0 -23 20l-45 166h-620l-99 -168q-11 -18 -29 -18h-252q-14 0 -21.5 12t1.5 31l819 1389q12 18 30 18h81 h38q22 0 25 -18zM571 463h380l-120 441z" />
<glyph unicode="&#xc2;" horiz-adv-x="1515" d="M709 1519q-20 -11 -30 -8t-7 22l10 60q3 16 7.5 22.5t19.5 18.5l204 169q29 25 55 25h9q25 0 47 -25l149 -169q1 -1 3.5 -4t3.5 -4t3 -3.5t2.5 -4t1.5 -3.5t1 -4v-5v-6t-1 -7l-9 -60q-6 -38 -42 -14l-191 137zM1383 41q4 -15 -8 -28t-27 -13h-252q-20 0 -23 20l-45 166 h-620l-99 -168q-11 -18 -29 -18h-252q-14 0 -21.5 12t1.5 31l819 1389q12 18 30 18h81h38q22 0 25 -18zM571 463h380l-120 441z" />
<glyph unicode="&#xc3;" horiz-adv-x="1515" d="M612 1573q-16 6 -9 24q53 146 194 144q62 0 109.5 -16.5t81 -33.5t60.5 -17q52 0 101 51q12 12 28 4l42 -18q15 -6 8 -24q-20 -55 -64.5 -101t-113.5 -47h-1h-1q-69 1 -135 34.5t-116 33.5q-29 0 -62 -13t-50 -38q-10 -14 -29 -4zM1383 41q4 -15 -8 -28t-27 -13h-252 q-20 0 -23 20l-45 166h-620l-99 -168q-11 -18 -29 -18h-252q-14 0 -21.5 12t1.5 31l819 1389q12 18 30 18h81h38q22 0 25 -18zM571 463h380l-120 441z" />
<glyph unicode="&#xc4;" horiz-adv-x="1515" d="M771 1551q-41 0 -69 28t-28 68q0 42 28 69.5t69 27.5t69 -27.5t28 -69.5q0 -40 -28 -68t-69 -28zM1059 1551q-41 0 -69 28t-28 68q0 42 28 69.5t69 27.5t69.5 -27.5t28.5 -69.5q0 -40 -28.5 -68t-69.5 -28zM1383 41q4 -15 -8 -28t-27 -13h-252q-20 0 -23 20l-45 166h-620 l-99 -168q-11 -18 -29 -18h-252q-14 0 -21.5 12t1.5 31l819 1389q12 18 30 18h81h38q22 0 25 -18zM571 463h380l-120 441z" />
<glyph unicode="&#xc5;" horiz-adv-x="1515" d="M914 1491q-94 0 -157 61t-63 162t63 162t157 61t158.5 -61t64.5 -162t-64.5 -162t-158.5 -61zM914 1798q-36 0 -54 -25t-18 -59q0 -35 18 -60.5t54 -25.5t55 25.5t19 60.5q0 33 -19 58.5t-55 25.5zM1383 41q4 -15 -8 -28t-27 -13h-252q-20 0 -23 20l-45 166h-620 l-99 -168q-11 -18 -29 -18h-252q-14 0 -21.5 12t1.5 31l819 1389q12 18 30 18h81h38q22 0 25 -18zM571 463h380l-120 441z" />
<glyph unicode="&#xc6;" horiz-adv-x="1990" d="M2021 1434q12 0 19 -9.5t5 -21.5l-35 -218q-2 -12 -11.5 -21t-21.5 -9h-592l-49 -307h389q12 0 20 -8.5t6 -20.5l-34 -220q-2 -12 -13 -20.5t-23 -8.5h-389l-46 -291h594q12 0 20 -9.5t6 -21.5l-35 -217q-2 -12 -12.5 -21.5t-22.5 -9.5h-729h-150q-12 0 -20 9.5t-6 21.5 l25 155h-465l-120 -168q-13 -18 -27 -18h-258q-16 0 -26 12.5t1 30.5l937 1372q11 19 28 19h197h217h621zM650 463h310l88 557z" />
<glyph unicode="&#xc7;" horiz-adv-x="1441" d="M1472 1198q15 -21 -6 -42l-194 -168q-12 -10 -25 -8.5t-19 12.5q-41 79 -123 130t-187 51q-178 0 -319 -133t-171 -323q-19 -123 18.5 -228t124 -167.5t203.5 -62.5q219 0 391 190q9 10 21.5 11t24.5 -9l131 -154q18 -21 -6 -44q-110 -113 -248 -182.5t-287 -83.5 l-34 -59q70 5 114 -37t31 -121q-29 -182 -241 -182q-51 0 -93.5 26t-49.5 51q-3 14 6 20l68 54q13 9 23 -3q25 -28 64 -28q27 0 48 16.5t26 47.5q5 34 -15.5 49t-46.5 -3q-11 -8 -22.5 -11t-17.5 -1l-6 1l-73 24q-14 3 -7 20l79 137q-135 14 -246.5 77t-183.5 159.5 t-102.5 225t-8.5 267.5q32 199 156.5 367.5t308.5 267t384 98.5q163 0 297 -66.5t213 -185.5z" />
<glyph unicode="&#xc8;" horiz-adv-x="1126" d="M536 1626q-29 11 -19 41l44 134q5 15 16.5 20.5t26.5 -2.5l342 -205q29 -17 20 -39l-17 -52q-11 -28 -41 -18zM1179 1434q12 0 19 -9.5t5 -21.5l-35 -218q-2 -12 -11.5 -21t-21.5 -9h-592l-49 -307h389q12 0 20 -8.5t6 -20.5l-34 -220q-2 -12 -13 -20.5t-23 -8.5h-389 l-46 -291h594q12 0 20 -9.5t6 -21.5l-35 -217q-2 -12 -12.5 -21.5t-22.5 -9.5h-729h-150q-12 0 -20 9.5t-6 21.5l218 1372q2 12 12.5 21.5t22.5 9.5h256h621z" />
<glyph unicode="&#xc9;" horiz-adv-x="1126" d="M535 1521l-17 52q-9 22 20 39l342 205q15 8 26.5 2.5t16.5 -20.5l44 -134q10 -30 -19 -41l-372 -121q-30 -10 -41 18zM1179 1434q12 0 19 -9.5t5 -21.5l-35 -218q-2 -12 -11.5 -21t-21.5 -9h-592l-49 -307h389q12 0 20 -8.5t6 -20.5l-34 -220q-2 -12 -13 -20.5t-23 -8.5 h-389l-46 -291h594q12 0 20 -9.5t6 -21.5l-35 -217q-2 -12 -12.5 -21.5t-22.5 -9.5h-729h-150q-12 0 -20 9.5t-6 21.5l218 1372q2 12 12.5 21.5t22.5 9.5h256h621z" />
<glyph unicode="&#xca;" horiz-adv-x="1126" d="M536 1519q-20 -11 -29.5 -8t-6.5 22l9 60q3 16 7.5 22.5t19.5 18.5l205 169q29 25 55 25h8q25 0 47 -25l149 -169q1 -1 3.5 -4t3.5 -4t3 -3.5t2.5 -4t1.5 -3.5t1 -4v-5v-6t-1 -7l-9 -60q-6 -38 -41 -14l-191 137zM1179 1434q12 0 19 -9.5t5 -21.5l-35 -218 q-2 -12 -11.5 -21t-21.5 -9h-592l-49 -307h389q12 0 20 -8.5t6 -20.5l-34 -220q-2 -12 -13 -20.5t-23 -8.5h-389l-46 -291h594q12 0 20 -9.5t6 -21.5l-35 -217q-2 -12 -12.5 -21.5t-22.5 -9.5h-729h-150q-12 0 -20 9.5t-6 21.5l218 1372q2 12 12.5 21.5t22.5 9.5h256h621z " />
<glyph unicode="&#xcb;" horiz-adv-x="1126" d="M598 1551q-41 0 -69 28t-28 68q0 42 28 69.5t69 27.5t69 -27.5t28 -69.5q0 -40 -28 -68t-69 -28zM887 1551q-41 0 -69 28t-28 68q0 42 28 69.5t69 27.5t69 -27.5t28 -69.5q0 -40 -28 -68t-69 -28zM1179 1434q12 0 19 -9.5t5 -21.5l-35 -218q-2 -12 -11.5 -21t-21.5 -9 h-592l-49 -307h389q12 0 20 -8.5t6 -20.5l-34 -220q-2 -12 -13 -20.5t-23 -8.5h-389l-46 -291h594q12 0 20 -9.5t6 -21.5l-35 -217q-2 -12 -12.5 -21.5t-22.5 -9.5h-729h-150q-12 0 -20 9.5t-6 21.5l218 1372q2 12 12.5 21.5t22.5 9.5h256h621z" />
<glyph unicode="&#xcc;" horiz-adv-x="610" d="M633 1505l-372 121q-29 11 -19 41l44 134q5 15 16.5 20.5t26.5 -2.5l342 -205q29 -17 20 -39l-17 -52q-11 -28 -41 -18zM108 0q-12 0 -20 9.5t-6 21.5l217 1372q2 12 13 21.5t23 9.5h256q12 0 19 -9.5t5 -21.5l-218 -1372q-2 -12 -11.5 -21.5t-21.5 -9.5h-256z" />
<glyph unicode="&#xcd;" horiz-adv-x="610" d="M301 1503q-30 -10 -41 18l-17 52q-9 22 20 39l342 205q15 8 26.5 2.5t16.5 -20.5l44 -134q10 -30 -19 -41zM108 0q-12 0 -20 9.5t-6 21.5l217 1372q2 12 13 21.5t23 9.5h256q12 0 19 -9.5t5 -21.5l-218 -1372q-2 -12 -11.5 -21.5t-21.5 -9.5h-256z" />
<glyph unicode="&#xce;" horiz-adv-x="610" d="M725 1634q1 -1 3.5 -4t3.5 -4t3 -3.5t2.5 -4t1.5 -3.5t1 -4v-5v-6t-1 -7l-9 -60q-6 -38 -41 -14l-192 137l-236 -137q-20 -11 -30 -8t-7 22l10 60q3 16 7.5 22.5t19.5 18.5l205 169q29 25 55 25h8q25 0 47 -25zM591 1434q12 0 19 -9.5t5 -21.5l-218 -1372 q-2 -12 -11.5 -21.5t-21.5 -9.5h-256q-12 0 -20 9.5t-6 21.5l217 1372q2 12 13 21.5t23 9.5h256z" />
<glyph unicode="&#xcf;" horiz-adv-x="610" d="M323 1551q-41 0 -69 28t-28 68q0 42 28 69.5t69 27.5t69 -27.5t28 -69.5q0 -40 -28 -68t-69 -28zM612 1551q-41 0 -69.5 28t-28.5 68q0 42 28.5 69.5t69.5 27.5t69 -27.5t28 -69.5q0 -40 -28 -68t-69 -28zM108 0q-12 0 -20 9.5t-6 21.5l217 1372q2 12 13 21.5t23 9.5h256 q12 0 19 -9.5t5 -21.5l-218 -1372q-2 -12 -11.5 -21.5t-21.5 -9.5h-256z" />
<glyph unicode="&#xd0;" horiz-adv-x="1443" d="M887 1433q131 -3 234 -47.5t175 -133.5t96.5 -222.5t-1.5 -314.5q-27 -170 -97.5 -306.5t-170 -224.5t-220 -135t-252.5 -49h-365h-170q-12 0 -20 9.5t-6 21.5l89 566h-113q-33 0 -24 31l49 174q9 31 42 31h84l90 570q2 12 13 21.5t23 9.5h256h288v-1zM1076 715 q34 214 -33 327t-219 113h-241l-51 -322h183q33 0 24 -31l-49 -174q-9 -31 -42 -31h-153l-51 -318h241q151 0 254.5 114t136.5 322z" />
<glyph unicode="&#xd1;" horiz-adv-x="1443" d="M576 1573q-15 6 -8 24q53 146 194 144q62 0 109.5 -16.5t81 -33.5t60.5 -17q52 0 101 51q12 12 28 4l42 -18q15 -6 8 -24q-20 -55 -64.5 -101t-113.5 -47h-1h-1q-69 1 -135 34.5t-116 33.5q-29 0 -62 -13t-50 -38q-10 -14 -29 -4zM1442 1434q12 0 19.5 -9.5t5.5 -21.5 l-217 -1374q-2 -12 -12.5 -20.5t-22.5 -8.5h-183h-31q-29 0 -46 29l-441 842l-133 -842q-2 -12 -12 -20.5t-22 -8.5h-256q-12 0 -20 8.5t-6 20.5l218 1374q2 12 13 21.5t23 9.5h183h43q12 0 25 -9t19 -22l432 -825l131 825q2 12 12 21.5t22 9.5h256z" />
<glyph unicode="&#xd2;" horiz-adv-x="1599" d="M1125 1505l-372 121q-29 11 -19 41l44 134q5 15 16.5 20.5t26.5 -2.5l342 -205q16 -10 21 -18t0 -21l-18 -52q-11 -28 -41 -18zM730 -16q-200 0 -353 98t-224 266.5t-40 366.5q31 200 156 369t309 267.5t384 98.5q198 0 351 -98.5t224 -267.5t40 -369 q-31 -198 -156 -366.5t-309 -266.5t-382 -98zM774 263q177 0 317 131t170 321t-68.5 322t-274.5 132q-177 0 -318.5 -132t-171.5 -322q-30 -189 69.5 -320.5t276.5 -131.5z" />
<glyph unicode="&#xd3;" horiz-adv-x="1599" d="M793 1503q-30 -10 -41 18l-17 52q-9 22 20 39l342 205q15 8 26.5 2.5t16.5 -20.5l44 -134q10 -30 -18 -41zM730 -16q-200 0 -353 98t-224 266.5t-40 366.5q31 200 156 369t309 267.5t384 98.5q198 0 351 -98.5t224 -267.5t40 -369q-31 -198 -156 -366.5t-309 -266.5 t-382 -98zM774 263q177 0 317 131t170 321t-68.5 322t-274.5 132q-177 0 -318.5 -132t-171.5 -322q-30 -189 69.5 -320.5t276.5 -131.5z" />
<glyph unicode="&#xd4;" horiz-adv-x="1599" d="M753 1519q-20 -11 -29.5 -8t-6.5 22l9 60q3 16 7.5 22.5t19.5 18.5l205 169q29 25 55 25h8q25 0 47 -25l149 -169q1 -1 3.5 -4t3.5 -4t3 -3.5t2.5 -4t1.5 -3.5t1 -4v-5v-6t-1 -7l-9 -60q-6 -38 -41 -14l-191 137zM962 1450q198 0 351 -98.5t224 -267.5t40 -369 q-31 -198 -156 -366.5t-309 -266.5t-382 -98q-200 0 -353 98t-224 266.5t-40 366.5q31 200 156 369t309 267.5t384 98.5zM1261 715q30 190 -68.5 322t-274.5 132q-177 0 -318.5 -132t-171.5 -322q-30 -189 69.5 -320.5t276.5 -131.5t317 131t170 321z" />
<glyph unicode="&#xd5;" horiz-adv-x="1599" d="M656 1573q-15 6 -8 24q53 146 194 144q62 0 109 -16.5t80.5 -33.5t60.5 -17q52 0 101 51q12 12 29 4l42 -18q15 -6 8 -24q-20 -55 -65 -101t-114 -47h-1h-1q-69 1 -134.5 34.5t-115.5 33.5q-29 0 -62.5 -13t-50.5 -38q-10 -14 -29 -4zM962 1450q198 0 351 -98.5 t224 -267.5t40 -369q-31 -198 -156 -366.5t-309 -266.5t-382 -98q-200 0 -353 98t-224 266.5t-40 366.5q31 200 156 369t309 267.5t384 98.5zM1261 715q30 190 -68.5 322t-274.5 132q-177 0 -318.5 -132t-171.5 -322q-30 -189 69.5 -320.5t276.5 -131.5t317 131t170 321z " />
<glyph unicode="&#xd6;" horiz-adv-x="1599" d="M815 1551q-41 0 -69 28t-28 68q0 42 28 69.5t69 27.5t69 -27.5t28 -69.5q0 -40 -28 -68t-69 -28zM1104 1551q-41 0 -69 28t-28 68q0 42 28 69.5t69 27.5t69 -27.5t28 -69.5q0 -40 -28 -68t-69 -28zM730 -16q-200 0 -353 98t-224 266.5t-40 366.5q31 200 156 369 t309 267.5t384 98.5q198 0 351 -98.5t224 -267.5t40 -369q-31 -198 -156 -366.5t-309 -266.5t-382 -98zM774 263q177 0 317 131t170 321t-68.5 322t-274.5 132q-177 0 -318.5 -132t-171.5 -322q-30 -189 69.5 -320.5t276.5 -131.5z" />
<glyph unicode="&#xd7;" horiz-adv-x="968" d="M866 393q24 -23 2 -45l-107 -106q-21 -25 -45 -1l-232 232l-231 -231q-24 -24 -45 -1l-107 107q-21 22 2 45l230 231l-230 230q-23 24 -2 45l107 107q21 25 45 1l231 -232l232 231q24 24 45 1l107 -108q22 -21 -2 -45l-231 -230z" />
<glyph unicode="&#xd8;" horiz-adv-x="1609" d="M1346 1328q135 -101 198 -262.5t33 -350.5q-31 -198 -156 -366.5t-309 -266.5t-382 -98q-139 0 -254 47l-11 -17q-19 -30 -48 -30h-110q-21 0 -28 15t4 30l55 81q-132 101 -193 260.5t-32 344.5q31 200 156 369t309 267.5t384 98.5q130 0 245 -45l9 14q20 31 46 31h125 q15 0 20 -11t-4 -26zM428 715q-16 -101 7 -190t79 -152l522 778q-54 18 -118 18q-177 0 -318.5 -132t-171.5 -322zM1261 715q16 105 -8 196t-83 154l-524 -781q59 -21 128 -21q177 0 317 131t170 321z" />
<glyph unicode="&#xd9;" horiz-adv-x="1349" d="M627 1626q-28 11 -18 41l44 134q5 15 16.5 20.5t26.5 -2.5l342 -205q29 -17 20 -39l-17 -52q-11 -28 -41 -18zM1367 1434q12 0 18.5 -9.5t4.5 -23.5l-121 -762q-13 -83 -28.5 -148.5t-41.5 -135.5t-59.5 -122.5t-84 -101.5t-113 -79.5t-148.5 -49t-189 -18.5 q-99 0 -177 18t-131 49.5t-89 79.5t-54.5 101.5t-24 122.5t-1 136t17.5 148v1v1l120 760q2 13 13 23t23 10h256q12 0 19 -10t5 -23l-119 -752q-12 -75 -16 -126.5t2.5 -104.5t28 -84.5t64 -51t107.5 -19.5q64 0 112.5 20t79.5 51.5t54.5 84.5t36 105t24.5 127l119 750 q2 13 13 23t23 10h256z" />
<glyph unicode="&#xda;" horiz-adv-x="1349" d="M627 1521l-18 52q-5 13 0 21t21 18l342 205q15 8 26.5 2.5t16.5 -20.5l44 -134q10 -30 -19 -41l-372 -121q-30 -10 -41 18zM1367 1434q12 0 18.5 -9.5t4.5 -23.5l-121 -762q-13 -83 -28.5 -148.5t-41.5 -135.5t-59.5 -122.5t-84 -101.5t-113 -79.5t-148.5 -49t-189 -18.5 q-99 0 -177 18t-131 49.5t-89 79.5t-54.5 101.5t-24 122.5t-1 136t17.5 148v1v1l120 760q2 13 13 23t23 10h256q12 0 19 -10t5 -23l-119 -752q-12 -75 -16 -126.5t2.5 -104.5t28 -84.5t64 -51t107.5 -19.5q64 0 112.5 20t79.5 51.5t54.5 84.5t36 105t24.5 127l119 750 q2 13 13 23t23 10h256z" />
<glyph unicode="&#xdb;" horiz-adv-x="1349" d="M628 1519q-20 -11 -30 -8t-7 22l10 60q3 16 7.5 22.5t19.5 18.5l204 169q29 25 56 25h8q25 0 47 -25l149 -169q1 -1 3.5 -4t3.5 -4t3 -3.5t2.5 -4t1.5 -3.5t1 -4v-5v-6t-1 -7l-9 -60q-6 -38 -41 -14l-192 137zM1367 1434q12 0 18.5 -9.5t4.5 -23.5l-121 -762 q-13 -83 -28.5 -148.5t-41.5 -135.5t-59.5 -122.5t-84 -101.5t-113 -79.5t-148.5 -49t-189 -18.5q-99 0 -177 18t-131 49.5t-89 79.5t-54.5 101.5t-24 122.5t-1 136t17.5 148v1v1l120 760q2 13 13 23t23 10h256q12 0 19 -10t5 -23l-119 -752q-12 -75 -16 -126.5t2.5 -104.5 t28 -84.5t64 -51t107.5 -19.5q64 0 112.5 20t79.5 51.5t54.5 84.5t36 105t24.5 127l119 750q2 13 13 23t23 10h256z" />
<glyph unicode="&#xdc;" horiz-adv-x="1349" d="M690 1551q-41 0 -69 28t-28 68q0 42 28 69.5t69 27.5t69 -27.5t28 -69.5q0 -40 -28 -68t-69 -28zM979 1551q-41 0 -69.5 28t-28.5 68q0 42 28.5 69.5t69.5 27.5t69 -27.5t28 -69.5q0 -40 -28 -68t-69 -28zM1367 1434q12 0 18.5 -9.5t4.5 -23.5l-121 -762 q-13 -83 -28.5 -148.5t-41.5 -135.5t-59.5 -122.5t-84 -101.5t-113 -79.5t-148.5 -49t-189 -18.5q-99 0 -177 18t-131 49.5t-89 79.5t-54.5 101.5t-24 122.5t-1 136t17.5 148v1v1l120 760q2 13 13 23t23 10h256q12 0 19 -10t5 -23l-119 -752q-12 -75 -16 -126.5t2.5 -104.5 t28 -84.5t64 -51t107.5 -19.5q64 0 112.5 20t79.5 51.5t54.5 84.5t36 105t24.5 127l119 750q2 13 13 23t23 10h256z" />
<glyph unicode="&#xdd;" horiz-adv-x="1329" d="M632 1521l-17 52q-5 13 0 21t21 18l342 205q15 8 26.5 2.5t16.5 -20.5l43 -134q10 -30 -18 -41l-373 -121q-30 -10 -41 18zM1427 1434q16 0 23.5 -14.5t-4.5 -33.5l-581 -778l-91 -579q-2 -12 -13 -20.5t-23 -8.5h-254q-12 0 -20 8.5t-6 20.5l92 580l-331 780 q-6 17 6.5 31t27.5 14h256q28 0 47 -31l200 -489l358 489q29 31 54 31h259z" />
<glyph unicode="&#xde;" horiz-adv-x="1337" d="M965 1182q160 -1 250 -123t58 -323q-21 -133 -93 -235.5t-169 -154.5t-201 -53h-404l-41 -264q-2 -12 -12 -20.5t-22 -8.5h-256q-13 0 -20.5 8.5t-5.5 20.5l218 1374q2 13 12 22t23 9h256q12 0 19 -9.5t5 -21.5l-35 -221h418zM957 736q7 41 0.5 76.5t-37.5 63t-85 27.5 h-332l-52 -331h336q69 0 114.5 51.5t55.5 112.5z" />
<glyph unicode="&#xdf;" horiz-adv-x="1118" d="M1143 1176q-12 -76 -41 -142t-62 -109.5t-65 -79t-55 -66t-27 -54.5q-3 -22 12 -49.5t38 -55.5t44.5 -72.5t30.5 -101t-3 -142.5q-50 -320 -413 -320q-46 0 -98.5 15t-85.5 38q-22 14 -7 41l65 141q6 12 18 17t24 -1q49 -28 97 -28q36 0 64 22t36 75q11 70 -1 127 t-36.5 94.5t-49.5 71t-39.5 74.5t-7.5 87q6 37 31.5 77t59 74t66 67.5t57.5 68t30 63.5q11 66 -25 88.5t-127 22.5q-77 0 -121.5 -47t-63.5 -168l-154 -973q-5 -31 -36 -31h-245q-13 0 -20.5 8.5t-5.5 22.5l155 981v1q15 88 40 156.5t54 114.5t71 78t79 49t91 26t93.5 11 t99.5 2q116 0 198.5 -12t131.5 -35.5t75.5 -57t30.5 -76t-3 -93.5z" />
<glyph unicode="&#xe0;" d="M475 1147q-25 20 -7 45l79 118q24 28 47 4l272 -291q22 -24 9 -43l-31 -45q-20 -24 -45 -7zM1015 866q12 0 18.5 -9t4.5 -23l-127 -803q-2 -12 -12.5 -21.5t-21.5 -9.5h-179q-39 0 -51 39l-13 40q-110 -95 -244 -95q-84 0 -150 23.5t-106 65t-64.5 98t-27 122.5t6.5 139 q31 199 157.5 325t325.5 126q137 0 216 -81l29 32q30 32 54 32h184zM465 207q169 0 204 221q36 227 -133 227q-80 0 -134.5 -62t-70.5 -162q-15 -97 20.5 -160.5t113.5 -63.5z" />
<glyph unicode="&#xe1;" d="M497 935l-31 45q-13 19 9 43l273 291q23 24 47 -4l78 -118q18 -25 -6 -45l-325 -219q-25 -17 -45 7zM1015 866q12 0 18.5 -9t4.5 -23l-127 -803q-2 -12 -12.5 -21.5t-21.5 -9.5h-179q-39 0 -51 39l-13 40q-110 -95 -244 -95q-84 0 -150 23.5t-106 65t-64.5 98t-27 122.5 t6.5 139q31 199 157.5 325t325.5 126q137 0 216 -81l29 32q30 32 54 32h184zM465 207q169 0 204 221q36 227 -133 227q-80 0 -134.5 -62t-70.5 -162q-15 -97 20.5 -160.5t113.5 -63.5z" />
<glyph unicode="&#xe2;" d="M464 952q-20 -11 -29.5 -8t-6.5 22l9 60q3 16 7.5 22.5t19.5 18.5l205 169q28 24 55 24h8q27 0 48 -24l149 -169q1 -1 3.5 -4t3.5 -4t3 -3.5t2.5 -4t1.5 -3.5t1 -4v-5v-6t-1 -7l-10 -60q-6 -38 -41 -14l-191 137zM1015 866q12 0 18.5 -9t4.5 -23l-127 -803 q-2 -12 -12.5 -21.5t-21.5 -9.5h-179q-39 0 -51 39l-13 40q-110 -95 -244 -95q-84 0 -150 23.5t-106 65t-64.5 98t-27 122.5t6.5 139q31 199 157.5 325t325.5 126q137 0 216 -81l29 32q30 32 54 32h184zM465 207q169 0 204 221q36 227 -133 227q-80 0 -134.5 -62t-70.5 -162 q-15 -97 20.5 -160.5t113.5 -63.5z" />
<glyph unicode="&#xe3;" d="M367 1006q-15 6 -8 24q53 146 194 144q62 0 109 -16.5t80.5 -33.5t60.5 -17q52 0 101 51q12 12 29 4l42 -18q16 -6 8 -25q-20 -55 -64.5 -100.5t-113.5 -46.5h-2q-69 1 -135 34.5t-116 33.5q-29 0 -62.5 -13t-50.5 -38q-10 -14 -28 -5zM1015 866q12 0 18.5 -9.5 t4.5 -23.5l-127 -802q-2 -12 -12.5 -21.5t-21.5 -9.5h-179q-39 0 -51 39l-13 40q-110 -95 -244 -95q-84 0 -150 23.5t-106 65t-64.5 98t-27 122.5t6.5 139q31 199 157.5 325t325.5 126q137 0 216 -81l29 31q31 33 54 33h184zM465 207q169 0 204 221q36 226 -133 226 q-80 0 -134.5 -62t-70.5 -162q-15 -97 20.5 -160t113.5 -63z" />
<glyph unicode="&#xe4;" d="M526 984q-41 0 -69 27.5t-28 67.5q0 42 28 69.5t69 27.5t69.5 -27.5t28.5 -69.5q0 -40 -28.5 -67.5t-69.5 -27.5zM815 984q-41 0 -69 27.5t-28 67.5q0 42 28 69.5t69 27.5t69 -27.5t28 -69.5q0 -40 -28 -67.5t-69 -27.5zM1015 866q12 0 18.5 -9t4.5 -23l-127 -803 q-2 -12 -12.5 -21.5t-21.5 -9.5h-179q-39 0 -51 39l-13 40q-110 -95 -244 -95q-84 0 -150 23.5t-106 65t-64.5 98t-27 122.5t6.5 139q31 199 157.5 325t325.5 126q137 0 216 -81l28 32q30 32 55 32h184zM465 207q169 0 204 221q36 227 -133 227q-80 0 -134.5 -62t-70.5 -162 q-15 -97 20.5 -160.5t113.5 -63.5z" />
<glyph unicode="&#xe5;" d="M669 924q-94 0 -156.5 60.5t-62.5 162.5t62.5 162.5t156.5 60.5t158.5 -61t64.5 -162t-64.5 -162t-158.5 -61zM669 1231q-35 0 -53 -25t-18 -59q0 -35 18 -61t53 -26q36 0 55.5 26t19.5 61q0 33 -19.5 58.5t-55.5 25.5zM1015 866q12 0 18.5 -9t4.5 -23l-127 -803 q-2 -12 -12.5 -21.5t-21.5 -9.5h-179q-39 0 -51 39l-13 40q-110 -95 -244 -95q-84 0 -150 23.5t-106 65t-64.5 98t-27 122.5t6.5 139q31 199 157.5 325t325.5 126q137 0 216 -81l29 32q30 32 54 32h184zM465 207q169 0 204 221q36 227 -133 227q-80 0 -134.5 -62t-70.5 -162 q-15 -97 20.5 -160.5t113.5 -63.5z" />
<glyph unicode="&#xe6;" horiz-adv-x="1521" d="M1102 883q198 0 283.5 -127.5t47.5 -367.5q-2 -13 -13.5 -22t-22.5 -9h-252h-270q5 -73 45 -116.5t105 -43.5q51 0 103.5 20t84.5 50q11 9 23 7.5t19 -12.5l76 -108q8 -10 6 -22.5t-12 -20.5q-71 -60 -163.5 -93.5t-185.5 -33.5q-190 0 -300 129q-71 -64 -177 -96.5 t-207 -32.5q-162 0 -229 83t-46 213q18 116 121.5 193.5t264.5 77.5q102 0 183 -29l4 29q9 57 -21 89t-110 32q-92 0 -226 -36q-13 -4 -21.5 3t-8.5 18l-6 143q-2 26 27 35q9 5 43.5 15t112.5 21.5t161 11.5q197 0 285 -90q130 90 276 90zM899 519h267q2 70 -24 113.5 t-78 43.5q-114 0 -165 -157zM402 158q58 0 98 37t48 86q8 53 -20 85.5t-88 32.5q-51 0 -92.5 -34t-49.5 -85q-9 -53 22.5 -87.5t81.5 -34.5z" />
<glyph unicode="&#xe7;" horiz-adv-x="962" d="M581 655q-91 0 -155 -63.5t-79 -161.5q-15 -97 28 -161t134 -64q61 0 115 28t86 66q7 9 19.5 11.5t23.5 -7.5l97 -111q6 -7 5.5 -18.5t-7.5 -20.5q-59 -67 -144.5 -110t-180.5 -55l-34 -60q70 5 114 -37t31 -121q-29 -182 -241 -182q-51 0 -93.5 26t-49.5 51q-3 14 6 20 l68 54q13 9 23 -3q25 -28 64 -28q27 0 48 16.5t26 47.5q5 34 -16 49t-47 -3q-11 -8 -22 -11t-17 -1l-6 1l-73 24q-14 3 -7 20l81 139q-157 27 -248 151.5t-65 288.5q30 187 187.5 320t343.5 133q106 0 192 -38.5t135 -110.5q10 -19 -8 -39l-133 -119q-10 -8 -22.5 -8 t-18.5 10q-53 77 -160 77z" />
<glyph unicode="&#xe8;" horiz-adv-x="1026" d="M372 1147q-24 20 -6 45l78 118q24 28 47 4l273 -291q12 -14 14 -22.5t-6 -20.5l-30 -45q-20 -24 -45 -7zM573 883q222 0 312 -129.5t52 -365.5q-2 -13 -13.5 -22t-22.5 -9h-250h-323q8 -73 51 -116.5t107 -43.5q138 0 239 72q9 8 22.5 6.5t19.5 -12.5l73 -109 q14 -23 -7 -43q-72 -59 -181 -93t-217 -34q-188 0 -302 127.5t-84 319.5q16 98 68.5 183.5t125.5 143.5t159.5 91.5t170.5 33.5zM353 519h318q-2 67 -35.5 112t-96.5 45q-64 0 -111.5 -42t-74.5 -115z" />
<glyph unicode="&#xe9;" horiz-adv-x="1026" d="M394 935l-30 45q-8 12 -6 20.5t14 22.5l273 291q23 24 47 -4l78 -118q18 -25 -6 -45l-325 -219q-25 -17 -45 7zM573 883q222 0 312 -129.5t52 -365.5q-2 -13 -13.5 -22t-22.5 -9h-250h-323q8 -73 51 -116.5t107 -43.5q138 0 239 72q9 8 22.5 6.5t19.5 -12.5l73 -109 q14 -23 -7 -43q-72 -59 -181 -93t-217 -34q-188 0 -302 127.5t-84 319.5q16 98 68.5 183.5t125.5 143.5t159.5 91.5t170.5 33.5zM353 519h318q-2 67 -35.5 112t-96.5 45q-64 0 -111.5 -42t-74.5 -115z" />
<glyph unicode="&#xea;" horiz-adv-x="1026" d="M362 952q-20 -11 -30 -8t-7 22l10 60q3 16 7.5 22.5t19.5 18.5l204 169q28 24 55 24h9q26 0 47 -24l149 -169q1 -1 3.5 -4t3.5 -4t3 -3.5t2.5 -4t1.5 -3.5t1 -4v-5v-6t-1 -7l-9 -60q-6 -38 -42 -14l-191 137zM573 883q222 0 312 -129.5t52 -365.5q-2 -13 -13.5 -22 t-22.5 -9h-250h-323q8 -73 51 -116.5t107 -43.5q138 0 239 72q9 8 22.5 6.5t19.5 -12.5l73 -109q14 -23 -7 -43q-72 -59 -181 -93t-217 -34q-188 0 -302 127.5t-84 319.5q16 98 68.5 183.5t125.5 143.5t159.5 91.5t170.5 33.5zM353 519h318q-2 67 -35.5 112t-96.5 45 q-64 0 -111.5 -42t-74.5 -115z" />
<glyph unicode="&#xeb;" horiz-adv-x="1026" d="M424 984q-41 0 -69 27.5t-28 67.5q0 42 28 69.5t69 27.5t69 -27.5t28 -69.5q0 -40 -28 -67.5t-69 -27.5zM712 984q-41 0 -69 27.5t-28 67.5q0 42 28 69.5t69 27.5t69.5 -27.5t28.5 -69.5q0 -40 -28.5 -67.5t-69.5 -27.5zM573 883q222 0 312 -129.5t52 -365.5 q-2 -13 -13.5 -22t-22.5 -9h-250h-323q8 -73 51 -116.5t107 -43.5q138 0 239 72q9 8 22.5 6.5t19.5 -12.5l73 -109q14 -23 -7 -43q-72 -59 -181 -93t-217 -34q-188 0 -302 127.5t-84 319.5q16 98 68.5 183.5t125.5 143.5t159.5 91.5t170.5 33.5zM353 519h318 q-2 67 -35.5 112t-96.5 45q-64 0 -111.5 -42t-74.5 -115z" />
<glyph unicode="&#xec;" horiz-adv-x="497" d="M476 1117l-325 218q-24 20 -6 45l78 118q25 29 47 5l273 -292q12 -14 14 -22.5t-6 -20.5l-30 -45q-20 -23 -45 -6zM57 0q-12 0 -20 8.5t-6 20.5l127 802q2 15 13 25t23 10h246q13 0 20 -10t5 -25l-127 -802q-2 -12 -12 -20.5t-23 -8.5h-246z" />
<glyph unicode="&#xed;" horiz-adv-x="497" d="M218 1117q-25 -17 -45 6l-30 45q-8 12 -6 20.5t14 22.5l273 292q22 24 47 -5l78 -118q18 -25 -6 -45zM57 0q-12 0 -20 8.5t-6 20.5l127 802q2 15 13 25t23 10h246q13 0 20 -10t5 -25l-127 -802q-2 -12 -12 -20.5t-23 -8.5h-246z" />
<glyph unicode="&#xee;" horiz-adv-x="497" d="M605 1255q1 -1 3.5 -4t3.5 -4t3 -3.5t2.5 -4t1.5 -3.5t1 -4v-5v-6t-1 -7l-10 -60q-6 -38 -41 -14l-191 137l-236 -137q-20 -11 -30 -8t-7 22l9 60q3 16 7.5 22.5t19.5 18.5l205 169q29 25 55 25h8q26 0 48 -25zM440 866q13 0 20 -10t5 -25l-127 -802q-2 -12 -12 -20.5 t-23 -8.5h-246q-12 0 -20 8.5t-6 20.5l127 802q2 15 13 25t23 10h246z" />
<glyph unicode="&#xef;" horiz-adv-x="497" d="M203 1172q-41 0 -69.5 28t-28.5 68q0 42 28.5 69.5t69.5 27.5t69 -27.5t28 -69.5q0 -40 -28 -68t-69 -28zM491 1172q-41 0 -69 28t-28 68q0 42 28 69.5t69 27.5t69 -27.5t28 -69.5q0 -40 -28 -68t-69 -28zM57 0q-12 0 -20 8.5t-6 20.5l127 802q2 15 13 25t23 10h246 q13 0 20 -10t5 -25l-127 -802q-2 -12 -12 -20.5t-23 -8.5h-246z" />
<glyph unicode="&#xf0;" d="M1026 738q2 -225 -52 -382q-53 -160 -198 -266t-317 -106q-194 0 -308.5 130.5t-85.5 315.5q30 188 186.5 320.5t350.5 132.5q57 0 113 -14q-16 102 -93 196l-70 -77q-23 -23 -44 -4l-69 61q-24 21 0 45l73 82q-51 38 -104 68q-28 15 -10 39l100 151q13 20 28 20.5 t29 -10.5q78 -45 126 -80l67 75q22 24 45 4l68 -61q23 -22 0 -45l-61 -69q223 -213 226 -526zM711 430q17 107 -26 166t-120 59t-139.5 -59t-78.5 -166q-17 -106 27 -164.5t121 -58.5t138.5 58.5t77.5 164.5z" />
<glyph unicode="&#xf1;" horiz-adv-x="1130" d="M330 1006q-15 6 -8 24q53 146 194 144q62 0 109.5 -16.5t81 -33.5t60.5 -17q52 0 101 51q12 12 28 4l42 -18q16 -6 8 -25q-20 -55 -64.5 -100.5t-113.5 -46.5h-1h-1q-69 1 -135 34.5t-116 33.5q-29 0 -62.5 -13t-50.5 -38q-10 -14 -28 -5zM719 883q203 0 281.5 -103 t49.5 -282l-74 -467q-2 -14 -14.5 -22.5t-23.5 -8.5h-243q-31 0 -26 31l72 454q12 76 -22 123t-112 47q-77 0 -133 -45.5t-65 -106.5l-75 -472q-5 -31 -36 -31h-247q-29 0 -24 31l127 800q2 12 11 23.5t23 11.5h226q21 0 26 -35l11 -62q131 114 268 114z" />
<glyph unicode="&#xf2;" horiz-adv-x="1058" d="M733 928l-325 219q-24 20 -6 45l78 118q24 28 47 4l273 -291q12 -14 14 -22.5t-6 -20.5l-30 -45q-20 -24 -45 -7zM459 -16q-194 0 -308.5 130.5t-85.5 315.5q30 188 186.5 320.5t350.5 132.5q127 0 224 -60.5t142 -165t25 -227.5q-19 -121 -97 -223.5t-194 -162.5 t-243 -60zM495 207q77 0 138.5 58.5t77.5 164.5q17 107 -26 166t-120 59t-139.5 -59t-78.5 -166q-17 -106 27 -164.5t121 -58.5z" />
<glyph unicode="&#xf3;" horiz-adv-x="1058" d="M475 928q-25 -17 -45 7l-30 45q-8 12 -6 20.5t14 22.5l273 291q23 24 47 -4l78 -118q18 -25 -6 -45zM459 -16q-194 0 -308.5 130.5t-85.5 315.5q30 188 186.5 320.5t350.5 132.5q127 0 224 -60.5t142 -165t25 -227.5q-19 -121 -97 -223.5t-194 -162.5t-243 -60zM495 207 q77 0 138.5 58.5t77.5 164.5q17 107 -26 166t-120 59t-139.5 -59t-78.5 -166q-17 -106 27 -164.5t121 -58.5z" />
<glyph unicode="&#xf4;" horiz-adv-x="1058" d="M398 952q-20 -11 -30 -8t-7 22l9 60q3 16 7.5 22.5t19.5 18.5l205 169q28 24 55 24h8q27 0 48 -24l149 -169q1 -1 3.5 -4t3.5 -4t3 -3.5t2.5 -4t1.5 -3.5t1 -4v-5v-6t-1 -7l-10 -60q-6 -38 -41 -14l-191 137zM602 883q127 0 224 -60.5t142 -165t25 -227.5 q-19 -121 -97 -223.5t-194 -162.5t-243 -60q-194 0 -308.5 130.5t-85.5 315.5q30 188 186.5 320.5t350.5 132.5zM711 430q17 107 -26 166t-120 59t-139.5 -59t-78.5 -166q-17 -106 27 -164.5t121 -58.5t138.5 58.5t77.5 164.5z" />
<glyph unicode="&#xf5;" horiz-adv-x="1058" d="M300 1006q-15 6 -8 24q53 146 194 144q62 0 109.5 -16.5t81 -33.5t60.5 -17q52 0 101 51q12 12 28 4l42 -18q16 -6 8 -25q-20 -55 -64.5 -100.5t-113.5 -46.5h-1h-1q-69 1 -135 34.5t-116 33.5q-29 0 -62.5 -13t-50.5 -38q-10 -14 -28 -5zM602 883q127 0 224 -60.5 t142 -165t25 -227.5q-19 -121 -97 -223.5t-194 -162.5t-243 -60q-194 0 -308.5 130.5t-85.5 315.5q30 188 186.5 320.5t350.5 132.5zM711 430q17 107 -26 165.5t-120 58.5t-139.5 -58.5t-78.5 -165.5q-17 -106 27 -164.5t121 -58.5t138.5 58.5t77.5 164.5z" />
<glyph unicode="&#xf6;" horiz-adv-x="1058" d="M460 984q-41 0 -69.5 27.5t-28.5 67.5q0 42 28.5 69.5t69.5 27.5t69 -27.5t28 -69.5q0 -40 -28 -67.5t-69 -27.5zM748 984q-41 0 -69 27.5t-28 67.5q0 42 28 69.5t69 27.5t69 -27.5t28 -69.5q0 -40 -28 -67.5t-69 -27.5zM459 -16q-194 0 -308.5 130.5t-85.5 315.5 q30 188 186.5 320.5t350.5 132.5q127 0 224 -60.5t142 -165t25 -227.5q-19 -121 -97 -223.5t-194 -162.5t-243 -60zM495 207q77 0 138.5 58.5t77.5 164.5q17 107 -26 166t-120 59t-139.5 -59t-78.5 -166q-17 -106 27 -164.5t121 -58.5z" />
<glyph unicode="&#xf7;" horiz-adv-x="1134" d="M653 928q-53 0 -90 37.5t-37 89.5t37 89t90 37q52 0 89.5 -37t37.5 -89t-37.5 -89.5t-89.5 -37.5zM181 609q-33 0 -33 30v150q0 31 33 31h863q33 0 33 -31v-150q0 -30 -33 -30h-863zM653 249q-53 0 -90 37t-37 89t37 89.5t90 37.5q52 0 89.5 -37.5t37.5 -89.5t-37.5 -89 t-89.5 -37z" />
<glyph unicode="&#xf8;" horiz-adv-x="1058" d="M836 814q90 -61 133 -163t24 -221q-19 -121 -97 -223.5t-194 -162.5t-243 -60q-85 0 -160 28q-19 -28 -47 -28h-26q-21 0 -28 15t4 30l17 25q-89 60 -130.5 159.5t-23.5 216.5q30 188 186.5 320.5t350.5 132.5q82 0 155 -28q20 28 44 28h40q15 0 20.5 -11t-3.5 -26z M347 430q-15 -94 21 -155l249 372q-26 8 -52 8q-77 0 -139.5 -59t-78.5 -166zM711 430q16 102 -23 162l-252 -375q26 -10 59 -10q77 0 138.5 58.5t77.5 164.5z" />
<glyph unicode="&#xf9;" horiz-adv-x="1105" d="M427 1147q-25 20 -7 45l79 118q24 28 47 4l272 -291q22 -24 9 -43l-31 -45q-20 -24 -45 -7zM1053 866q12 0 20 -10t6 -25l-127 -802q-2 -12 -13 -20.5t-23 -8.5h-186q-28 0 -41 29l-35 72q-126 -117 -262 -117q-183 0 -262 99.5t-51 274.5l75 473q2 15 12 25t22 10h248 q12 0 19.5 -10t5.5 -25l-73 -459q-12 -72 21.5 -119.5t106.5 -47.5q71 0 120 44.5t60 106.5l75 475q6 35 37 35h245z" />
<glyph unicode="&#xfa;" horiz-adv-x="1105" d="M449 935l-31 45q-13 19 9 43l273 291q23 24 47 -4l78 -118q18 -25 -6 -45l-325 -219q-25 -17 -45 7zM1053 866q12 0 20 -10t6 -25l-127 -802q-2 -12 -13 -20.5t-23 -8.5h-186q-28 0 -41 29l-35 72q-126 -117 -262 -117q-183 0 -262 99.5t-51 274.5l75 473q2 15 12 25 t22 10h248q12 0 19.5 -10t5.5 -25l-73 -459q-12 -72 21.5 -119.5t106.5 -47.5q71 0 120 44.5t60 106.5l75 475q6 35 37 35h245z" />
<glyph unicode="&#xfb;" horiz-adv-x="1105" d="M416 952q-20 -11 -29.5 -8t-6.5 22l9 60q3 16 7.5 22.5t19.5 18.5l205 169q28 24 55 24h8q26 0 47 -24l150 -169q1 -1 3.5 -4t3.5 -4t3 -3.5t2.5 -4t1.5 -3.5t1 -4v-5v-6t-1 -7l-10 -60q-6 -38 -41 -14l-191 137zM1053 866q12 0 20 -10t6 -25l-127 -802q-2 -12 -13 -20.5 t-23 -8.5h-186q-28 0 -41 29l-35 72q-126 -117 -262 -117q-183 0 -262 99.5t-51 274.5l75 473q2 15 12 25t22 10h248q12 0 19.5 -10t5.5 -25l-73 -459q-12 -72 21.5 -119.5t106.5 -47.5q71 0 120 44.5t60 106.5l75 475q6 35 37 35h245z" />
<glyph unicode="&#xfc;" horiz-adv-x="1105" d="M478 984q-41 0 -69 27.5t-28 67.5q0 42 28 69.5t69 27.5t69.5 -27.5t28.5 -69.5q0 -40 -28.5 -67.5t-69.5 -27.5zM767 984q-41 0 -69 27.5t-28 67.5q0 42 28 69.5t69 27.5t69 -27.5t28 -69.5q0 -40 -28 -67.5t-69 -27.5zM1053 866q12 0 20 -10t6 -25l-127 -802 q-2 -12 -13 -20.5t-23 -8.5h-186q-28 0 -41 29l-35 72q-126 -117 -262 -117q-183 0 -262 99.5t-51 274.5l75 473q2 15 12 25t22 10h248q12 0 19.5 -10t5.5 -25l-73 -459q-12 -72 21.5 -119.5t106.5 -47.5q71 0 120 44.5t60 106.5l75 475q6 35 37 35h245z" />
<glyph unicode="&#xfd;" horiz-adv-x="1091" d="M440 935l-30 45q-8 12 -6 20.5t14 22.5l273 291q23 24 47 -4l78 -118q18 -25 -6 -45l-325 -219q-25 -17 -45 7zM1100 866q15 0 23 -12t-1 -31l-917 -1380q-10 -16 -29 -16h-233q-15 0 -22.5 12t2.5 31l416 626l-245 727q-5 13 5 28t28 15h235q22 0 30 -30l145 -441 l301 453q11 18 31 18h231z" />
<glyph unicode="&#xfe;" horiz-adv-x="1081" d="M666 883q81 0 145 -24.5t104.5 -66.5t66 -99.5t28.5 -124t-6 -138.5q-31 -194 -158 -320t-322 -126q-113 0 -188 56l-63 -396q-2 -12 -13 -21.5t-23 -9.5h-248q-12 0 -18.5 9.5t-4.5 21.5l249 1574q2 15 12 25t22 10h247q32 0 26 -35l-62 -392q93 57 206 57zM723 430 q15 99 -21 162t-115 63q-167 0 -203 -224q-35 -224 133 -224q78 0 134.5 62.5t71.5 160.5z" />
<glyph unicode="&#xff;" horiz-adv-x="1091" d="M470 984q-41 0 -69.5 27.5t-28.5 67.5q0 42 28.5 69.5t69.5 27.5t69 -27.5t28 -69.5q0 -40 -28 -67.5t-69 -27.5zM758 984q-41 0 -69 27.5t-28 67.5q0 42 28 69.5t69 27.5t69 -27.5t28 -69.5q0 -40 -28 -67.5t-69 -27.5zM1100 866q15 0 23 -12t-1 -31l-917 -1380 q-10 -16 -29 -16h-233q-15 0 -22.5 12t2.5 31l416 626l-245 727q-5 13 5 28t28 15h235q22 0 30 -30l145 -441l301 453q11 18 31 18h231z" />
<glyph unicode="&#x152;" horiz-adv-x="1923" d="M1970 1434q12 0 19 -9.5t5 -21.5l-35 -218q-2 -12 -11.5 -21t-21.5 -9h-592l-49 -307h389q12 0 20 -8.5t6 -20.5l-34 -220q-2 -12 -13 -20.5t-23 -8.5h-389l-46 -291h594q12 0 20 -9.5t6 -21.5l-35 -217q-2 -12 -12.5 -21.5t-22.5 -9.5h-729h-135q-87 -16 -153 -16h-2 q-102 0 -200.5 30t-183.5 92t-145 147.5t-85 205.5t-3 258t85 258t149.5 205.5t191.5 147.5t212.5 92t208.5 30q78 0 152 -16h241h621zM879 277l140 878q-47 14 -108 14q-175 -2 -315 -128t-172 -324q-32 -205 69 -329.5t277 -124.5q56 0 109 14z" />
<glyph unicode="&#x153;" horiz-adv-x="1585" d="M1165 883q198 0 283.5 -127.5t47.5 -367.5q-2 -13 -13 -22t-22 -9h-253h-270q5 -73 45 -116.5t105 -43.5q51 0 103.5 20t84.5 50q11 9 23 7.5t19 -12.5l76 -108q8 -10 6.5 -22.5t-11.5 -20.5q-71 -60 -163.5 -93.5t-185.5 -33.5q-181 0 -290 117q-139 -117 -320 -117 q-192 0 -293.5 128.5t-71.5 317.5q31 192 173 322.5t335 130.5q177 0 280 -118q143 118 312 118zM962 519h268q2 69 -24.5 113t-78.5 44q-114 0 -165 -157zM466 207q153 0 188 224t-117 224q-155 0 -190 -224t119 -224z" />
<glyph unicode="&#x178;" horiz-adv-x="1329" d="M696 1551q-41 0 -69.5 28t-28.5 68q0 42 28.5 69.5t69.5 27.5t69 -27.5t28 -69.5q0 -40 -28 -68t-69 -28zM984 1551q-41 0 -69 28t-28 68q0 42 28 69.5t69 27.5t69 -27.5t28 -69.5q0 -40 -28 -68t-69 -28zM1427 1434q16 0 23.5 -14.5t-4.5 -33.5l-581 -778l-91 -579 q-2 -12 -13 -20.5t-23 -8.5h-254q-12 0 -20 8.5t-6 20.5l92 580l-331 780q-6 17 6.5 31t27.5 14h256q28 0 47 -31l200 -489l358 489q29 31 54 31h259z" />
<glyph unicode="&#x2c6;" horiz-adv-x="698" d="M758 1439q1 -2 4.5 -5.5l4.5 -4.5t3 -4t2 -5t1 -5.5t0.5 -7t-1.5 -8.5l-10 -60q-6 -38 -41 -14l-191 136l-236 -136q-20 -11 -30 -8t-7 22l9 60q1 9 2.5 13.5t7 10.5t6 6.5t11.5 9.5l205 170q28 24 55 24h8q27 0 48 -24z" />
<glyph unicode="&#x2dc;" horiz-adv-x="792" d="M860 1517q16 -6 8 -25q-20 -55 -64.5 -100.5t-113.5 -46.5h-1h-1q-69 1 -135 34t-116 33q-29 0 -62.5 -13t-50.5 -38q-9 -13 -28 -4l-44 21q-16 6 -8 25q53 146 194 144q62 0 109.5 -17t81 -34t60.5 -17q52 0 101 51q13 13 28 5z" />
<glyph unicode="&#x2000;" horiz-adv-x="968" />
<glyph unicode="&#x2001;" horiz-adv-x="1937" />
<glyph unicode="&#x2002;" horiz-adv-x="968" />
<glyph unicode="&#x2003;" horiz-adv-x="1937" />
<glyph unicode="&#x2004;" horiz-adv-x="645" />
<glyph unicode="&#x2005;" horiz-adv-x="484" />
<glyph unicode="&#x2006;" horiz-adv-x="322" />
<glyph unicode="&#x2007;" horiz-adv-x="322" />
<glyph unicode="&#x2008;" horiz-adv-x="242" />
<glyph unicode="&#x2009;" horiz-adv-x="387" />
<glyph unicode="&#x200a;" horiz-adv-x="107" />
<glyph unicode="&#x2010;" horiz-adv-x="770" d="M127 454q-33 0 -28 30l23 150q5 31 38 31h524q33 0 28 -31l-24 -150q-4 -30 -38 -30h-523z" />
<glyph unicode="&#x2011;" horiz-adv-x="770" d="M127 454q-33 0 -28 30l23 150q5 31 38 31h524q33 0 28 -31l-24 -150q-4 -30 -38 -30h-523z" />
<glyph unicode="&#x2012;" horiz-adv-x="770" d="M127 454q-33 0 -28 30l23 150q5 31 38 31h524q33 0 28 -31l-24 -150q-4 -30 -38 -30h-523z" />
<glyph unicode="&#x2013;" horiz-adv-x="1110" d="M127 454q-33 0 -28 30l23 150q5 31 38 31h864q32 0 27 -31l-23 -150q-4 -30 -38 -30h-863z" />
<glyph unicode="&#x2014;" horiz-adv-x="1671" d="M127 454q-33 0 -28 30l23 150q5 31 38 31h1424q33 0 28 -31l-24 -150q-4 -30 -37 -30h-1424z" />
<glyph unicode="&#x2018;" horiz-adv-x="446" d="M424 1173q62 -14 52 -76l-26 -159q-6 -34 -39 -34h-237q-35 0 -29 34l36 228q1 10 9 20l184 309h68q14 0 21.5 -11t1.5 -25l-123 -270z" />
<glyph unicode="&#x2019;" horiz-adv-x="446" d="M514 1495q35 0 29 -34l-36 -228q-1 -10 -9 -20l-184 -310h-69q-14 0 -21.5 10.5t-0.5 25.5l123 271l-82 16q-62 14 -52 76l26 159q6 34 39 34h237z" />
<glyph unicode="&#x201a;" horiz-adv-x="468" d="M336 268q35 0 29 -34l-37 -228q-1 -12 -8 -20l-184 -310h-69q-14 0 -21.5 10.5t-0.5 25.5l122 271l-81 16q-62 14 -52 76l25 159q6 34 40 34h237z" />
<glyph unicode="&#x201c;" horiz-adv-x="897" d="M459 1173q61 -13 51 -76l-25 -159q-6 -34 -40 -34h-236q-35 0 -29 34l36 228q1 12 8 20l184 309h69q14 0 21.5 -10.5t0.5 -25.5l-122 -270zM878 1173q62 -14 52 -76l-26 -159q-6 -34 -39 -34h-237q-35 0 -29 34l36 228q1 12 8 20l185 309h68q14 0 21.5 -11t1.5 -25 l-123 -270z" />
<glyph unicode="&#x201d;" horiz-adv-x="897" d="M515 1495q35 0 29 -34l-37 -228q-1 -12 -8 -20l-184 -310h-69q-14 0 -21.5 10.5t-0.5 25.5l122 271l-81 16q-62 14 -52 76l25 159q6 34 40 34h237zM934 1495q35 0 29 -34l-36 -228q-1 -10 -9 -20l-184 -310h-69q-14 0 -21.5 10.5t-0.5 25.5l123 271l-82 16q-62 14 -52 76 l25 159q6 34 40 34h237z" />
<glyph unicode="&#x201e;" horiz-adv-x="888" d="M335 268q35 0 29 -34l-36 -228q-1 -10 -9 -20l-184 -310h-68q-14 0 -21.5 11t-1.5 25l123 271l-82 16q-62 14 -52 76l26 159q6 34 39 34h237zM754 268q35 0 29 -34l-36 -228q-1 -12 -8 -20l-184 -310h-69q-14 0 -21.5 11t-1.5 25l123 271l-82 16q-61 13 -51 76l25 159 q6 34 40 34h236z" />
<glyph unicode="&#x2022;" horiz-adv-x="436" d="M269 624q-53 0 -90 37.5t-37 89.5t37 89.5t90 37.5q52 0 89.5 -37.5t37.5 -89.5t-37.5 -89.5t-89.5 -37.5z" />
<glyph unicode="&#x2026;" horiz-adv-x="1478" d="M45 0q-32 0 -27 31l28 182q5 31 38 31h196q33 0 28 -31l-29 -182q-4 -31 -37 -31h-197zM568 0q-33 0 -28 31l29 182q5 31 38 31h196q33 0 28 -31l-29 -182q-4 -31 -38 -31h-196zM1091 0q-33 0 -28 31l29 182q5 31 37 31h197q32 0 27 -31l-28 -182q-4 -31 -38 -31h-196z " />
<glyph unicode="&#x202f;" horiz-adv-x="387" />
<glyph unicode="&#x2039;" horiz-adv-x="702" d="M657 883q19 0 22 -13.5t-11 -30.5l-326 -406l197 -406q8 -17 1.5 -30t-25.5 -13h-120q-32 0 -46 20l-239 371q-24 34 -21 51l1 4l2 10q4 22 36 52l357 370q21 21 52 21h120z" />
<glyph unicode="&#x203a;" horiz-adv-x="702" d="M592 492q24 -33 20 -52v-4l-2 -10q-4 -19 -37 -51l-356 -371q-20 -20 -53 -20h-120q-18 0 -21 13t11 30l326 406l-197 406q-8 17 -1.5 30.5t25.5 13.5h120q31 0 46 -21z" />
<glyph unicode="&#x205f;" horiz-adv-x="484" />
<glyph unicode="&#x20ac;" horiz-adv-x="1275" d="M899 1173q-118 0 -192.5 -56t-119.5 -165h266q12 0 20 -9.5t6 -21.5l-18 -114q-2 -12 -12.5 -21t-22.5 -9h-288q-7 -33 -11 -60l-8 -60h288q12 0 20 -9.5t6 -21.5l-18 -113q-2 -12 -13 -21.5t-23 -9.5h-267q9 -111 66.5 -167t176.5 -56q57 0 129 25t114 55q27 20 40 -6 l96 -186q12 -22 -15 -43q-69 -52 -181 -86t-227 -34q-240 0 -370 127t-139 371h-73q-12 0 -20 9.5t-6 21.5l18 113q2 12 13 21.5t23 9.5h53q2 20 8 60q4 27 11 60h-53q-12 0 -20 9t-6 21l18 114q2 12 12.5 21.5t22.5 9.5h73q86 244 256.5 371t410.5 127q109 0 201 -28 t148 -69q9 -7 10 -18.5t-9 -24.5l-157 -184q-23 -25 -44 -11q-85 58 -193 58z" />
<glyph unicode="&#x2122;" horiz-adv-x="1288" d="M653 1294h-125l-63 -399q-1 -12 -14 -12h-142q-13 0 -11 12l64 399h-123q-11 0 -10 12l18 115q2 13 14 13h179h98h137q10 0 8 -13l-18 -115q-1 -12 -12 -12zM1344 1434q12 0 10 -13l-83 -526q-1 -12 -14 -12h-142q-13 0 -12 12l36 230l-159 -239q-10 -12 -20 -12h-13h-4 q-10 0 -14 12l-82 237l-37 -228q-2 -12 -16 -12h-140q-12 0 -10 12l83 526q2 13 12 13h118h36q12 0 17 -13l85 -274l173 274q8 13 21 13h89h66z" />
<glyph unicode="&#x25fc;" horiz-adv-x="870" d="M0 870h870v-870h-870v870z" />
<glyph unicode="&#xfb03;" horiz-adv-x="1775" d="M1720 866q12 0 20 -9t6 -21l-128 -807q-2 -12 -12 -20.5t-23 -8.5h-246q-12 0 -20 8.5t-6 20.5l96 603h-283l-145 -914q-5 -30 -35 -30h-246q-13 0 -20.5 8t-5.5 22l145 914h-81h-210l-145 -914q-5 -31 -36 -31h-245q-13 0 -20.5 8.5t-5.5 22.5l145 914h-81q-12 0 -19 9 t-5 21l28 174q2 12 11.5 21t21.5 9h81l19 118v1q70 439 486 439q172 0 267 -57q21 -12 23 -13q119 96 316 96q216 0 356 -100q26 -19 4 -43l-126 -141q-20 -23 -41 -11q-80 62 -175 62q-169 0 -202 -213l-22 -138h559zM854 866l13 81q16 115 10 162t-36 64q-30 18 -85 18 q-76 0 -117 -52.5t-58 -161.5l-18 -111h291z" />
<glyph unicode="&#xfb04;" horiz-adv-x="1818" d="M1863 1450q12 0 20 -10t6 -23l-220 -1386q-2 -13 -13 -22t-23 -9h-247q-12 0 -19 9t-5 22l157 994l-8 -5q11 68 -3 113t-73 71v1q-32 12 -67 12q-76 0 -116.5 -52t-58.5 -161l-22 -138h128q12 0 20 -9t6 -21l-28 -174q-2 -12 -12.5 -21t-22.5 -9h-128l-145 -914 q-5 -31 -35 -31h-246q-13 0 -20.5 8.5t-5.5 22.5l145 914h-81h-220l-145 -914q-5 -31 -35 -31h-246q-13 0 -20.5 8.5t-5.5 22.5l145 914h-81q-12 0 -19 9t-5 21l28 174q2 12 11.5 21t21.5 9h81l19 118v1q70 439 486 439q164 0 263 -55q13 -6 32 -18q119 99 317 99 q87 0 160 -21q37 -5 52 10l2 -6q10 17 28 17h248zM864 866l14 87q14 113 6.5 156.5t-36.5 60.5l-3 1q-41 20 -89 20q-76 0 -117 -52.5t-58 -161.5l-18 -111h301z" />
</font>
</defs>
</svg>
