<?xml version="1.0" encoding="UTF-8"?>
<svg width="50px" height="50px" viewBox="0 0 50 50" version="1.1" xmlns="http://www.w3.org/2000/svg" xmlns:xlink="http://www.w3.org/1999/xlink">
    <!-- Generator: Sketch 46.2 (44496) - http://www.bohemiancoding.com/sketch -->
    <title>github-icon</title>
    <desc>Created with Sketch.</desc>
    <defs></defs>
    <g id="Page-1" stroke="none" stroke-width="1" fill="none" fill-rule="evenodd">
        <g id="github-icon" fill="#3D3B37">
            <path d="M29.7862075,37.8988327 L29.7862075,31.80439 C29.7862075,30.2817989 29.260384,29.2880363 28.6878503,28.7823186 C32.2538412,28.37856 36,26.9987119 36,20.7343371 C36,18.9520899 35.3780869,17.4974716 34.3517969,16.3541689 C34.5172845,15.9436131 35.0657958,14.2837169 34.1943167,12.037895 C34.1943167,12.037895 32.8517318,11.5987906 29.794215,13.7100263 C28.5156898,13.3484109 27.1437442,13.1676032 25.7824752,13.160806 C24.4212062,13.1676032 23.0519298,13.3484109 21.7747392,13.7100263 C18.7145532,11.5987906 17.3692991,12.037895 17.3692991,12.037895 C16.4991546,14.2837169 17.047666,15.9436131 17.2144881,16.3541689 C16.1895327,17.4974716 15.5636159,18.9520899 15.5636159,20.7343371 C15.5636159,26.9851173 19.3031018,28.3839979 22.8610852,28.7959131 C22.4019906,29.20375 21.986937,29.9229024 21.8441372,30.9764811 C20.9299517,31.3938342 18.6117907,32.114346 17.1837929,29.6211031 C17.1837929,29.6211031 16.3363362,28.0550094 14.7281704,27.9394557 C14.7281704,27.9394557 13.1653802,27.9190638 14.618735,28.9304993 C14.618735,28.9304993 15.6677129,29.4321387 16.3963922,31.3190641 C16.3963922,31.3190641 17.3239235,34.2310195 21.7787429,33.2426948 L21.7787429,37.8988327 C23.5845854,38.6329442 24.9191628,39 25.7824752,39 C26.6457876,39 27.980365,38.6329442 29.7862075,37.8988327 Z" id="github"></path>
        </g>
    </g>
</svg>