<?xml version="1.0" encoding="UTF-8"?>
<svg width="50px" height="50px" viewBox="0 0 50 50" version="1.1" xmlns="http://www.w3.org/2000/svg" xmlns:xlink="http://www.w3.org/1999/xlink">
    <!-- Generator: Sketch 46.2 (44496) - http://www.bohemiancoding.com/sketch -->
    <title>linkedin-icon</title>
    <desc>Created with Sketch.</desc>
    <defs></defs>
    <g id="Page-1" stroke="none" stroke-width="1" fill="none" fill-rule="evenodd">
        <g id="linkedin-icon" fill-rule="nonzero" fill="#3D3B37">
            <g id="linkedin" transform="translate(14.000000, 13.000000)">
                <path d="M5,2.5 C5,3.881 3.88104839,5 2.5,5 C1.11895161,5 0,3.881 0,2.5 C0,1.12 1.11895161,0 2.5,0 C3.88104839,0 5,1.12 5,2.5 Z M5,7 L0,7 L0,23 L5,23 L5,7 Z M12.9723508,7.47836449 L8,7.47836449 L8,23 L12.9733517,23 L12.9733517,14.8521115 C12.9733517,10.3217341 19.0076317,9.95115505 19.0076317,14.8521115 L19.0076317,23 L24,23 L24,13.1718944 C24,5.52748893 15.0701864,5.80590827 12.9723508,9.56893478 L12.9723508,7.47836449 Z" id="Shape"></path>
            </g>
        </g>
    </g>
</svg>